<svg viewBox="0 0 20 20" xmlns="http://www.w3.org/2000/svg">
<path d="M10.11 2.23999C9.19941 2.23999 8.32595 2.60104 7.68111 3.244C7.03627 3.88697 6.67268 4.75938 6.67003 5.66999C6.67003 6.58234 7.03246 7.45731 7.67758 8.10244C8.32271 8.74756 9.19768 9.10999 10.11 9.10999C11.0224 9.10999 11.8974 8.74756 12.5425 8.10244C13.1876 7.45731 13.55 6.58234 13.55 5.66999C13.5474 4.75938 13.1838 3.88697 12.5389 3.244C11.8941 2.60104 11.0206 2.23999 10.11 2.23999V2.23999ZM10.11 17.7C12.91 17.7 15.38 16.34 16.95 14.27C15.38 12.19 12.91 10.83 10.11 10.83C7.31003 10.83 4.85003 12.19 3.28003 14.27C4.07438 15.3324 5.10502 16.1953 6.29044 16.7906C7.47585 17.3859 8.78353 17.6973 10.11 17.7V17.7Z" fill="#5C5F62"/>
</svg>
