<?xml version="1.0" standalone="no"?>
<!DOCTYPE svg PUBLIC "-//W3C//DTD SVG 20010904//EN"
 "http://www.w3.org/TR/2001/REC-SVG-20010904/DTD/svg10.dtd">
<svg version="1.0" xmlns="http://www.w3.org/2000/svg"
 width="512.000000pt" height="512.000000pt" viewBox="0 0 512.000000 512.000000"
 preserveAspectRatio="xMidYMid meet">
<metadata>
Created by potrace 1.14, written by Peter Selinger 2001-2017
</metadata>
<g transform="translate(0.000000,512.000000) scale(0.100000,-0.100000)"
fill="#000000" stroke="none">
<path d="M2220 5104 c-743 -104 -1386 -509 -1802 -1133 -193 -292 -324 -622
-390 -988 -21 -115 -23 -158 -23 -423 0 -265 2 -308 23 -423 47 -261 119 -481
232 -712 320 -653 919 -1146 1625 -1340 251 -69 346 -80 675 -80 265 0 308 2
423 23 365 66 698 198 990 392 524 348 897 863 1062 1465 69 251 80 346 80
675 0 265 -2 308 -23 423 -47 261 -119 481 -232 712 -320 653 -919 1146 -1625
1340 -235 64 -340 78 -640 81 -198 2 -298 -1 -375 -12z m-1030 -2379 l0 -685
1370 0 1370 0 0 685 0 685 165 0 166 0 -3 -722 -3 -723 -26 -56 c-34 -72 -96
-134 -168 -168 l-56 -26 -1445 0 -1445 0 -56 26 c-72 34 -134 96 -168 168
l-26 56 -3 723 -3 722 166 0 165 0 0 -685z"/>
</g>
</svg>
