<?xml version="1.0" encoding="utf-8"?>
<svg version="1.1" id="Layer_1" xmlns="http://www.w3.org/2000/svg" xmlns:xlink="http://www.w3.org/1999/xlink" x="0px" y="0px"
	 viewBox="0 0 400 400" style="enable-background:new 0 0 400 400;" xml:space="preserve">
<defs><style>path{fill:#F2F2F2;}</style></defs>
<g>
	<path d="M277.8,360.8c0.1-0.2,0.4-0.3,0.6-0.3c1.4-0.1,2.5-1,3.6-1.7c0.8-0.5,1.6-0.8,2.4-1.3c1.9-1.3,3.7-2.6,5.6-4
		c0.5,0.3,0.9,0.5,1.2,0.7c1.7-1.1,3.2-2,4.8-3.1c0.3-0.2,0.7-0.5,0.9-0.9c0.5-1.1,2-2.9,2.9-3.3c0.5-0.2,1.1-0.2,1.7-0.4
		c-0.4-0.9-0.4-0.9,0.8-1.1c-0.3,0.4-0.5,0.7-0.7,1c0.5-0.4,1.2-0.8,1.4-1.3c0.8-1.8,2.6-2.4,4-3.3c0.9-0.6,2-1,3-1.5
		c0.3-0.2,0.8-0.6,0.8-0.9c-0.2-1.7,1.1-2,2.2-2.3c0.7-0.2,1-0.6,1.2-1.2c0.5-1.3,1.5-2.1,2.8-2.6c0.4-0.2,0.8-0.4,1.1-0.6
		c2.1-1.8,4.1-3.7,6.2-5.6c0.6-0.5,1.3-0.9,1.9-1.4c0.5-0.1,0.6,1.2,1.4,0.4c-0.8-1.5,0-2.5,1.2-3.5c1.4-1.1,2.7-2.3,3.7-3.9
		c1.4-1.9,3-3.6,4.5-5.5c0.5-0.6,1.1-1.1,1.2-1.7c0.2-1.1,1-1.6,1.7-2.2c1.2-1.2,2.6-2.2,3.3-3.7c1.8-2.8,3.5-5.8,5.7-8.3
		c0.6-0.7,1.2-1.3,1.8-2c0.2-0.2,0.2-0.5,0.3-0.8c0.1-0.5,0.2-0.9,0.4-1.4c1.1-3.5,3.9-6.1,5.2-9.4c0.1-0.2,0.3-0.3,0.4-0.4
		c0.8-1.1,1.8-2.1,2.4-3.3c0.9-2.1,1.7-4.3,2.7-6.4c1.7-3.2,3.6-6.3,5.8-9.3c0.6-0.7,0.9-1.7,1.2-2.5c0.9-2.5,0.8-5.2,0.8-7.8
		c0-1.1,0.1-2.2,0.6-3.1c0.8-1.2,0.6-2.8,2-3.8c0.1-0.1,0.2-0.2,0.1-0.3c-0.6-1.2,0.3-2.1,0.4-3.2c0.2-1.9,0.7-3.8,1.1-5.7
		c0.1-0.6,0.3-1.4,0.7-1.9c1.3-1.6,1.7-3.6,2.4-5.4c0.8-1.9,0-4,0.6-6c0.4-1.3,0.3-2.6,0.4-4.3c-0.7-0.6-0.7-1.8-0.5-2.7
		c0.5-2,0-4.4,1.2-6.3c0.2-0.3,0-0.8,0.1-1.3c0.1-0.6,0.3-1.2,0.5-1.9c0.8,0.4,0.1,1.9,1.4,1.5c-0.1-1.7-0.2-3.2-0.2-4.9
		c-0.1,0-0.2,0-0.2,0c-0.1,0.5-0.2,1-0.3,1.6c-0.4,0-0.9,0-1.9,0.1c1.2-1.1,0.6-1.8,0.1-2.7c0.8-0.2,1.5-0.3,2.4-0.5
		c-0.6-3.9,0.4-7.7,0.5-11.6c0-4.6-0.7-8.9-1-13.5c0-0.2-0.2-0.4-0.4-1c-0.2,1.1-0.3,1.8-0.5,2.8c-1.3-4.1-1.3-4.1-0.9-5.6
		c0.3,0.5,0.7,1,1,1.5c0.1-0.1,0.3-0.1,0.4-0.2c-0.4-2.2-0.7-4.6-1.1-6.9c-0.5,0.2-0.9,0.3-1.2,0.5c-0.3-0.8-0.7-1.5,0-2.1
		c0.3,0.3,0.5,0.6,0.8,0.9c0.1,0,0.3-0.1,0.4-0.1c-0.1-0.8-0.1-1.6-0.2-2.3c-0.2-1.4-0.3-2.8-0.5-4.3c-0.1-0.4-0.1-0.8-0.3-1.2
		c-1.4-4.1-2.9-8-4.3-12c-0.4-1.3-0.7-2.5-1.1-3.8c-0.1-0.4-0.4-0.7-0.6-1.1c-0.1,0-0.2,0.1-0.3,0.1c0,0.7,0,1.5,0,2.1
		c-0.1,0-0.2,0-0.4,0c-1-2-2.1-4-1.1-6.2c-0.4,0-0.8,0-1.1,0.1c-0.4-0.8-0.7-1.4-1-2c-0.2-0.4-0.3-0.9-0.4-1.4
		c-0.2-0.9-0.5-1.7-0.7-2.5c-0.3-0.9-0.7-1.7-1-2.4c-1.1-2.9-2-6.1-3.2-8.9c-1.2-2.5-2.8-5-4.2-7.3c-0.4-0.7-0.9-1.4-1.3-2.1
		c-1.6-2.8-3.1-5.8-4.7-8.5c-1.4-2.2-2.9-4.4-4.4-6.6c-0.2-0.3-0.4-0.6-0.5-0.9c-1.6-3.5-4.1-6.1-6.9-8.7c-0.3-0.3-0.7-0.6-1-1
		c-1.3-1.6-2.5-3.1-3.8-4.8c-2.7-3-5.4-6.1-8.2-8.9c-1-1.1-2.4-1.8-3.5-2.7c-2.6-2.3-5.1-4.8-7.6-7.2c-0.4-0.4-0.8-0.7-1.2-1.1
		c-1.5-1.2-3.1-2.3-4.4-3.8c-2-2-4.4-3.2-6.9-4.7c-3.2-1.7-6.3-3.6-9.4-5.5c-1.6-1-3-2.1-4.9-2.4c-1.1-0.2-2.2-0.4-3.2-0.7
		c-0.2,0-0.5-0.1-0.6-0.2c-0.7-1-1.4-0.4-2.3,0.1c-0.8-2.2-2.6-3.2-4.7-4.1c-1.2-0.5-2.3-1.5-3.3-2.1c-0.6-0.4-1.2-0.6-1.8-0.9
		c-0.5-0.3-1.1-0.4-1.6-0.8c-1.2-0.9-2.3-1.8-3.3-2.6c-0.5-0.4-0.8-0.9-1.6-0.7c-2.4,0.5-4.5-0.4-6.7-1.3c-0.6-0.2-1.1-0.5-1.7-0.6
		c-2.6-0.7-5.2-1.3-7.7-2c-1-0.3-2.1-0.7-3.1-1.1c-1.7-0.5-3.5-0.8-5.1-1.6c-1.6-0.8-3.2-1.5-5.1-1.7c-2.3-0.4-4.5-1.4-6.9-1.4
		c-0.9,0-1.8-0.6-2.7-0.9c-0.5-0.2-1-0.4-1.6-0.4c-1.7,0-3.2,0.4-4.9-0.6c-0.4-0.2-1,0.1-1.6,0.1c-0.5,0-1,0.2-1.4,0
		c-2-1-4.1-0.8-6.2-0.4c-1,0.2-2,0.5-3,0.5c-1.9-0.1-3.7-0.4-5.6-0.7c-0.3,0-0.6-0.1-0.9,0c-1.7,0.5-3.2,0-4.8-0.3
		c-0.9-0.1-1.8-0.1-2.7,0.1c-1,0.2-2,0.3-3.1,0c-1.9-0.5-3.8-0.9-5.8-0.4c-0.5,0.1-1.1,0-1.6,0c-1.8,0-3.6-0.2-5.4,0
		c-2.9,0.2-5.8,0.6-8.7,1c-1.3,0.2-2.6,0.3-4,0.5c-1.3,0.2-2.6,0.6-3.9,0.7c-3.2,0.1-6.3,1.2-9.3,2.2c-3,1-5.8,2.4-9,2.6
		c-0.9,0-1.9,0.5-2.7,0.9c-3,1.5-6,2.9-9.3,3.7c-0.9,0.2-1.7,0.9-2.5,1.3c-1.4,0.7-2.7,1.3-4.1,1.9c-1,0.4-2,0.9-3,1.3
		c-1.1,0.5-2.1,1.2-3.2,1.3c-2.1,0.1-3.6,1.1-4.8,2.5c-1.8,2.3-4.2,3.7-7,4.4c-1.7,0.4-3.2,0.9-4.7,1.8c-2.9,1.9-5.9,3.6-7.6,6.7
		c-0.6,1.2-1.7,1.6-3,1.7c-0.8,0.1-1.7,0.2-2.4,0.6c-1.4,0.8-2.8,1.8-4,2.7c-4.5,3.6-8,8-12.6,11.5c-0.4,0.3-0.6,0.7-0.9,1.1
		c-1.3,1.6-2.5,3.2-4,4.7c-3.6,3-6.6,6.7-9.3,10.6c-1,1.5-2.2,2.7-3.2,4.2c-2.3,3-4.7,6-6.7,9.2c-1.9,3-3.6,6.2-5,9.6
		c-0.9,2.3-2.5,4.6-3.7,6.7c-0.5,0.8-0.9,1.7-1.4,2.4c-1.7,2.9-2.5,6.4-4.5,9.2c-0.4,0.6-0.6,1.5-0.8,2.1c-0.9,3-1.8,6.1-2.8,9.1
		c-1.2,3.3-2.5,6.7-3.7,10.2c-0.5,1.5-0.7,3-0.9,4.6c-0.3,2.2-0.5,4.6-1.6,6.6c-0.6,1.2-1,2.5-0.8,3.8c0.3,2-0.3,3.7-0.7,5.5
		c-0.5,2.8-0.8,5.8-1.1,8.5c-0.2,2.3-0.4,4.8-0.5,7.1c0,0.2-0.1,0.4-0.1,0.5c-0.1,1-0.3,1.9-0.4,2.8c-0.1,1.7-0.1,3.3-0.2,5.1
		c0,0.8-0.1,1.5,0.5,2.1c0.3,0.3,0.4,1,0.2,1.3c-0.9,1.7-0.7,3.5-0.4,5.3c0.2,1.1,0.3,2.2,0.3,3.3c0.1,2.1,0.1,4.4,0.4,6.4
		c0.3,2,0.9,4.2,2.3,6.1c1,1.4,1.3,3,0.5,4.8c-0.3,0.5-0.4,1.2-0.4,1.8c0.1,2.1,0.1,4.5,0.5,6.6c0.6,4,1.4,7.9,2.2,11.9
		c0.2,1.2,0.8,2.1,1.2,3.3c0.5,1.6,0.9,3.2,1.4,4.9c1.1,3.6,2.4,7.2,3.5,10.8c0.6,1.9,1,3.9,2.3,5.5c0.2,0.3,0.3,0.7,0.4,1
		c0.5,1.1,1,2.1,1.5,3.2c0.6,1.4,1.4,2.6,1.8,4.2c0.2,0.9,0.5,1.6,1.2,2.1c0.3,0.2,0.6,0.5,0.7,0.8c0.8,1.6,1.5,3.1,2.4,4.7
		c1.2,2,2.3,4.3,3.6,6.1c1.2,1.8,2.8,3.5,4.1,5.3c0.3,0.5,0.7,1.1,0.7,1.6c0.1,1.1,0.6,1.9,1.4,2.3c1.4,0.8,1.9,2,2.2,3.6
		c0.4,2,1.4,3.6,3.2,4.6c0.8,0.5,1.6,1.1,2.3,1.8c2.6,2.8,5.2,5.9,7.8,8.7c0.4,0.4,0.6,0.9,0.9,1.4c0.6,0.9,1,1.9,1.6,2.7
		c0.8,1.2,1.8,2,3.3,2.2c1,0.1,1.7,0.6,2.4,1.2c0.4,0.4,1,0.7,1.4,1.1c0.5,0.4,0.9,0.9,1.3,1.4c1.9,2.1,3.3,4.7,5.8,6.4
		c1.3,0.9,2.7,2,3.6,3.2c1.3,2,2.2,4.1,4.5,5.2c0.1,0.1,0.2,0.2,0.3,0.3c1.7,1.2,3.1,2.5,5.3,2.8c2.2,0.3,3.7,1.9,5.5,2.9
		c0.3,0.2,0.5,0.5,0.6,0.9c1.1,2.5,3.3,3.8,5.9,4.9c0.4,0.2,1,0.3,1.4,0.2c2.3-0.5,4.2,0.8,6,1.6c2.2,1.1,4.2,2.6,6.2,4.1
		c0.6,0.4,1.3,1,1.8,1.6c1.7,2,3.8,3.2,6.2,4.2c1.5,0.6,3,1.3,4.5,1.9c0.5,0.2,1,0.4,1.6,0.4c2.2-0.1,4.2,0.8,6.2,1.4
		c2.8,0.9,5.5,1.9,8.2,2.7c1,0.4,2.1,0.6,3.1,1.1c1.3,0.7,2.7,1,4.2,1.1c1.2,0.1,2.4,0.5,3.5,0.7c2.2,0.5,4.5,1.2,6.7,1.5
		c2.1,0.2,4.2,0.6,6.2,1.1c1.2,0.3,2.5,0.7,3.6,0.4c4.5-1.3,8.8,0.5,13.2,0.6c0.1,0,0.1,0,0.2,0.1c2.6,1,5.3,0.9,7.9,0.9
		c5.1-0.1,10.2-0.7,15.4-1c0.4,0,0.7,0.1,1.1,0c1.1,0,2.3,0.1,3.3-0.2c2.6-0.5,5.1-1,7.7-1.4c6.3-0.9,12.4-2.8,18.5-4.7
		c2.7-0.8,5.4-1.8,8.2-2.1c1-0.1,2.2-0.2,2.7-1.3c0.4-0.8,1.1-1,1.9-1.2c0.6-0.2,1.6-0.4,1.7-0.8c0.5-1.4,1.6-1.2,2.7-1.4
		c1.1-0.2,2.2-0.4,3.2-0.7c0.5-0.1,1-0.3,1.6-0.3c0.8-0.1,1.6-0.3,2-1.1c0.6-1.2,1.6-1.5,2.8-1.8C275.9,362.1,277,361.8,277.8,360.8
		z M377.8,170.6c0.6,0.8,0.4,1.6-0.4,2.2c0-0.8-0.1-1.5-0.1-2.2C377.4,170.6,377.6,170.6,377.8,170.6z M377.2,167.1
		c-1-0.7-1-0.8-0.7-2.3C377.4,165.3,376.8,166.5,377.2,167.1z M376.1,163.6c-0.2-0.9-0.3-1.7-0.5-2.3c-0.3-0.6-0.7-1.2-1.1-1.8
		c0.2-0.3,0.4-0.6,0.7-1.3c-0.7,0.1-1.1,0.2-1.6,0.3c0.1-0.6,0.3-1.2,0.4-1.9C376.5,158,377.3,160.6,376.1,163.6z M371.9,148.8
		c0.2,0,0.4,0,0.7,0c0.4,1.8,0.8,3.6,1.2,5.4c-1.6-0.8-1.5-2.3-2-3.8C371.7,149.9,371.9,149.3,371.9,148.8z M350,109.9
		c0.2,1.1-0.7,1.2-1.5,1.5c-0.5-1-1-1.9-1.5-2.8C348.2,108.5,349.9,109.2,350,109.9z M279.6,43.1c0.2,0.2,0.3,0.3,0.3,0.4
		c0,0.1-0.2,0.2-0.3,0.3c-0.1-0.1-0.3-0.2-0.3-0.4C279.3,43.4,279.5,43.3,279.6,43.1z M270.1,356.3c-1,0.7-2.2,1-3.2,1.4
		c-0.8,0.3-1.7,0.6-2.6,0.9c-3,1.1-6,2.1-9,3.2c-1.4,0.5-2.8,0.9-4.1,1.4c-0.3,0.1-0.4,0.5-0.4,0.5c-1,0-1.9-0.2-2.8-0.1
		c-2.4,0.2-4.5,1.2-6.7,2c-0.5,0.2-1.2,0.3-1.7,0.5c-4.4,0.9-8.8,1.8-13.2,2.5c-1,0.2-2.2,0.1-3.2-0.1c-1.2-0.1-2.2-0.2-3.2,0.6
		c-0.5,0.3-1.3,0.4-1.9,0.3c-1.5-0.2-3-0.2-4.5,0.3c-0.4,0.2-1,0.1-1.4,0.1c-3.6,0-7.3-0.1-10.9-0.2c-1.3,0-2.7-0.1-4,0.1
		c-3.8,0.4-7.5-0.7-11.2-0.8c-0.7,0-1.4,0-2.1,0.1c-0.4,0-0.7,0-1.1,0c-4.7-0.6-9.3-1.2-14-1.9c-2-0.3-3.9-0.6-5.9-1
		c-0.7-0.1-1.3-0.5-2-0.8c-0.2-0.1-0.3-0.2-0.5-0.2c-2.4-0.7-4.8-1.3-7.2-2c-0.3-0.1-0.8-0.1-1-0.3c-2.9-2.1-6.1-3.3-9.5-4.3
		c-0.2,0-0.4-0.1-0.5-0.2c-2.8-1.8-6-2.4-9-3.8c-2.6-1.2-5.5-1.9-7.7-4c-0.3-0.3-0.7-0.5-1-0.8c-1.8-2.2-4.6-3.2-7-4.7
		c-0.4-0.2-0.8-0.4-1.2-0.4c-1.8,0-3.2-0.9-4.7-1.8c-2.9-1.7-5.7-3.7-8.5-5.6c-1.5-1-3-2-4.5-3c-0.5-0.4-1-0.8-1.6-1.3
		c0.3-0.2,0.4-0.4,0.5-0.4c3.1-0.2,6.3-0.4,9.5-0.5c1.1,0,2.3,0.4,3.3,0.6c2.6,0.4,5.2,0.9,7.7,1c4,0.2,7.8,1.3,11.6,2
		c1.6,0.3,3.2,1.1,4.8,1.8c1.3,0.6,2.6,0.7,3.9,0.7c4.3,0.1,8.5-0.4,12.6-1.5c5.9-1.7,11.8-3.1,17.6-5.1c3.6-1.2,7.1-2.8,10.6-4.3
		c3.8-1.6,7.3-3.9,10.6-6.3c1.8-1.4,3.6-2.8,5.3-4.4c0.4-0.3,0.7-0.8,1.1-1.2c1.1-1.3,2-2.6,3.9-3c0.2,0,0.5-0.4,0.6-0.6
		c0.7-1.3,1.5-2.5,2.1-4c0.5-1.3,0.8-2.6,1.3-4c1.4-3.6,2-7.3,2.4-11.1c0.1-1.3,0.6-2,2-2.3c2.7-0.6,4.8-2.2,6.6-4.4
		c1.3-1.5,1.6-1.6,3.1-1.9c0.3,5.2,1.9,10,4.4,14.5c-2.9,1.3-3.6,4.1-4.6,6.5c-1.7,4-3.2,8-3.9,12.4c-0.4,3-0.3,6.1,0.7,9.1
		c0.8,2.3,2.6,3.7,5.1,4.1c2.6,0.4,4.9-0.1,6.3-2.5c0.7-1.1,0.9-2.3,0.6-3.7c-0.4-1.6-1.7-2.4-3.3-2.1c-0.1,0-0.2,0.1-0.4,0.1
		c-2.9,0.6-4.7-0.6-4.8-3.6c-0.1-2,0-4.2,0.5-6.1c1-4.1,2.7-7.8,4.6-11.6c0-0.1,0.2-0.1,0.3-0.3c0.7,0.7,1.5,1.4,2.2,2
		c1.2,1.2,2.6,2.1,4.3,2.5c3.2,0.7,6.3,1.7,9.5,2.1c2.4,0.4,5,0.1,7.5,0.1c3.1,0,6-0.8,8.9-1.5c3.1-0.8,6.2-1.5,9.4-1.9
		c3-0.4,5.5-1.8,8.2-2.9c4.2-1.9,8-4.5,11.7-7.2c1.6-1.3,3.2-2.4,5-3.6c2.6-1.8,4.1-4.2,4.3-7.3c0.1-1.3,0.4-2.5,0.6-4
		c0.2-1.3,0.2-2.4-1-3.5c-0.3-0.2-0.5-0.7-0.5-1.1c-0.6-3-2.8-5.2-5-6.8c-3.8-2.8-8.2-4.6-13-5.3c-5.9-0.9-11.3,0.5-16.4,2.9
		c-3.9,1.9-7.7,3.9-11.1,6.5c-4.4,3.3-8.5,7.1-12,11.5c-0.5,0.6-0.9,1.1-1.4,1.7c-1.1,1.2-1.6,1.3-2.9,0.2c-1.5-1.2-2.4-2.8-3.2-4.6
		c-1-1.9-1.8-3.9-2.6-5.8c-0.5-1.1-0.7-2.1-0.2-3.5c0.4-0.9,0.1-2,0.1-3c-0.9-0.7-1.4-0.1-1.8,0.4c-1.4,1.4-2.8,2.8-4.3,4.2
		c-0.7,0.6-1.6,1.3-2.5,1.5c-3,0.6-5.9,1.3-8.9,1.5c-1.8,0.1-3.6-0.3-5.3-0.9c-3.2-1.1-6.5-2.5-8.6-5.5c-0.1-0.2-0.3-0.4-0.4-0.5
		c-1.2,0-1.8,0.8-2.2,1.6c-2.1,3.2-4.3,6.5-5.6,10.2c-0.6,1.7-0.4,3,0.8,4.4c1.5,1.7,3,3.5,4.6,5.2c2.9,3,5,6.6,6,10.8
		c0.3,1.2,0.2,2-0.7,2.9c-2.1,2-4.3,3.7-6.8,5.1c-0.5,0.3-1,0.8-1.5,1.2c-0.3,0.3-0.7,0.5-1,0.7c-1,0.4-1.9,0.7-2.9,1.1
		c-7.4,3.1-15,5.9-22.7,8c-5.6,1.6-11.3,2.6-17,3.5c-3.2,0.5-6.3,1.3-9.5,1.8c-5.5,0.9-10.9,1.6-16.3,2.3c-3.1,0.4-6.1,0.9-9.2,1.2
		c-3.1,0.3-6.2,0.5-9.3,0.8c-1.5,0.1-3,0.2-4.5,0.5c-1.4,0.3-2.6-0.1-3.7-0.9c-0.4-0.3-0.9-0.7-1.4-0.8c-1.3-0.3-2.3-1-3.1-2
		c-0.5-0.6-1.2-1-1.8-1.4c-1.2-0.6-2.1-1.4-2.5-2.6c-0.4-1.2-1.2-2.1-2.4-2.8c-0.9-0.5-1.6-1.1-1.9-2c-0.2-0.4-0.5-0.9-0.8-1.2
		c-2.4-2-4.1-4.6-6.1-6.8c-0.4-0.4-0.9-0.9-1.5-1c-1-0.3-1.4-1-1.8-1.8c-0.3-0.7-0.6-1.3-1-1.9c-0.5-0.9-1-1.8-1.6-2.5
		c-0.6-0.9-1.4-1.8-2.1-2.6c-1.5-1.9-3.2-3.7-4.7-5.5c-1-1.3-2-2.6-2.9-4.1c-0.1-0.1-0.2-0.3-0.3-0.5c-1.3-4.2-3.9-7.7-5.6-11.6
		c-1.1-2.4-2.7-4.8-3.7-7.2c-0.9-2.1-1.8-4.5-3-6.5c-0.7-1.3-1.2-2.7-2.9-3.2c-0.7-0.2-0.9-0.9-0.8-1.7c0.1-1.4-0.2-2.7-1.2-3.9
		c-0.3-0.3-0.4-0.7-0.5-1.1c-0.4-2.2-0.8-4.6-1.1-6.9c-0.1-0.9-0.2-1.8-0.1-2.6c0.4-2-0.6-3.8-1.3-5.6c-0.7-1.9-1.4-3.7-1.5-5.7
		c-0.2-2.2-0.9-4.6-1.3-6.8c-0.2-0.8-0.2-1.7-0.3-2.4c-0.1-0.7,0-1.4-0.5-2c-0.4-0.5-0.4-1.3-0.4-1.9c-0.3-2.2,0-4.7-0.9-6.9
		c-0.1-0.3,0-0.6,0-0.9c-0.1-1.7,0-3.2-0.6-5c-0.6-1.5-0.3-3,0.2-4.7c0.4-1.3,0.1-2.5,0.2-3.9c0.1-2.5,0-5.2-0.7-7.6
		c-0.1-0.4,0.2-0.9,0.4-1.4c0.9-2,1.4-4.1,0.3-6.1c-0.4-0.9-0.2-1.7,0.2-2.5c0.3-0.8,0.4-1.7,0.7-2.5c0.1-0.4,0.2-0.8,0.4-1.2
		c0.3-0.7,0.7-1.4,0.8-2.1c0.3-2,0.5-4.1,0.5-6.1c0-1.9,0.3-3.6,1.2-5.3c0.3-0.7,0.7-1.4,0.8-2.1c0.1-1.6,0.8-2.8,1.4-4.3
		c0.4-1.1,1-2.1,1.2-3.3c0.2-1,0.5-1.8,1.7-2.1c-1.1-1.3-0.7-2.5-0.3-3.8c1.4-3.9,2.8-7.7,4.3-11.6c0.6-1.5,1.4-2.8,2.1-4.4
		c0.8-1.6,1.3-3.3,2.2-4.9c1.3-2.1,2.3-4.5,3.2-6.8c0.4-1.2,1.2-2.4,2.1-3.3c1.6-1.5,2.3-3.3,3.2-5.2c0.6-1.2,1.2-2.3,1.9-3.5
		c2.3-3.8,4.6-7.6,7.1-11.3c1.7-2.4,3.6-4.9,5.4-7.2c3.2-4.3,7.2-7.9,11.3-11.5c1.4-1.3,2.4-2.8,3.1-4.6c0.4-0.9,0.9-1.8,1.8-2.1
		c1.9-0.7,3.2-2.1,5-3.2c1.8-1.2,3.2-2.7,4.6-4.3c2.1-2.1,4.5-4.1,7.1-5.6c1.8-1.1,3.6-2.1,5-3.8c1.6-1.8,3.7-2.6,5.7-3.8
		c2-1.2,4-2.2,6.2-2.9c1.5-0.5,2.8-1.4,4.2-2.1c1.7-1,3.2-2,5.1-2.8c1.4-0.6,2.9-0.9,4.3-1.3c1.6-0.5,3.2-0.9,4.9-1.5
		c0.6-0.2,1-0.6,1.5-1c3.3-2.5,6.9-4.6,11.2-5.2c3.1-0.5,6.2-1,9.2-2.1c1.5-0.6,3.2-0.6,4.8-1c4.5-0.9,9.1-1.7,13.6-2.5
		c3.8-0.7,7.6-0.9,11.4-1.1c2.2-0.1,4.4-0.2,6.5-0.3c1.1-0.1,2.2-0.1,3.2-0.1c4.3,0.1,8.6,0.3,12.9,0.4c1.2,0,2.3-0.2,3.1-1.3
		c0.5-0.7,1.3-0.8,2.1-0.7c1.6,0.2,2.9,0.9,4.1,1.9c0.9,0.8,2,1.3,3.2,1.6c4.1,1,8.1,2,12.2,2.8c5,1.1,9.5,3,14.2,5.1
		c4.2,1.9,8.3,4,12.1,6.5c2.5,1.7,5.4,2.5,8.4,3.3c5.1,1.5,10,2.8,14.8,5.4c6.2,3.3,12,7.2,17.8,11.2c2.7,1.9,5.1,4.3,7.8,6.1
		c1.5,1.1,2.8,2.1,4,3.7c3.3,4.2,7.3,8,10.7,12.3c2.6,3.2,4.9,6.8,8.2,9.6c0.3,0.2,0.5,0.6,0.7,0.9c2.3,3.3,5.3,6.2,7.3,9.9
		c1,1.9,2.7,3.5,3.6,5.5c1.7,3.8,3.9,7.3,6,10.9c0.6,1.1,1,2.2,1.4,3.6c0.9,3,1.9,6.2,2.5,9.4c0.5,2.5,1.3,4.9,2.8,7.1
		c1,1.6,1.5,3.6,2.2,5.4c0.1,0.3,0.3,0.6,0.3,0.9c-0.1,2.3,0.8,4.5,1.3,6.7c0.9,3.7,1.5,7.4,2.5,11.1s1.2,7.4,1.8,11.2
		c0.1,0.4,0.1,0.8,0.2,1.3c0.3,1.6,0.4,3.1,0.1,4.9c-0.3,1.5-0.2,2.9-0.3,4.5c-0.1,1.8-0.3,3.5-0.2,5.3c0.1,2.7,0.4,5.6,0.6,8.2
		c0.1,1.1,0.1,2.1-0.1,3.1c-0.3,2.2-0.9,4.5-1,6.7c-0.2,2.9-0.2,6.1-0.1,9c0,2,0.2,4.2,0.4,6.2c0,0.2,0.1,0.5,0,0.7
		c-0.4,2.8-0.7,5.8-1.1,8.5c-0.4,2.7-1,5.5-2.2,7.9c-0.6,1.2-1.1,2.3-1.7,3.6c-0.2,0.4-0.5,0.8-0.6,1.3c-0.9,2.9-1.8,6-2.8,8.9
		c-0.5,1.6-1.2,2.9-1.7,4.6c-0.7,2-1.4,4.1-2.1,6.1c-0.8,2.5-1.8,5-3.7,6.9c-1.4,1.6-2.3,3.3-3,5.4c-0.5,1.3-1.2,2.4-1.8,3.8
		c-0.2,0.4-0.6,0.8-0.7,1.3c-0.7,3.1-3.6,5.1-4.7,7.9c-0.2,0.5-0.6,0.9-1,1.3c-1.3,1.7-2.7,3.1-3.7,5.1c-1.3,2.3-3.1,4.5-4.8,6.5
		c-0.2,0.3-0.5,0.6-0.8,0.8c-2.8,2-4.8,4.7-7.1,7.2c-1.5,1.7-3.2,3.3-4.7,5c-0.3,0.4-0.7,0.7-1,1.1c-2.7,3.6-6.2,6.3-9.5,9.4
		c-0.8,0.7-1.4,1.7-2.2,2.2c-2.3,1.7-4.7,3.1-7,4.9c-4,2.9-8,6.1-12.1,9c-1.2,0.8-2.6,1.4-3.8,2c-1.1,0.6-2.1,1.1-3.2,1.7
		c-0.5,0.3-1,0.7-1.6,0.8C275.9,352.7,273,354.5,270.1,356.3z M240.2,290.8c0.6-0.8,1-1.3,1.4-1.8c3.8-4.2,8.2-7.4,13.5-9.6
		c1.8-0.7,3.6-1.3,5.4-2c1.2-0.5,2.4-0.9,3.5-1.6c1.3-0.7,2.4-0.7,3.8,0c1.7,0.9,3.5,1.6,5.3,2.2c3.2,1.4,5.6,3.6,7.4,6.4
		c0.8,1.3,0.7,1.5-0.6,2.2c-2.9,1.7-6,2.7-9.3,3.6c-2.1,0.5-4.2,1-6.4,1.5c-7.4,1.6-14.9,2-22.3-0.3
		C241.5,291.4,241,291.2,240.2,290.8z"/>
	<path d="M392.3,224.2c-0.8-1.6-0.1-3.1,0-4.8c0.2-2.4,0.5-4.9,0.6-7.3c0.1-1.6,0.2-3,0.2-4.7c0-1.5-0.8-2.8-0.1-4.4
		c0.1-0.2,0-0.6-0.1-0.9c-0.6-1.4-0.5-2.7,0-4.3c0.2-0.6,0.5-1.3,0.5-1.9c0-2.4,0.2-4.9,0.6-7.3c0.2-1.8,0.1-3.6,0.2-5.4
		c0.2-2.3-0.4-4.7-0.8-6.9c-0.4-2.1-1.3-4.3-1.4-6.5c0-1,0.1-2,0.5-2.9c0.4-0.9,0.7-1.7,0.5-2.5c-0.4-1.4-0.9-2.6-1.3-4.1
		c-0.3-0.8-0.5-1.7-0.7-2.5c-0.2-1.2,0.1-2.6-0.4-3.7c-1.6-3.1-1.3-6.8-3.2-9.9c-0.2-0.3-0.2-0.7-0.2-1.1c-0.5-3.2-1.3-6.4-2.8-9.5
		c-0.1-0.3-0.2-0.6-0.3-0.9c-1.1-2.9-1.5-6.1-3.2-9c-0.5-0.8-0.8-1.7-1.4-2.4c-0.4-0.5-0.8-1.2-0.9-1.8c-0.3-3.1-1.9-6-3-8.8
		c-0.8-2-1.8-4.1-3.1-5.9c-0.6-0.8-1-1.8-1.4-2.6c-1.1-2.4-2.4-4.9-4-7c-2.5-3.3-4.8-6.9-7.2-10.4c-1.6-2.2-3.2-4.6-5-6.8
		c-0.2-0.2-0.4-0.4-0.7-0.6c-0.6-0.6-1.3-1.1-1.9-1.7c-1.8-2-3.8-3.9-6.4-5c-0.5-0.2-0.9-0.7-1.1-1.1c-0.8-1.3-1.6-2.5-2.4-3.8
		c-2.5-3.5-5.4-6.5-9.1-8.6c-0.8-0.5-1.6-1.2-2.3-1.8c-0.8-0.7-1.5-1.4-2.3-2c-2.6-2-5.3-4.1-7.8-6.1c-0.7-0.6-1.3-1.4-2-2
		c-1-1-1.7-2.3-3.2-2.8c-1.9-0.6-4-1.3-5.6-2.4c-2.7-2-5.7-3.3-8.5-5.2c-1.6-1.1-3.3-1.9-5.2-2.4c-1.9-0.7-3.1-2.4-5.2-2.5
		c-1.8-2-4.9-2.1-6.8-4.1c-0.2-0.2-0.6-0.3-0.8-0.2c-0.7,0.1-0.9-0.4-1.3-0.7c-1.1-0.9-2.2-1.9-3.5-2.4c-1.3-0.5-2.5-0.9-3.7-1.7
		c-1-0.6-2.1-1.3-3.2-1.4c-1.9-0.2-3.3-1-4.8-2c-1.1,0-2.1,0.2-3.1,0c-2-0.5-4-1.2-6-1.9c-1.4-0.5-2.8-1.2-4.2-1.7
		c-0.5-0.2-1.2,0-1.6-0.3c-0.7-0.5-1.3-0.6-2-0.5c-0.4,0.1-0.8,0-1.2-0.1c-0.8-0.1-1.6-0.3-2.4-0.5c-0.7-0.1-1.4-0.2-2.1-0.4
		c-2.8-1.1-5.6-2-8.7-2c-0.4,0-0.8-0.2-1.2-0.3c-1-0.3-2-0.7-3.2-0.4c-0.5,0.1-1.2-0.3-1.8-0.6c-0.8-0.4-1.6-0.9-2.4-1.1
		c-1.5-0.4-3-0.6-4.4-1c-2.3-0.6-4.6-1.1-7-1c-1.1,0.1-2.3-0.2-3.3-0.2c-1,0-1.9,0.2-3,0.4c-0.5-0.1-1.2-0.2-1.9-0.2
		c-1.7,0-3.5,0.3-5.1-0.1c-2.2-0.6-4.3-0.2-6.5-0.3c-2.2-0.1-4.4,0.5-6.7,0.6c-2.3,0.1-4.7,0.1-7.1,0.1c-1,0-2-0.2-3.1-0.1
		c-2.6,0.1-5.2,0.3-7.8,0.5c-1.2,0.1-2.3,0.7-3.5,0.8c-1.3,0.1-2.4-0.3-3.6-0.2c-2.2,0.3-4.4,0.8-6.6,1.4c-2,0.5-3.9,1.3-5.9,1.9
		c-1.1,0.3-2.2,0.6-3,1.6c-0.2,0.3-0.7,0.4-1.1,0.5c-2.4,0.6-4.8,1.3-7.2,1.9c-0.4,0.1-0.8,0.3-1.2,0.5c-1.8,0.8-3.6,1.8-5.5,2.2
		c-3.2,1-6.3,2.2-9.3,4c-1.6,0.9-3.2,1.6-5,2c-1.3,0.4-2.5,0.8-3.6,1.6c-1.2,0.9-2.5,1.9-4.1,1.8c-1.9-0.2-3.3,0.8-4.5,2
		c-1.2,1.2-2.3,1.9-3.6,2.6c-0.8,0.4-1.5,1-2.3,1.4c-1.2,0.6-2.5,1.2-3.8,1.7c-1.8,0.7-3.6,1.3-5.4,2c-0.9,0.3-1.8,0.8-2.5,1.3
		c-0.5,0.4-1,1-1.1,1.5c-0.3,1.5-1,2.5-2,3.8c-1.2,1.4-2.6,2-4.4,2.2c-0.7,0.1-1.3,0.2-1.9,0.5c-1.1,0.5-2.1,1.2-3.2,1.6
		c-0.6,0.2-0.9,0.4-1.2,0.9c-0.8,1.5-2,2.6-3.3,3.5c-2.1,1.2-3.8,2.7-5.4,4.6c-0.9,1-1.8,1.9-2.8,2.7c-1.8,1.6-3.7,3-5,5.2
		c-0.5,0.8-1.2,1.6-1.9,2.1c-2.8,2-5.4,4.5-7.6,7.2c-1.9,2.3-3.9,4.6-5.7,6.9c-1.1,1.4-2.3,2.8-2.9,4.6c-0.8,2.1-2.2,3.9-3.6,5.6
		c-2.5,3-4.3,6.5-5.7,10.2c-0.8,2-1.3,4.3-3.2,5.8c-0.4,0.3-0.5,0.8-0.8,1.2c-0.9,1.7-1.9,3.3-2.8,5.1c-0.8,1.6-1.6,3-2.3,4.7
		c-0.9,1.8-1.7,3.6-2.6,5.4c-0.4,0.9-1,1.9-1.2,2.7c-0.5,2.4-2.2,4.8-2,7.4c0,0.2-0.2,0.4-0.3,0.6c-1.6,3.2-3,6.5-3.8,10.1
		c-1.1,5-1.7,10.1-2.5,15.1c-0.5,3.3-1.6,6.6-1.8,10.1c-0.1,2.3-0.8,4.8-1.2,7c-0.5,2.3-1.1,4.7-1.4,7c-0.7,4.4-1.8,8.7-1.4,13.2
		c0.1,1.1-0.1,2.1-0.1,3.2c-0.1,1.3-0.4,2.4-0.3,3.8c0.4,3.7,0.4,7.3,0.1,11C5,216,6,217.9,7.9,219.4c1.7,1.4,2.2,3.2,1.5,5.5
		c-0.7,2.1-1.5,4.4-1.6,6.8C7.7,235,8,238.3,9,241.3c0.2,0.6,0.3,1.3,0.4,1.9c0.6,3.8,1.3,7.4,2.9,11c1,2.1,1.8,4.5,2,6.9
		c0.2,2.2,1.1,4.3,2.1,6.3c0.8,1.5,1.4,3,2,4.6c0.5,1.2,1,2.2,2.2,2.9c0.6,0.3,0.9,0.9,1.1,1.6c0.4,1.3,0.8,2.4,1.5,3.7
		c0.8,1.3,1.6,2.4,2.1,4c0.4,1.1,1.1,2,1,3.3c0,0.2,0.1,0.4,0.2,0.5c1.1,2,2.4,3.9,3.2,6c1.2,2.7,3,5.1,5.1,7.1
		c0.4,0.4,0.8,0.9,1.1,1.5c0.6,1,1.1,2.1,1.8,3.1c1,1.4,2.3,2.6,2.3,4.6c2,4,3.9,7.8,7.3,10.9c0.4,0.4,0.7,0.8,1,1.3
		c1.2,1.9,2.6,3.3,4.7,4.4c1.4,0.7,2.5,1.7,3.2,3c1.1,2,2.2,3.9,3.2,5.9c0.6,1.2,1.6,1.8,2.9,1.8c1.2,0,2.3,0,3.5-0.1
		c1.6-0.1,2.1-0.9,1.4-2.2s-1.6-2.8-2.6-4.1c-1-1.3-2.4-2.1-3.5-3.5c-1.3-1.5-2.4-3.1-3.5-4.9c-1.2-1.7-2.3-3.6-3.5-5.3
		c-2.4-3.5-5.2-6.6-7-10.5c-0.6-1.4-1.5-2.7-2.4-4.1c-2.2-2.8-3.9-6.1-5.4-9.4c-1-2.3-2.2-4.6-3.8-6.4c-0.4-0.5-0.6-1-0.9-1.6
		c-0.9-1.8-1.7-3.6-2.6-5.4c-1.3-2.4-2.8-4.9-3.6-7.6c-0.7-2.4-2.1-4.8-3.2-7c-0.5-1.2-1.2-2.2-1.6-3.3c-1-3.1-1.9-6.4-2.8-9.7
		c-0.4-1.5-0.6-3-1-4.6c-0.4-1.8-0.8-3.6-1.4-5.3c-1.4-3.7-2.8-7.3-3.3-11.2c-0.9-5.3-1.7-10.6-2.4-15.8c-0.4-3.1-1-6.3-0.3-9.5
		c0.2-0.8,0-1.6,0-2.3c0-4-0.1-7.9,0-11.9c0.1-2.9,0.7-5.9,0.4-8.8c-0.1-0.8,0.1-1.7-0.3-2.4c-0.3-0.6-0.2-1.2,0.2-1.9
		c0.4-0.7,0.7-1.4,0.8-2.1c0.5-2.7,1.1-5.6,0.8-8.3c0-0.4,0.2-0.8,0.3-1.2c0.2-0.6,0.4-1.2,0.5-1.7c0.4-1.8,0.8-3.7,1.3-5.5
		c0.3-1.2,0.6-2.2,0.3-3.6c-0.3-0.9-0.2-2,0.7-2.6c1.5-1.2,2.3-2.6,2.5-4.6c0.3-2,0.5-4.2,1.5-6.1c0.4-0.8,0.2-2,0.3-2.9
		c0.1-0.9,0-2,0.6-2.6c1-1.1,1-2,0.5-3c-0.1-0.3,0-0.6-0.1-0.9c0.5-0.3,1.2-0.5,1.3-0.7c0.1-1.3,1.3-1.6,1.8-2.5
		c0.4-0.8,0.9-1.5,1-2.2c0.2-1.3,0.6-2.3,1.3-3.6c0.8-1.4,1.6-2.8,2.4-4.3c2.6-4.4,4.5-9.1,7.6-13.2c0.3-0.3,0.4-0.7,0.6-1.1
		c0.7-1.7,1.2-3.5,2-5.1c1.5-2.7,3.1-5.4,4.7-8c0-0.1,0.1-0.1,0.1-0.1c1.6-1.3,2.4-3.1,3.2-5c0.8-1.6,1.7-3.1,2.9-4.6
		c0.6-0.7,0.8-1.8,1.3-2.4c0.6-0.8,1.6-1.3,2.3-2c0.9-1,1.5-2.3,2.5-3.2c2.3-2,3.8-4.7,5.5-7.1c2.3-3.2,5-6,8-8.6
		c1.8-1.6,3.7-2.9,5.1-4.9c1.2-1.6,2.8-2.3,4.2-3.6c1-0.9,2.3-1.5,3.3-2.2c3.2-2.2,6.2-4.9,9.6-6.7c0.8-0.4,1.6-1,2.2-1.6
		c2.2-2.1,4.6-3.9,7.5-5c1-0.4,1.8-1,2.7-1.4c1.2-0.6,2.5-1.2,3.8-1.8c1.4-0.6,2.8-1.1,4.1-1.8c2.4-1.4,4.6-2.8,7-4.3
		c0.5-0.3,1.1-0.5,1.7-0.6c3.6-0.6,7-1.7,10-3.6c2-1.2,3.6-2.9,6.2-3c1.3-1.1,3-1.6,4.6-2.1c1-0.3,2.1-0.5,3.1-0.7
		c2.2-0.4,4.5-0.4,6.6-1.1c2.4-0.8,4.8-1.2,7.2-1.7c2.2-0.4,4.3-1.1,6.5-1.6c0.9-0.2,1.9-0.3,2.9-0.5c1.9-0.4,3.8-0.4,5.7-0.9
		c3.2-1,6.8-1.4,10.3-1.3c2.1,0.1,4.2-0.3,6.3-0.4c3-0.2,6-0.4,9.1-0.6c2.2,1,4.5,0.4,6.8,0.4c1.6,0,3.1,0.3,4.7,0.4
		c0.5,0,1.1-0.1,1.6-0.1c2.1,0.2,4.3,0.5,6.4,0.8c2.5,0.4,5,0.7,7.5,1.3c2.3,0.5,4.6,1.2,7,1.2c0.6,0,1.2,0.2,1.8,0.3
		c1.2,0.3,2.5,0.7,3.7,0.9c4.4,0.9,8.8,1.7,13.2,2.6c1.4,0.3,2.9,1,4.1,1.8c2.3,1.5,4.8,2.4,7.5,3.1c2.1,0.6,4.3,0.9,6.3,1.8
		c2.2,1,4.6,1.6,6.8,2.3c2,0.7,4,1.7,5.9,2.6c1.1,0.6,2,1.4,3,2c3.3,1.8,6.6,4.1,10.2,5.4c1.3,0.4,2.5,1,3.7,1.6
		c1,0.5,1.9,1.1,2.7,1.8c0.8,0.6,1.4,1.5,2.2,2c2.1,1.7,4.3,3.2,6.5,5c0.4,0.3,0.9,0.6,1.4,0.9c2.2,1.7,4.3,3.2,6.5,5
		c0.7,0.6,1.3,1.3,2,1.9c2.4,2,4.9,3.8,7.2,5.8c1.7,1.6,3.2,3.5,4.8,5.2c0.8,0.9,1.6,2,2.5,2.8c1.7,1.7,3.2,3.3,4.5,5.5
		c0.4,0.8,1.1,1.4,1.7,2c2.1,2.5,4.3,5.1,6.4,7.6c1.2,1.5,2.4,2.9,3.6,4.5c1.5,1.8,3.2,3.5,4.6,5.4c2.1,2.8,4.1,5.8,6,8.8
		c2.6,4.2,5.1,8.5,7.5,12.8c0.9,1.6,1.8,3.3,2.3,5.1c0.6,2,0.9,4.1,1.1,6.1c0.1,1.3,0.6,2.4,1.2,3.6c0.9,1.5,2.2,2.9,1.9,5
		c0,0.1,0.1,0.2,0.1,0.3c0.8,2.1,1.6,4.5,2.3,6.6c0.5,1.4,1,2.7,1.2,4.2c0.6,3.8,1.7,7.3,2.2,11.1c0.3,2.4,1,4.9,1.6,7.2
		c0.9,3.7,1.8,7.2,2,11c0.1,1.1,0.1,2.2,0.4,3.3c0.6,2.6,0.7,5.4,0.1,8c-0.2,1.2-0.5,2.4-0.1,3.6c0.4,1.1-0.2,1.7-0.2,2.5
		s0.4,1.7,0.5,2.5c0,0.2-0.2,0.4-0.2,0.7c0,1-0.2,2,0,2.9c0.2,0.8,0.4,1.6,0.3,2.3c-0.1,0.4,0,0.9,0,1.3c0.7,3.3,0.2,6.6-0.5,9.8
		c-1.1,5.1-0.8,10.2-0.5,15.2c0.1,2.1,0.5,4.4,0.4,6.4c-0.2,2.9-0.7,5.9-1.1,8.7c-0.3,2.1-1,4.4-1.2,6.5c-0.1,1.2-0.6,2.2-0.9,3.5
		c-0.4,1.4-0.9,2.6-1.4,4.1c-0.1,0.4-0.3,0.8-0.4,1.2c-1.4,3-2.8,6.2-4.2,9.3c-0.4,0.9-0.7,1.8-1,2.6c-0.7,2-1.8,4-2.2,6.1
		c-0.6,3.2-2.2,6-3.8,8.7c-0.7,1.1-1.6,2.1-2.3,3.2c-0.7,0.9-1.4,1.9-1.9,2.8c-1.2,2.5-2.6,5.1-3.5,7.7c-1,2.9-3,5.4-4.7,7.9
		c-1,1.6-2.3,3-3.3,4.7c-2.2,3-4.2,6.1-6.4,9.1c-1,1.4-2.2,2.5-3.2,3.8c-1.5,1.5-3,2.9-4.5,4.5c-0.8,0.8-1.3,2-2.1,2.6
		c-2.6,2.2-4.3,5.5-7.3,7.2c-0.2,0.1-0.3,0.4-0.5,0.5c-2,2-4,4.2-6,6.2c-2.3,2.3-5.2,4.4-7,7.2c-0.7,1.1-1.8,1.9-3.1,2.1
		c-1.6,0.4-2.8,1.3-4,2.3c-0.6,0.5-1.2,1.1-1.8,1.5c-2.3,1.5-4.8,2.8-7.1,4.5c-1,0.7-2.1,1.5-2.8,2.5c-0.6,1-1.3,1.7-2.3,2
		c-1.1,0.4-2.3,0.6-3.5,1c-0.7,0.2-1.5,0.5-2.1,0.9c-2.2,1.4-4.3,2.9-6.9,3.6c-0.3,0.1-0.6,0.2-0.8,0.3c-1.7,0.9-3.2,1.7-5,2.5
		c-0.5,0.3-1.2,0.6-1.4,1.1c-0.5,1-1,1.9-2,2.3c-0.2,0.1-0.1,0.5-0.2,0.9c0.5,0.1,0.8,0.2,1.1,0.1c1.2-0.4,2.4-0.9,3.5-1.5
		c1.7-1,3.3-2,5.1-3c0.4-0.3,1.1-0.6,1.5-0.4c1.6,0.6,2.7-0.3,3.9-1c2.3-1.4,4.6-2.6,6.9-4c0.8-0.4,1.5-0.8,1.9-1.6
		c0.2-0.4,0.6-1,0.9-1c1.1-0.2,1.8-0.9,2.7-1.4c3-1.5,5.6-3.3,8-5.7c0.4-0.4,1-0.7,1.5-1c0.8-0.5,1.6-1,2.4-1.6
		c1.3-0.9,2.5-2,3.8-2.7c1.3-0.8,2.2-1.8,3.2-2.7c1.6-1.6,3.1-3.2,5-4.5c1.4-0.9,2.6-2.1,3.9-3.1c1-0.7,2-1.4,3-2
		c1.1-0.7,2.4-1.2,3.3-2c1.5-1.3,2.8-2.6,4.1-4.1c1.5-1.6,3-3.2,4-5.4c0.4-0.9,1.3-1.6,1.9-2.3c1.4-1.7,2.7-3.3,4.1-5.1
		c0.5-0.6,1.1-1.3,1.7-1.8c1-1,2.2-1.9,3.1-3c1.9-2.4,3.5-5.3,5.3-7.7c1.5-2,2.4-4.6,4.3-6.4c0.4-0.4,0.5-1.1,0.8-1.6
		c0.8-1.6,1.5-3.1,2.5-4.6c1.2-1.9,2.6-3.6,3.8-5.6c1.4-2.3,2.7-4.9,3.9-7.3c1.3-2.7,2.2-5.6,3.5-8.3c0.4-0.8,1.1-1.4,1.6-2.1
		c0.3-0.4,0.7-0.8,0.8-1.2c0.5-1.8,0.9-3.6,1.4-5.4c0.6-2.1,1-4.5,1.8-6.5c0.9-2,0.6-4.6,2.2-6.3c0.1-0.1,0.1-0.4,0-0.5
		c-0.7-1-0.1-1.8,0.3-2.6c0.4-0.8,0.7-1.7,0.8-2.5c0.4-2.2,0.8-4.6,1.2-6.8c1.2-0.3,1.3-0.3,1.6-1.1c0.2-0.6,0.4-1.3,0.6-1.9
		c0.4-1.3,0.7-2.5,1.3-3.7c1-1.6,0.8-2.9-0.4-4.7c0,0.7,0,1.1,0,1.5c0,0.5,0.2,1,0,1.4c-0.6,2-1.3,4.3-1.9,6.3
		c-0.1,0.3-0.2,0.6-0.4,0.9c-0.1-2.5,0.5-5.1-0.2-7.5c0-0.1,0.1-0.3,0.2-0.5c0.3-1.1,0.6-2.1,0.8-3.2c0.1-0.8,0.2-1.7,0.9-2.1
		c0.2-0.7,0.5-1.5,0.7-2.1C392.1,224.7,392.4,224.4,392.3,224.2z"/>
	<path d="M264.5,381.4c-0.1,0.2-0.7,0.4-1.1,0.5c-0.3,0.1-0.7-0.1-1.1-0.1c-2.3,0.5-4.6,1-6.9,1.6c-2.3,0.6-4.6,1.5-7,1.8
		c-3.7,0.5-7.4,1.4-10.9,2.5c-2.1,0.7-4.1,0.8-6.3,0.9c-1.3,0-2.6,0.3-3.9,0.4c-1.7,0.2-3.2,0.5-5,0.6c-2,0.1-4.1,0.1-6.1,0.2
		c-1.2,0.1-2.4,0.3-3.6,0.3c-5.2,0.3-10.3-0.3-15.6,0.2c-0.3,0-0.7-0.1-1-0.3c-2.4-0.9-5-1-7.5-0.9c-1,0-1.9,0.1-2.9,0.1
		c-3.1-0.1-6.3-0.3-9.4-0.5c-0.8-0.1-1.7-0.2-2.5-0.4c-2.4-0.5-4.7-1.4-7.2-1c-0.2,0-0.5-0.1-0.7-0.1c-3.5-0.5-7-1.2-10.3-2.3
		c-3.1-1-6.3-1.6-9.3-2.9c-2.2-1.1-4.6-1.8-7-2.5c-0.7-0.2-1.5-0.4-2.3-0.3c-0.9,0.1-1.5-0.2-2-0.9c-0.4-0.5-0.9-0.9-1.5-1.2
		c-0.8-0.5-1.7-0.9-2.6-1.2c-1.2-0.3-2.5-1-4-0.4c0-1.6,0-1.5-1.3-1.6c-0.8-0.1-1.7-0.4-2.2-1c-0.8-0.9-1.7-1.3-2.7-1.7
		c-2-0.7-3.8-1.6-5.3-3c-1.1-1.2-2.4-2-3.8-2.7c-0.9-0.4-1.6-1-2.5-1.5c-1-0.6-2-1.3-3.1-1.6c-3.7-0.9-7-2.6-10-4.8
		c-1.7-1.1-3.3-2-5-3.2c-1.3-0.9-2.5-2-3.8-3c-1.2-1-2.5-1.9-3.7-2.8c-0.9-0.7-1.6-1.5-2.5-2c-1.6-1.1-3-2.1-4.3-3.7
		c-0.2-0.2-0.4-0.5-0.7-0.6c-0.8-0.4-1.6-0.7-2.4-0.2c-0.8,0.5-1,1.3-0.5,2.3c0.3,0.7,0.7,1.4,1.2,2c0.7,0.8,1.5,1.6,2.3,2.2
		c1.2,1.1,2.2,2.3,2.8,4c0.2,0.6,0.5,1.3,1,1.7c2.3,2,4.9,3.8,7.9,4.7c1.2,0.4,2.4,0.9,3.3,1.6c1.7,1.3,3.2,2.6,4.8,4.1
		c0.4,0.3,0.8,0.6,1.2,0.8c2.5,1.2,4.8,2.6,7.6,3.3c1.9,0.5,3.6,1.5,5.4,2.1c1.5,0.6,3,1.2,4.2,2.3c0.2,0.2,0.4,0.2,0.6,0.4
		c2,1.2,4.1,2.1,5.5,4.3c1.8,2.5,4.9,3.1,7.6,4.2c2.3,0.9,4.6,1.9,7.2,1.9c0.3,0,0.7,0.2,1,0.4c2.9,1,5.5,3,8.8,3
		c0.2,0,0.3,0.1,0.5,0.2c2.5,1.3,5.5,0.8,7.8,2.5c0.3,0.2,0.9,0.1,1.4,0.2c1.7,0.2,3.3,0.2,5,1c0.4,0.2,0.9,0.2,1.4,0.4
		c1.2,0.3,2.3,0.6,3.5,0.9c0.3,0.1,0.7,0.3,1,0.3c2.7,0.3,5.4,0.6,8.1,0.9c1.6,0.2,3.1,0.5,4.6-0.2c0.4-0.2,0.8-0.2,1.3-0.1
		c3.3,0.2,6.9,0.4,10.2,0.6c0.3,0,0.6,0.1,0.9,0.3c3.2,1.3,6.7,1.1,10,1.2c3.3,0,6.8-0.2,10.1-0.3c1.1-0.1,2.3-0.3,3.3-0.5
		c1.5-0.3,2.9-0.6,4.5-0.2c0.9,0.2,1.9,0.1,2.9-0.1c1.2-0.3,2.4-0.9,3.6-1.1c2.2-0.3,4.5-0.4,6.7-0.7c2-0.3,4.1-0.7,6-1.3
		c3.2-0.9,6.1-2.5,9.5-2.8c0.5,0,0.9-0.4,1.3-0.5c1.8-0.7,3.5-1.6,5.3-1.9c2.1-0.4,4.2-1,6.3-1.5c0.8-0.2,1.6-0.8,2.4-1.2
		c1.1-0.7,2.3-1.3,3.3-2c0.4-0.2,0.7-0.5,1.2-0.9C266.3,380,265,379.4,264.5,381.4z"/>
	<path d="M391.3,227.2c0.1,0.5,0.2,1.1,0.3,1.7c2.5-1.3,2.8-1.9,2-4.7C393.1,225.4,392.6,226.6,391.3,227.2z"/>
	<path d="M391.2,227.2L391.2,227.2L391.2,227.2L391.2,227.2L391.2,227.2L391.2,227.2L391.2,227.2L391.2,227.2
		C391.3,227.2,391.2,227.2,391.2,227.2L391.2,227.2z"/>
	<path d="M394.3,211.3c0.1,1.2,0.3,2.4,0.4,3.7C395.3,213.4,395.3,213.4,394.3,211.3z"/>
	<path d="M394.9,207c-0.2,0-0.4,0-0.5,0c-0.1,0.8-0.5,1.6,0.4,2.3C394.8,208.7,394.9,207.8,394.9,207z"/>
	<path d="M394,220.6c0.1,0,0.1,0,0.2,0c0-0.8,0-1.7,0-2.4c-0.1,0-0.1,0-0.2-0.1C394,219,394,219.8,394,220.6z"/>
	<path d="M321.9,330.5c0.2-0.1,0.4-0.1,0.5-0.2c0.2-0.1,0.3-0.4,0.5-0.5c-0.1-0.1-0.1-0.1-0.2-0.2c-0.3,0.2-0.6,0.5-1,0.7
		C321.8,330.4,321.8,330.5,321.9,330.5z"/>
	<path d="M386.1,257.2c0.1,0.1,0.1,0.1,0.2,0.2c0.1-0.1,0.1-0.2,0.1-0.2l-0.1-0.1C386.3,257.1,386.2,257.2,386.1,257.2z"/>
	<path d="M202.4,229c3.5-0.7,7-1.4,10.5-2.2c2.2-0.6,4.4-1.4,6.5-2.1c4.7-1.6,9.1-3.7,12.4-7.5c0.5-0.6,1-1.3,2-1.1
		c0.1,0.4,0.2,0.8,0.3,1.2c0.3,1.9,0.6,3.8,1,5.7c0.5,2.8,1.8,5.5,3.9,7.5c2.9,2.8,6.2,4.8,10.3,5c1.7,0.1,3.5,0.4,5.2,0.3
		c4.5-0.2,8.9-1.4,13.3-2.1c0.7-0.1,1.3-0.4,1.9-0.6c2-0.7,3.7-2,5.9-2c0.3,0,0.6-0.2,0.8-0.3c2.3-1.1,4.6-2.2,6.9-3.2
		c1.7-0.7,2.9-2,3.8-3.5c1.1-1.9,2.2-3.9,3.2-5.8c1.5-2.4,2.3-5.2,2.2-8c-0.1-2.6-0.6-5.4-1.1-8c-0.8-3.8-2.6-7.1-4.8-10.2
		c-1.3-1.8-2.8-3.5-4.4-5.1c-4-3.8-8.4-6-14-3.8c-0.3,0.1-0.6,0.1-0.9,0.2c-0.9,0.5-2,0.8-2.7,1.5c-2,2-4.1,4.2-5.8,6.5
		c-2.8,4-4.4,8.4-4.9,13.2c-0.4,3.3,2,8.1,6.9,8.5c1.3,0.1,2.6,0.4,4,0.6c1.4,0.2,2.7,0.5,4.1,0.5c2.6,0,5.2-0.3,7.7-1.1
		c2-0.6,3-0.1,3.9,1.8c0.2,0.4,0.2,0.8,0.4,1.3c-0.6,0.4-1.1,0.8-1.7,1c-2.7,0.8-5.3,1.7-8,2.2c-4.8,1.2-9.5,1.9-14.6,1.1
		c-3.3-0.5-6.3-2-8.4-4.6c-2.8-3.2-5.5-6.7-8.2-10.1c-1.4-1.7-3.9-1.5-4.9,0.5c-0.5,1-1.2,1.6-2.1,2c-5.6,3-11.7,4.7-17.9,5.9
		c-5.8,1.1-11.7,2.1-17.5,3.2c-2.7,0.5-5.4,1-8.1,1.4c-4.7,0.7-9.4,1.1-14,2c-6.7,1.4-13.5,1.9-20.2,2.2c-5.6,0.3-11.3,0.3-16.8,0.4
		c-4.2,0-8.3,0-12.5-0.1c-0.9,0-1.8-0.7-2.8-0.1c-0.2,0.1-0.7-0.2-1-0.3c-0.5-0.2-1-0.4-1.5-0.6c-2.4-0.6-4.7-1.1-7.1-1.7
		c-5.1-1.3-9.9-2.8-14.4-5.9c-0.7-0.5-1.5-0.9-2.1-1.4c-1-0.8-1-1.4,0-2.1c0.6-0.5,1.2-1,1.9-1.4c1.9-1.3,3.8-2.3,5.6-3.8
		c3.5-2.7,6.2-6.2,8.7-9.9c0.7-1,1.2-2.2,1.6-3.5c0.2-0.5,0-1.4-0.4-1.8c-1.4-1.5-2.9-2.9-5-3.5c-1.7-0.4-3.2-0.9-4.9-1.4
		c-3.5-0.9-6.9-2-10.5-2c-4.4,0-8.7,0-13.1,0.1c-3.2,0.1-6.3,0.4-9.3,1.3c-4.2,1.3-8.4,2.7-12.2,5.1c-1,0.6-1.9,1.3-2.6,2.1
		c-1.4,1.8-2.8,3.7-4,5.6c-1.5,2.2-2.8,4.6-1.1,7.5c0.7,1.1,1.4,1.6,2.5,1.6c2.3,0.1,4.4,0.8,6.4,1.8c1.7,0.8,3.5,1.5,5.2,2.2
		c1,0.5,1.9,1,3.2,1.8c-1.7,1-3.2,1.8-4.6,2.6c-2.5,1.5-5.1,2.8-7.3,4.8c-4.7,3.9-8.3,8.6-11,14c-0.5,1-0.8,2-1.3,3.1
		c-0.3,0.7-0.5,1.5-0.9,2.1c-1.4,2.1-2.9,4.3-3.8,6.6c-0.6,1.5-0.7,2.8,0.1,4.3c1.2,2,2.9,3.3,5,4.3c4,1.6,8.2,2.4,12.6,2.6
		c0.6,0,1.2,0,1.8,0.3c2.5,1,5.1,1.1,7.7,1c3.5-0.1,6.9-0.2,10.3-0.3c2.8-0.1,5.6-0.1,8.4-0.2c2.6-0.1,5.2-0.3,7.8-0.4
		c2.8-0.1,5.7-0.2,8.5-0.3c4.8-0.2,9.5-0.4,14.4-0.5c3.8-0.1,7.5,0.1,11.3,0.1c2.9,0,5.7-0.1,8.6-0.1c4.1-0.1,8.2-0.2,12.3-0.2
		c1.1,0,2.2,0,3.2,0c3.8,0.1,7.3-0.7,9.9-3.5c1.5-1.6,2.6-3.5,3.7-5.3c0.9-1.4,1.5-2.9,2.2-4.6c0.5-1.3,0.2-1.7-1.1-1.8
		c-0.2,0-0.4,0-0.5,0c-5.4,0.1-10.8,0.2-16.1,0.4c-0.7,0-3.3,0.2-3.9,0.2c-1.8-0.2-3.6-0.2-5.4-0.3c-3.9-0.2-7.9-0.5-11.8-0.5
		c-4.1,0-8.1,0.2-12.2,0.3c-8.4,0.2-16.7,0.4-25.3,0.5c-4.4,0.1-8.7,0.2-13.1,0.2c-3,0-6-0.3-9.1-0.5c-1.2-0.1-2.4-0.2-3.6-0.3
		c-0.7,0-1.3,0-2-0.1c-3-0.6-6.1-1.2-9-2c-1.4-0.4-2.8-1.2-4-2c-1.1-0.7-1-1.6,0-2.2c4.4-3.3,8.9-6.5,13.9-8.8
		c1.7-0.8,3.3-1.7,5.1-2.3c2.6-1.1,5.3-2.1,7.9-3.1c1.5-0.6,2.8-0.3,4.1,0.8c1.9,1.6,3.9,3.1,6,4.7c2.2,1.6,4.5,2.8,6.6,4.5
		c2.3,1.6,5,2,7.5,3c2.8,1.1,5.8,1.7,8.7,2.4c0.8,0.2,5.2,0.4,6.7,0.8c2,0.6,9,0.7,9.6,0.7c0.8,0,1.6,0.1,2.4,0.1
		c3-0.1,5.9-0.2,8.9-0.4c1-0.1,13.6-0.6,14.3-0.6c0.5,0,1.1,0,1.6,0c3.1-0.3,6.1-0.5,9.2-1.3c2.5-0.6,5-0.9,7.5-1.3
		c1.7-0.3,3.3-0.8,5.2-0.9c4.8-0.4,9.5-1.4,14.1-2.2C194.1,230.5,198.4,229.8,202.4,229z M89.8,204.2c-0.2,0.1-0.4,0.1-0.5,0.2
		c-1.5,1-2.7,0.6-3.9-0.5c-1-0.9-2.2-1.6-3.2-2.4c-0.8-0.7-0.8-1.2,0-2c1.3-1.3,3-1.5,4.6-1.3c3.3,0.4,6.8,0.9,10.1,2.4
		C94.6,202,92.1,203.2,89.8,204.2z"/>
	<path d="M302.8,149.6c0.5,7.2,0.9,14.3,1.2,21.6c0.3,7.2,0.6,14.4,0.7,21.6c0.1,7.6-0.2,15.2-0.3,22.8c0,2.9-0.1,6-0.1,8.8
		c0,1,0.3,1.9,0.3,2.8c-0.1,1.7-0.5,3.3-0.5,5c-0.1,12.6-0.8,25.2-1.3,37.6c-0.3,5.7-0.5,11.3-0.4,16.9c0,5,1.1,9.8,3.6,14.2
		c0.9,1.5,2.1,2.4,3.7,2.9c3.6,1.1,7.1,0.8,10.5-0.5c1.5-0.6,2.9-1.1,4.4-1.6c3.1-1,5.5-2.7,7.4-5.4c2.7-3.8,3.9-8.1,5.4-12.4
		c0.3-0.7,0.3-1.6,0.3-2.2c0.1-5.3-1.1-10.1-4.8-14.2c-0.6-0.6-1.1-1.3-1.6-1.9c-1.5,0-1.5,0-2.3,0.7c-2.8,2.7-5.9,5.5-6.6,9.7
		c0,0.2-0.2,0.3-0.2,0.5c-0.4,1.9-0.4,3.6,1.2,5c1,0.9,1.8,2,2.6,3.1c0.8,1.1,0.6,1.6-0.7,2.1c-2.6,1.1-5.3,1.2-8,0.9
		c-2.1-0.3-3.5-1.6-4.2-3.6c-0.4-1-0.6-2-0.8-3.1c-0.9-4.5-0.4-9-0.2-13.5c0.3-5.7,0.7-11.3,0.9-16.9c0.2-5.7,0.3-11.3,0.4-16.9
		c0.1-4.6,0.1-9.1,0.2-13.7c0.1-4.5,0.2-8.9,0.3-13.4c0.1-7.4,0.3-14.9,0.4-22.4c0.2-11.8-0.4-23.5-1.1-35.3
		c-0.6-9.8-1.3-19.5-1.8-29.3c-0.4-7.2-0.5-14.4-0.7-21.6c-0.1-3.2,0-6.4-0.1-9.7c-0.1-2.7-0.4-5.6-0.7-8.2
		c-0.1-0.6-0.2-1.2-0.5-1.8c-0.6-1.5-1.3-1.8-2.6-0.7c-1,0.8-1.9,1.8-2.5,2.8c-1,2-1.9,4.2-2.5,6.3c-0.4,1.4-0.2,2.9-0.3,4.5
		c-0.1,2.1,0.1,4.4-0.2,6.4c-0.4,2.9-0.5,6-0.5,9c0,10.2,0.5,20.6,1.2,30.7C302.1,141.8,302.6,145.8,302.8,149.6z"/>
	<path d="M183.6,255.4c0.2-1.2,0.3-2.4,0.3-3.8c0-0.7-0.3-1.5-0.7-2c-1.4-1.7-2.9-3.5-4.4-5.1c-2-2-4.4-1.7-5.8,0.8
		c-1.3,2.2-2.5,4.7-3.7,7c-2.4,4.5-2.6,8.8,0.7,13c1.4,1.8,2.7,3.6,3.9,5.5c2.2,3.3,1.9,4.2-1.2,6.5c-3.2,2.4-6.5,4.7-10,6.3
		c-4,1.9-8,3.9-12,5.6c-3.8,1.6-7.6,3-11.5,4.6c-4.6,1.8-9.1,3.7-13.8,5.1c-5.9,1.8-11.8,3-17.8,4.5c-8,1.8-15.9,3.6-23.9,5.3
		c-1.8,0.4-3.7,1-5.7,0.1c-0.9-0.4-1.9-0.2-2.5,1c1.2,2.5,1.6,2.6,4.3,2.3c1.5-0.2,3-0.1,4.5,0.2c2.2,0.5,4.3,0.5,6.5,0.5
		c2.2,0,4.4,0,6.5,0.4c2.6,0.5,5.2,1.3,7.7,2c2.1,0.7,4.3,1.2,6.4,0.9c3.6-0.6,7.2-0.8,10.6-2.1c2.9-1.2,6-2,8.9-3
		c4.6-1.8,9.1-3.6,13.6-5.6c5.1-2.1,10-4.5,15.1-6.8c3-1.5,6-3,8.6-5.5c1.1-1,2.2-1.9,3.3-2.6c2.5-1.6,4.6-3.7,5.8-6.3
		c1.9-4,3.7-7.9,5.4-12c1.4-3.3,1.6-6.8,0.7-10.4C182.9,259.6,183.1,257.5,183.6,255.4z"/>
	<path d="M299.4,240.5c-3-0.1-5.8-0.2-8.7-0.3c-5.5-0.1-11-0.2-16.4-0.3c-3.6-0.1-7.1-0.2-10.7-0.3c-3.3-0.1-6.9-0.1-10.2-0.1
		c-9.4,0-18.8,0-28.2,0.1c-7.1,0.1-14.3,0.4-21.4,0.5c-0.2,0-0.4,0-0.5,0c-1.8,0.5-3.6,0.4-5.4,0.1c-2.2-0.4-4,0.3-5.3,2.1
		c-1.2,1.9-2.6,3.7-3.7,5.6c-0.8,1.2-1.4,2.5-1.9,3.9c-0.6,1.6,0,2.4,1.7,2.6c1.7,0.2,3.5,0.3,5.3,0.2c3.6,0,7.3-0.2,10.9-0.3
		c3.1-0.1,6.2-0.2,9.3-0.3c2.4-0.1,4.7-0.3,7.1-0.4c3.2-0.1,6.7-0.2,9.9-0.3c4.8-0.1,9.5-0.1,14.4-0.2c1.8,0,3.7,0.1,5.4-0.1
		c4.3-0.5,8.5-0.2,12.7,0c2.5,0.1,5.1,0.3,7.6,0c3.7-0.6,7.4-0.3,11.1,0c2.2,0.2,4.3,0.5,6.5,0.3c1-0.1,1.9-0.4,2.6-1.2
		c1-1.1,2.1-2.1,3.1-3.2c1.5-1.7,3-3.5,4.5-5.3C299.4,243,299.8,241.8,299.4,240.5z"/>
	<path d="M102.8,284c0.9,0.6,1.9,0.5,2.7-0.2c2.3-2.2,4.8-4.4,6.5-7.3c0.9,0.3,1.9,0.5,2.8,0.9c2.5,1,4.6,2.6,6.5,4.6
		c1.6,1.6,1.9,1.6,3.8,0.2c0.3-0.3,0.7-0.5,0.9-0.9c1.9-2,3.8-3.9,5.6-5.9c0.9-1,1.6-2.1,2.3-3.2c0.4-0.7,0.4-1.5-0.3-2
		c-2.6-2.2-5-4.8-8.3-6.1c-1.6-0.6-3.2-1.3-5-2c-3.5,1.6-5.3,5.5-8.5,7.4c-3.6-1.8-7.1-3.6-10.8-5.5c-0.6,0.4-1.4,0.8-2,1.4
		c-2.8,2.6-5.5,5.4-7.5,8.7c-1.3,2-1.2,3.2,1.1,4.3C96,280.1,99.4,281.8,102.8,284z"/>
	<path d="M285,325.6c1.7-0.5,2.7-1.9,4-2.9c2.1-1.9,2.6-3.8,1.1-6.5c-2,0-3.9,0.2-5.6,1.4c-0.8,0.5-1.7,0.9-2.6,1.2
		c-4.3,1.4-8.7,2.5-13,4c-12.7,4.1-25.4,8.1-38,12.2c-6.8,2.1-13.6,4.5-20.3,6.9c-1.8,0.7-3.3,2-5.1,3c-0.6,0.4-1.2,1.2-0.8,2
		c0.4,0.8,0.8,1.7,1.9,1.7c2.1,0,4.1,0,5.9-1.4c0.7-0.6,1.6-1.2,2.5-1.5c2.4-1,4.9-1.9,7.3-2.6c5.9-1.9,11.8-3.8,17.7-5.7
		c6.4-2,12.8-3.8,19.2-5.8c7.2-2.2,14.7-3.7,22.2-5C282.5,326.4,283.7,326,285,325.6z"/>
	<path d="M318.2,249.5c0.9,0.3,1.9,0.6,2.7,1c3,1.3,5.7,3,8.1,5.5c1.5,1.4,2.8,1.4,4.3,0c2.7-2.4,4.5-5.5,5.5-9
		c0.2-0.8,0.3-1.7,0.5-2.6c-0.1-0.5-0.2-1.3-0.5-1.9c-1.4-1.9-2.9-3.6-5-4.7c-2.6-1.3-5.3-2.3-7.9-3.7c-1.4-0.7-2.5-0.3-3.2,0.8
		c-1.7,2.2-3.5,4.5-5.1,6.8c-0.8,1.2-1.3,2.5-1.6,4C315.3,247.7,316.2,248.9,318.2,249.5z"/>
	<path d="M148.5,190.6c0.5-0.2,1-0.4,1.5-0.6c2-0.8,3.2-0.5,4.4,1.3c0.7,1.1,1.3,2.2,1.7,3.6c0.7,2,1.2,4.3,1.9,6.3
		c0.6,1.7,0.8,3.3,0.7,5.2c-0.1,2.7-0.1,5.6-0.1,8.3c0,0.8,0.1,1.6,1,2c0.9,0.4,1.8,0.3,2.6-0.3c1.3-0.9,1.4-2,1.3-3.5
		c-0.2-1.7-0.5-3.3-0.3-5.1c0.3-3.3,1.1-6.7,1.2-10.2c0.2-3.1,1.9-5.6,3.5-7.9c0.8-1.3,1.7-1.4,3.2-0.9c0.9,0.3,1.6,0.8,2.5,1.1
		c0.9,0.3,1.9,0.6,2.8,0.5c2.2-0.2,3.2-2.1,2.5-4.3c-1.4-3.8-6.1-4.3-8.7-2.9c-1.3,0.7-2.4,1.6-3.5,2.4c-2.3,1.8-3.6,4.4-4.8,6.9
		c-0.3,0.7-0.6,1.5-1.7,1.8c-0.5-1.5-1-2.8-1.3-4.4c-0.6-2.7-2.3-4.8-4.4-6.4c-0.4-0.3-1-0.6-1.4-0.5c-3,0.7-5.1,2.6-6.4,5.5
		c-0.2,0.4,0.1,1.2,0.3,1.6C147.2,190.7,147.8,190.8,148.5,190.6z"/>
	<path d="M323,193.3c-0.4,0.9-1,1.8-1.1,2.7c-0.4,2.4,1.3,4,3.1,5.3c2.5,1.7,4.8,3.7,6.6,6.1c2.4,3.1,2.6,6.9,2,10.7
		c-0.3,2.1-1.1,4.3-0.6,6.4c-0.4,0.6-1.6,0.7-0.8,2c0.6-0.6,1.1-1.1,1.5-1.7c2.6-3.9,4-8.2,4.4-12.8c0.5-5.2-0.1-10.2-1.5-15.1
		c-0.8-2.9-1.7-6-3.7-8.3c-0.4-0.5-0.8-1-1.2-1.6c-1.1-1.7-2.2-1.8-3.6-0.3c-0.6,0.7-1.3,1.3-1.8,2c-0.5,0.6-1,0.8-1.8,0.3
		c0,0.7,0.1,1.1,0,1.4C324.1,191.4,323.5,192.3,323,193.3z"/>
	<path d="M198.1,333.2c-1.9-0.2-3.6,0.2-5.1,1.4c-2,1.6-3.7,3.5-5.1,5.6c-0.7,1-1.3,2-2.1,2.9c-0.4,0.5-0.8,1.3-1.9,0.8
		c-0.2-1.2-0.4-2.3-0.5-3.7c-0.2-2.7-1.7-4.5-4.2-5.6c-0.9-0.4-1.6-0.4-2.4,0.1c-1.6,0.9-2.9,2.2-3.6,4c-0.3,0.6-0.3,1.5,0,2
		c0.3,1,0.9,1.8,1.5,2.6c0.2,0.3,0.7,0.6,1,0.5c0.3-0.1,0.7-0.5,0.8-0.9c0.2-0.4,0.1-0.9,0.2-1.4c1.7,0.1,2.2,1.3,2.5,2.5
		c1.2,4.3,1.3,8.5,0.9,12.9c-0.1,0.8-0.2,1.7-0.2,2.4c0.1,1.7,1.5,2.3,3,1.7c0.9-0.4,1.4-1.2,1.6-2c0.4-1.7,0.8-3.3,1.3-5.1
		c1.2-4.9,3-9.5,6.5-13.4c1.4-1.5,2-1.8,3.6-0.4c1.6,1.4,4.1,0.7,5.2-0.7c0.9-1.2,1.2-2.5,0.6-3.9
		C200.8,334.5,199.7,333.4,198.1,333.2z"/>
	<path d="M269.9,167.9c1.6,0.7,2.8,1.8,4.1,2.7c0.5,0.4,0.9,0.8,1.4,1.2c2.5,2,3.8,2,6.2-0.3c0.2-0.2,0.4-0.4,0.6-0.7
		c1.3-1.9,2.6-3.7,3.7-5.6c0.7-1.2,1-2.5,1.5-3.9c-0.1-1.1-0.5-1.8-1.1-2.4c-2.3-2.6-5.4-4.5-8.4-6.2c-1.4-0.8-1.9-0.9-3.1,0.2
		c-2.7,2.4-5.1,5.2-6.9,8.3C265.9,164.7,266.3,166.4,269.9,167.9z"/>
	<path d="M79.3,285.5c0.4,4.1,0.5,8.1-0.3,12.2c-0.2,1.1-0.3,2.1-0.4,3.1c0,0.3,0.2,0.8,0.5,0.8c0.3,0.1,0.7-0.2,0.9-0.4
		c1.1-1.1,1.6-2.5,1.8-4.1c0.4-3.2,0.7-6.5,1.1-9.8c-0.1,0-0.3,0-0.4,0c0-1.6,0.1-3.2,0-4.9c-0.3-4.4-0.6-8.7-1.9-13
		c-0.5-1.8-1.3-3.5-2.5-5c-0.3-0.4-0.9-0.7-1.4-0.7c-2.5,0.4-3.6,2.9-2.2,5.1c1.3,1.9,2.4,3.9,2.8,6.2C78,278.7,78.9,282,79.3,285.5
		z"/>
	<path d="M355.6,226.5c1.6,0.8,2.8,0.7,3.9-0.6c1.9-2,2.8-4.8,3-7.5c0-0.5-0.3-1-0.7-1.3c-0.2-0.1-0.8,0.2-1.2,0.5
		c-1.4,1-2.3,1-3.6-0.1c-1.9-1.6-2.8-3.7-2.3-6.1c0.5-2.3,1.3-4.7,2-6.9c0.4-1.2,0.3-2-0.4-2.1c-1-0.2-1.4,0.6-1.7,1.3
		c-1.1,2.4-2.2,5-3,7.5c-0.7,2-1.4,4.3-1.2,6.6C350.1,221.8,351.8,224.7,355.6,226.5z"/>
	<path d="M257,347.6c-0.1,0.1-0.2,0.1-0.3,0.1c-1.5,0.5-3-0.4-3.2-2c-0.2-1.9-0.4-3.9-0.5-5.8c-0.2-1.8-0.7-2.2-2.9-2.5
		c-0.3,0.9-0.7,1.7-0.9,2.5c-0.7,3-0.9,6.1-0.7,9.3c0.1,0.8,0.3,1.7,0.5,2.4c0.8,2.3,2.7,3.7,5,3.3c1.3-0.2,2.7-0.7,3.9-1.4
		c1.2-0.7,2.1-1.8,2.5-3.1c0.4-1.2,0-2.2-0.9-3.1C258.7,346.8,257.8,347.1,257,347.6z"/>
	<path d="M145.4,265.1c0.1-1.5-0.2-2.3-0.8-2.3c-1,0-1.3,0.9-1.5,1.6c-0.6,2.9-1.4,6-1.7,9c-0.2,2.4,0.3,5,2.7,6.4
		c1.1,0.7,2.2,1.2,3.2,1.9c0.9,0.5,1.7,0.4,2.5-0.2c1.2-0.8,1.6-2,2-3.3c0.6-2.1-0.5-3.7-2.7-3.8c-3.2-0.2-4.7-1.8-4.4-5
		C144.9,267.8,145.2,266.3,145.4,265.1z"/>
	<path d="M137.3,211.7c1.5-0.4,2.2-1.6,2.7-3c-0.6-0.2-1.1-0.4-1.6-0.5c-2-0.6-2.4-1-2.2-3c0.1-1.4,0.4-2.8,0.6-4.3
		c0.1-0.7,0.5-1.5-0.5-2.5c-0.4,0.6-0.8,1.1-1,1.6c-0.5,1.6-0.9,3-1.3,4.7c-0.3,1.2-0.4,2.4-0.5,3.8
		C133.5,210.6,135.3,212.1,137.3,211.7z"/>
</g>
</svg>
