<?xml version="1.0" encoding="utf-8"?>
<!-- Generator: Adobe Illustrator 21.0.2, SVG Export Plug-In . SVG Version: 6.00 Build 0)  -->
<svg version="1.1" id="Layer_1" xmlns="http://www.w3.org/2000/svg" xmlns:xlink="http://www.w3.org/1999/xlink" x="0px" y="0px"
	 viewBox="0 0 500 500" style="enable-background:new 0 0 500 500;" xml:space="preserve">
<g>
	<path d="M493.5,476.9c-0.1-0.7-0.5-1.2-0.9-1.7c-1.4-2.3-1.4-4.8-1.7-7.3c-0.1-0.5,0.4-1.1,0.5-1.6c0.1-0.4,0.4-0.9,0.4-1.1
		c0.1-3.9,0.5-7.7-0.4-11.6c-0.7-2.9-0.9-5.9,0.7-8.8c0.9-1.7,1.1-3.4,0.9-5.5c-0.1-0.7,0-1.3,0-2c0-6.9,0.9-13.6,0.1-20.5
		c-0.1-0.7,0.1-1.3,0.1-2c0.1-2.7,0.2-5.4,0.1-8.1c-0.1-5-0.5-9.8-0.7-14.7c0-0.7,0.1-1.5,0.2-2.2c0-0.5,0.1-0.9,0.1-1.5
		c-0.1-4.4-0.5-8.8-0.5-13.3c0-2.8,0.4-5.6,0.2-8.5c-0.4-6,0-12.1-0.9-18.2c-0.5-3.9,0.5-7.8,0.9-11.8c0.2-2.4,0.4-4.8,0.7-7.2
		c0.1-1.7,0.4-3.4,0.5-5c0.2-3.8,0.5-7.7,0.9-11.4c0-0.1,0-0.2,0-0.5c-0.9-4.8-0.4-9.8-0.7-14.6c-0.1-3.8-0.2-7.5-0.4-11.3
		c0-2.3-0.1-4.5-0.1-6.9c0-3.9,0.2-7.7-0.9-11.6c-0.5-1.6-0.4-3.4-0.4-5c0-1.8,0.1-3.9,0-5.8c0-1.2-0.1-2.4-0.2-3.6
		c-0.2-2.7-0.5-5.4-0.7-8.1c-0.1-2.4-0.1-4.8-0.2-7.2c0-1.2,0.1-2.4,0.1-3.6c-0.1-3.4-0.4-6.6-0.4-9.8c0-3.9,0.4-7.7,0.5-11.6
		c0.1-2.2,0.2-4.2,0.2-6.2c0-2.9-1.1-5.9-0.5-8.9c0.1-0.4-0.1-0.9-0.2-1.5c-0.7-4.2-1.1-8.2-0.2-12.4c0.5-2.3,0.5-4.7-0.1-7
		c-0.2-0.9-0.2-2-0.4-3.1c-0.7,0.1-1.4,0.1-2,0.2c-0.1-0.2-0.2-0.5-0.5-0.9c0.2-0.1,0.7-0.2,0.9-0.2c1.5,0,1.7-0.9,1.8-2
		c0.2-2.2,0.2-4.2,0.5-6.2c0.2-1.8-0.1-3.4-1.6-4.2c0.4-0.9,1.1-1.5,1.1-2.3c0.1-1.1,0-2.3-0.1-3.4s0-2.4-0.5-2.9
		c-0.9-0.9-0.7-1.6-0.4-2.6c0.1-0.5,0.2-1.1,0.2-1.6c-0.1-0.9-0.2-1.8-0.4-2.8c-0.1-1.5-0.4-2.9-1.6-3.9c1.2-2.6,0.9-5.1,0.4-7.7
		c-0.4-2-1.1-4-0.9-5.9c0-2,0.9-3.9-0.5-5.8c0,0,0-0.1,0-0.2c0.4-3.1-0.9-6-0.2-9.1c0.1-0.9-0.1-1.8-0.2-2.8
		c-0.2-1.7-0.9-3.4-0.9-5.1c0-3.1,0.5-6.1,0.9-9.1c0.1-1.2,0-2.4-0.1-3.6c-0.2-3.1-0.9-6.2-1.1-9.3c-0.2-4,0.2-8.2-0.7-12
		c-0.1-0.7,0-1.3,0.1-2c0.2-2.3,0.7-4.5,0.7-6.6c-0.1-3.4,0.4-7.1-0.2-10.5c-0.1-0.9,0-1.8,0.9-2.6c0.2,0.5,0.4,0.9,0.7,1.3
		c0.1,0,0.1,0,0.2,0c0-2.8,0-5.5,0-8.7c-0.9,1.2,0,2.7-1.6,3.4c0.2-2,0.4-3.8,0.5-5.6c0.2,0.4,0.5,0.7,0.9,1.1
		c0.2-1.7,0.4-3.1,0.9-4.5c0.5-2.2,0.1-4-0.7-5.9c-0.5-1.2-0.9-2.4-0.9-3.8c-0.1-1.6,0.1-3.2-0.1-4.8c-0.4-3.1-1.1-6.2-1.6-9.3
		c-0.4-1.7-1.1-3.4-3-3.9c-2.5-0.7-5-0.9-7.5-1.3c-0.9-0.1-1.7-0.1-2.6-0.1c-3.4,0.1-6.9-0.4-10.2,0.2c-1.2,0.2-2.5,0.7-3.6,0.4
		c-2.5-0.4-5,0-7.7-0.7c-3.3-0.9-6.9-0.5-10.3-0.5c-1.6,0-3.2,0.7-4.7,0.5c-2-0.2-3.7,0.2-5.4,0.7c-1.8,0.5-3.6,0.9-5.4,0.7
		c-3.2-0.2-6.3-0.7-9.6,0.1c-0.2,0.1-0.7,0.1-0.9,0c-1.5-0.5-2.6,0-3.8,0.9c-0.4,0.2-0.9,0.5-1.4,0.5c-2.8,0.2-5.8,0-8.4,1.2
		c-1.7-0.5-3.3-1.3-5-0.9c-0.9-1.1-1.8-0.7-3-0.9c-1.5-0.1-3-0.1-4.6-0.1c-1.2,0-2.5-0.1-3.6,0c-4.6,0.9-9,0.5-13.3,0.5
		c-1.7,0-3.6,0.1-5.3,0.1c-0.9,0-1.6,0-2.5-0.1c-0.9-0.1-2-0.4-3-0.2c-1.6,0.1-3.3-0.2-5,0.2c-1.5,0.4-3.3-0.1-4.9-0.2
		c-0.4,0-0.9,0-1.2,0.1c-3,0.9-6.1,1.5-9.3,1.3c-4.6-0.1-9.2,0.2-13.8,0.2c-1.5,0-3-0.4-4.4-0.2c-3.7,0.2-7.3,0.1-10.9-0.1
		c-4.7-0.2-9.6-0.5-14.4,0.2c-1.5,0.4-3,0.2-4.6,0.2c-7.3-0.1-14.4-0.2-21.5,0.9c-3.6,0.5-7-0.1-10.6-0.2c-2.2-0.1-4.6-0.1-6.9-0.1
		c-1.4,0-2.8,0-4.1,0c-2.5,0-5-0.1-7.4-0.1c-3.2,0.1-6.3,0.4-9.5,0.7c-3.3,0.1-6.6,0.1-9.8,0.5c-5.4,0.7-10.7,1.1-16.2,0.9
		c-0.7,0-1.4,0.1-1.8,0.2c-4.1,1.6-8.2,0.5-12.3,1.1c-0.4,0-0.9,0-1.2-0.1c-1.7-0.9-3.6-0.7-5.4-0.2c-0.4,0.1-0.9-0.1-1.4-0.2
		c-1.5-0.2-2.8-0.7-4.2-0.9c-3-0.1-5.8,0.9-8.7-0.2c-0.4-0.1-0.9-0.1-1.2,0c-1.5,0-3,0-4.6,0.2c-1.8,0.2-3.8,0-5.7,0.1
		c-2.8,0.2-5.5,0-8.2,0c-6.6,0.1-13.5,0.2-20,0.7c-1.7,0.1-3.3-0.2-4.9-0.1c-2.2,0.1-4.4,0.9-6.6,0.2c-0.5-0.1-1.1,0.1-1.6,0.2
		c-1.7,0.5-3.4,0.5-5.3,0.2c-3.6-0.5-7-1.5-10.7-1.2c-1.8,0.1-3.7,0-5.5,0.1c-1.4,0-2.6,0-4.1,0c-0.7,0-1.2-0.1-1.8-0.1
		c-1.1,0-2.1,0.2-3,0.1c-5-0.9-10.3-0.1-15.6,0c-4.1,0.1-7.7,0.5-11.7,0.4c-3.3-0.1-6.5-0.5-9.8,0.1c-0.9,0.1-1.7-0.1-2.6-0.1
		c-2.1-0.1-4.4-0.4-6.5-0.2c-2.1,0.2-4.1-0.1-5.9-0.4c-2.5-0.5-5-1.1-7.4,0.2c-0.5-0.2-1.1-0.7-1.7-0.9c-2.5,2.3-6.1,2.8-8.2,5.6
		c-0.4,0.5-1.4,0.7-1.8,1.1c-0.9,0.9-2.5,1.7-2.6,2.9c-0.5,1.8-0.5,3.9-0.5,5.9c0,2.2,0,4.4-0.1,6.6c-0.1,2.4,0.2,4.8-0.4,7.3
		c-0.4,1.3-0.1,2.7-0.2,4c-0.1,1.6-0.4,3.2-0.4,4.8c0,3.2,0.1,6.5,0.1,9.8c0,2.6-0.1,5-0.1,7.5c0,4.3,0.2,8.6,0.2,12.9
		c0,4.3-0.2,8.6-0.2,12.9c0,0.4,0.1,0.9,0.1,1.2c0.2,4,0.5,8.1,0.9,12c0.1,1.3,0.2,2.8,0,4.2c-0.2,2.6-0.1,5,0.4,7.5
		c0.5,2.8,1.1,5.8,1.5,8.6c0.1,0.4,0,0.9-0.1,1.5c-0.5,2-0.4,4,0.5,5.9c0.1,0.2,0.1,0.7,0.2,1.2c-0.7-0.1-1.1-0.1-1.2-0.1
		c-0.1,1.2-0.1,2.3-0.2,3.4c-0.1,0.9-0.4,1.8-0.4,2.8c0,2.2,0,4.3,0,6.6c0.1,2-0.4,4.2,0.9,5.5c-0.1,1.5-0.1,2.6-0.2,3.6
		c-0.1,1.2-0.2,2.4-0.4,3.6c-0.2,1.7-0.5,3.4-0.7,5.4c-0.4,3.9,0.1,7.8-0.7,12c-0.4,1.7-0.2,3.6,0.1,5.4c0.4,1.5,0.5,2.9,0.7,4.4
		c0.1,1.3,0.2,2.7,0.5,4c0.1,1.5,0.4,2.8,0.5,4.3c0.1,1.3,0.1,2.6,0.1,3.9c0.1,1.3,0.1,2.7,0.2,4c-1.7-1.5-0.1-3.9-1.6-5
		c-1.1,0.9-2,1.7-3,2.6c-0.9,0.7-2,1.2-2.8,1.8c-2.2,1.7-2,5.6,0.4,7c2.6,1.3,4.6,3.2,5.3,6.2c0.4-2.8,0.9-5.6,1.1-8.5
		c0.5,0.5,0.5,0.9,0.5,1.5c-0.1,2.3-0.2,4.5-0.4,6.9c-0.1,3.8-0.1,7.5-0.2,11.3c0,0.4-0.2,0.9-0.4,1.2c-0.1,0-0.2,0-0.2,0
		c0-0.7-0.1-1.3-0.1-2c-1.5,1.7,0.9,3.8-0.9,5.1c0.7,0.5,1.1,1.1,1.6,1.5c-0.5,0.4-1.1,0.9-1.7,1.3c0.1,0.4,0.2,0.9,0.5,1.5
		c0.1,0.4,0.2,0.9,0.2,1.2c-0.2,2.7-0.9,5.5-0.9,8.2c-0.2,5.9-0.4,11.8-0.4,17.9c0,5.5,0.1,10.9,0.5,16.4c0.5,7.2-0.1,14.5-0.2,21.7
		c-0.1,5.6-0.9,11.3-1.2,16.8c-0.1,1.2-0.2,2.4-0.5,3.6c-0.9,3.6-1.2,7.2-0.4,10.9c0.4,2.3,0.9,4.7,0.9,7c0,5.1-0.2,10.4-0.4,15.6
		c-0.1,6.6-0.2,13-0.2,19.5c0,5.5-0.4,10.9,0.9,16.3c0.2,0.9,0.1,1.7,0.1,2.7c-0.4,5.6-0.7,11.3-1.4,16.8c-0.4,4.4-0.9,8.8-0.7,13.2
		c0.4,4.3,0,8.7-0.1,13.1c-0.1,4.4-0.5,8.9-0.7,13.3c0,6,0.4,12.1,0.4,18.2c0,4.2-0.7,8.5-1.2,12.5c-0.2,2.7-0.9,5.4-0.1,8.2
		c1.2,3.6,3.2,5,6.9,4.4c0.2,0,0.5-0.1,0.7-0.1c2.6-0.2,5.3-0.5,7.9-0.9c1.1-0.1,2.2-0.2,3.3-0.5c3.4-0.9,6.9-1.3,10.5-1.1
		c3.2,0.2,6.3,0.4,9.3-0.1s5.9-0.9,9,0.2c2.8,0.9,5.5,0.9,8.2-0.1c2.7-1,5.4-1.1,8.2-0.9c4.6,0.1,9.2,0.2,13.8,0.4
		c1.6,0,3.2,0,4.7,0.1c3.6,0.1,7,0.4,10.6-0.4c0.9-0.2,1.8-0.1,3,0c2.8,0.1,5.5,0.4,8.4,0.5c5.4,0.1,10.7,0.1,16.1,0.4
		c3.6,0.1,7.3,0,10.8-0.7c1.2-0.2,2.5-0.1,3.8-0.1c5,0.1,10,0.5,15,0.4c3.3,0,6.6,0.1,9.8,0.9c1.2,0.2,2.6,0.7,3.8,0.4
		c3.3-0.5,6.6-0.9,10-0.7c1.1,0.1,2.1,0,3.2-0.1c4.6-0.9,9,0.1,13.5,0.2c0.5,0,0.9,0.2,1.5,0.4c2.5,0.9,5.3,0.9,7.7,0.5
		c2.2-0.4,4.6-0.2,6.6,0.7c2.8,1.2,5.4,0.9,8.2,0c2.8-0.9,5.7-1.3,8.7-0.9c2.5,0.4,5,0.1,7.6,0.2c0.9,0,2,0,3,0.2
		c3,0.9,5.8,0.7,8.9,0.1c3.6-0.7,7.1-1.1,10.7-0.2c2.6,0.5,5.3,0.5,7.7-0.4c0.9-0.2,1.7-0.2,2.6-0.2c1.8,0,3.7,0.4,5.5,0.2
		c3,0,5.7-0.5,8.6-0.4c4.4,0,8.6,0.4,12.9,0.5c1.5,0,3-0.1,4.2-0.2c0.9,0,1.8-0.2,2.6,0c4.2,1.1,8.6,0.5,12.9,0.4
		c3,0,5.9-0.5,8.9,0.2c0.9,0.2,1.7,0.1,2.6,0.1c8.4,0.1,16.8,0.1,25.5,0.2c0.2,0,0.5,0,0.7,0.1c2,0.7,4.1,0.2,5.9,0
		c1.7-0.1,3.6-0.1,5.3,0.1c2.5,0.2,5,0.9,7.6,0.2c0.7-0.1,1.5,0,2.1,0c3.8,0.1,7.6,0.1,11.4,0.2c4.1,0.1,8,0.2,12.1,0.4
		c1.2,0,2.5,0.1,3.6,0.1c1.5,0.1,3,0.1,4.4,0.2c1.2,0.1,2.5,0.2,3.6,0.4c4.1,0.1,8.2-0.5,12.4-0.1c1.8,0.1,3.8-0.2,5.7-0.4
		c3.7-0.2,7.5-0.5,11.2-0.9c2.5-0.1,4.9-0.2,7.4-0.2c2.6,0,5.4,0,8,0.1c0.1,0,0.2,0.1,0.4,0.1c3.2,0.4,6.1,0.7,9.2-0.1
		c1.4-0.2,2.5-0.4,3.7,0.2c1.8,1.1,3.4,0.9,5-0.2c1.5-0.9,3-1.1,4.6-0.9c1.7,0.4,3.6,0.4,5,0.9c1.7,0.5,3.4-0.7,5,0.1
		c0.2,0.1,1.2-0.7,1.6-1.2c0.4-0.7,0.4-1.6,0.5-2.4c0.2-0.9,0.4-2,0.9-2.7c1.2-1.6,1.7-3.4,1.5-5.5
		C493.8,480,493.8,478.5,493.5,476.9z M14.5,156.2c-0.1,0-0.1,0-0.2,0c0-0.4,0-0.7,0-1.1c0.1,0,0.1,0,0.2,0
		C14.5,155.4,14.5,155.7,14.5,156.2z M14.8,152.1c-0.1,0-0.4,0-0.5,0c0.1-1.2,0.2-2.4,0.4-3.6C15.5,149.7,15.4,150.9,14.8,152.1z
		 M477.8,34.5c-0.9-0.1-1.2-0.9-1.2-1.6c0.1-2-0.9-3.4-2.1-4.8c0.1-0.5,0.1-1.2,0.2-1.8C477.2,27.9,478.6,32,477.8,34.5z
		 M212.8,17.9c-1.6,0-3.3,0.4-4.6-0.9C209.8,17.3,211.4,17.7,212.8,17.9z M152.1,17.7c0.7,0.1,1.4,0.4,2,0.5c0,0.1,0,0.1,0,0.2
		c-0.7-0.1-1.5-0.1-2.1-0.2C152,18.1,152.1,17.8,152.1,17.7z M72.9,19.9c0.7-0.1,1.2-0.1,1.8-0.1c0.2,0,0.7,0.2,0.9,0.1
		c1.6-0.2,3.2-0.9,4.6-0.9c1.6,0.1,3.2,0.7,4.6-0.1c0.2-0.1,0.7-0.2,0.9-0.2c2.1,1.3,4.4-0.1,6.5,0.1c0.9,0.1,2,0,2.8-0.5
		c1.1-0.5,1.6-0.2,2.6,0.5c-3.3,1.1-6.5,1.5-9.8,1.5c-4.2,0-8.4,0.1-12.7,0.2c-3,0.1-5.9,0.2-9,0.4c1.4-0.2,2.8-0.4,4.1-0.7
		C71.3,20.1,72.1,20,72.9,19.9z M49.7,23.2c0,0.2,0.1,0.5,0.1,0.7c-0.5,0.1-1.1,0.5-1.6,0.5c-1.4,0-2.6-0.2-4.1-0.5
		c-0.4,0-0.9-0.4-1.2-0.2c-2.5,0.7-4.7-0.9-7.3-0.9c-0.4,0-0.9-0.5-1.4-0.9C39.5,22.1,44.5,23.8,49.7,23.2z M174.6,483.6
		c1.1-0.5,2-0.4,3,0.5C176.6,484,175.5,483.8,174.6,483.6z M485.7,411.8c0.9,1.5,1.1,3.1,0.7,4.7c-1.1,3.9-1.1,7.7-0.2,11.6
		c0.2,1.2,0.2,2.7,0,3.9c-1.1,4.2-0.9,8.5-0.9,12.5c-0.1,2.8,0.2,5.5,0.4,8.2c0.1,2,0.4,4,0.5,6c0.1,1.3,0.4,2.6,0.5,3.9
		c0.1,1.5,0.1,3.1-0.1,4.5c-0.1,1.3-0.2,2.7,0.1,4c0.9,2.7,0.1,5-1.5,7.1c-0.7,0.9-1.2,1.8-1.4,3.1c-0.2,2.7-2,3.8-4.6,3.6
		c-0.5,0-1.2,0.2-1.8,0.4c-2,0.7-3,0.2-3.8-1.7c1.4-0.9,2.6-1.6,4.2-2.6c-2.1-0.4-18.9,0.2-20.4,0.9c3,0.5,5.8,1.1,8.6,1.5
		c0.9,0.1,1.6,0,2.5-0.1c0.9,1.5,0.9,1.5,0.5,2.8c-1.8,0.1-3.7,0.5-5.4,0.4c-1.5,0-3-0.5-4.4-0.9c-0.2,0-0.7-0.2-0.9-0.1
		c-1.7,0.9-3.4,0-5-0.2c-2.2-0.2-4.4-0.1-6.5,0.9c-0.4,0.2-1.1,0-1.6,0c-1.8,0.1-3.8,0.4-5.7,0.2c-2.8-0.2-5.5,0.2-8.2,0.2
		c-1.7,0-3.3-0.5-5,0.2c-0.9,0.4-1.8,0-2.5-1.1c-0.4-0.9-0.9-1.5-1.6-2.2c-0.2-0.4-0.9-0.5-1.7-0.9c0,1.6,0,2.8,0,4.2
		c-2,0-3.7-0.9-5.3,0.2c-0.2,0.1-0.9-0.1-1.2-0.2c-0.4-0.2-0.7-0.9-1.2-1.5c-0.5,0.1-0.9,0.2-1.5,0.4c-0.4,0.1-1.1,0.4-1.4,0.2
		c-2.1-1.3-4.2-0.1-6.3-0.2c-1.1,0-2.1,0-3-0.4c-1.4-0.7-2.5-0.5-3.7,0.2c-1.1,0.9-2.1,0.4-3.2,0.1c-0.2-0.1-0.9-0.4-0.9-0.7
		c0-0.2,0.2-0.7,0.5-0.9c0.5-0.4,1.4-0.5,1.2-1.7c-0.9-0.9-1.7-0.1-2.6-0.2c-0.5,0.9-0.9,1.7-1.5,2.7c-0.9-0.7-1.5-1.1-2-1.6
		c-0.2-0.2-0.7-0.5-0.9-0.7c-1.1-0.5-2.8-0.4-2.8,0.2c0,0.9,0.5,1.5,1.1,2.7c-0.1,0.4-0.7,1.1-1.7,0.7c-2.2-0.9-4.6-0.5-6.6-0.9
		c-2.1-0.2-3.7,0.4-5.5,0.7c-1.8,0.4-3.8,1.1-5.5-0.5c-0.9-0.9-1.8-0.5-2.8-0.1c-1.8,1.1-3.6,0.4-5-0.5c-1.4-0.9-2.2-1.2-4.1-0.4
		c-1.4,0.7-3-0.1-4.4-1.2c-0.4,0.2-0.9,0.4-1.2,0.7c-0.9,0.7-1.6,0.5-2.1,0c-2.6-2.7-5.4-2.2-8.2-0.9c-0.5,0.2-1.1,0.4-1.4,0.5
		c-4.1-1.6-8.2-1.3-12.1-0.9c-0.4,0-0.9,0.5-1.1,0.9c-0.1,1.6-1.5,1.6-2.5,1.7c-1.4,0.1-2.6,0-4.1-0.1c-2.1,0-4.1,0-6.5,0
		c-0.2-0.7-0.9-0.9-2.2-0.5c-2,0.7-4.1,1.2-6.3,0.2c-0.5-0.2-1.5-0.2-1.8,0.1c-1.6,1.2-3.3,0.2-4.9,0.2c-0.4,0-0.9-0.5-1.4-0.9
		c-1.6-1.6-3.4-2.2-5.7-1.5c-1.7,0.5-3.8,0.1-5.5,1.2c-0.5,0.2-1.7-0.5-2.2-0.1c-2.1,1.1-4.1,0.4-6.1,0.2c-0.9,0-1.8,0.4-2.8,0.5
		c-0.5,0.1-1.2,0.4-1.6,0.2c-1.5-0.7-2.6-0.1-3.7,0.9c-2.2-0.9-4.4-2-6.9-0.7c-0.7,0.4-2,0.1-2.8-0.2c-1.5-0.9-3-0.5-4.4-0.1
		c-0.9,0.2-1.7,0.2-2.5-0.5c-0.4-0.4-1.1-0.7-1.5-0.5c-2.5,0.9-4.9-0.1-7.4,0c-0.2,0-0.5-0.1-0.7-0.1c-1.8,1.1-4.1,0.2-6.1,0.9
		c-1.5,0.4-3,0.9-4.4-0.4c-0.5-0.4-1.7-0.1-2.5,0c-3.7,0.5-7.4,1.3-11.2,0.7c-2.1-0.2-4.1-0.9-6.1-1.2c-1.1-0.2-2.1-0.1-3.3,0.2
		c-2,0.5-4.1,0.5-6.1,0.7c-1.2,0.1-2.5,0-3.7-0.1c-0.5,0-1.1-0.2-1.5-0.5c-2.5-1.3-4.6-1.8-7,0.1c-0.4-0.5-0.9-1.1-1.1-1.6
		c-1.2,0.9-2.5,1.2-4.1,0.4c-0.1,0-0.1-0.1-0.2-0.1c-3-0.4-6.1-0.9-9.2-1.3c-0.1,0.5-0.2,0.9-0.4,1.2c-2.5-0.4-4.7-1.5-7-1.1
		c-2.5,0.4-4.6-0.1-7-0.1c-1.7,0-3.6,0.5-5.8,0.9c-0.9-0.5-2.2-0.4-3.7,0c-3,0.7-5.8,0.9-8.7-0.5c-0.2-0.1-0.5-0.2-0.7-0.1
		c-2,1.3-4.2,0.1-6.3,0.5c-2.1,0.2-4.4,0-6.5-0.2c-1.8-0.2-3.6-0.9-5.4-1.2c-0.4-0.1-0.9-0.2-1.2,0c-2.5,1.6-5,0.1-7.7,0.9
		c-0.9,0.2-1.8-0.4-2.8-0.7c-0.9-0.2-1.8-0.7-2.8,0.1c-0.2,0.2-0.9,0.2-1.2,0.2c-2.5-0.1-4.7-0.2-7-0.7c-3-0.4-5.8-0.5-8.9-0.2
		c-3.4,0.2-6.9,0.1-10.3-0.1c-7.6-0.7-15.2,0.1-22.8,0.1c-4.4,0-8.6,0.1-12.9-0.7c-2-0.4-4.1-0.1-6.1-0.2c-2.8,0-5.4,0-8.2-0.1
		c-5,0-8.2-3.8-8.7-8.6c-0.4-6.1-0.9-12.4-1.1-18.5c-0.2-5.6-0.5-11.3-0.5-16.8c0-6,0.2-12.1,0.4-18.2c0-2.3-0.2-4.5-0.2-6.9
		c0-4.3,0-8.6,0-12.9c0-2.9-0.4-6-0.4-8.9c-0.1-5-0.4-9.8,0-14.8c0.4-4.3,0.2-8.5,0-12.5c-0.2-3.4-0.9-6.9-0.9-10.2
		c-0.1-2.7,0-5.4,0.5-8.1c0.9-4.2,0.9-8.2,0.2-12.5c-0.7-4.2-0.5-8.2-0.1-12.4c0.2-3.6,0.4-7.2-0.1-10.9c-0.5-4.7-0.7-9.4-0.1-14.3
		c0.2-1.6,0.1-3.4,0.1-5c0-3.2,0.1-6.2,0.1-9.4c0-0.9-0.1-2-0.1-2.9c-0.5-4-0.7-8.1-0.5-12.1c0.2-5.4,0.4-10.8-0.4-16
		c-0.9-5.4-0.9-10.8,0-16.3c0.7-4.8,0.1-9.8,0-14.6c-0.1-6.9-0.4-13.6-0.5-20.5c0-0.9,0.2-1.7,0.5-2.7c0.7-3.2,0.7-6.5-0.1-9.7
		c-0.7-2.4-0.9-5-1.5-7.3c0-0.2,0-0.5,0-0.7c0.4-3.4,0.5-7.1,1.2-10.5c0.5-2.6,0.2-5.1,0.5-7.7c0.1-2.3,0.2-4.5,0.5-6.9
		c0-0.5,0.1-1.1,0.1-1.7c0-4,0.1-7.8,0.1-12c0-0.4,0-0.9-0.1-1.2c-1.4-4.4-0.7-8.8-1.1-13.3c-0.2-3.1-0.5-6.1-0.7-9.3
		c-0.1-3.6-0.2-7.2-0.2-10.9c0-3.1,0.1-6.1-0.1-9.3c0-0.2,0-0.4,0.1-0.7c0.9-2.8,0.7-5.8,0-8.7c-0.1-0.9-0.4-1.5,0.4-2.3
		c1.1-1.1,0.9-2.4,0.2-3.6c-0.9-1.2-0.9-2.3,0.1-3.4c1.2-1.2,0.5-2.7,0.7-4.2c-0.5,0-0.9,0.1-1.4,0.1c-0.2-0.9-0.5-1.6,0.4-2.2
		c0.9-0.5,0.9-1.3,1.1-2.3c0.1-4,0.4-8.1,0.5-12.1c0.1-4.3,0.1-8.6,0.1-12.9c0-3.1-0.2-6.1-0.1-9.3c0.1-3.9,2.5-6.2,6.3-5.9
		c5.8,0.5,11.4-0.2,17.3-0.2c0.5,0,1.1,0,1.5-0.2c3.4-1.6,7-1.1,10.9-1.7c-1.5-0.4-2.5-0.7-4.1-1.1c0.7-0.4,0.9-0.9,1.2-0.9
		c2-0.4,3.8-0.9,5.8-1.2c0.9-0.1,1.6,0,2.5,0c1.5,0,2.8,0,4.2-0.1c0.2,0.7,0.1,1.2-0.7,1.5c-0.5,0.1-0.9,0.2-1.5,0.9
		c2.6,0.2,5,0.9,7.6,0.2c0.9-0.2,1.5-0.2,2.2,0c1.6,0.4,3.2,0.5,4.6-0.4c1.2-0.7,2.5-0.7,3.7-0.4c1.4,0.4,2.6,0.5,4.1,0.1
		c0.7-0.1,1.5,0,2.1,0c1.5-0.1,3-0.2,4.6-0.4c0.5,0,0.9-0.2,1.5-0.2c6.6-0.4,13.2-1.1,19.9-0.5c0.9,0.1,1.6,0,2.5,0
		c0.5,0,1.1-0.2,1.7-0.4c-0.1-0.7-0.1-1.3-0.2-1.8c0.1-0.1,0.2-0.4,0.4-0.4c2.2,0.1,4.2-0.5,6.1-1.5c1.4-0.7,3.2-0.2,4.7,0
		c2.8,0.5,5.4,0.2,8,0c1.4-0.1,2.6,0,4.1,0c1.4,0,2.5,0,3.8-0.2c1.4-0.2,2.5-0.2,3.4,0.7c-0.5,0.2-1.1,0.9-1.7,0.9
		c-2.2,0.1-4.6,0.1-6.6,0.2c-2.5,0-5-0.1-7.6,0c-0.5,0-1.1,0.2-1.6,0.9c0.9,0.1,1.7,0.7,2.5,0.4c1.6-0.4,3-0.1,4.6,0.1
		c3.2,0.5,6.1-0.4,9.2-0.5c2.6-0.1,5.4-0.1,8,0.1c1.7,0.1,3.3,0.2,5,0.2c0.9,0,1.5-0.4,3-0.9c-0.9-0.7-1.1-0.9-1.4-1.2
		c-0.1,0,0.1,0,0.2,0c1.5,0.7,3,0.7,4.4,0.2c0.5-0.1,1.1,0,1.7,0c1.1-0.1,2-0.2,3-0.5c1.2-0.2,2.5-0.7,3.7-0.9
		c0.2,0,0.7,0.4,1.1,0.5c1.6,0.7,3.2,1.3,5,2c-0.2-2.8-2.5-1.6-3.7-2.4c0-0.1,0.1-0.2,0.1-0.5c0.9,0,1.8-0.1,2.8-0.1
		c2.8,0,5.5-0.1,8.4-0.1c0.7,0,1.2,0.1,1.8,0.1c1.7,0.1,3.4,0.5,5.3,0.2c1.5-0.2,3,0.5,4.6,1.3c-2.2,0.2-4.4,0.5-6.6,0.9
		c1.8,0.9,3.8,0.7,5.7,0.1c2.6-0.9,5.3-0.9,8-0.1c2,0.5,4.1,0.4,6.1,0.5c0.7,0,1.5-0.1,1.7-0.7c1.6-2,3.8-1.5,5.5-1.2
		c3,0.4,5.5,0,8.2,0c2.5,0,4.7-0.2,7.1,0.5c0.7,0.2,1.6-0.1,2.5-0.1c2.1,0,4.1,0,6.1-0.1c2.5,0,4.9,0,7.4-0.1
		c4.1-0.1,8-0.9,12.1-0.2c1.6,0.2,3.2,0.7,4.7,0.9c3,0.2,5.9,0.1,8.9-0.2c3.2-0.4,6.1-1.3,9.3-2c1.4-0.2,2.6-0.4,4.1,0.2
		c0.7,0.2,1.6,0.2,2.5,0.1c2.6-0.2,5.3-0.5,7.7,0.4c1.1,0.4,2.2,0.2,3.3,0.2c5.4-0.2,10.8-0.7,16.4-1.1c0.9-0.1,1.8-0.4,2.8-0.5
		c1.2-0.1,2.5-0.4,3.6-0.1c3,0.9,6.1,0,9.1-0.2c0.7,0,1.5-0.2,2.1-0.2c3.6,0.1,7.1-0.9,10.6-1.5c3.3-0.5,6.6-0.9,9.8,0.1
		c3.8,1.1,7.6,1.2,11.6-0.2c0.9-0.4,2-0.1,3,0c2.5,0.2,5,0.5,7.4,1.1c4.2,1.1,8.2-0.4,12.4-0.1c1.8,0.1,3.7,0.1,5.5,0.2
		c1.5,0.1,3,0.5,4.4-0.4c0.4-0.2,1.1-0.1,1.6-0.1c3,0,5.8,0.2,8.6-0.9c0.7-0.2,1.5-0.2,2.1,0c3.4,0.9,6.9,0.7,10.3,0.9
		c1.8,0.1,3.7,0.1,5.5,0c2-0.1,3.8-0.7,5.4-1.8c1.2-0.9,2.5-0.9,3.8-0.2c3.3,1.3,6.6,1.7,10.3,1.5c0.7,0,1.5-0.1,2.1-0.1
		c4.1,0.1,8.2,0.2,12.7,0.5c0.4,0.5,1.1,1.3,1.6,2.3c0.5,0.9,0.9,1.7,1.2,2.9c0.5,0.1,1.6-0.1,1.7,1.1c0.1,0.9,0.1,1.6,0.1,2.4
		c0.5,0,1.4-0.1,1.6,0.1c0.5,0.7,0.9,1.5,1.1,2.3c0.2,1.1-0.1,2.4,1.4,3.1c0,0.4-0.2,0.9-0.1,1.3c1.2,3.4,1.8,6.9,2.1,10.4
		c0,0.1,0,0.1,0,0.2c1.7,2.9,0.5,6.1,0.4,9.3c0,1.1,0,2.2,0.1,3.1c0.4,3.4,0,6.9,1.2,10c0.1,0.4,0.2,0.9,0.1,1.1
		c-0.9,1.2-0.5,2.3-0.1,3.4c0.2,0.9,0.2,1.7,0.2,2.7c-0.2,2.7-0.1,5.4,0.1,8.1c0.1,2.2,0.7,4.2,0.9,6.2c0.1,1.6,0.1,3.2,0.2,4.8
		c0,0.5,0.1,1.1,0.2,1.6c0,1.8,0.1,3.8,0.1,5.5c-0.1,2-0.1,3.9,1.4,5.6c-1.4,2.4-1.1,5-0.7,7.5c0.4,2.4,0.2,4.8,0.5,7.2
		c0.1,1.7,0.4,3.4,0.5,5c0.1,1.8,0,3.9,0.1,5.8c0,1.1,0.2,2.3,0.4,3.4c0.2,1.3,0.5,2.7-0.1,4c-0.2,0.5-0.2,1.5,0.1,1.8
		c0.9,0.9,0.4,1.7,0,2.7c-0.2,0.7-0.5,1.7-0.1,2.4c0.9,2.3,0.5,4.7,0.5,7c0.1,6,0.2,12,0.2,18c0,4.8,0,9.8-0.4,14.6
		c-0.2,3.4,0,6.6,0.4,9.8c0.4,2.9,0.4,6,0.1,8.9c-0.4,3.9,0,7.7,0.9,11.4c0.4,1.8,0.5,3.6,0.2,5.5c-0.9,4-1.2,8.2-0.1,12.4
		c0.5,2.3,0.1,4.7,0.2,7.1c0.1,3.6,0.2,7.2,0.4,10.9c0,0.5,0.1,0.9,0.1,1.5c-0.7,3.4,0.4,6.9,1.4,10c0.4,1.6,0.5,3.2,0,4.8
		c-1.2,3.2-0.9,6.5-0.5,9.7c0.1,1.2,0.1,2.4,0.1,3.6c-0.1,2.9-0.2,5.9-0.2,8.7c0,0.9,0.1,2,0.4,2.9c1.5,4.2,1.4,8.2,1.1,12.5
		c-0.1,1.5,0.2,3.1,0.2,4.5c0.1,2.6,0.2,5,0.2,7.5c0,1.8,0,3.8-0.1,5.6c-0.1,2.3-0.4,4.5-0.9,6.9c-0.4,2.6-0.5,5-0.2,7.7
		c0.4,3.2,0.7,6.5-0.7,9.7c-1.4,3.1-0.7,6,0.7,8.9c0.7,1.5,1.2,2.8,0.9,4.4c-1.2,7.8-0.5,15.9,0,23.8c0,1.1-0.1,2-0.2,3.1
		c0,0.7-0.2,1.5-0.1,2.2c1.2,3.9,0.1,7.5-0.7,11.3c-0.9,4-1.2,8.2-1.5,12.4C484.7,409.5,485.2,410.7,485.7,411.8z M490.7,484
		c-0.1,0-0.4-0.4-0.4-0.4c0.1-0.2,0.4-0.4,0.5-0.5c0.1,0,0.2,0.2,0.5,0.4C491.1,483.6,490.9,484,490.7,484z"/>
	<path d="M487.1,88.4c0.1,0,0.2,0,0.4-0.1c-0.1-4.5-0.2-9.3-0.5-13.7c-0.2,0-0.4,0-0.7,0c0.1,4.3,0.1,8.6,0.2,12.9
		C486.8,87.6,487.1,88,487.1,88.4z"/>
	<path d="M487.1,72.1c0-3.2,0-6.5,0.1-9.7c-0.1,0-0.2,0-0.4,0c0,0.4-0.1,0.9-0.1,1.1c0.2,2,0.2,4-0.4,5.9
		C486.1,70.2,486.3,71.2,487.1,72.1z"/>
	<path d="M487.7,100.6c-1.2,0.9-1.1,1.5-0.5,2.7C487.5,102.3,487.6,101.6,487.7,100.6z"/>
	<path d="M486.6,57.6c0.1,0,0.2,0,0.4-0.1c-0.1-0.7-0.2-1.5-0.4-2.2c-0.1,0-0.2,0-0.5,0.1C486.3,56.3,486.4,56.9,486.6,57.6z"/>
	<path d="M487.1,52c-0.2-0.1-0.4-0.2-0.5-0.2c-0.1,0.2-0.2,0.4-0.2,0.7c0,0.1,0.2,0.2,0.5,0.4C486.8,52.6,486.9,52.2,487.1,52z"/>
	<path d="M13,198.5c-0.1,0-0.2,0-0.4,0c0,0.2,0,0.7,0.1,0.9c0.1,0,0.1,0,0.2,0C12.9,199,13,198.7,13,198.5z"/>
	<path d="M487.1,90.8c0.2,0,0.4,0,0.7,0c0-0.4-0.1-0.9-0.1-1.2c-0.1,0-0.4,0-0.4,0C487.1,90.1,487.1,90.4,487.1,90.8z"/>
	<path d="M476.4,294c0-0.9,0-1.7-0.1-2.7c-0.1-3.4-0.2-6.9-0.4-10.2c0-0.2,0-0.5,0.1-0.7c0.5-1.6,0.1-3.1-0.9-4
		c0.2-0.9,0.9-1.8,0.5-2.2c-1.1-1.6-0.4-3.2-0.5-4.7c-0.1-1.2-0.9-2.8-0.4-3.8c1.1-2.2,0-4.2-0.1-6.1c-0.2-3.1-0.9-6.1-0.5-9.1
		c0.2-2.4-0.4-4.7,0-7c0-0.2-0.1-0.7-0.1-0.9c-0.1-1.3-0.4-2.7-0.4-4s0.5-2.8,0.2-4c-0.2-1.5-0.4-2.8-0.2-4.3
		c0.2-4,0.2-8.1,0.2-12.1c0-1.1-0.2-2.2-0.4-3.1c-0.2-1.7-0.9-3.4,0.2-5c0.4-0.5,0.5-1.2,0.4-1.8c-0.1-2.6-0.2-5-0.4-7.7
		c0-1.1-0.1-2.2-0.1-3.2c-0.1-3.2,0-6.5,0.2-9.8c0.2-3.6-0.1-7.2-0.1-10.9c0-0.9,0.1-2-0.1-2.9c-0.4-1.7-0.9-3.4-0.2-5.1
		c0.1-0.5,0.1-1.2-0.1-1.6c-1.1-1.8-0.9-3.9-0.9-5.9c0.1-0.9,0-1.6-0.1-2.4c-0.5-2.6-1.1-5-0.9-7.7c0.1-2.3,0-4.5-0.4-6.6
		c-0.4-2-0.4-3.9-0.1-5.8c0.2-1.7,0.2-3.4-0.2-5.4c-0.5-1.7-0.5-3.6-0.7-5.5c-0.2-2.7-0.4-5.4-0.5-8.1c-0.2-2.9-0.5-5.9-0.9-8.7
		c-0.1-1.5,0.2-2.3,1.8-2.9c-1.8,0.4-2-0.7-2.2-1.7s-0.5-2.3-0.5-3.4c-0.2-3.1-0.5-6.2-0.7-9.3c-0.1-1.6-0.1-3.2-0.1-4.8
		c-0.1-2.3-0.2-4.7-0.2-7c0-1.8,0.2-3.9,0.2-5.8c0-2.9-0.2-5.8-0.2-8.7c0-3.1,1.1-6,0.5-9.1c0-0.2,0-0.5,0.1-0.7
		c1.1-2.4,1.2-4.8,1.1-7.3c0-0.9,0.4-1.2,1.4-1.2c1.1,3.2,1.2,6.2-0.5,9.3c0.5,1.5,1.1,2.9,0.1,4.5c-0.1,0.2-0.1,0.9-0.1,1.2
		c0.2,3.4,0.5,7,0.9,10.4c0.4,3.8,0.9,7.3,0.4,11.1c0,0.9,0.2,1.5,0.2,2.3c1.4-2.3,1.1-4.7,0.9-7.2c-0.2-2.7-0.4-5.5-0.2-8.2
		c0.2-4.3,0.9-8.5,0.9-12.5s-0.5-8.2-0.9-12.5c-0.1-0.9-0.5-1.6-0.9-2.7c-0.9,1.1-0.5,2.6-2.2,2.8c-0.1-0.7-0.5-1.3-0.4-2
		c0.5-2.2-0.4-3.6-1.8-5.4c2.5-0.5-0.5-2.6,1.1-3.4c0.7,0.5,1.2,0.9,2.2,1.7c-0.2-1.2-0.2-2-0.5-2.7c-1.2-2.8-2.5-5.8-3.7-8.6
		c-0.2-0.7-0.7-1.3-1.4-1.6c-2.2-1.1-4.6-1.7-7-1.1c-2.1,0.7-4.2,0.7-6.3,0.7c-3.2,0.1-6.1,0.2-9.2,0.9c-1.7,0.2-3.3,0.5-4.9-0.1
		c-2-0.9-4.1-0.4-5.8,0.5c-1.4,0.7-2.5,0.4-3.8-0.1c0.9-0.2,1.6-0.4,2.5-0.7c-1.5-0.4-3-0.7-4.2-0.2c-1.7,0.4-3.3,0.4-5,0.2
		c-1.5-0.1-3-0.2-3.4,1.8c0,0.2-0.7,0.4-1.2,0.9c-0.2-0.7-0.5-1.2-0.9-2.2c-0.7,1.2-2.5-0.4-2.6,1.7c0,0.1-0.4,0.2-0.5,0.2
		c-1.4,0.4-2.8,0.9-4.1,1.3c-2,0.9-4.1,1.1-6.1,0.5c-0.9-0.2-1.6-0.2-2.5,0c-0.7,0.2-1.4,0.4-2.1,0.4c-1.5,0-3-0.2-4.6-0.1
		c-4.1,0.2-7.9,0.7-11.9-0.2c-1.1-0.2-2-0.5-3-0.9c-0.1,0-0.1-0.2-0.2-0.4c0.4-0.4,0.9-0.9,1.4-1.7c-1.5-0.1-2.5-0.2-3.4-0.1
		c-0.5,0-1.4,0.4-1.6,0.9c-0.5,1.2-1.4,2-2.6,2.2c-1.2,0.1-2.5,0.2-3.6-0.1c-1.5-0.5-3-0.5-4.6-0.4c-1.7,0.1-3.3-0.4-5-1.2
		c1.8-0.9,3.3-1.3,4.9-1.2c1.6,0.1,2.1-0.1,2.6-1.8c-0.4,0.1-0.7,0.1-0.9,0.2c-3.2,1.1-6.3,1.5-9.6,1.2c-3-0.2-6.1-0.1-9.3-0.1
		c-0.9,0-1.7,0-2.2,1.2c2.5-0.1,4.6-1.1,7-0.2c-0.4,0.5-0.9,0.9-1.4,0.9c-1.4,0.2-2.8,0.4-4.2,0.5c-3.3,0.4-6.5,1.1-9.8,1.3
		c-2.5,0.2-5,0.2-7.6,0.2c-0.7,0-1.5-0.1-2.1-0.1c-2,0-4.1-0.4-5.9,0c-2.6,0.4-5,0.4-7.6,0.1c-3-0.4-5.7-0.7-8.6-0.7
		c-2.5,0-4.7,0.9-7.3,0.9c-3.6-0.1-7.1,0.1-10.8,0c-3,0-6.1-0.1-9-0.2c-0.4,0-0.9,0.2-1.2,0.2c-1.1,0.1-2.1,0.5-3.3,0.4
		c-2.1-0.1-4.1-0.5-6.1-0.5c-4.2-0.2-8.4-0.9-12.7-0.7c-4.9,0.2-9.8,0.1-14.6,0.2c-1.8,0-3.7-0.1-5.5,0c-4.9,0.4-9.8,0.9-14.6,1.2
		c-1.2,0.1-2.5,0-3.6,0c-0.7,0-1.4,0-1.8,0c-1.5,0.1-3,0.2-4.2,0.2c-2,0.1-4.1,0.2-5.9,0.2c-4.1,0.1-8.2,0.5-12.4,0.4
		c-4.1,0-8.2-0.5-12.1,0.1c-1.1,0.1-2.1,0.1-3.2,0.1c-2.8,0-5.4-0.5-8.2,0.2c-0.5,0.1-1.4,0-1.8,0c-0.9,0-1.6,0-2.5,0
		c-2.5,0.2-4.9,0.7-7.4,1.1c-1.1,0.1-2,0.9-3,0.7c-4.9-0.1-9.8,0.9-14.5-0.1c-0.9-0.1-1.7-0.1-2.5,0.1c-0.9,0.2-1.5,0.1-2.2-0.1
		c-2.1-0.5-4.1-1.3-6.3-0.4c-0.9,0.4-2.5,0.2-3-1.2c0.9-0.1,1.5-0.4,2.2-0.4c1.5,0,3,0.2,4.6,0.2c4.4,0.1,8.9,0.4,13.2,0.1
		c6.1-0.2,12.3-0.9,18.4-1.3c1.5-0.1,2.8-0.2,4.2-0.4c-4.6-0.5-9-0.9-13.3-0.7c-5.9,0.1-11.9,0.4-17.8,0.7c-2.1,0.1-4.4,0.2-6.5,0
		c-3.7-0.4-7.4-0.4-10.9,0.1c-0.1,0-0.2,0.1-0.4,0.2c0.1,0.2,0.2,0.7,0.5,1.3c-0.9-0.4-1.2-0.5-1.6-0.9c-0.4-0.2-0.9-0.5-1.4-0.9
		c-0.5,0.9-0.9,1.3-1.1,1.6c-1.6,0-3-0.1-4.4,0c-2,0.2-4.1,0.9-5.9,1.1c-2.2,0.2-4.6,0.9-6.9,0.2c-0.9-0.2-1.7,0.2-2.5,0.2
		c-1.5,0.1-3.2,0.9-4.6,0.2c-2.2-0.9-4.6-1.6-6.9-1.7c-1.1,0-2.2-0.2-3.3-0.2c-2.6,0-5.3,0.5-7.9,0.2c-5-0.4-10.2,0-14.9-1.7
		c-1-0.7-1.4-0.7-1.8-0.7c-2.8,0.5-5.7,1.2-8.4,1.8c-0.2,0-0.4,0.1-0.7,0.2c-1.1,0.4-2.1,0.9-3.2,1.2c-0.9,0.4-1.8,0.9-2.6,1.2
		c-0.1,1.6,0.1,3.1-0.4,4c-0.7,0.9-0.7,1.7-0.7,2.7c0.1,1.8,0.4,3.9,0.5,5.8c0,0.5,0.1,1.1,0,1.7c-0.4,3.8-0.9,7.7-1.1,11.4
		c0,0.7,0.1,1.5,0,2.2c0,1.6-0.1,3.2-0.1,4.8c0,0.4-0.1,0.9,0,1.2c0.2,4.4,0.7,8.7,0.9,13.1c0.2,5.1,0.4,10.4,0.7,15.6
		c0.1,1.8,0.1,3.9,0,5.8c-0.2,3.6-0.7,7.2-0.9,10.9c-0.1,1.1-0.7,2-0.5,3.1c0.2,3.9,0.9,7.7-0.1,11.5c0,0.2-0.1,0.5,0,0.7
		c0.9,2-0.1,4-0.2,6c-0.2,5.5-0.5,10.9-0.7,16.7c-0.2,12-0.2,24.3-0.4,36.3c0,1.3,0.2,2.6,0.4,3.9c0.1,1.1,0.5,2.2,0.5,3.4
		c-0.1,7.1-0.5,14.3-0.7,21.4c0,7.2,0.2,14.5,0.4,21.7c0.1,5.6,0.2,11.4,0.4,17c0,1.3-0.1,2.6-0.2,3.9c-0.4,4.3-0.9,8.7,0.9,12.9
		c-0.4,2.8,1.1,5.4,1.2,8.1c0.1,3.8-0.4,7.7-0.9,11.4c-0.2,2.6-0.7,5-0.9,7.5c-0.1,1.8-0.2,3.8-0.4,5.5c-0.1,1.1-0.2,2-0.4,3.1
		c0,0.2-0.1,0.4-0.2,0.7c-0.5-0.2-1.2-0.5-1.8-0.9c-1.2,2.8-0.5,5.4-0.5,8.1c0.2,0,0.4,0,0.7,0.1c0.2-1.2,0.5-2.4,0.9-3.9
		c0.7,2.4,0.5,4.5,0,6.6c-0.1,0.5-0.1,1.1-0.1,1.7c0.1,3.1-1.7,5.9-0.9,9.1c0,0.1,0,0.2-0.1,0.4c-0.7,1.6-0.7,3.4-0.5,5
		c0.1,1.5,0,2.9-0.1,4.4c-0.4,2.6-0.2,5,0.9,7.3c0.7,1.5,0,2.6-1.6,3.1c-0.4,0.1-0.9,0.5-1.4,0.9c0.2,0.2,0.4,0.5,0.5,0.4
		c0.5,0,1.1-0.1,1.6-0.1c0.9-0.1,1.5,0.4,1.2,1.3c-0.2,0.9-0.5,1.8-0.9,2.8c1.1,0.5,2.1,1.3,1.5,2.6c-0.9,1.7-0.7,3.4-0.4,5.1
		c0.1,0.7,0.2,1.3,0.1,1.8c-0.5,1.3-0.1,2.6,0,3.9c0.2,3.8,0.5,7.5,0.9,11.4c0,0.1-0.1,0.2-0.1,0.5c-0.5,4.3-0.9,8.7-0.9,13
		c0.1,7.2,0.5,14.5-0.7,21.4c-3.2,2-7.1,0.9-10.5,3.2c2.6,2.2,5.9,1.7,8.2,3.9c0.4,0.4,1.4,0.4,2.1,0.5c0,0.7,0,1.3,0,2.2
		c-0.5-0.2-1.1-0.5-1.5-0.9c-0.1,1.7,0,2.4,0.5,3.1c0.1,0.2,0.4,0.5,0.4,0.9c0.1,2.2-0.2,4.4,0.5,6.5c0.1,0.2-0.1,0.7-0.1,1.1
		c-0.1,0-0.2,0-0.4,0c-0.4-1.3-0.9-2.8-1.2-4.2c-0.9,0.2-1.2,0.9-1.1,1.8c0.4,4.3,0,8.6-0.5,12.9c-0.7,5-0.9,10-1.2,15.1
		c-0.1,1.3,0,2.8,0.2,4.2c0.4,2.6,1.8,4.4,4.2,5.5c2.6,1.2,5.3,1.3,7.9,0.7c1.2-0.4,2.5-0.7,3.8-0.9c7.1-0.5,14.1-0.9,21.4-1.3
		c6.1-0.2,12.1-0.5,18.2-0.7c3.8-0.1,7.6,0.1,11.4,0.1c6.6,0.1,13.5,0.4,20.2,0.5c3,0,5.8,0,8.6,0.1c3.3,0,6.6,0.2,9.8,0
		c3.6-0.2,7-0.5,10.6-0.4c7,0.4,14,0.1,20.8,0.2c2.2,0,4.6,0.4,6.9,0.9c2.1,0.4,4.2,0.7,6.5,0.2c5.5-0.9,11.1-1.2,16.8-1.1
		c2,0,3.8,0.5,5.5,1.5c2.2,1.3,4.6,1.3,7,0.9c1.7-0.2,3.3-0.7,5-0.9c4.1-0.1,7.9-0.2,12.1-0.4c0.9,0,1.8,0.1,3,0.1
		c1.7,0.1,3.3,0.4,5,0.7c1.8,0.2,3.8,0.2,5.7,0.7c4.9,1.1,9.8,0.9,14.5-0.4c1.8-0.5,3.4-0.4,5-0.1c2.5,0.5,5,0.4,7.6-0.1
		c2.1-0.5,4.6-0.5,6.6-0.7c2.5-0.1,4.7-0.1,7.1-0.2c0.5,0,1.2,0,1.4-0.4c0.9-1.8,2.5-1.2,4.1-1.3c1.2,0,2.2-0.1,3.4-0.4
		c1.7-0.4,3.4-0.5,5.3-0.5c0.9,0,2.5,0.4,2.5,0.9c0.9,2,2.5,1.6,3.7,1.6c3,0,5.8-0.2,8.6-0.4c2.1-0.1,4.2-0.5,6.1-0.1
		c4.9,0.9,9.6-0.1,14.5,0c4.1,0.1,7.9-0.2,11.9-0.1c5.4,0.1,10.7,0.7,16.1,0.9c0.9,0,1.6,0,2.5,0c5.5,0,11.1,0,16.5,0
		c0.4,0,0.9,0.1,1.2,0.1c1.6,0,3,0.1,4.6,0.1c3.3-0.1,6.6,0.1,10,0.5c1.4,0.1,3,0.7,3.8-0.9c0.1-0.1,0.4-0.4,0.5-0.4
		c2,0.2,4.1-0.4,6.1,0c1.8,0.4,3.8,0.9,5.3-1.1c0.2-0.4,1.1-0.5,1.6-0.4c2.5,0.4,4.6,0.2,6.9-0.7c0.2-0.1,0.7-0.1,0.9-0.1
		c2.2,0.1,4.6,0.5,6.6,0.2c1.7-0.1,3.4,1.2,5-0.2c0.1-0.1,0.2,0,0.4,0c1.8,1.2,3.8,0.7,5.7,0.5c1.7-0.1,3.8-0.7,5,1.6
		c0.9-1.7,1.7-3.1,3.6-2.9c3.3,0.4,6.6-0.7,9.8,1.3c0.1,0.1,0.2,0,0.5,0c3,0.5,6.1,0.9,9.2,1.6c3.6,0.7,6.1-0.4,8-3.4
		c0.5-0.9,1.1-1.5,1.5-2.3c0.9-1.8,2.1-3.6,1.5-6.1c-1.4,0.1-2.1-0.5-2.5-1.8c-0.4-1.3-1.4-2.4-0.7-3.9c0.1-0.2-0.1-0.7-0.2-0.9
		c-1.1-2.2-0.7-4.3-0.5-6.5c0.1-2.2,0.1-4.2,0.1-6.2c0-0.5,0-0.9,0-1.5c0-2.9,0-6,0-8.9c0-2-0.2-4-0.1-6c0-2.6,0.4-5.1,0.4-7.7
		c0.1-2.9,0.1-6,0.2-8.9c0-3.1-0.1-6.1-0.1-9.3c0-1.3-0.1-2.7-0.1-4.2c0.1-4.2,0.7-8.2,0.4-12.4c-0.1-2.2,0.1-4.2,0.5-6.1
		c0.4-2,0.5-4.2,0.9-6.2c0.2-2,0.7-3.9,1.1-5.9c0-0.2,0.1-0.5,0-0.7c-0.9-1.3-0.2-2.8-0.2-4.2c0-1.2-0.5-2.4-0.7-3.6
		c-0.2-3.4-0.5-7-0.9-10.4c0-0.9-0.1-2,0.4-2.6c1.1-0.9,0.9-2,0.7-3.2c0-1.1-0.1-2.2-0.1-3.2c-0.1-1.3-0.1-2.7-0.2-3.9
		c-0.2-0.2-0.1-0.4,0-0.7c1.4-1.7,1.4-1.7,0.1-3.6c-0.5-0.9-0.7-1.8-0.5-2.8c0.2-1.5,0.9-2.8,1.2-4.2c0.2-0.9,0.9-1.6,0.5-2.3
		c-0.5-1.7-0.1-3.4,0.1-5c0.2-1.2,0.9-2.3,0.9-3.4c0.1-3.2,0-6.5,0-9.7C476.6,297.6,476.6,295.7,476.4,294z M355.7,27.4
		c-0.2,0.5-0.2,1.1-0.5,1.2c-1.5,0.7-2.8,0.1-4.1-0.5C352.5,27,353.8,27.5,355.7,27.4z M122.3,32.8c-0.7-0.1-1.4-0.2-2-0.5
		C121.1,31.5,121.8,32.1,122.3,32.8z M48.5,442.3c1.4-0.4,1.7,0.1,2.1,1.5C49.7,443.2,49.3,442.8,48.5,442.3z M102.5,456.8
		c-0.2,0-0.7-0.4-0.9-0.7c1.2-0.4,2.5-0.9,3.8-0.1C104.3,456.3,103.4,456.6,102.5,456.8z M117.7,455.4c-1.5-0.1-3-0.4-4.4-0.4
		c-1.6,0-3,0.2-4.6,0.5c0-0.2-0.1-0.4-0.1-0.7c0.4-0.2,0.9-0.9,1.4-0.9c2.6,0.1,5,0.4,7.7,0.7C117.7,455.1,117.7,455.3,117.7,455.4z
		 M119.8,455.4c1.6,0,3.3,0,4.7,0C122.7,456.4,121.3,456.6,119.8,455.4z M132,455.3c-0.9-0.2-2,0.2-3,0.4c0-0.2,0-0.4,0-0.7
		c2.6-0.2,5.4-0.5,8-0.9C135.4,454.8,134.1,455.9,132,455.3z M139.5,454.3c2.1-1.1,4.2-0.9,6.3,0
		C143.7,454.3,141.6,454.3,139.5,454.3z M190.4,458.4c-2.6-0.4-5-1.7-7.6-2.4c-0.2-0.1-0.7-0.2-0.9-0.2c-3-0.1-5.8-0.4-8.6-0.5
		c-2.1-0.1-4.1-0.2-6.1-0.4c-0.1,0-0.4-0.2-0.7-0.5c2.1-0.9,4.1-0.4,5.9-0.2c3.3,0.2,6.5,0.7,9.8,0.9c0.2,0,0.7,0,0.9,0.1
		c2.5,1.6,5.3,1.3,7.7,2c1.4,0.4,2.8-0.1,4.2,0c0.7,0,1.2,0.2,2.2,0.5C194.8,459.1,192.5,458.7,190.4,458.4z M466,446.9
		c-0.5,1.7-0.7,3.6-0.9,5.5c0,0.9-0.4,1.7-1.2,1.8c-2.2,0.4-3.6,2.3-5,3.6c-0.2-0.1-0.5-0.1-0.9-0.1c-2.8-0.9-3.3-0.7-4.9,1.6
		c-1.1,1.5-1.4,1.6-3,1.1c-1.8-0.5-3.4-0.1-4.7,1.2c-0.4,0.4-0.9,0.5-1.4,0.9c-0.5,0.2-1.1,0.5-1.7,0.7c-0.4,0.1-0.9,0.2-1.2,0.4
		c-2.5,0.1-5,0.5-7.5,0.1c-1.7-0.2-3.3-0.7-5-0.1c-0.4,0.1-1.2-0.4-1.7-0.9c-1.2-0.9-2.5-0.9-3.6-0.1c-1.7,1.1-3.6,0.9-4.9-0.2
		c-1.8-1.3-3.4-1.5-5.3-0.1c-0.1,0.1-0.2,0-0.5,0.1c-1.1-1.1-2.2-1.7-3.8-1.2c-0.2,0.1-0.5-0.1-0.9-0.2c-2-1.1-4.1-2.3-6.1-3.4
		c-0.2,0.5-0.5,1.2-1.1,1.6c-0.4,0.4-1.1,0.7-2,1.2c0,0.2-0.1,0.9-0.2,1.6c-0.2,0-0.5,0.1-0.7,0.1c-1.4-0.1-2.5-0.5-3.8-0.7
		c-0.9-0.1-1.7,0.2-2.5,0c-0.9-0.2-1.5-0.9-2-1.2c-1.6,0.9-2.8,1.5-4.2,2c-0.9,0.4-2,0.4-3.3,0.7c0.9-1.7,2.2-2.9,0.7-4.4
		c-3,0.5-2.8,2.9-2.6,5.1c-2.5,0.4-4.6,0.9-6.5-0.1c-0.2-0.1-0.5-0.1-0.7-0.1c-2.5,0.7-4.6,0.2-6.9-0.4c-1.2-0.4-2.5-0.1-3.7,0.1
		c-1.1,0.2-1.8-0.1-2.6-0.9c-1.2-1.1-2.5-1.2-4.1-0.7c-1.2,0.5-2.6,0.2-4.1,0.2c-1.4,0-2.6-0.2-4.1-0.4c-0.1,0-0.4,0-0.4-0.1
		c-1.4-1.7-2.8-1.3-4.4-0.2c-0.2,0.2-0.9,0.2-1.2,0.1c-1.5-0.5-2.8-0.4-4.2-0.2c-0.4,0-1.2-0.1-1.4-0.5c-0.5-1.2-1.6-0.7-2.5-0.9
		c-2.1-0.9-4.2-0.5-6.3,0.2c-0.1,0-0.4,0.1-0.5,0c-2-0.7-3.7-0.4-5.7,0.4c-1.2,0.5-3-0.2-4.4-0.4c-0.4,0-1.1-0.2-1.2,0
		c-0.9,1.6-2.8,1.2-4.1,2.2c-1.7,1.2-3.8,1.6-5.5-0.4c-0.2-0.4-0.9-0.7-1.5-0.7c-1.8,0-1.8,0.1-3-0.7c-0.2,0-0.4,0.1-0.7,0.1
		c-1.6,0.7-2.6,0.5-4.2,0.1c-0.9-0.2-1.7,0.2-3,0.5c-0.4-0.1-1.4-0.2-1.7-0.9c-1.2-1.3-2.5-1.1-3.6-0.1c-1.4,1.1-2.5,0.9-3.4-0.1
		c-1.1-1.1-2.5-0.9-3.6-1.1c-0.9-0.1-1.7,0.9-2.5,1.5c-0.9,0.1-1.6,0-2.5,0.2c-1.5,0.7-3,0.5-4.4-0.2c-2.2-1.2-4.7-1.8-7.4-2
		c-0.9,0-2,0-2.5,0.5c-1.7,1.7-3.6,0.9-5,0.2c-1.8-0.9-3.3-1.1-5.3-0.7c-1.6,0.4-3.4-0.1-5-0.1c-1.5-0.1-3-0.1-4.4-0.2
		c-0.5,0-1.1-0.4-1.6-0.5c0-0.1,0-0.4,0.1-0.5c0.5-0.1,1.2-0.2,1.7-0.2c2.8-0.1,5.5-0.1,8.2-0.2c0.9,0,2-0.4,3.2-0.9
		c3,1.3,10.5,1.7,13,0.1c-1.8-0.4-3.4-0.9-5-0.9c-3.7-0.1-7.5,0-11.2,0.1c-0.5,0-1.1,0.2-1.5,0c-2.2-1.2-4.7-0.5-7.1-0.7
		c-3.3-0.2-6.5,0.4-9.5,1.6c2.1,0.7,4.6-0.9,7.1,1.1c-2.5,0.2-4.1,0.2-6.1,0.1c-2.8-0.2-5.4-0.2-7.9,0.9c-0.5,0.2-1.4,0.4-1.7,0.2
		c-2.1-0.9-4.2,0.1-6.3,0.2c-1.2,0.1-2.2,0.7-3.4,0.9c-1.4,0.1-2.5,0.1-3.8,0.1s-2.5,0.9-4.1,0.4c-0.9-0.2-1.8,0.5-2.8,0.9
		c-0.9-1.2-1.4-2.7-2.5-3.4c-1.1-0.7-2.5-0.7-3.8-0.9c-0.5-1.1,0.9-1.2,1.5-2.2c-1.5-0.1-2.5-0.4-3.6-0.2c-4.4,0.4-8.4-0.5-12.7-1.1
		c-3-0.4-6.1-0.5-9.1-0.7c-1.8-0.1-3.8-0.2-5.7-0.2c-1.2,0-2.5,0.2-3.6,0.2c-3.4,0-6.9-0.1-10.3-0.1c-7.4-0.1-14.9-0.5-22.3-0.5
		c-5.5,0-11.2,0.4-16.8,0.7c-4.1,0.1-7.9,0.1-12.1,0.1c-0.9,0-1.8,0.2-2.8,0.2c-0.1,1.2-0.1,2.2-0.1,3.1c-2.5,1.2-4.7,0.7-7,0
		c-2.5-0.9-4.9-0.9-7.3-0.4c-1.8,0.4-3.7,0.5-5.3,0.7c-1.1-0.5-2-1.6-2.6-1.5c-3.2,0.9-5.9-0.5-9-0.9c-2.6-0.2-5.4-0.7-8-0.7
		c-2.5,0-4.4-1.1-5.8-2.9c-1.1-1.3-2-2.8-2.5-4.4c-0.9-2.6-2.2-4.5-4.2-6c-1.4-1.1-1.5-2.2-0.9-3.4c0.5-1.3,0.5-2.4-0.1-3.8
		c-0.2-0.4-0.1-1.1-0.2-1.6c-0.1-0.9-0.1-1.6-0.2-2.3c-0.5-2.3,0.5-5.4,2.5-6.6c0.5-0.2,1.2-0.4,1.8-0.4c5.3,0,10.6-0.1,15.7,0.2
		c3,0.2,6.1,1.1,9.1,1.8c2.5,0.7,4.7,1.6,7.1,2.4c3.8,1.3,7.7,1.5,11.6,1.6c5.8,0.2,11.4-0.2,17.3-1.1c11.7-1.8,23.2-4.7,35-7.5
		c8.9-2.3,17.5-4.5,26.2-7.1c10.2-3.1,20-6.6,29.4-11.8c4.1-2.3,8.2-4.3,12.3-6.9c6.3-4.2,12.7-8.2,17.7-14.1
		c4.1-4.7,6.3-10.4,8.6-15.9c1.8-4.8,1.8-9.7,0.9-14.6c-0.4-2-1.2-4-2-6c-0.4-1.1-0.9-2.2-0.4-3.4c0.2-0.9,0.4-1.7,0.4-2.7
		c0.1-2.3-0.4-4.3-2.1-6c-2.1-2.3-4.1-4.7-6.1-7.1c-0.9-0.9-1.7-2-2.6-2.8c-1.1-1.1-1.8-1.1-3,0.1c-1.1,1.2-2,2.4-2.8,3.8
		c-1.4,2.2-2.5,4.3-3.7,6.6c-1.6,3.2-1.4,6.2-0.4,9.8c1.8,6.1,5.3,11.3,9.1,16.3c1.6,2.2,3,4.3,3.8,6.6c0.5,1.5,0.4,2.7-0.9,3.6
		c-3.8,2.8-7.5,5.8-11.4,8.2c-4.6,2.8-9.1,5.5-13.8,7.7c-4.6,2.3-9.5,4.4-14.4,6.2c-4.6,1.7-9.1,3.2-13.7,4.7
		c-5.5,1.6-11.1,3.1-16.8,4.5c-3,0.9-6.1,1.6-9.1,2.3c-6.6,1.5-13.3,2.9-19.9,4.3c-4.7,0.9-9.3,2-14.1,2.7
		c-4.7,0.7-9.5,1.2-14.4,1.7c-6.5,0.7-13,1.5-19.7,2c-6.6,0.7-13,1.2-19.7,1.7c-4.1,0.4-7.9,0.7-12.1,1.1c-2.1,0.1-4.1,0.4-6.1-0.1
		c0.2-3.4,0.5-6.9,0.2-10.2c-0.2-2.4,0.1-4.8,0.1-7.2c-0.2-6.5,1.2-13,0.1-19.5c-0.2-1.8,0-3.8,0.1-5.6c0.2-3.1,0.2-6.1-0.2-9.3
		c-0.2-1.6,0-3.4,0-5c-0.1-3.6,0.9-7.2,0.2-10.9c-0.4-2.8-1.1-5.5-1.2-8.2c-0.1-2.3-0.2-4.7,0.9-7c0.4-0.9,0.5-1.8,0.4-2.8
		c-0.1-3.4,0-7-0.7-10.4c-0.5-2.9-0.1-5.8,0.2-8.7c0.1-0.9,0-1.6-0.1-2.4c-0.1-1.1-0.2-2.3-0.2-3.4c0.2-3.4,0.1-6.6-0.4-10
		c-0.2-1.6,0.4-3.2,0.2-4.8c-0.1-2.7,1.4-5.1,0.7-8.1c-0.2-1.3,0.1-2.8,0.2-4.7c-0.9-1.2-1.2-3.1-1.1-5.1c0.1-1.3,0-2.8,0-4.2
		c0-2.4,0-4.8,0-7.2c0-1.1-0.1-2.3-0.2-3.4c-0.5-3.9-1.2-7.8-0.7-12c0.1-0.7,0.1-1.6,0.5-2c1.2-1.3,1.2-2.8,1.2-4.3
		c-0.1-7.7-0.4-15.2-0.5-22.9c-0.1-4.7-0.1-9.3-0.2-14c0-0.7,0-1.5-0.1-2.2c-1.2-5.4-0.7-10.9-0.7-16.3c0.1-8.6,0.2-17,0.2-25.6
		c0-1.1-0.1-2.3-0.2-3.4c-1.2-6-0.9-12-0.7-17.9c0-0.4,0.1-0.9,0.1-1.2c0-6.6,0.1-13.3,0.1-20c0-3.4-0.4-6.9-1.6-10
		c-0.2-0.9-1.1-1.6-1.7-2.3c-0.9-0.9-1.4-1.7-0.9-2.8c1.5-2.9,1.2-6.1,1.2-9.3c-0.1-7.2,0.2-14.5,0.5-21.7c0.1-3.2,0.2-6.5,0.1-9.7
		c-0.1-2.3,1.1-4.3,1.4-6.5c0.1-1.1,0.4-2,0.5-3.1c0.1-1.5,0.9-2.4,2.1-2.9c1.2-0.5,2.1-1.5,3.3-1.8c1.6-0.5,3.4-1.2,5-1.2
		c4.2,0,8.2-1.1,12.3-2c2.1-0.5,4.2-0.9,6.3-0.9c2.2,0.1,4.6-0.1,6.6-0.4c2.1-0.2,4.1-0.4,6.1,0.1c3.6,0.9,7.1,0.7,10.7,0.5
		c1.6,0,3.2,0,4.7,0.7c0.9,0.4,1.7,0.5,2.5,0.5c1.2,0,2.1,0.1,3.2,0.9c0.5,0.4,1.5,0.5,2.2,0.4c3.8-0.7,7.5-0.7,11.3-0.1
		c0.7,0.1,1.5,0,2.1-0.2c1.2-0.4,2.2-0.9,3.4-0.7c0.4,0.1,0.9,0,1.2-0.2c1.7-1.7,4.1-0.7,6.1-1.5c0.1,0,0.4,0.1,0.9,0.2
		c-0.9,0.5-1.5,0.9-2.5,1.5c2.2,0.5,3.8-0.1,5.4-0.7c1.6-0.5,3.3-0.9,5.5-1.3c1.4,0.2,3.3,1.2,5.4,0.2c0.4-0.1,0.9,0,1.5,0.1
		c5.8,0.4,11.6,0.9,17.3,1.3c1.6,0.1,3.3-0.2,5-0.4c0.1,0.1,0.2,0.2,0.4,0.4c-0.5,0.2-1.1,0.4-1.7,0.7c2.6,2.6,4.1,2.6,7,0.9
		c-0.2-0.7-0.7-1.3-1.1-2.3c2-0.1,3.7-1.3,5.8-0.2c-1.5,0.2-2.5,0.7-3.7,0.9c2,0.5,3.6,2.3,5.7,1.7c0.2-0.7,0.5-1.2,0.9-1.8
		c-0.2-0.2-0.7-0.7-1.1-1.2c0.2-0.2,0.4-0.5,0.7-0.5c0.4-0.1,0.9-0.2,1.2-0.1c4.7,1.3,9.8,0.4,14.5,0.5c2.2,0,4.4,0.2,6.6-0.1
		c2.5-0.4,4.9,0.1,7.3,0.2c2.1,0.1,4.1,0.2,6.1-0.2c1.5-0.4,3.2-0.4,4.6,0c2,0.4,3.8,0.4,5.7,0.1c2-0.4,4.1-0.7,6.1,0.2
		c-0.1,0.4-0.1,1.1-0.2,1.6c-0.5-0.1-1.1-0.1-1.5-0.2c-0.9-0.5-1.4-0.2-1.8,0.4c1.7,1.8,3.7,1.8,5.8-0.1c0.9-0.9,1.8-1.6,3-1.6
		c2.1-0.1,4.2-0.1,6.5-0.1c0.4,0,0.9,0.5,1.4,0.7c5.4,0.5,10.5-2.3,16-1.7c0.1,0.5-0.4,2,1.6,2c0-0.5,0-1.2-0.1-2
		c1.1-0.1,2.1-0.4,3.2-0.4c2.5,0,4.6,0,7,0c0.2,0,0.5,0.1,0.7,0c3.7-0.5,6.6-0.5,9.6-0.5c0.7,0,1.2,0,1.8,0c0.5,0,1.1,0.2,1.5,0.1
		c2.6-0.9,5.3-0.1,7.9-0.2c2.5-0.1,4.9-0.4,7.4-0.5c1.2-0.1,2.2-0.2,3.4,0.4c0.7,0.4,1.7,0.2,2.5,0.2c2.2-0.2,4.6-0.4,6.9-0.1
		c3,0.2,6.1-0.2,9.1-0.5c0.5,0,0.9-0.1,1.5-0.1c3.4,0,6.9,0.1,10.3,0.1c1.8,0,3.8-0.4,5.7-0.5c0.9,0,1.6,0.1,2.5,0.1
		c-0.1,0.7-0.2,1.1-0.2,1.2c1.4-0.2,2.6-0.7,4.1-0.7c2.5-0.1,5,0.1,7.6,0.1c4.4,0.1,8.9,0.2,13.2,0.4c1.2,0,2.5-0.2,3.3,1.3
		c0.4,0.7,2.5,0.5,3.2-0.4c0.7-0.9,1.5-0.9,2.5-0.9c3.3,0,6.5-0.2,9.8-0.1c3.3,0.1,6.6-0.7,9.8-0.5c2.5,0.1,4.9,0.2,7.4,0.2
		c1.6,0,3.2,0,4.6-0.9c0.2-0.1,0.9-0.2,1.1-0.1c2.6,0.4,5,0.1,7.5-1.3c3-1.7,6.1-1.7,9.5-0.9c0.4,0.1,0.9,0.4,0.9,0.7
		c0.9,1.6,2.2,1.3,3.6,0.9c0.5-0.2,1.2-0.4,2-0.7c0.2,2.4,1.8,3.1,3.8,3.2c0.9,0,2,0.2,1.8,2c-0.1,1.3,1.4,1.5,2.5,2
		c0.4-0.9,0.7-1.7,0.9-2.7c1.6,1.7,3.2,3.4,4.6,5c0.2,0.4,0.5,0.9,0.5,1.3c0.9,5.4,1.7,10.8,2.5,16c0.1,0.7,0.1,1.5,0.1,2.2
		c-0.1,5.9,0.2,11.8,0.9,17.6c0.4,4.4,0.7,8.7,1.1,13.1c0.2,2.8,0.7,5.5,1.1,8.2c0.1,0.7,0.2,1.5,0.1,2.2c-0.7,2.9-0.2,5.8,0.4,8.7
		c0.2,0.9,0.1,1.8,0,2.8c-0.4,1.6-0.2,3.2-0.4,4.8c-0.1,2.2-0.1,4.2-0.1,6.2c0,0.2-0.1,0.5,0,0.7c1.2,1.3,0.7,3.1,1.2,4.5
		c0.9,2.8,0.2,5.6-0.1,8.5c-0.5,3.8-0.2,7.3,1.1,10.9c0.2,0.9,0.9,1.3,1.2,2.2c-0.9,3.2-1.6,6.2,0.9,9.1c-0.5,1.7-0.5,3.4-0.2,5.4
		c0.4,3.8,0.9,7.7,0.7,11.4c-0.1,2.8-1.2,5.5-1.6,8.2c-0.2,1.7-0.5,3.6-0.1,5.4c0.4,1.8,0.4,3.8,0,5.5c-0.9,4-1.2,8.1-0.1,12
		c0.5,2.4,0.4,4.8-0.4,7c-0.9,2.4-0.7,4.7-0.2,7c0.7,3.2,0.1,6.2-0.2,9.3c-0.2,2.2-0.2,4.2,0.4,6.2c0.5,1.7,0.4,3.4,0.1,5
		c-0.2,1.3-0.4,2.8,0.1,4c0.7,2,0.7,4,1.2,6c0.2,1.2,0.1,2.4,0,3.6c-0.4,2.7-0.7,5.4-0.1,8.1c0.5,2.6-0.1,5-0.2,7.7
		c-0.1,1.8,0.1,3.9,0.4,5.8c0.1,1.7,0.5,3.4,0.5,5c0.1,3.1,0.2,6.1,0.4,9.3c0.1,2.2,0.4,4.3,0.4,6.6c0,1.2-0.4,2.6-0.4,3.8
		c-0.1,3.2-0.1,6.2-0.2,9.4c0,1.1-0.2,2.2-0.4,3.1c-0.5,2.9-1.1,5.9-1.5,8.8c-0.2,1.5-0.1,1.5,1.1,2.7c-0.9,2.4-0.9,4.8-0.2,7.3
		c0.7,2.8,0.9,5.6,2,8.2c0.2,0.4,0.1,1.1,0,1.6c-0.4,2.3-1.1,4.4-1.4,6.6c-0.1,1.2,0.4,2.6,0.5,3.8c0.2,1.1,0.5,2.2,0.7,3.2
		c0.2,1.8,0.2,3.9,0.5,5.8c0.1,0.9,0.7,1.7,1.1,2.7c-1.2,1.1-1.6,2.6-1.7,4.3c-0.2,3.1-0.2,6.1,0,9.3c0,0.5,0,1.1-0.1,1.7
		c-0.4,3.4-0.1,6.6,1.4,9.8c0.2,0.5,0.4,1.2,0.5,1.8c0.9,7,0.5,14,0,20.9c0,0.5-0.2,1.1-0.4,1.6c-0.1,0.2-0.2,0.7-0.2,0.9
		c1.4,2.3,0.4,4.7,0.7,7.1c0.2,2.2,0.7,4.3,0.9,6.6c0.1,1.5,0,2.9-0.4,4.3c-0.5,1.7-0.5,3.4,0.4,5
		C466.3,444.2,466.5,445.4,466,446.9z"/>
	<path d="M390,26.8c-1.2,0.1-2.5,0.2-3.4,0.2c-1.4,0.1-2.5,0-3.8,0.1c-1.1,0.1-2.5-0.9-3.3,0.5C381.1,28.6,387.3,28.5,390,26.8z"/>
	<path d="M129.1,19.7c-1.7-0.2-3.4-0.9-5,0.7C125.9,21.1,127.5,20.1,129.1,19.7z"/>
	<path d="M191.5,18.4c-1.6,0.4-3-1.3-4.6,0.2c1.5,0.1,3,0.2,4.6,0.5C191.2,18.8,191.2,18.6,191.5,18.4z"/>
	<path d="M452,482c1.4,0.9,2.8,0.1,4.1-0.1C454.5,481,453.3,481.5,452,482z"/>
	<path d="M338.4,27.2c-0.9,0.4-1.7,0.7-3,1.2C337.6,28.8,337.6,28.8,338.4,27.2z"/>
	<path d="M482.7,479.2c-1.2,0.5-2.5,1.1-3.7,1.7C481.4,480.7,481.5,480.5,482.7,479.2z"/>
	<path d="M444.8,470.9c1.4,0.2,1.8-0.1,1.8-1.1c0-0.1-0.2-0.4-0.5-0.7C445.8,469.6,445.4,470.1,444.8,470.9z"/>
	<path d="M360,485.2c0.1,0.1,0.2,0.1,0.5,0.2c0.2-0.5,0.5-1.2,0.9-2C359.6,483.6,360,484.6,360,485.2z"/>
	<path d="M401.7,27.2c0-0.1,0-0.2,0-0.4c-0.7,0-1.2,0.1-1.8,0.1c0,0.1,0,0.4,0,0.5C400.4,27.4,401.2,27.4,401.7,27.2z"/>
	<path d="M293.4,470.4c0.4,0,0.9,0.1,1.4,0.1c0-0.1,0-0.2,0-0.4c-0.4,0-0.9-0.1-1.4-0.1C293.4,470.1,293.4,470.2,293.4,470.4z"/>
	<path d="M108.2,31.9c0-0.1,0-0.2,0-0.4c-0.7,0-1.2,0-1.8,0c0,0.1,0,0.4,0,0.5C107,31.9,107.7,31.9,108.2,31.9z"/>
	<path d="M475.4,414.8c0-0.7,0-1.3,0-2c0,0-0.1,0-0.1-0.1C475.3,413.3,475.3,413.9,475.4,414.8L475.4,414.8z"/>
	<path d="M432.3,482.6c0.1,0.1,0.2,0.4,0.5,0.4c0.1,0,0.4-0.2,0.7-0.4c-0.2-0.1-0.4-0.4-0.7-0.4
		C432.7,482.2,432.7,482.5,432.3,482.6z"/>
	<path d="M407.4,27.4c-0.1-0.1-0.2-0.4-0.2-0.4c-0.1,0-0.4,0.1-0.5,0.2c0,0.1,0.1,0.4,0.2,0.7C407.1,27.5,407.3,27.4,407.4,27.4z"/>
	<path d="M424.2,483.6c0,0.1,0.1,0.4,0.2,0.4c0.2,0,0.2-0.2,0.9-0.5c-0.2-0.1-0.5-0.2-0.7-0.2C424.4,483.5,424.2,483.6,424.2,483.6z
		"/>
	<path d="M252.1,296.2c3.6-4,5.3-8.7,4.7-14c-0.4-4.9-1.2-9.8-3.7-14.1c-0.7-1.1-1.1-2.1-1.6-3.2c-1.8-4-4.6-7.2-7.7-9.9
		c-2-1.7-4.6-2.9-7-3.7c-3-0.9-6.1-0.9-8.7,1.8c-2.5,2.4-4.6,5-6.9,7.6c-1.2,1.3-1.4,3.2-2.2,4.4c-1.6,2.1-2.5,4.5-3,7
		c-1.6,4.7-0.1,8.9,4.1,11c1.2,0.7,2.8,1.2,4.1,1.2c4.1,0.2,8,0,11.9-1.3c3.8-1.3,4.6-1.1,6.3,2.6c0.1,0.2,0.2,0.4,0.2,0.7
		c0.9,2.4,0.9,2.8-1.5,4c-4.4,2.4-9,4.2-14,5c-3.4,0.7-6.9,0.5-10-1.2c-2.5-1.3-4.4-3.3-5.9-5.5c-1.7-2.2-3.3-4.5-5.3-6.6
		c-1.5-1.6-2.5-1.3-3.7,0.4c-0.9,1.3-1.7,2.9-2.8,4.2c-0.5,0.9-1.1,1.6-1.8,2.1c-2,1.3-4.1,2.4-6.3,3.6c-9.5,4.7-19.4,7.1-29.9,6.1
		c-2.5-0.2-4.7-0.4-7-1.6c0-1.8,0.9-2.8,2.1-3.4c1.4-0.6,2.5-1.3,3.7-2.1c1.5-1.1,3-2,4.1-3.3c1.8-2.4,3.7-5.3,5-8.2
		c1.8-3.7,0.5-7.2-1.8-10.3c-3.2-4-8-5.5-12.7-7.3c-4.2-1.7-8.9-2.4-13.3-2.6c-4.1-0.2-8.2-0.9-12.4-0.2c-7.1,0.9-14.1,2-20.5,5.4
		c-1.2,0.7-2.5,1.6-3.3,2.6c-3.2,3.8-5.8,7.8-7.5,12.5c-1.4,3.4,0.7,6.6,4.2,6.6c5,0,9.6,2.2,14,4.5c0.5,0.2,1.1,0.7,1.8,1.3
		c-1.2,0.5-2,0.9-3,1.2c-2.2,0.9-4.6,1.5-6.9,2.2c-7.3,2.4-14.1,5.5-20.5,9.8c-3,2-5.5,4.4-8.2,6.5c-2.2,1.8-4.1,4-5.7,6.5
		c-1.2,1.7-2.2,3.4-3.4,5.3c-1.7,2.6-3.4,5.4-5,8.2c-0.9,1.6-1.5,3.4-2,5c-0.2,0.7-0.4,1.5-0.1,2.1c1.5,3.4,3.3,6.6,6.6,8.3
		c3,1.3,6.1,2.2,9.1,2.9c8.2,1.8,16.5,1.8,24.8,2.2c2.1,0.1,4.2-0.1,6.1-0.2c4.9-0.2,9.8-0.7,14.6-0.9c3.2-0.1,6.1-0.2,9.3-0.5
		c2.6-0.2,5.3-0.7,7.9-1.1c6.1-0.7,12.4-1.5,18.6-2c2.8-0.2,5.4-0.4,8.2-0.7c4.4-0.4,8.9-0.4,13.2-1.1c6.1-0.9,12.4-1.5,18.7-0.9
		c2.8,0.2,4.9-0.7,6.6-2.8c3-3.6,5-7.5,6.1-12c0.1-0.9,0.2-1.7,0.1-2.6c-0.2-1.7-0.7-2-2.5-1.8c-9.6,0.5-19.4,0.4-29,1.5
		c-11.7,1.2-23.5,1.8-35.2,2.8c-2.6,0.2-5.3,0.9-7.9,0.9c-9.2,0.4-18.6,0.9-27.8,0.9c-8.9,0.1-17.7-0.5-26.2-2.8
		c-2-0.5-3.8-1.1-5.7-1.8c-1.5-0.5-1.5-1.1-0.4-2.6c2.3-1.7,7.7-5,10.7-6.4c7-3.4,14.1-6.1,21.9-7.8c4.1-1.1,7.9-2.4,12.1-3.6
		c1.8-0.5,3.7-1.2,5.5-1.7c2.5-0.7,4.6,0,6.1,2.2c0.1,0.2,0.2,0.4,0.4,0.5c4.1,4,7.7,8.2,13.7,9.3c1.5,0.4,3,0.4,4.6,0.7
		c5.3,0.9,10.6,0.4,15.7-1.2c0.9-0.2,1.6-0.4,2.5-0.7c7.3-1.6,14.1-4,19.9-8.8c2.1-1.7,4.6-2.9,7-4c1.8-0.9,2.2-0.7,3.3,1.1
		c1.4,2,2.5,4,4.1,6.1c3.3,4.9,8.2,5.9,13.7,4.9c3.6-0.7,7.1-2,10.5-3.6c4.7-2.4,9.5-5,14-7.8C246.2,301.5,249.4,299,252.1,296.2z
		 M142.3,285.7c-0.5,0.1-1.4-0.1-1.7-0.5c-1.6-1.6-3-3.2-4.6-4.7c0.5-1.3,1.5-1.7,2.5-1.6c1.2,0,2.5,0,3.6,0.4
		c2.5,0.9,4.7,1.8,7.1,2.8c0.4,0.1,0.7,0.4,1.1,0.9C147.7,284.6,144.9,285.1,142.3,285.7z"/>
	<path d="M385.1,360.6c-3-1.7-6.1-2.8-9.3-3.8c-8.6-2.6-17-1.2-25.2,1.5c-6.3,2.1-12.1,5.3-17.7,9.2c-6.1,4.4-11.7,9.3-17.5,14.1
		c-2.5,2-2.6,2.1-4.9,0.1c-0.9-0.7-1.5-1.5-2.1-2.4c-2.5-3.4-4.6-7.2-5.5-11.3c-0.9-3.3-1.5-6.6-2.1-9.8c-0.7-2.9-1.2-6.1-1.7-9.2
		c-0.4-2.1-2.2-2.6-3.8-3.3c-1.5-0.5-2,1.1-2.8,1.8c-0.5,0.5-0.9,1.1-1.5,1.6c-3.2,3.8-7.3,6.1-11.7,8c-5.4,2.2-10.5,1.5-15-1.5
		c-2.1-1.3-4.1-3.2-6.1-4.7c-2.1-1.6-3-1.6-4.4,0.4c-2.8,3.8-5,8-6.3,12.5c-0.9,2.8-0.2,5,2.1,7.1c3.8,3.3,6.9,7.3,9.1,12
		c0.5,1.1,1.8,6.2,2.1,6.7c1.1,2.9-0.2,7.1-2.8,8.8c-2.6,1.8-5.3,3.7-8,5c-4.9,2.4-9.8,4.9-15,6.9c-5,2.1-10.6,4-15.7,5.5
		c-5.2,1.5-10.8,2.4-16.1,3.8c-6.6,1.7-13.2,3.3-19.9,4.4c-6.5,1.1-12.8,2.1-19.3,2.9c-2.5,0.4-5,0.4-7.4,0.5
		c-8.6,0.7-17.3,1.6-25.9,1.7c-14,0.4-27.8,0.1-41.8,0.4c-6.9,0.1-13.7,0.5-20.4,0.9c-1.1,0-2.2,0.2-2.5,1.5
		c-0.1,1.3,1.2,1.6,2.1,1.8c10.3,2.9,20.5,5.3,31.2,5.9c2.6,0.1,5,0.9,7.5,1.5c9.2,2.4,18.4,4.7,28,4.7c9.8,0.1,19.7-0.2,29.4-1.7
		c7.6-1.1,15.2-2.2,22.9-3.6c4.4-0.9,8.9-1.7,13.2-2.8c2.6-0.5,5.3-1.3,7.9-1.8c4.9-1.1,9.8-2,14.1-4c0.4-0.1,0.9-0.2,1.4-0.4
		c5-0.9,9.8-2.9,14.4-5c7.6-3.4,14.8-7.6,21.8-12.2c2-1.3,4.1-2.9,5.7-4.7c5-5.6,7.6-12,5.8-19.8c-0.2-0.9-0.2-2.1-0.1-2.9
		c0.4-2.6,0.9-5,1.2-7.7c0.1-1.8,0.9-2.9,2.6-3.6c3.8-1.5,6.9-4,9.5-7.1c0.9-1.1,2-2.1,3-2.9c0.9-0.7,1.7-1.1,3-1.8
		c0.2,1.2,0.4,1.8,0.4,2.6c0.1,4.2,0.4,8.3,1.4,12.6c1.7,7.3,3.7,14.5,8.2,20.7c5,7.1,11.9,11.1,20.3,13c3.4,0.9,7,1.1,10.5,1.2
		c2.1,0.1,4.2,0.1,6.1,0c3.3-0.4,6.6-1.1,10-1.5c5.5-0.9,11.1-1.2,16.5-3.2c1.1-0.4,2.1-0.9,3.2-0.9c3-0.2,5.7-1.5,8.2-2.9
		c2.8-1.7,5.9-2.9,8.2-5c7.3-6.2,10.9-14.3,10.5-23.9C393.8,369.6,390.8,364.1,385.1,360.6z M375.7,387.8c-2.8,0.9-5.7,2-8.6,2.4
		c-5.8,1.1-11.6,1.7-17.3,2.4c-4.6,0.7-9.1,1.3-13.7,0.7c-3-0.4-6.1-0.9-9-1.6c-1.1-0.2-2.2-0.5-2.8-1.8c0.9-1.5,2.2-2.4,3.7-3.4
		c3.4-2.2,6.6-4.7,10-7c2.6-1.7,5.4-3.4,8.2-4.9c5.5-2.8,11.4-2.6,17.3-1.5c3,0.7,5.7,1.5,8.2,3.2c2.5,1.7,4.4,4,5.5,6.6
		C378.5,385.6,378.2,386.8,375.7,387.8z"/>
	<path d="M441.4,396.3c0.5-6.2-2-11.3-5.8-15.9c-0.4-0.5-0.9-0.9-1.5-1.3c-1.5-1.1-1.8-1.1-3,0.2c-0.9,1.1-1.8,2.1-2.8,3.3
		c-2.2,2.9-4.1,6.1-5,9.8c-0.7,2-0.4,3.6,1.4,5c1.4,1.2,2.5,2.8,3.6,4.2c1.2,1.7,1.2,2.2-0.9,2.9c-2.6,1.1-5.3,2.1-7.9,2.8
		c-3.7,0.9-7.1-1.7-7.5-5.5c-0.2-2.9-0.2-5.9-0.2-8.8c0-8.8,0.1-17.8,0.1-26.5c0-6.9-0.4-13.6-0.5-20.3c0-5,0.2-10.4,0.2-15.6
		c0.1-9.4,0.1-18.9,0.1-28.3c0-3.8,0.2-7.5,0.1-11.3c-0.1-8.2-0.4-16.5-0.5-24.7c-0.1-7.2-0.1-14.3-0.1-21.6c0-6.1,0.1-12,0.1-18
		c0.1-7.7,0.1-15.7,0.2-23.4c0.1-5-0.2-9.9-2.8-15.2c-0.5,0.5-1.1,0.9-1.5,1.5c-1.6,2.4-3.2,4.7-4.7,7.2c-2.2,3.6-3.8,7.2-2.8,11.5
		c0.1,0.5,0,1.1,0,1.7c0,6.1,0,12.5,0,18.6c0,9.4-0.1,18.9,0,28.3c0,8.2,0.1,16.5,0.1,25c0.1,10.7,0.2,21.4,0.2,32.1
		c0,9.8-0.2,19.8-0.4,29.6s-0.1,19.8-0.1,29.6c0,10.9,0,21.8,0.1,32.8c0,3.3,0.2,6.6,0.7,9.8c0.7,4,2.8,7.5,6.1,9.9
		c0.7,0.5,1.5,1.1,2.1,0.9c1.8-0.1,3.8-0.1,5.4-0.9c4.4-1.7,8.4-3.8,12.7-5.6c0.7-0.4,1.5-0.7,2.1-1.2
		C436.1,412.8,440.5,405.6,441.4,396.3z"/>
	<path d="M247.6,344.1c0.5,0,1.1-0.1,1.7-0.2c8.9-1.5,17.7-2.8,26.6-2.9c4.1-0.1,7.7-0.2,11.7-0.4c8.9-0.4,17.5-1.1,26.4-1.3
		c6.1-0.2,12.3-0.1,18.4-0.5c5.7-0.2,11.3-1.1,17-1.3c7.7-0.4,15.4-0.5,23.2-0.7c1.4,0,2.5,0.1,3.8,0.2c4.9,0.2,9.2-0.9,11.9-5
		c1.6-2.4,2.6-5.4,3.8-8.2c0.4-1.1,0.7-2.1,0.7-3.3c0.1-1.5-0.4-2-1.7-2.1c-2.5-0.1-4.6-0.2-7-0.4c-3.2,0-6.1,0-9.3,0
		c-5.5,0.1-11.1,0.1-16.6,0.4c-6.6,0.2-13.2,0.9-19.9,1.2c-8,0.4-16,0.4-24,0.7c-8.7,0.2-17.3,0.5-25.9,0.9
		c-4.9,0.1-9.8,0.2-14.6,0.4c0-0.1,0-0.1,0-0.2c-7.3,0.7-14.5,1.3-21.8,2c-0.7,0-1.4,0.5-1.8,1.1c-3,3.7-5.5,7.6-6.6,12.2
		c-0.4,1.5-0.4,3.2-0.1,4.7C243.9,343.2,245.4,344.2,247.6,344.1z"/>
	<path d="M171.9,363.4c-4.6-2.9-8.7-6.6-13.8-9.1c-1.5-0.7-2.6-0.7-3.7,0.4c-1.6,1.5-3,2.9-4.6,4.5c-0.9,0.9-1.8,2-2.8,2.9
		c-1.7,1.6-3,1.5-4.9,0.4c-3.8-2.2-7.6-4.4-11.4-6.5c-1.2-0.7-2.1-0.5-3.2,0.1c-3.2,1.8-5.8,4.2-7.9,7.2c-1.2,1.7-2.2,3.7-3,5.6
		c-0.9,2.2-0.1,3.6,2,4.7c2.6,1.5,5.3,2.9,7.9,4.5c1.7,0.9,3.3,2,4.9,2.9c2.8,1.7,6.9,1.3,9.6-1.7c1.4-1.5,2.5-2.9,3.7-4.7
		c1.1-1.5,2.5-2.1,4.1-1.6c0.9,0.2,2,0.7,2.8,1.3c2.6,1.8,5.4,3.7,7.9,5.8c1.5,1.3,3,1.5,4.6,0.9c0.9-0.2,1.6-0.7,2.5-1.2
		c4.6-2.9,6.6-7.1,7.5-11.3C174.2,366.3,173.7,364.5,171.9,363.4z"/>
	<path d="M161.9,231.7c1.8,1.1,3.7,1.6,5.7,0.4c1.7-1.1,3.4-0.7,5,0.1c1.8,0.9,3.3,2.2,4.4,4c2.1,3.7,2.6,7.7,3,11.6
		c0.5,5.9,0.9,11.9,1.4,17.6c0.1,2.1,1.2,3.2,3.2,3.2s3.4-1.3,3.6-3.2c0.1-2.8,0.1-5.5,0.1-8.3s-0.1-5.8,0-8.6
		c0.4-7.1,4.4-13.1,7.1-19.5c0.5-1.2,1.2-1.3,2.5-0.7c0.7,0.4,1.2,0.9,1.7,1.2c0.9,0.7,1.8,1.3,3,1.7c2.2,0.9,5.8-0.2,5.4-4
		c-0.2-2-0.9-3.7-2-5.4c-1.4-2-3-2.8-5.3-2.4c-5.8,1.1-9.8,4-12.3,9.6c-0.7,1.6-1.4,2.9-2.2,4.5c-0.4,0.9-1.2,1.3-2.2,2.4
		c-0.4-1.3-0.9-2.2-1.1-3.2c-0.9-3.3-2.2-6.2-4.7-8.8c-1.5-1.3-3-2.8-4.9-3.4c-5-2-9.8,0.9-12.7,4.7
		C158.9,228,159.5,230.3,161.9,231.7z"/>
	<path d="M342.5,260.4c0.4,0.2,0.9,0.2,1.4,0.4c4.4,1.7,7.6,4.5,8.9,9.3c0.9,2.9,0.9,6.1,0.5,9.2c-0.4,5.4-0.9,10.7-1.4,16
		c-0.1,1.7,0.1,3.3,0.4,5c0.2,1.3,1.1,2.1,2.5,2.1c1.6,0.1,2.6-0.5,3.2-2c0.2-0.5,0.4-1.2,0.5-1.8c0.2-2,0.4-4,0.5-5.9
		c0.5-8.2,1.8-16.2,6.1-23.4c0.9-1.5,1.8-2.9,3-4.2c1.2-1.3,2.1-1.2,2.8,0.4c1.5,3.3,4.1,4.2,7.4,4.2c2.1,0,3.6-0.9,4.6-2.6
		c0.9-1.8,0.9-3.8,0.4-5.8c-0.5-1.8-1.6-2.9-3.3-3.6c-0.7-0.2-1.4-0.7-2-0.9c-2.1-1.1-4.1-1.1-6.3-0.2c-3.7,1.3-7.1,3.2-9.8,6.1
		c-0.9,1.1-2,2.1-3.8,2.4c-0.4-0.9-0.9-1.8-1.2-2.6c-1.2-2.2-2.2-4.4-3.6-6.5c-2.5-3.7-8.2-4-11.3-2c-1.2,0.9-1.8,2-1.8,3.4
		C340.3,258.7,341.3,259.8,342.5,260.4z"/>
	<path d="M422.2,257.9c1.8,1.5,3.7,2.9,5.8,4.2c4.4,2.6,7.1,6.2,8.4,11.1c0.5,2,1.2,4,1.8,5.9c2.5,8,3.6,16.2,2.6,24.6
		c-0.4,3.6-0.9,7-3.4,9.8c-0.9,0.9-1.4,2.4-1.6,3.7c-0.4,2.6,1.5,4.2,4.1,3.7s4.1-2.4,4.1-5.5c0-2,6.3-18.8,2.1-37
		c-0.9-2.9-6.8-25.2-9.3-29c-1.7-2.6-3.8-5-6.1-7c-1.5-1.2-2.1-1.3-3.2-0.4c-3,2.9-5.8,6.1-7.3,10.3
		C419.9,254.2,420.4,256.4,422.2,257.9z"/>
	<path d="M255.2,294.5c-1.8,2.8-1.4,5.6,2,6.6c1.4,0.4,3,0.5,4.2,0.4c3.4-0.4,6.5-1.8,8.7-4.5c2.2-2.6,5-4.2,8.4-5
		c5.5-1.7,10.9-3.7,16.5-5c6.1-1.6,12.3-2.9,18.4-4.2c2.5-0.5,4.7-0.9,7.1-1.1c0,0.1,7.7-2.2,9.8-2.4c0.9-0.1,1.7-0.2,2.6-0.5
		c2.6-0.9,4.2-2.9,4.1-5.8c-0.2-2.6-1.2-3.3-3.8-2.8c-11.6,2.4-22.8,6.2-34.2,9.8c-8.4,2.6-16.8,5.4-25.2,7.8
		c-2.5,0.7-4.9,1.2-7.3,1.2C261.7,288.9,257.9,290.4,255.2,294.5z"/>
	<path d="M442.9,331.2c-3.7-3.3-7.7-6.1-12.5-7.8c-2.6-1.1-2.8-1.1-4.7,1.1c-0.7,0.7-1.2,1.3-1.7,2.1c-1.4,1.8-2.5,3.8-3.8,5.5
		c-2.5,2.9-3.2,6.5-3.4,11.3c0,1.3,1.8,2.4,3.7,0.9c1.7-1.3,3-0.9,4.6,0c2.5,1.6,5,2.9,7,5.3c1.7,1.8,3.8,2,5.8,0.5
		c4.6-3.6,7-8.3,8.2-13.7c0.1-0.5,0-1.3-0.4-1.8C444.7,333.2,444,332.1,442.9,331.2z"/>
	<path d="M71.3,275.3c5,0.7,10.2,0,14.9-1.5c1.8-0.5,3.4-1.6,5-2.4c0.9-0.5,1.6-1.5,1.2-2.6c-0.4-1.2-1.6-1.1-2.5-0.9
		c-3.8,0.7-7.5,0.4-11.2-0.2c-3.4-0.7-6.6-1.5-9.6-3.4c-1.7-1.2-1.8-2-0.7-3.6c0.5-0.7,1.2-1.2,2-1.7c3.3-2,6.6-4,10.6-4.4
		c1.1-0.1,2.1-0.9,3.2-1.6c1.1-0.5,1.7-1.5,1.5-2.8c-0.2-1.2-1.1-2-2.2-2.1c-1.7-0.2-3.3-0.7-5-0.9c-3.2-0.4-4.6-1.5-5.4-4.9
		c0.9-0.5,1.8-1.1,2.8-1.6c1.5-1.1,2-2,1.5-2.6c-0.9-1.1-1.8-0.7-3-0.2c-3.4,1.2-6.5,3.2-9.2,5.5c-1.4,1.2-1.6,3.3-0.5,4.5
		c0.9,1.2,2.2,2.1,3.4,2.9c0.5,0.4,1.2,0.7,2.5,1.3c-0.9,0.9-1.5,1.5-2.1,2c-1.6,1.3-3.2,2.4-4.6,3.8c-2,2.2-3.4,5-2.8,7.8
		C62.5,271,65.7,274.7,71.3,275.3z"/>
	<path d="M384,417.6c-1.1,0.2-2.1,0.9-3.2,1.3c-1.2,0.5-2.5,1.1-3.6,1.5c-3.4,1.1-6.9,2-10.5,2.9c-10.2,2.4-20.3,4.9-30.6,7.1
		c-8.4,1.8-17,3.2-25.5,4.7c-5.3,1.1-10.7,1.7-16,3.6c-1.4,0.4-2.6,0.9-3.7,1.7c-1.7,1.2-1.6,3.4,0.2,4.5c0.7,0.4,1.5,0.5,2.2,0.9
		c1.8,0,3-0.9,4.6-1.7c1.2-0.9,2.5-1.6,3.8-2c4.1-1.1,7.9-2.1,11.9-2.9c5.3-1.1,10.6-1.6,15.7-2.6c13.2-2.6,26.1-5.9,39.4-7.8
		c4.6-0.7,8.9-1.6,13.2-2.4c0.9-0.1,1.8-0.7,2.8-0.9c1.5-0.5,2.2-1.8,2.6-3.3C388.1,418.9,386.3,416.8,384,417.6z"/>
	<path d="M226,231.7c3,2.4,5.9,4.7,9,6.9c3,2.1,5.3,1.8,8-0.2c1.6-1.2,2.5-2.9,3-4.9c0.4-1.6,0.9-3.2,1.4-4.9
		c0.1-0.7,0.1-4.5,0.7-4.9c0-0.2,0-0.5,0-0.7c0-0.2-0.1-0.5-0.2-0.7c-2.1-2.4-4.6-4.7-7.4-6.5c-1.1-0.5-2-1.3-2.8-2.1
		c-1.5-1.3-2.2-1.5-3.8-0.2c-4.2,3.4-7.9,7.2-9.2,12.6C224.2,228.6,224.3,230.3,226,231.7z"/>
	<path d="M291,417.1c0.4,1.8,1.7,2.9,3.6,2.9c2.5,0.1,4.9-1.8,5.7-4.4c0.7-2.6,0.1-4.2-2.2-5.6c-1.4-0.9-2.5-1.7-4.2-1.2
		c-4.7,1.6-8.9,3.8-11.2,8.2c-0.4,0.9-0.9,1.3-1.7,2.4c-0.2-0.9-0.5-1.5-0.7-1.8c-0.7-1.5-1.1-2.9-1.8-4.4c-1.7-2.9-5.4-2.9-7.6-0.5
		c-0.9,1.1-1.6,2.2-0.9,3.6c0.5,1.2,1.7,1.1,2.8,1.1c1.4,0,2.2,0.7,2.5,1.7c0.5,1.6,1.2,3.2,1.2,4.9c0.1,5,0,10.4,0,15.6
		c0,0.7-0.1,1.5,0,2.1c0.1,2.4,1.5,2.9,3.6,1.8c1.1-0.7,1.6-1.6,1.5-2.8s-0.4-2.4-0.2-3.6c0.5-3.2,4.8-14.1,3.9-14.5
		c-0.1-3.6,2-5.9,5.9-7C290.7,416,290.9,416.5,291,417.1z"/>
	<path d="M90.8,357.1c-1.1-2.2-2.2-2.6-4.6-1.7c-1.8,0.7-3,2-4.4,3.3c-1.6,1.6-1.8,3.4-0.7,5.4c0.7,1.1,1.5,2.1,2.2,3.2
		c3,3.7,4.4,7.8,4.6,12.6c0.2,5.6-0.2,11.1-2.5,16.4c-1.5,3.6-3,7-4.6,10.5c-0.5,1.2-1.2,2.2-0.9,3.7c1.6,0,2-1.3,2.8-2.1
		c2.8-3.3,4.4-7.2,6.1-11.1c5-12.2,6.6-24.7,2.6-37.5C91.4,358.7,91.1,357.9,90.8,357.1z"/>
	<path d="M197.6,367.5c-2.5-0.2-3.6-1.3-3.3-3.7c0.1-1.8,0.7-3.6,1.2-5.3c0.7-1.8,1.6-3.7,2.2-5.5c0.2-0.9,0.1-1.7-0.9-2
		c-0.5-0.1-1.2,0.4-1.8,0.7c-0.2,0.1-0.4,0.5-0.5,0.9c-1.4,2.9-2.8,5.8-4.1,8.7c-1.2,2.8-2,5.5-2.2,8.6c0.1,0.9,0.2,1.8,0.5,2.8
		c0.7,2.6,2.6,4.4,4.2,6.2c1.4,1.6,2.5,1.7,4.1,0.2c2.5-2.2,3.7-5,3.7-8.2C201,368.6,199.9,367.7,197.6,367.5z"/>
	<path d="M71,281.8c0.1-0.5-0.1-1.5-0.5-1.6c-0.4-0.2-1.2,0-1.7,0.4c-0.4,0.2-0.7,0.9-1.1,1.3c-2,3.2-3.2,6.6-3.6,10.3
		c-0.2,1.7-0.4,3.6-0.1,5.3c0.7,4.4,4.6,6.1,8.4,4c1.2-0.7,2.2-1.5,3.3-2.4c1.1-1.1,1.2-5,0-4.5c-1.1,0.5-2,1.1-3,1.5
		c-2.2,0.9-3.4,0.4-4.1-2.1c-0.5-2.8,0.2-5.3,0.9-7.7C70.1,284.6,70.8,283.3,71,281.8z"/>
	<path d="M439.2,222.5c-0.1-1.7,0.1-3.6,0.4-5.3c0.2-1.7,1.1-3.4,1.5-5c0.1-0.7,0.4-1.6-0.5-1.8c-0.4-0.1-1.1,0.4-1.6,0.7
		c-0.1,0.1-0.2,0.4-0.4,0.5c-3,5.5-5.8,11.1-4.1,17.9c1.1,3.6,1.5,4.2,5,3.8c0.7-0.1,1.4-0.1,1.8-0.4c2.6-0.9,4.2-2.9,4.6-6.1
		c-0.9,0-1.6,0-2.2,0C440.8,226.6,439.4,225.5,439.2,222.5z"/>
	<path d="M441.3,432.2c-3.7-0.2-5.7-2.6-5-6.1c0.2-1.6,0.9-3.2,1.1-4.5c0.1-0.9,0.2-2,0.2-2.9c-1.4-0.5-1.7,0-2.2,0.9
		c-1.8,2.9-3.2,6.2-3.7,9.8c-0.1,1.3-0.1,2.8,0.2,4c0.4,1.7,1.6,2.9,3.4,3.3c3,0.5,5.9-0.1,8.6-1.7c0.5-0.2,0.9-1.1,1.2-1.6
		c-0.1-0.2-0.2-0.4-0.4-0.7C443.4,432.4,442.2,432.2,441.3,432.2z"/>
	<path d="M319.8,285.8c-1.5-0.1-1.7,1.1-2.2,1.8c-3,4.4-4.6,9.1-4.6,14.3c0,1.7,0.1,3.4,1.7,4.2c1.8,0.9,3.8,0.9,5.5-0.2
		c1.4-0.9,2.8-2,2.5-4c-0.5,0-1.1-0.1-1.5-0.1c-3,0.5-4.6-1.1-4.4-4.4c0.1-2.9,0.9-5.6,2.2-8.2C319.6,288,320.5,287.1,319.8,285.8z"
		/>
	<path d="M255.7,437.1c-1.8-0.9-2.5-2.1-2.1-4c0.1-0.9,0.5-1.8,0.7-2.8c0.1-0.9,0-1.6,0-2.4c-0.1-0.1-0.4-0.1-0.5-0.2
		c-0.4,0.4-0.9,0.7-1.4,1.2c-1.7,2.4-2.8,5.4-3.2,8.3c-0.1,1.2,0.2,2.8,0.9,3.8c1.7,2.8,4.1,3.6,6.1,0.1c0.1-0.2,0.2-0.4,0.4-0.7
		C257.9,438.6,257.7,438.2,255.7,437.1z"/>
	<path d="M101.8,49.3c4.7-0.7,9.5-1.3,14.1-2c0.9-0.1,1.8-0.7,2.8-0.9c0-0.1-0.1-0.4-0.1-0.5c-1.1,0-2,0-3,0
		c-3.2,0.1-6.3,0.4-9.5,0.5c-1.2,0.1-2.2-0.1-2.6-1.6c-0.1-0.4-0.7-0.5-1.2-1.1c-0.1,2.4-1.8,2.6-3.2,2.9c-0.7,0.1-1.4,0.2-2,0.5
		C99,49.5,99.1,49.7,101.8,49.3z"/>
	<path d="M134.7,45.6c-3.7-1.7-7.3-1.1-10.9,0.5C126.3,50.4,132.1,50,134.7,45.6z"/>
	<path d="M289.6,455.4c1.7,0.5,3.4,1.1,5,1.5c0.5,0.1,1.2-0.2,1.8-0.4c0.9-0.2,1.8-0.7,2.8-0.7c2,0,4.1,0.2,5.9,0.5
		c1.1,0.1,2,0.2,3-0.5C302,454.3,295.9,455.2,289.6,455.4z"/>
	<path d="M211.2,456.6c-3.3-0.9-6.1-1.6-9.5-1.7C204,458.6,208.7,459.3,211.2,456.6z"/>
	<path d="M213.1,44.5c-0.7-1.1-1.4-2-1.8-2.8c-1.5,0.4-2.8,0.9-4.1,1.2C207.5,45.6,209.3,46.1,213.1,44.5z"/>
	<path d="M279.3,455.5c-0.9,0.1-1.8,0.5-2.8,0.9c1.5,0.4,2.8,0.5,4.1,0.4c1.7-0.1,3.4-0.5,5-0.9c0.7-0.1,1.4-0.1,2-0.1
		c0-0.2,0-0.5,0-0.7c-0.9-0.1-1.8-0.5-2.6-0.4C283.2,454.8,281.3,455.2,279.3,455.5z"/>
	<path d="M450.7,62.2c0.2,0.5,0.9,1.1,1.4,0.9c0.4,0,1.1-0.9,1.1-1.3c-0.1-1.5-0.4-3.1-0.7-4.7C450.9,58.5,450.1,60.8,450.7,62.2z"
		/>
	<path d="M144.5,46.5c0.4-0.1,0.7-0.7,1.4-1.3c-3.2-0.9-5.7-0.1-8.2,0.7C139.8,46.6,142.1,47,144.5,46.5z"/>
	<path d="M159.8,44.8c-2,0-3.8,0-5.9,0C156.1,47.8,158.4,47.8,159.8,44.8z"/>
	<path d="M425.5,38.3c-2.5-1.6-4.1,0.7-6.1,0.9C421.6,40.2,423.6,40.1,425.5,38.3z"/>
	<path d="M223.3,44.5c0.9,0.5,2.1,0.1,3-0.9c-0.9-0.7-1.7-1.3-2.5-2C222.7,43,222.6,44,223.3,44.5z"/>
	<path d="M71.3,49.7c-1.5-0.2-3-2-4.6,0C68.9,50.8,70,50.8,71.3,49.7z"/>
	<path d="M50.7,50.4c-0.5,0.5-0.9,1.2-0.1,2.2c0.9-0.7,1.5-1.2,2.2-1.8C51.9,50,51.3,49.9,50.7,50.4z"/>
	<path d="M153.6,42.9c1.4,0.2,2.5,0.4,3.3,0.5C155.9,42.4,155.1,41.7,153.6,42.9z"/>
	<path d="M451,66.7c0.1,0.4,0.4,0.9,0.5,1.1c0.1-0.1,0.4-0.1,0.5-0.2c-0.1-0.4-0.4-0.7-0.5-1.1C451.6,66.4,451.2,66.6,451,66.7z"/>
	<path d="M406.7,458.5c0,0.1-0.1,0.2-0.1,0.2c0.4,0.2,0.9,0.5,1.2,0.9c0.1-0.1,0.1-0.1,0.2-0.2c-0.1-0.2-0.1-0.5-0.4-0.5
		C407.4,458.6,407.1,458.6,406.7,458.5z"/>
	<path d="M152.3,42.3c-0.7-0.5-0.9-0.9-1.2-0.9c-0.2,0-0.7,0.1-0.9,0.2c0,0.1,0,0.2,0,0.4C150.7,42.2,151.2,42.2,152.3,42.3z"/>
	<path d="M49.1,74.2c0,0.9,0,1.5,0,2.3c0.1,0,0.2,0,0.4,0C49.3,75.6,49.3,74.9,49.1,74.2C49.1,74,49.1,74,49.1,74.2z"/>
	<path d="M165.5,42.9c-0.5,0-0.9-0.1-1.5-0.1c0,0.1,0,0.4-0.1,0.5c0.5,0.1,0.9,0.1,1.5,0.2C165.3,43.5,165.3,43.3,165.5,42.9z"/>
	<path d="M310.2,455.9c0,0.1,0,0.2,0,0.4c0.4,0,0.7,0,1.1,0c0-0.1,0-0.2,0-0.4C310.8,455.9,310.5,455.9,310.2,455.9z"/>
	<path d="M400.3,39c-0.4,0.1-0.7,0.1-1.1,0.2c0,0.1,0.1,0.2,0.1,0.4c0.4-0.1,0.7-0.1,1.1-0.2C400.3,39.3,400.3,39.1,400.3,39z"/>
	<path d="M248.9,42.2c0.1-0.2,0.1-0.4,0.2-0.7c-0.4-0.1-0.9-0.1-1.2-0.2l-0.1,0.4C248.3,41.9,248.6,42.1,248.9,42.2z"/>
	<path d="M453.4,68.9c0.4,0.1,0.7,0.4,1.1,0.5c0-0.1,0.1-0.2,0.1-0.4c-0.4-0.1-0.9-0.2-1.1-0.5C453.6,68.5,453.4,68.6,453.4,68.9z"
		/>
	<path d="M436.3,39.5c0-0.1,0-0.4,0-0.5c-0.4,0.1-0.7,0.1-1.1,0.2c0,0.1,0,0.2,0,0.4C435.6,39.5,436,39.5,436.3,39.5z"/>
	<path d="M87.7,454c0.1,0.1,0.2,0.2,0.5,0.4c0,0,0.2-0.1,0.4-0.4c-0.2-0.1-0.4-0.2-0.7-0.2C87.8,453.7,87.7,453.8,87.7,454z"/>
</g>
</svg>
