<?xml version="1.0" encoding="utf-8"?>
<svg version="1.1" id="Layer_1" xmlns="http://www.w3.org/2000/svg" xmlns:xlink="http://www.w3.org/1999/xlink" x="0px" y="0px"
	 viewBox="0 0 500 350" style="enable-background:new 0 0 500 350;" xml:space="preserve">
<g>
	<path d="M227.2,180.5c-1.6-0.2-3.2-0.2-4.6,0.7c-1.1,0.7-2.2,1.4-3.2,2.1c-8.6,6.5-19,9.2-29.2,12.1c-2.9,0.8-5.8,0.1-8.5-1.1
		c-4.2-1.9-7.5-4.8-9.7-8.8c-0.9-1.7-1.6-3.5-2.6-5.1c-0.4-0.6-1.8-1-2.5-0.8c-1.8,0.7-3.6,1.5-5.1,2.7c-8.2,6.2-17.9,8.4-27.9,9.8
		c-7,1-13.3-1.4-18.9-5.5c-2.1-1.5-3.8-3.4-5.8-5.1c-1.9-1.7-3.8-3.5-5.7-5.1c-1.6-1.3-3.5-1.6-5.5-0.9c-8.4,3.1-16.9,6.1-24.8,10.2
		c-4,2.1-7.8,4.5-10.7,8c-1.1,1.3-0.9,3.1,0.5,4.2c1.8,1.4,3.8,2.3,5.9,2.9c5,1.3,10.1,1.7,15.3,1.7c14.5,0.1,28.8,0.1,43.4,0.4
		c8.2,0.2,16.7-0.4,25,0.6c1.3,0.2,2.6,0,3.8,0c13-0.6,25.6-2.1,38.3-3.8c5.1-0.6,10.2-1.1,15.3-1.5c1.5-0.1,3.4-0.6,4.2,1.2
		c0.8,1.7-0.3,3.2-1.2,4.5c-1.6,2.4-3.4,4.7-5.3,6.8c-1.5,1.7-3.5,2.7-5.8,2.9c-5.7,0.6-11.4,1.2-17.2,1.9
		c-6.4,0.7-12.8,1.5-19.1,2.2c-7.4,0.8-14.7,1.1-22.1,1.3c-22.8,0.8-45.5,0.3-68.3,0.6c-3.2,0-6.4-0.2-9.6-0.6
		c-5.2-0.6-9.8-2.7-13.9-6.2c-1.6-1.3-2.5-4.3-1.4-6.2c3.1-5.6,5.1-11.7,8.6-17.3c5.1-7.7,11.4-13.9,19.4-18.5
		c2.2-1.3,4.4-2.7,6.4-4.1c0.9-0.6,0.6-2.7-0.5-3.3c-4.2-2.4-8.8-3.5-13.9-3c-1.3,0.1-2.5,0.1-3.8,0.1c-0.6,0-1.7-1.5-1.6-2.1
		c0.2-1.3,0.3-2.6,0.7-3.8c0.6-1.8,1.6-3.5,2.3-5.3c1.4-3.5,3.6-6,6.9-7.5c2.3-1,4.6-2.3,6.8-3.6c7.9-4.7,16.8-6.5,25.7-7.4
		c7.4-0.7,14.8-0.5,21.9,1.7c2.8,0.8,5.5,1.8,7.9,3.5c2.2,1.6,3.5,3.7,3.3,6.5c-0.2,3.3-0.8,6.5-2.6,9.3c-0.9,1.3-1.7,2.7-2.5,4.1
		c-1.7,2.8-4.1,4.8-7,6.4c-1.7,0.8-3.3,1.9-5,2.8c-0.5,0.3-0.7,2.2-0.3,2.7c0.6,0.7,1.2,1.5,1.9,2.1c4.8,4.1,10.7,5.9,17,5.6
		c9.1-0.5,17.7-3,25.3-8.2c2.6-1.8,4.8-4.2,8-5c1.6,0.3,2.1,1.6,2.7,2.7c1.9,3.4,4.2,6.4,6.9,9.2c4.2,4.2,9.1,5.9,14.9,4
		c3.6-1.2,7.4-2.2,10.9-3.5c3.6-1.3,7.1-2.7,10.3-4.8c2.1-1.4,2.2-3.6,0.3-5.6c-1.9-1.9-4.1-3.1-6.8-3.3c-2.2-0.1-4.5-0.1-6.7,0.2
		c-1.9,0.2-3.8,0.8-5.6,1.2c-4.7,1.1-8.1-1.2-10.5-4.8c-0.7-1-1-2.4-1.1-3.6c-0.3-2.6,0.2-5.1,1.3-7.5c2.3-5.3,5.2-10.3,8.2-15.3
		c4.5-6.9,11.3-8,18.6-4.8c2.3,1,4.5,2.5,6.4,4.1c5.3,4.4,8.7,10.2,10.7,16.8c1.3,4.7,1.4,9.4-0.1,14.4c-1.3,4-2.9,7.8-4.8,11.5
		c-1.4,2.5-2.6,5.2-3.8,7.7L227.2,180.5z M112,147.7c-1,0.1-2.3,0.1-3.5,0.4c-0.9,0.2-1.7,0.7-2.6,1.2c-1,0.5-1.5,2.5-0.6,3.3
		c1.2,1.1,2.3,2.1,3.6,2.9c0.7,0.5,1.8,0.7,2.7,0.6c3.5-0.4,6.8-1.6,9.7-3.7c0.4-0.3,0.5-1.1,0.6-1.7c0-0.2-0.3-0.6-0.5-0.7
		C118.5,148.7,115.4,148,112,147.7z M208.1,142.5c-0.5,0.3-1.2,0.4-1.5,0.9c-0.4,0.6-0.1,1.3,0.6,1.6c1,0.4,2.1-0.3,1.9-1.2
		C209.1,143.3,208.4,143,208.1,142.5z"/>
	<path d="M125,40.6c-1.1,1.6-1.2,2-1.5,2c-5.2,2.1-9.2,5.7-13.4,9.2c-2.5,2.1-4.7,4.4-5.5,7.7c-0.5,2-1.9,3.3-3.6,4.3
		c-3.8,2.4-7.3,5-12.2,5.3c-2.8,0.2-5.5,1.7-7.8,3.6c-7.5,6.6-14.7,13.7-21.3,21.1c-0.2,0.2-0.4,0.5-0.6,0.8
		c-6.7,11.7-14.6,22.8-18.2,36.1c-1.4,5.3-3.4,10.4-5,15.6c-0.8,2.4-1.6,5-1.8,7.5c-0.5,9.9-1.3,20-1.3,29.9c0,1.6,0.1,3.2,0.3,4.8
		c1.1,7,2.2,14,3.4,20.9c0.4,2.2,0.7,4.6,1.7,6.5c2.1,4.1,3.6,8.2,4,12.8c0.1,1.2,0.9,2.4,1.4,3.6c0.6,1.5,1.7,2.9,1.9,4.4
		c1.3,8.1,6.5,13.9,11,20.1c1.5,2,3.6,3.8,5.8,4.8c2.9,1.5,5.2,3.7,7.5,5.9c4.5,4.1,9.3,7.7,14.9,10.5c4.6,2.3,8.7,5.3,13.2,8
		c3.2,2.1,6.4,4,10.1,5.6c5.8,2.6,11.4,5.8,17.1,9c3.4,1.9,6.8,3.3,10.7,4c8.1,1.5,16.3,3.6,24.5,5.5c1.3,0.3,2.6,0.4,3.6,0.9
		c4.2,1.7,9,0.4,13.3,1.8c4,1.3,8,2.5,12.1,3.1c9.2,1.3,18.5,2.5,27.7,2.4c4.5-0.1,9,0.3,13.4,1c4.5,0.7,9,0.7,13.6,0.4
		c11.1-0.9,22.5-0.9,33.6-0.9c6.4,0,13-0.3,19.1-1.8c0.9-0.2,1.9-0.6,2.8-0.6c7.8,0.2,15.3-1.4,23-2.3c1.6-0.2,3.2-0.2,4.7-0.5
		c7.1-1.5,14.4-3.4,21.7-4.5c7.5-1.1,15.3-2.7,22.9-2.2c0.2,0,0.7,0.4,0.6,0.5c-0.1,0.6-0.2,1.5-0.6,1.7c-2.9,1.3-5.8,2.4-8.8,3.6
		c-1.5,0.6-3.1,0.8-4.7,0.1c-3.6-1.7-7.1-0.8-9.8,1.6c-3.3,3-7.1,4-11.3,4.5c-4.7,0.6-9.4,1.4-14.3,2.2c-5.3,0.9-10.8,1.4-16.2,2.5
		c-12.5,2.4-24.8,2.2-37.4,3.2c-7.4,0.6-14.8,0.6-22.2,0.6c-8.4,0-16.7-0.2-25.1-0.3c-15.5-0.3-30.8-1.8-45.8-4.8
		c-0.3-0.1-0.6-0.1-0.9-0.2c-13.6-1-26.4-5.6-39.4-8.7c-5.6-1.4-10.9-3.6-16.1-6.5c-3.1-1.7-6.2-3.4-9.3-4.8
		c-8.8-3.8-16.9-9.1-24.7-15c-3.9-2.9-7.8-5.6-11.9-8.3c-2.7-1.8-5.3-3.7-7.3-6.2c-4.2-5.3-9.3-9.6-14.5-14.2
		c-5.5-5-9.2-10.4-12.2-17.1c-5.8-12.9-9.8-26.5-14.5-39.9c-0.6-1.8-1-3.7-1.2-5.6c-0.7-8.3-1.2-16.8-1.7-25.1
		c-0.1-1.3,0-2.6,0.1-3.9c0.7-10.5,1.8-21.2,5.3-31.2c0.4-1.2,0.8-2.4,1.1-3.7c2.5-9.8,6.6-18.9,12.5-27c1.3-1.8,2.4-3.8,3.5-5.8
		c3-5.8,6.9-10.9,11.3-15.6c7.5-7.9,15.1-15.9,23.9-22.5c12-9,25.2-15.5,39.7-19.1C121.3,41.7,122.5,41.3,125,40.6z"/>
	<path d="M239.4,233.5c1-5.8,2.6-10.3,5.7-14.2c0.9-1.1,2.2-1.4,3.4-0.6c2.1,1.5,4.1,3.1,6.2,4.6c1.6,1.1,3.3,2,5.1,2.8
		c4.7,1.9,9.2,1.9,14-0.2c3.6-1.6,6.5-3.9,9.7-6.1c1.2-0.8,2.9-0.2,3,1.1c0.1,1.6,0.1,3.2,0.3,4.8c0.5,4.5,1,8.8,1.8,13.4
		c0.6,3.2,1.6,6.2,3.4,9c1.3,1.9,2.8,3.6,5,4.4c0.8,0.3,2.1,0.4,2.7-0.1c2.2-1.9,4.2-3.9,6.2-6c4.7-5.2,10.1-9.9,15.7-14.3
		c5.7-4.3,11.9-7.5,18.9-9.2c13.1-3.1,26.5,4.3,30.8,16.8c2.7,7.9,1.3,12.7-5.2,17.9c-8.6,7.1-18.8,11.1-29.6,13.4
		c-6.5,1.4-13.2,2.7-19.9,3.5c-6.9,0.9-14.2,1.3-21-1.1c-3.5-1.2-6.2-3.2-8.4-6.1c-3.4-4.5-5-9.7-6.1-15.1
		c-0.8-3.8-1.3-7.6-1.9-11.4c-0.4-2.1-2.3-3.1-4.4-2.3c-2.7,1.1-5.3,2.2-8,3.4c-6.9,3.1-7.4,1.5-10.1,10.2
		c-1.5,4.8-4.6,9.1-8.1,13.1c-6.4,7.1-14,12.4-23,15.5c-14.3,5-28.8,8.7-44,10.3c-9.8,1-19.9,1.5-29.7,1.7c-6.4,0.1-12.1-1.7-17-5.7
		c-4.2-3.6-9.2-5.8-14.8-6.5c-0.6-0.1-1.3-0.4-1.7-0.9c-0.3-0.3-0.3-0.9-0.5-1.7c2.4,0.1,4.6,0.1,6.9,0.4
		c13.2,1.6,26.3,1.1,39.5,0.4c10.3-0.5,20.5-1.2,30.6-2.7c13.1-1.9,25.9-4.4,38.3-9.3c3.3-1.3,6.4-2.9,9.6-4.5
		c1.1-0.6,2.1-1.5,2.9-2.5c1.1-1.2,1.8-2.8,1.5-4.4c-0.7-5.1-2.1-10.1-4.5-14.8C241.9,238.1,240.6,235.8,239.4,233.5z M317.2,258.6
		c8.7-0.1,19.6-1.4,27.7-3.3c3.4-0.8,6.8-1.8,10.1-2.8c1.7-0.5,2.4-2.4,1.8-3.8c-5.3-10.5-18-16.1-29.2-11.7
		c-6.9,2.6-13.2,6.5-18.4,12c-1.6,1.6-2.9,3.4-4.2,5.1c-0.5,0.6-0.1,2.2,0.6,2.5c1.5,0.6,2.9,1.5,4.4,1.6
		C312.8,258.5,316.1,258.6,317.2,258.6z"/>
	<path d="M235.9,22.5c14.4,0.5,28.6,0.9,42.6,1.7c6.4,0.4,12.7,1.7,19.1,2.7c1.9,0.3,3.8,1,5.7,1c5.5,0.1,10.8,1.6,16.1,2.9
		c3.6,0.9,7.5,2,11.1,2.6c8.6,1.6,16.6,4.8,25,7.1c2.8,0.8,5.3,2.1,8,3.3c3.8,1.7,7.5,3.6,11.4,5.2c5,2.2,9.6,4.8,13.7,8.6
		c4.4,4.2,9.2,7.9,15.1,10.2c1.5,0.6,2.7,1.7,4,2.6c3.9,2.8,7.8,5.7,11.9,8.3c2.5,1.6,4.6,3.4,6.3,5.8c2.8,3.9,5.3,7.9,9.4,10.7
		c1.5,1.1,2.5,2.9,3.8,4.3c1.5,1.7,2.8,3.6,4.5,5.1c6.9,6.2,10.9,14.2,14.4,22.5c3,7.4,5.8,15.1,8.8,22.4c3.5,8.3,5.8,17.1,6.9,26
		c0.2,1.9,0,4,0.7,5.7c1.9,5.1,0.8,10.1-0.2,15.3c-1.1,6-2.6,12-2.6,18.2c0,1.3-0.3,2.6-0.7,3.8c-2.2,6.4-4.4,12.8-6.7,19.1
		c-1.7,4.8-4.2,9.4-7.5,13.4c-7.9,9.3-15.3,19.1-23.7,27.8c-1.8,1.8-3.1,4.1-4.6,6.1c-1.7,2.4-3.8,4.5-6.4,5.8
		c-6.9,3.4-13.9,6.7-20.8,9.9c-2.7,1.2-5.3,2-8.4,1.3c-2.6-0.6-5.1,0.4-7.5,1c-0.3,0.1-0.6-0.2-0.9-0.3c0.2-0.5,0.3-1.3,0.7-1.5
		c5.2-1.6,10.2-3.7,15-6.3c4.7-2.6,9.3-5.6,13.7-8.8c3.1-2.3,6.2-4.6,9.1-7.1c3.1-2.8,5.8-5.9,8.6-9c3.2-3.6,6.2-7.4,10.3-9.9
		c0.8-0.5,1.5-1.2,2.1-1.9c5.8-7,10.5-14.5,14.4-22.8c0.5-1.1,0.7-2.5,1.1-3.7c1.2-4,2.5-8,3.8-12c1.9-5.5,3.2-11.1,2.8-17.1
		c-0.2-3.8,0.8-7.6-0.7-11.5c-0.5-1.4,0.2-3.2,0.3-4.8c0.1-3.2,0.3-6.4,0.3-9.6c0-0.9-0.4-1.9-1-2.6c-1.4-1.8-2.6-3.7-2.5-6.1
		c0-0.6,0-1.4-0.3-1.9c-3.3-6.3-4-13.6-6.7-20.2c-2.5-6.2-4.2-12.8-6.3-19.2c-1.6-4.9-3.7-9.6-7.3-13.5c-1.5-1.6-2.8-3.5-4.2-5.3
		c-1-1.3-1.9-2.6-3.1-3.7c-1.9-1.7-4.4-2.9-5.8-4.8c-1.3-1.8-2.2-3.9-3.6-5.6c-6.9-7.7-14.2-14.9-23-20.3c-4.4-2.7-8.2-6-13.1-8.2
		c-4.8-4.8-11.3-7.1-17.4-10c-4.8-2.3-9.6-5.2-14.8-7c-1.5-0.5-3-1.2-4.6-1.5c-7.9-1.6-15.7-3.2-23.6-4.8c-1.3-0.3-2.6-0.4-3.8-0.8
		c-6.9-2.4-14.3-3.5-21.4-5.4c-11.4-3.1-23.1-5.4-35.2-5c-9.2,0.3-18.6-0.1-27.9-0.3c-1.3,0-2.6-0.1-3.9,0
		c-9.2,0.7-18.6,0.5-27.9,0.6c-4.5,0-8.8,0.2-13.1,2.4c-2.9,1.5-6.3,1.3-9.4,1c-6.1-0.6-12.1-0.3-18.2,0.3c-8,0.8-16,1-24,1.5
		c-0.2,0-0.6-0.4-0.6-0.6c-0.1-0.2,0.1-0.7,0.3-0.8c0.8-0.5,1.7-1,2.6-1.2c11.6-2.7,23.1-5.4,34.3-9.1c4.6-1.5,9.4-1.8,14.3-1.9
		c7.6-0.1,15.4,0.2,23.1,0.2C224.1,23.3,230.1,22.9,235.9,22.5z"/>
	<path d="M356.8,330.7c-1.7-0.9-3.2,0-4.6,0.7c-6.7,3.2-13.8,5.3-21.2,5.9c-1.6,0.1-3.1,0.7-4.6,1.2c-3,1-6.1,2.1-9.1,3.2
		c-4.5,1.7-9.2,2.8-14.2,2.9c-8,0.2-16.1,0.4-24.1,0.6c-3.5,0.1-7-0.4-10.5,0.6c-0.8,0.2-1.9-0.1-2.8-0.2c-1.6-0.2-3.2-0.6-4.7-0.6
		c-10.5,0.4-21.2-0.9-31.6-1.9c-6.4-0.6-12.8-1.1-19.2-1.6c-1.6-0.1-3.2-0.2-4.7-0.5c-12.1-2-24.2-2.9-36.4-4.1
		c-1.9-0.2-3.8-0.7-5.6-1.2c-3.4-0.9-6.8-2.1-10.2-2.9c-10.9-2.5-21.8-5.5-32.5-8.7c-2.1-0.6-4.2-1.5-6.3-2.3
		c-3.3-1.3-6.4-2.7-9.7-4.1c-3-1.2-5.8-2.7-8.2-4.7c-5.8-4.6-12.7-7.5-19.5-10.4c-3.5,0.1-5.8-2.3-8.2-4.3c-1.9-1.6-4-3.2-6.3-4.5
		c-3.4-2-6.5-3.9-9-7.1c-0.2-0.3-0.4-0.5-0.7-0.7c-8-3.8-12.1-11.5-18.1-17.2c-4-3.6-7.1-8.2-10.3-12.8c-2.9-4.2-5.3-8.8-7.5-13.6
		c-1.9-4-4.2-7.9-4.2-12.7c0-1.5-1-3-1.6-4.5c-1.3-3-2.1-6-2.4-9.3c-0.1-1.6-0.4-3.2-0.9-4.7c-1-2.8-1.4-5.5-1.5-8.5
		c-0.1-3.5-0.8-7-1.4-10.5c-1.4-7.7-1.8-15.4,0-23c0.4-1.6,0.6-3.2,0.7-4.8c0.3-8.1,2.3-16,3.4-23.8c0.9-6.4,2.2-12.8,4.7-18.6
		c0.9-2,1.1-4.3,1.7-6.5c0.2-0.9,0.5-2,1.1-2.6c2.4-2.7,3.4-6.2,5-9.3c3.9-7.4,7.8-14.9,13.2-21.3c7.9-9.4,16.2-18.4,25.8-25.9
		c3.8-2.9,6.9-6.5,11.6-8.5c1.1-0.5,1.9-1.7,2.7-2.7c0.8-1,1.4-2.1,2.1-3.2c3.2-4.6,7.3-8.1,12.7-9.9c4.8-1.6,9.6-3.6,14.5-5.3
		c2.4-0.8,4.8-1.5,7.5-1.9c3.5-0.6,7-0.5,10.4-1.3c3.1-0.7,5.8-2.6,8.8-3.5c12.5-3.5,25-5.9,37.5-8.8c0.9-0.2,1.9-0.5,2.8-0.4
		c8,0.3,16,0.1,24-0.4c0.2,0,0.7,0.3,0.7,0.5c0.1,0.5,0,1.1-0.2,1.6c-0.1,0.2-0.5,0.4-0.7,0.6c-0.5,0.3-1.1,0.8-1.7,0.9
		c-5.8,1.3-11.7,3.3-17.9,3.6c-1.9,0.1-3.8,0.6-5.7,1c-7.9,1.5-15.8,3.1-23.6,4.6c-10.3,2-20.6,4.7-30.5,8.3
		c-10.8,3.8-21.4,8.7-31.5,14.3c-4,2.1-7.8,4.5-11.4,7.1c-6.5,5.1-13.1,10.5-19.4,16c-1,0.8-1.9,1.7-2.8,2.6
		c-13.2,13.9-25,28.6-31,47.3c-5.6,12.5-8.1,25.8-10.4,39.1c-1.4,7.9-1.2,16.1-1.1,24.2c0.2,11.3,2.2,22.4,5.8,33.2
		c0.9,2.7,1.6,5.6,2.5,8.3c3.1,9.6,7.5,18.5,13.6,26.5c2.3,3.1,4.2,6.4,5.9,9.8c2.4,4.7,5.5,8.7,10.2,11.3c0.8,0.5,1.8,0.9,2.4,1.6
		c3.6,4.7,9,7.1,13.6,10.5c1,0.8,2.3,1.3,3.1,2.3c3.8,5.1,9.3,7.6,14.6,10.7c6.9,4.1,13.6,8.6,20.8,12c2.3,1.1,4.6,2.5,6.9,3.2
		c9.2,2.7,17.9,7.1,26.8,10.5c8.6,3.4,17.4,6.5,26.5,8.2c13.3,2.4,26.4,4.7,39.7,7c3.2,0.5,6.4,0.9,9.6,1.1c3.2,0.2,6.4,0.3,9.6,0.2
		c6.4-0.3,12.8-0.7,19.2,0.3c5.3,0.8,10.8,0.2,16.3,1.4c1.2,0.3,2.6,0.2,3.8-0.1c6.9-1.8,14.2-0.7,21.1-1.7c8.1,1.1,16,0,23.6-2.9
		c1.5-0.6,3.2-0.6,4.7-0.6c2.9,0,5.7-0.7,8.5-1.6c4.2-1.4,8.6-2.2,13.3-1.4c3.6,0.6,6.9-0.3,10.2-2c1.7-0.9,3.4-1.8,5.2-2.5
		c2.1-0.9,4.2-1.1,6.5-0.9c2.3,0.3,3.3,1.7,3.9,3.6C356.6,330.8,356.8,330.7,356.8,330.7z"/>
	<path d="M227,180.7c0.9,0.4,1.9,0.6,2.5,1.2c1.8,1.9,3.3,3.9,5,5.8c2.5,2.9,3.5,6.1,2.5,9.8c-0.9,3.5-0.9,7,0.1,10.5
		c1.9,6.7,0,12.8-3.3,18.5c-3.9,6.7-8.7,12.6-15.6,16.8c-8,5-16.3,9-25.1,12.2c-13.3,4.8-26.9,8.3-40.8,11c-5,1-10.1,1.7-15.3,2.3
		c-6.4,0.8-12.8,1.4-19.2,2.1c-1.9,0.2-3.8,0.3-5.8,0.5c-4.1,0.3-7.5-0.6-10.3-3.9c-4.1-5.1-9.9-6.7-16.1-7.7
		c-3.2-0.6-6.3-1.1-9.4-1.7c-0.5-0.1-1-0.6-1.6-0.9c0.8-1.4,2.1-0.8,3.1-0.8c10.5,0.1,21.2,0.3,31.7,0.5c10.7,0.2,21.1-1.7,31.6-2.9
		c15.7-1.8,31-5,46.1-9.3c9.8-2.8,19.6-6.3,28.7-10.8c3.6-1.8,7.1-4.1,10.8-6.3c1.8-1.1,2.5-3.1,1.9-5c-0.8-2.8-1.8-5.5-2.8-8.2
		c-0.8-2.1-1.8-4.1-2.8-6.2c-2.8-5.9-2.6-11.9,0-17.8c1.4-3.2,2.6-6.5,3.9-9.8C227.2,180.5,227,180.7,227,180.7z"/>
	<path d="M406.9,244.1c1.9-4.7,4.6-8.7,7.5-12.6c1-1.3,2.9-1,3.9,0.6c2.3,3.6,3.6,7.5,4.5,11.7c1.7,7.9-0.6,14.6-6.9,19.9
		c-5.8,4.7-11.9,8.7-19.2,10.5c-0.6,0.2-1.2,0.4-1.8,0.6c-7.1,1.4-10.1,0.1-13-7.9c-0.5-1.5-0.6-3.2-0.5-4.8
		c0.1-5.1,0.1-10.3,0.7-15.5c0.7-5.7,1.1-11.5,1.4-17.4c1-14.2,1.9-28.2,3-42.4c0.9-13.6,1-27,0.6-40.7c-0.2-5.8-0.8-11.5-1.1-17.4
		c-0.4-8-0.6-16.2-1.2-24.2c-0.5-6.8,1.6-12.7,5.7-17.9c0.2-0.2,0.6-0.5,0.8-0.4c0.4,0.3,1.1,0.6,1.2,1c0.5,3.2,1.1,6.3,1.3,9.4
		c0.5,9.9,1.2,20,1.8,29.9c1.1,16.8,1.1,33.4-0.6,50.2c-0.2,2.2-0.5,4.5-0.5,6.7c-0.1,14.2-1.6,28.2-2.3,42.4
		c-0.2,3.8-0.8,7.7-1.2,11.5c-0.4,4.2-0.9,8.4-0.1,12.6c1.4,7,4,9.4,11.4,7.8c0.9-0.2,1.9-0.4,2.8-0.8c4.5-1.9,7.3-2.9,3.6-9.3
		C408.3,246.9,407.7,245.5,406.9,244.1z"/>
	<path d="M338.4,183.8c10.3-0.3,20.5-0.7,30.8-0.8c3.2,0,6.4,0.7,9.4,1.2c0.5,0.1,1.5,0.9,1.4,1.1c-0.3,0.8-0.9,1.6-1.4,2.3
		c-0.2,0.2-0.6,0.3-0.9,0.4c-6.2,2.6-12.5,5.3-18.7,7.6c-6.9,2.6-14.4,3.3-21.7,3.8c-12.8,0.9-25.7,1.3-38.4,2.5
		c-8,0.7-16,1.4-24,2.1c-6.7,0.5-13.4,1.8-20.1,2.6c-3.5,0.4-6.9,0.8-10.4,0.9c-2.6,0.1-4.2-2.1-3.4-4.4c1.6-4.3,3.9-8.1,6.8-11.7
		c0.8-0.9,2.1-1.5,3.2-1.9c0.9-0.4,1.9-0.4,2.8-0.5c10.5-0.8,21.1-1.6,31.6-2.4c5.3-0.4,10.8-0.8,16.3-1.2c3.8-0.2,7.6-0.4,11.6-0.5
		c8.2-0.3,16.7-0.7,25-1C338.4,184,338.4,183.9,338.4,183.8z"/>
	<path d="M351,26.3c-0.6,0.2-1.2,0.7-1.7,0.6c-2.2-0.6-4.2-1.3-6.4-2.1c-6.3-2.4-12.6-4.8-19.4-5.3c-0.6,0-1.3-0.2-1.9-0.5
		c-7.8-3.4-16.2-3.7-24.5-4.8c-1.6-0.2-3.2-0.1-4.7-0.5c-10.9-2.6-22.2-1.8-33.4-1.8c-9.2,0-18.6,0.3-27.9-1.2
		c-2.3-0.4-4.4,0-6.5,0.5c-5.6,1.3-11.1,2.8-17.1,2.6c-1.3,0-2.5-0.4-3.5-1.2c-0.9-0.6-1.4-1.9-0.8-2.4c0.5-0.4,1.1-0.9,1.6-0.8
		c2.5,0.6,4.7,0.9,7.5,0.3c4-0.9,8.2-0.7,12.5-1.2C230.8,8,237,7.3,243,6.2c2.6-0.5,5-0.6,7.5,0c2.2,0.5,4.4,0.7,6.7,0.7
		c6.7,0.2,13.6,0.5,20.2,0.5c5.5,0,10.8,0.3,16.2,1.7s10.8,1.2,15.9,3.4c0.9,0.4,1.9,0.5,2.8,0.6c3.8,0.2,7.5,0.5,11.4,0.5
		c1.3,0,2.6,0,3.6,0.6c2.8,1.6,5.8,2.5,8.8,3.6c3.3,1.2,6.8,2.2,9.3,4.6c1.7,1.5,4.5,0.9,5.7,3.1C351.3,25.6,351.1,25.9,351,26.3z"
		/>
	<path d="M490.3,186.7c1.4,7.1,3.1,12.8,3.5,18.5c0.5,6.3,0.1,12.8-3.5,18.5c-1.9,2.9-2.9,6.4-3.3,10c-0.3,2.6-1.3,4.8-3.3,6.8
		c-3.1,2.9-5.3,6.3-6.8,10.3c-2.3,6.1-6.8,10.8-10.9,15.6c-1.2,1.4-1.7,2.5-0.6,4.2c0.2,0.4,0,1.2-0.3,1.7c-0.3,0.6-0.8,1-1.2,1.5
		c-3.4,3.9-6.7,7.8-10.1,11.7c-1.3,1.4-2.9,2.4-4.5,3.5c-0.4,0.3-1.2,0.1-1.8,0c-0.7-0.2-1-1.8-0.6-2.6c0.6-1.1,1.2-2.3,1.9-3.3
		c1-1.2,2.2-2.3,3.3-3.5c0.9-0.9,1.8-1.9,2.5-2.9c1.7-2.7,3.1-5.5,4.7-8.2c1.5-2.5,3.2-4.8,4.7-7.1c1-1.6,1.7-3.5,2.9-4.8
		c2.2-2.6,3.1-5.5,3-8.8c-0.1-2.7,1-5.1,2.9-6.9c3-2.9,5.8-5.9,7.1-10c0.3-0.9,1.1-1.6,1.7-2.3c2.5-3.1,3.8-6.7,3.6-10.5
		c0-2.9,0.5-5.8,1.6-8.5c1.9-5.2,2.4-10.5,1.9-16.2C489.2,191.3,488.7,189.7,490.3,186.7z"/>
	<path d="M461.3,103.6c-1.6,0.4-3.2,0.6-4.4-0.8c-0.9-1-1.9-1.8-2.6-2.9c-4.8-7.7-11.4-13.9-18.1-20.1c-5.3-5-11.3-9.4-17.2-14
		c-6.4-4.8-13.1-9.4-19.6-14.2c-1.6-1.1-3.2-2.1-4.8-3c-1.1-0.6-2.4-1-3.4-1.8c-5.3-4.2-11.4-7.1-17.7-9.4c-0.8-0.3-1.4-1.2-1.9-1.9
		c-0.2-0.2-0.2-0.6-0.1-0.9c0.1-0.3,0.4-0.6,0.6-0.6c0.9,0,1.9-0.2,2.8,0.1c3.6,1.4,7,3,10.5,4.6c1.4,0.7,2.6,2,4.1,2.4
		c10.3,3.2,18.7,9.8,27.3,16c1,0.7,2.1,1.7,3.2,2c5.2,1.5,8.6,5.2,12.4,8.8c7.4,7.6,14.8,15.1,21.3,23.6c2.3,3.1,4.6,6.1,5.9,9.8
		C459.9,102.3,460.8,102.9,461.3,103.6L461.3,103.6z"/>
	<path d="M148,223.3c2.3,1.6,3.9,2.6,5.3,3.7c5.3,4.1,5.3,5.6-0.1,10.1c-0.5,0.4-1,0.8-1.5,1.2c-4.2,3.7-8.7,5.3-13.7,1
		c-0.5-0.4-1.1-0.7-1.7-0.8c-0.9-0.1-2.1-0.2-2.7,0.3c-2.3,1.7-4.4,3.7-6.7,5.3c-3.5,2.5-7,2.6-10.7,0c-1.8-1.3-3.6-2.5-5.5-3.9
		c-1.7-1.3-2.1-3.7-0.7-5c3-2.8,6.1-5.6,9.2-8.3c1-0.8,2.3-1,3.5-0.3c1.6,1,3.3,2,4.8,3.1c1.1,0.7,2.1,1.5,3.1,2.2
		c2.3,1.5,4.1,1.5,6.1-0.2c2.2-1.8,4.4-3.7,6.5-5.6C144.8,225.5,146.3,224.5,148,223.3z"/>
	<path d="M408.3,182.4c0-1.4-0.2-2.1,0-2.5c0.8-1.8,1.6-3.5,2.6-5.2c5.2-8.5,5.8-17.7,3.2-27c-0.7-2.4-1.8-4.8-3-7
		c-1-2-2.5-3.8-3.6-5.7c-0.7-1.2-0.8-2.5-0.2-3.7c1.6-3.2,3.2-6.3,5-9.3c0.8-1.5,2.9-1.4,4,0c3.6,4.3,5.5,9.4,6.5,15
		c1.4,6.5,1.3,13.4-0.8,20.1c-1.8,5.6-4,10.9-7,15.9C412.9,175.8,411.1,179,408.3,182.4z"/>
	<path d="M334.4,173.3c1.9-4.4-0.1-9-1-13.8c-1-5.1-3.6-8.8-8.7-10.4c-0.6-0.2-1.2-0.6-1.6-1c-0.3-0.4-0.7-1.2-0.5-1.7
		c0.9-2.2,2.5-3.7,4.8-4.2c2.5-0.5,4.4,0.6,5.8,2.4c1.9,2.2,2.9,5,3.9,7.7c0.5,1.4,2.9,1.9,4.1,0.8c2.1-2,4-4.1,6.2-6
		c2.5-2.2,5.5-3.3,8.8-2.6c1.9,0.4,3.3,2,3.3,4.2c0,1.9-1.7,3.8-3.5,3.8c-0.6,0-1.3-0.1-1.9-0.2c-5.7-1-6.4-0.7-9,4.3
		c-1.8,3.7-3.3,7.6-4.8,11.5c-1,2.4-1.8,4.8-2.8,7.1c-0.2,0.4-1.1,0.7-1.6,0.6s-0.9-0.7-1.3-1.1
		C334.5,174.4,334.6,174.1,334.4,173.3z"/>
	<path d="M296.5,301.2c-0.9-0.6-1.7-0.8-1.8-1.2c-0.2-0.5,0.1-1.3,0.4-1.8c0.3-0.5,0.9-0.9,1.5-1.2c0.8-0.5,1.7-0.9,2.6-1.2
		c21.4-5.4,43-10.7,64.4-16.1c0.9-0.2,1.9-0.1,2.8,0c0.2,0,0.5,0.3,0.5,0.6c0.1,0.3,0.1,0.7,0,0.9c-1,1.8-2.8,2.7-4.6,3.3
		c-6.4,2.2-12.7,4.5-19.3,5.9c-13.6,2.9-26.9,6.1-40.3,9.7C300.5,300.7,298.3,300.8,296.5,301.2z"/>
	<path d="M424.2,197.2c-0.7,5.2-2.9,9-6.9,11.5c-1.7,1-3.8,1.3-5.5,0.1c-3.4-2.3-6.7-4.8-10.1-7.3c-0.9-0.6-1.2-2.5-0.6-3.5
		c2.1-4,4.8-7.5,8.2-10.5c1-0.9,2.4-1,3.6-0.5c3.6,1.4,6.8,3.6,9.3,6.5C423.3,194.4,423.7,196.1,424.2,197.2z"/>
	<path d="M260.4,296.1C260.4,296.7,260.4,296.4,260.4,296.1c0.6-7.6-1.7-13.9-8.6-17.9c-0.3-0.2-0.5-0.4-0.7-0.6
		c-1.1-1-0.9-3,0.5-4.2c2.6-2.2,6.7-1.9,8.5,0.8c1.2,1.9,2.2,3.9,3.2,5.9c0.8,1.4,2.7,1.9,4.1,1c2.2-1.4,4.2-2.9,6.4-4.3
		c1.7-1,3.5-1.5,5.5-1.3c2.2,0.3,4,2.1,4.2,4.5c0.1,1.1-1,2.6-1.9,3c-1.9,0.7-3.8,0.5-5.7,0.2c-3-0.6-5,0.9-6.2,3.4
		c-1.9,4-3.5,8.2-5.3,12.4c-0.5,1.2-1.1,2.3-1.7,3.4c-0.1,0.2-0.6,0.5-0.8,0.5c-0.5-0.2-1.4-0.6-1.4-0.9
		C260.4,300.2,260.4,298.6,260.4,296.1z"/>
	<path d="M365.3,330.4c-0.1-3.2,2.2-4.4,4.7-5.3c1.2-0.4,2.5-0.5,3.8-0.5c9.6,0,18.2-3.7,26.9-6.9c3.2-1.2,6.3-3.4,8.7-5.8
		c4.5-4.4,10.2-6.5,15.6-9.2c0.5-0.3,1.2-0.2,1.8-0.4c0.6-0.1,1.9,0.9,2.1,1.7c0.1,0.6,0.2,1.5-0.1,1.8c-2.4,2.6-4.8,5.2-8.1,6.5
		c-3.9,1.6-7.4,3.8-10.9,6c-5.2,3.2-10.5,6.1-16.8,6.8c-1.2,0.1-2.4,1-3.6,1.3c-1.5,0.4-3.3,1.1-4.7,0.7c-5-1.5-9.4,0-14.2,1.4
		C368.8,329,367.1,329.7,365.3,330.4L365.3,330.4z"/>
	<path d="M220.8,102.5c-0.1,0.6-0.1,1.3-0.4,1.9c-1.9,4.1-4.7,7.4-8.7,9.8c-1.2,0.7-3.4,0.4-4.5-0.4c-2.4-1.7-4-4.1-5.6-6.4
		c-0.8-1.1-0.7-2.3,0-3.6c2.3-3.9,5.2-7.1,8.7-9.9c0.6-0.5,1.9-0.6,2.6-0.3c3.1,1.7,5.5,4.2,7.4,7.1
		C220.5,101.2,220.5,101.9,220.8,102.5z"/>
	<path d="M248.3,174.4c-0.8-0.5-1.6-0.8-1.8-1.2c-0.2-0.5,0-1.3,0.3-1.7c0.6-0.8,1.3-1.5,2.1-1.9c1.4-0.8,2.9-1.4,4.4-2
		c9.7-4,19.5-8.1,29.2-12.2c6.8-2.8,13.6-5.6,20.4-8.3c0.7-0.3,1.1,0.1,1.1,0.9c0,0.3-0.2,0.7-0.4,0.8c-7.3,4-14.4,8.3-22.2,11.3
		c-6.5,2.5-13,5.5-19.5,8.2c-3.6,1.4-6.9,3.1-10.3,5.1C250.5,173.8,249.2,174.2,248.3,174.4z"/>
	<path d="M437.7,173.7c-0.3,0.9-0.7,1.8-0.7,2.7c-0.3,5.4,1.1,7.3,6.4,8.8c0.6,0.2,1.3,0.3,1.8,0.5c0.9,0.4,1.2,1.3,1.3,2.3
		c0,1.7-0.8,3-1.9,4.1c-3.6,3.5-6.8,3.6-10.3-1c-0.9-1.2-1.7-2.8-1.8-4.3c-0.4-4.6,0.9-8.8,3.9-12.4c0.3-0.4,1.1-0.4,1.7-0.7
		C437.8,173.8,437.7,173.7,437.7,173.7z"/>
	<path d="M235.7,286.1c-0.7,1-1.7,1.9-2.2,3c-1.1,2.7-0.3,5.2,2.1,6.5c1.1,0.6,2.3,1,3.5,1.5c0.8,0.3,1,1.7,0.4,2.5
		c-0.8,1-1.5,2-2.6,2.7c-2.7,1.7-6.9,0-7.5-3c-1-4.7,0.4-8.8,3.6-12.2c0.6-0.6,1.8-0.6,2.7-0.9C235.8,286.4,235.7,286.1,235.7,286.1
		z"/>
	<path d="M72.9,243.2c0.3-4.6,0.3-9-0.6-13.4c-0.2-1.1,0.7-2.4,1.3-3.5c0.2-0.4,1.1-0.7,1.6-0.6c0.5,0.1,1.1,0.6,1.3,1.1
		c0.3,0.9,0.5,1.9,0.5,2.8C76.8,234.3,75.9,239.1,72.9,243.2z"/>
	<path d="M461.4,103.6c-0.7,1.7,0.5,2.9,1.2,4.2c0.1,0.2,0.1,0.7,0.1,0.7c-1.9,0.3-1.8-1.1-1.8-2.3
		C460.9,105.4,461.2,104.5,461.4,103.6C461.3,103.6,461.4,103.6,461.4,103.6z"/>
	<path d="M365.3,330.4c-2.8,0.1-5.6,0.1-8.5,0.2c-0.1,0-0.2,0.1-0.2,0.1C359.4,329.4,362.5,330.2,365.3,330.4L365.3,330.4z"/>
	<path d="M309.4,206.7c-0.1,0.2-0.1,0.5-0.2,0.7c0.7-0.1,0.6-0.3-0.2-0.5C309.1,206.9,309.4,206.7,309.4,206.7z"/>
</g>
</svg>
