<svg width="624" height="558" viewBox="0 0 624 558" fill="none" xmlns="http://www.w3.org/2000/svg">
<mask id="mask0_82:40" style="mask-type:alpha" maskUnits="userSpaceOnUse" x="0" y="0" width="624" height="558">
<path opacity="0.15" fill-rule="evenodd" clip-rule="evenodd" d="M483.151 33.8031L465.379 88.4935L390.104 143.193L361.351 54.6993L379.123 0H436.627L483.151 33.8031ZM162.209 187H255.256L226.504 98.5065L179.98 64.7123L133.457 98.5065L115.685 153.206L162.209 187ZM156.944 312.591L232.228 257.9L156.944 203.201H99.4392L81.6677 257.9L99.4392 312.591H156.944ZM260.519 312.59L269.494 284.974L246.005 267.904L184.506 312.59H260.519ZM113.279 398.367L98.7651 353.69L136.767 326.074H89.7906L75.2769 281.397L60.7543 326.074H13.7779L51.7887 353.69L37.2661 398.367L75.2769 370.76L113.279 398.367ZM196.615 513.074H243.6L205.589 485.467L220.112 440.781L182.101 468.397L144.099 440.781L158.613 485.467L120.602 513.074H167.588L182.101 557.76L196.615 513.074ZM139.571 479.28L93.0385 513.074H0L28.7522 424.581L75.2759 390.786L121.8 424.581L139.571 479.28ZM396.256 357.197L457.755 401.883L434.266 329.59H405.23L396.256 357.197ZM344.317 461.091L326.545 515.79H269.041L222.517 481.987L240.289 427.297L315.564 372.598L344.317 461.091ZM436.627 515.79L483.151 481.987L465.379 427.297L390.104 372.598L361.351 461.091L379.123 515.79H436.627ZM589.984 362.585L572.213 417.284L525.689 451.078L479.165 417.284L450.413 328.791H543.452L589.984 362.585ZM352.829 434.878L376.327 362.585L352.829 345.523L329.341 362.585L352.829 434.878ZM310.301 356.398L248.802 401.084L272.29 328.791H301.326L310.301 356.398ZM255.256 328.791L226.504 417.284L179.98 451.078L133.457 417.284L115.685 362.585L162.209 328.791H255.256ZM269.494 230.817L246.005 247.887L184.506 203.201H260.519L269.494 230.817ZM310.301 159.393L301.326 187H272.29L248.802 114.707L310.301 159.393ZM428.114 312.59L417.124 278.786L445.876 257.899L417.124 237.003L428.114 203.2H392.571L381.59 169.406L352.838 190.293L324.077 169.406L313.096 203.2H277.553L288.543 237.003L259.782 257.899L288.543 278.786L277.553 312.59H313.096L324.077 346.384L352.829 325.497L381.59 346.384L392.571 312.59H428.114ZM521.162 203.201L459.663 247.887L436.175 230.817L445.149 203.201H521.162ZM445.149 312.59H521.162L459.663 267.904L436.175 284.974L445.149 312.59ZM624 257.9L606.228 312.591H548.715L473.439 257.9L548.715 203.201H606.228L624 257.9ZM543.452 187L589.984 153.206L572.213 98.5065L525.689 64.7123L479.165 98.5065L450.413 187H543.452ZM456.866 114.707L433.378 187H404.342L395.367 159.393L456.866 114.707ZM352.838 170.267L376.327 153.206L352.829 80.9129L329.341 153.206L352.838 170.267ZM315.564 143.193L344.317 54.6993L326.545 0H269.041L222.517 33.8031L240.289 88.4935L315.564 143.193Z" fill="#F2F2F2"/>
</mask>
<g mask="url(#mask0_82:40)">
<path opacity="0.89" d="M-71.5856 127.378C-71.5856 116.333 -62.6313 107.378 -51.5856 107.378H740.144C751.189 107.378 760.144 116.333 760.144 127.378V472.528H-71.5856V127.378Z" fill="#F2F2F2"/>
</g>
</svg>
