<?xml version="1.0" encoding="utf-8"?>
<!-- Generator: Adobe Illustrator 21.0.2, SVG Export Plug-In . SVG Version: 6.00 Build 0)  -->
<svg version="1.1" id="Layer_1" xmlns="http://www.w3.org/2000/svg" xmlns:xlink="http://www.w3.org/1999/xlink" x="0px" y="0px"
	 viewBox="0 0 500 350" style="enable-background:new 0 0 500 350;" xml:space="preserve">
<g>
	<path d="M448,261.4c2.8-2.7,5-6,7.7-8.8c3-3.2,4.9-7.2,7.1-11.1c0.4-0.6,0.6-1.4,1-1.9c2-2.7,3-6,4-9.1c0.9-3.1,1.7-6.3,2.9-9.4
		c1.2-3,1.9-6.1,2.4-9.3c0.5-3,1.1-6.2,0.8-9.4c0-0.3,0-0.6,0.1-0.9c0.5-2.9,0.9-6,1.4-8.9c0.2-1.1,0.3-2.4,0.8-3.5
		c0.6-1.1,0.5-2.2,0.2-3.4c0-0.1,0.1-0.2,0.1-0.3c0.4,0,0.8-0.1,1.3-0.1c-0.1-1.7-1.8-3-0.7-4.9c-0.4-0.5-0.7-0.9-1-1.3
		c1.1-1,1.1-1.2,0.7-2.4c-0.7-1.9-1.5-3.9-2.1-6c-0.3-1-0.3-2.1-0.6-3.2c-0.6-2.4-1.3-4.9-2.1-7.2c-0.9-2.8-1.9-5.7-3-8.5
		c-0.3-0.8-0.7-1.6-1.2-2.6c0.7-0.1,1.3-0.1,1.9-0.2c-0.2-1-0.2-1-0.7-1.1c-2.1-0.4-2.2-0.5-2.6-2.6c-0.2-1.2-0.5-2.6-0.9-3.8
		c-0.4-1.4-1-2.8-1.4-4.4c-0.1-0.3,0-0.8,0.1-1.1c0.5-0.9,0-1.8-0.2-2.6c-0.2-1-0.5-1.9-1.6-2.2c-0.3-0.1-0.5-0.5-0.6-0.8
		c-0.5-1.9-1.8-3.2-2.9-4.9c-0.3-0.4-0.6-0.8-0.8-1.2c-1.3-2.6-2.5-5.4-3.9-8c-0.1-0.2-0.3-0.4-0.4-0.6c-2.1-1.9-2.7-5-5-6.8
		c-0.2-0.2-0.3-0.5-0.4-0.8c-0.9-1.9-2.3-3.5-4-4.9c-2.8-2.4-5.9-4.8-8.1-7.8c-0.4-0.5-0.8-1.1-1.3-1.5c-1.9-1.8-3.6-4-6.2-4.8
		c-0.5-0.1-1-0.7-1.4-1.1c-1.8-2.2-3.7-4.5-5.6-6.6c-0.5-0.6-1.1-1.1-1.6-1.7c-2.4-2.6-5.7-3.9-8.7-5.8c-2-1.3-4.2-2.3-6.2-3.7
		c-0.8-0.5-1.6-1-2.1-1.7c-1.2-1.6-2.9-2.6-4.8-3c-2.9-0.7-5.5-2-7.9-3.7c-1.5-0.9-3.1-1.6-4.4-3c-0.6-0.6-1.4-1-2.1-1.5
		c-0.9-0.7-2.1-1.4-2.8-2.3c-1.1-1.5-2.6-2.6-4.3-3.4c-2.7-1.2-5.6-2.4-8.3-3.5c-6.2-2.3-12.2-4.8-18.4-6.9
		c-1.7-0.6-3.5-1.2-5.3-1.7c-1.9-0.6-3.9-1.1-5.9-1.6c-3.1-0.9-6.2-1.9-9.4-2.6c-6-1.3-12-2.4-18-3.7c-4.1-0.8-8.2-1.6-12.3-2.2
		c-2.2-0.3-4.6-0.4-6.8-0.6c-1-0.1-1.9-0.4-2-1.7c0-0.3-0.3-0.6-0.5-1c-0.4,0.3-0.7,0.4-0.9,0.7c-0.7,0.9-1.6,1.1-2.6,0.9
		c-2.5-0.3-5-0.6-7.5-1c-3.5-0.5-6.8-1-10.5-0.9c-3,0.1-6.2-0.2-9.2-0.3c-1.9-0.1-4-0.3-5.9-0.3c-4.4,0.1-8.7,0.3-13.1,0.3
		c-6.5,0-12.8,0.6-19.3-0.1c-0.5,0-1,0-1.5,0.1c-3.5,0.4-6.8,0.8-10.4,0.5c-1.4-0.1-2.8,0-4.3,0c-2.4,0-4.9,0.1-7.3,0.1
		c-1.4,0-2.8,0.1-4.3,0.2c-3.7,0.4-7.2,0.9-10.9,1.2c-4.4,0.4-8.4,1.4-12.6,2.9c-2.1,0.8-4.3,1.6-6.4,2.3c-3.8,1.3-7.5,2.2-11.5,2.9
		c-2.6,0.5-5.3,1.2-7.9,1.7c-1.1,0.3-2.3,0.7-3.5,0.7c-2.6,0-5,0.8-7.3,1.5c-1.6,0.5-3.2,1-5,1.5c-2.2,0.6-3.7,2.4-3.5,4.9
		c0,0.4,0.1,0.9,0.4,1.2c1,1.2,2.2,2.3,3.9,2.4c2,0.1,4.3,0,6.2-0.6c2.3-0.7,4.7-1,7-1.2c2.8-0.2,5.7-0.5,8.4-1.1
		c4.1-1,8.1-1.1,12.2-1.8c1.1-0.2,2.3-0.2,2.7-1.6c0.9,0.8,1.7,1.1,2.6,0.5c0.1-0.1,0.4,0,0.5,0c2.8,0.2,5.5-0.7,8.2-1.1
		c1.1-0.2,2.2,0,3.1-0.3c2.6-0.9,5.2-1.4,8.1-1.2c2.5,0.2,5.2-0.2,7.7-0.3c4.1-0.2,8.1-0.4,12.2-0.6c1.1-0.1,2.2-0.2,3.2-0.3
		c1.1,0.2,2.1,0.6,3,0.5c2.7-0.1,5.5-0.5,8.2-0.6c6.2-0.2,12.2-0.4,18.4-0.4c3.7,0,7.3,0.6,11.1,0.3c2.5-0.2,5.2-0.2,7.6-1.1
		c1.2-0.4,2.4-0.3,3.7,0c1.3,0.4,2.7,0.6,4.2,0.8c2.1,0.3,4.3,0.4,6.4,0.7c4.5,0.8,9,1.3,13.3,2.4c3,0.8,6.2,1,9.3,1.3
		c1,0.1,1.9-0.1,3.1-0.2c0.1,0.9,1.1,1.1,2,1.1c3.1,0.2,6.2,1.2,9,2.2c1.1,0.3,2.1,0.5,3-0.2c0.2,0.4,0.2,0.8,0.4,0.9
		c0.8,0.3,1.6,0.5,2.4,0.7c1.9,0.4,3.9,0.8,5.7,1.2c1.5,0.3,3.1,0.8,4.7,0.9c3.9,0.4,7.7,0.6,11.5,1.9c0.6,0.2,1.3,0.3,1.9,0.4
		c-0.6-0.6-1.3-1.1-2.1-1.1c-1.8-0.1-3.2-1-4.8-1.8c-1.1-0.6-1.2-1.1-0.4-2.2c0.7-1,1.5-2.1,2.3-3.2c0.1,0,0.4,0,0.6,0
		c2.7,0.4,5.5,1.1,8.3,0.9c0.6,0,1.3,0.6,1.8,1c0.6,0.6,1,1.2,1.9,1.1c0.3,0,0.5,0.2,0.8,0.3c1.4,0.4,2.8,0.9,4.3,1.3
		c0.7,0.2,1.4,0.3,2.1,0.5c0.4,0.1,0.9,0.2,1.2,0.1c0.8-0.3,1.3,0,1.8,0.5c0.6,0.6,1.2,1.4,1.8,2c0.5,0.5,1.1,1.1,1.8,1.2
		c0.9,0.1,1.3,0.7,1.7,1.4c0,0.1,0.2,0,0.5,0c0.1-0.5,0.3-0.9,0.5-1.6c0.6,0.3,1.1,0.5,1.6,0.7c-0.2,1.8-0.4,3.5-0.6,5.4
		c0.5-0.5,0.9-0.8,1.5-1.3c-0.3,0.9-0.5,1.3-0.7,1.8c0.5,0.7,0.9,1.4,1.5,2.2c1.1-1,2.2-2,3.4-2.9c-0.2-0.4-0.3-0.6-0.4-0.9
		c-0.1-0.3-0.1-0.5-0.3-1.2c0.8,0.3,1.5,0.3,1.8,0.6c0.5,0.5,0.9,1.3,1.3,1.9c0.9,1.5,2.2,1.6,3.5,0.3c0.2-0.2,0.5-0.4,0.8-0.8
		c-0.3,1.1-0.6,1.9-0.8,2.8c0.9,0.2,1.6,0.3,2.1,0.6c1.2,0.6,1.9,2,1.8,3.7c0,0.2,0,0.4,0.1,0.5c0.7,0.6,1.5,1.2,2.3,1.6
		c0.8,0.4,1.6,0.2,2.3-0.6c0.5-0.6,1.1-0.5,1.5,0.1s0.7,1.2,1.1,1.9c0.4,0.1,0.9,0.3,1.3,0.4c0.4,0.1,0.9,0.2,1.6,0.4
		c-0.6-1.3-1-2.3-2.5-2.4c0.6-0.2,1.2-0.3,1.9-0.5c0.2,1.3,0.8,1.7,1.9,1.7c0.5,0,1.1,0.1,1.6,0.3c1,0.5,2.2,0.5,2.9,1.5
		c-1.4,1.6-1.4,1.6-3.2,1c-0.4-0.1-1,0-1.5,0.1c0.1,1.6,1.1,2.2,1.9,3c1.3,1.3,2.6,2.6,4,3.8c0.2,0.2,0.2,0.5,0.3,0.8
		c-0.7,0-1.4-0.1-2.2-0.1c1.4,1.2,2.6,2.4,3.9,3.5c1.1,0.9,2.3,1.7,3.5,2.7c0.8,0.7,1.5,1.4,2.6,1.6c0.3,0.1,0.8,0.4,0.9,0.8
		c0.5,1.6,1.5,2.2,2.9,2c0.5,0.8,0.8,1.7,1.3,2.2c1.1,1.1,2.4,2,3.8,2.9c0.3,0.2,0.5,0.6,0.8,0.7c1.7,0.3,2.6,1.6,3.5,2.9
		c0.7,1.1,1.4,2.1,2.2,3.4c0.4-0.5,0.6-0.9,0.9-1.3c1.4,0.7,2,2.4,3.7,2.8c0.2,0,0.3,0.6,0.3,1c0,1.1,0.5,1.6,1.6,2
		c1.4,0.5,3.1,1.1,2.8,3.4c0,0.2,0.2,0.4,0.3,0.6c0.7,0.6,1.3,1.1,2,1.7c0.6,0.5,0.9,1.1,1,1.8c0.2,1.3,0.5,2.8,1.7,3.8
		c1.3,0.9,2.7,1.6,4.3,2.6c-0.6,1.2,0.8,0.7,1,1c0.4,2.8,2.7,4.3,4.1,6.3c-0.5,0.2-0.9,0.4-1.2,0.5c0.8,0,1.2,0.5,1.5,1.3
		c0.3,0.7,0.8,1.3,1.3,1.9c0.5,0.6,1.1,1.1,0.8,1.9c-0.3,0.9,0.1,1.3,0.9,1.5c1,0.2,1.2,0.7,1.3,1.6c0.1,1.4,0.4,1.7,2.2,2.1
		c-0.1-1.3-0.2-2.6-0.3-4.1c0.6,0.1,1.2,0.1,1.3,0.4c0.5,1.1,1.2,2.2,1.4,3.4c0.3,1.8-0.1,3.4-0.9,5.1c0.3,0.3,0.5,0.6,0.8,0.9
		c-0.4,0.3-0.8,0.6-1,0.8c0.5,1.7,1,3.1,1.4,4.9c0.2,0.7,0.6,1.1,1.3,1.4c1.9,0.9,3.4,2.2,3.6,4.6c0.1,0.6,0.3,1.3,0.6,1.9
		c0.5,1.2,1.1,2.4,1.6,3.7c0.6,1.2,0.5,2.4-0.3,3.7c-0.7,0.9-0.4,1.5,0.2,2.2c0.7,0.7,1.4,1.4,2,2.1c1.1,1.2,1.1,1.7,0.3,3.1
		c-0.3,0.4-0.6,0.9-0.9,1.4c0.6,0.5,1.1,0.9,1.6,1.4c0.2,0.2,0.6,0.6,0.6,0.9c0,1,0.3,2.1-0.4,3c-0.8,1.1-0.7,2.3-0.1,3.5
		c0.5,0.9,0.5,1.8,0,2.8c-0.3,0.8-0.5,1.7-0.7,2.6c-0.2,1.2-0.3,2.4-0.5,3.7c-0.2,1.2-0.7,2.6-0.6,3.8c0.1,1.2-0.2,2.2-0.3,3.5
		c0,0.4-0.2,0.7-0.2,1.1c0.2,1.6,0.3,3.1-0.3,4.9c-0.6,1.7-0.3,3.8-0.3,5.7c0,0.3-0.1,0.7,0.1,0.9c0.8,0.7,0.4,1.6,0.2,2.4
		c-0.3,1.3-0.7,2.6-1,4c-0.9-0.1-1.6-0.2-2.5-0.4c-0.1,0.7-0.2,1.2-0.3,1.7c-0.1,1-0.1,2-0.2,3c0,0.5,0,1.1-0.7,1
		c-0.6-0.1-0.7-0.6-0.6-1.1c0-0.4,0-0.7-0.1-1.5c-1,2.2-0.8,2.6,1.3,3.7c-0.1,0.7-1.5,0.6-0.9,1.8c0.6-0.2,1.3-0.4,1.9-0.6
		c0-0.6-0.1-1.1,0-1.4c0.1-0.2,0.5-0.4,0.8-0.6c0.2,0.3,0.5,0.6,0.5,0.8c-0.2,1-0.3,2-0.7,3c-0.3,0.9-1.2,1.8-0.7,2.9
		c0.7,1.3-1.1,1.7-0.8,2.8c0,0.2,0,0.4,0,0.5c-0.3,0.8-0.5,1.7-1.6,2c-0.5-0.4-0.9-0.8-1.4-1.3c-0.3,0.3-0.4,0.5-0.6,0.7
		c-0.9-0.2-1.7-0.5-2.6-0.7c-0.2,0.4-0.4,0.7-0.5,1.1c-1,2-2.1,4-3.7,5.7c-1.8,2.1-4,4.3-5.4,6.8c-0.8,1.5-2,2.9-2.9,4.5
		c-0.2,0.3-0.3,0.8-0.2,1.2c0.1,1.8-0.7,3-2.5,3.4c-0.8,0.1-1.5,0.5-2,1.1c-1.8,1.9-3.6,3.9-5.4,5.8c-0.7,0.8-1.7,1.4-2.3,2.2
		c-1.7,2.6-4,4.6-6.1,6.6c-1,1-2.1,1.9-3.2,2.6c-3.2,2-6.6,4.1-10,6c-3.6,2-7,4.1-10.6,6c-2.3,1.3-4.7,2.4-7.1,3.7
		c-1.9,1-3.9,2-5.7,2.8c-1.8,0.7-3.5,1.6-4.9,2.9c-2.4,2.3-5.3,3.7-8.8,3.7c-2.2,0-4.5,0.7-6.6,1.6c-0.9,0.4-2,0.5-3,0.6
		c-1.6,0.2-3.2,0.5-4.9,0.6c-3.4,0.3-6.5,2.2-10,1.6c-0.2,0-0.5,0.1-0.7,0.1c-4.5,1.1-8.8,2.1-13.3,3.2c-1.2,0.3-2.4,0.4-3.7,0.3
		c-2,0-4.1,0.1-6,0.5c-2.4,0.5-4.8,1.3-7.1,1.9c-1,0.2-2,0.1-3.1,0.1c-2.8-0.2-5.7-0.5-8.6,0.4c-3.8,1.2-7.6,1.3-11.6,1
		c-1.5-0.1-3.1-0.2-4.6,0.1c-3.6,0.7-7,0.3-10.5,0.1c-0.9,0-1.8-0.2-2.7-0.1c-2.4,0.4-5,0.5-7.3,0.1c-3.8-0.6-7.5-1.3-11.2-2
		c-0.6-0.1-1.2-0.6-1.8-0.7c-0.9-0.2-1.9-0.2-2.8-0.4c-1.8-0.4-3.6-0.5-5.3,0.7c-3.1,2.2-6.8,2.7-10.6,2.7c-0.9-1.2-0.9-1.2-1.9-0.2
		c-0.3,0.3-0.7,0.4-1.1,0.5c-1.8,0.6-3.8,0.8-5.7,0.6c-1.9-0.2-4,0-5.9-0.4c-2.2-0.5-4.4-1.4-5.1-4.1c-0.1-0.2-0.2-0.5-0.4-0.6
		c-1.1-0.9-2.2-1.9-3.4-2.8c-1.8-1.4-4-2.2-6.2-1c-1.1,0.6-2.1,1.5-3.1,2.3c-1.2,1-2.2,2.1-3.5,2.9c-0.8,0.5-1.7,1-2.7,1
		c-4,0.2-7.9,0.2-11.7,0.4c-2.9,0.1-5.9,0.3-8.8,0.4c-0.4,0-0.9,0.1-1.3,0c-2.5-0.7-5.2-0.5-7.8-0.9c-1.8-0.3-3.7-0.2-5.5-0.4
		c-1-0.1-1.9-0.6-2.9-1c-0.3-0.1-0.6-0.6-0.9-0.6c-1.6,0-3.1,0-4.8,0.1c-2.3,0.1-4.6,0.1-6.6-1.1c-1.8-1.1-3.7-1.6-5.7-1.6
		c-0.7,0-1.3-0.2-2-0.3c-2.7-0.6-5-2.6-7.7-3.1c-0.9-1.1-2.3-1.2-3.6-1.7c-1.1-0.5-2.4-0.4-3.2-1.5c-1.6,0-2.8-0.9-4.3-1.5
		c-1.4-0.7-2.9-1.5-4.5-1.7c-2.3-0.2-4-1.4-5.9-2.4c-0.1-0.1-0.1-0.3-0.2-0.6c0.9-0.6,1.9-0.5,2.8-0.4c5.7,0.3,11.5,0.5,17.1,0.9
		c3.4,0.2,6.6,0.6,9.7,1.9c2.3,1,4.7,2.2,7,3.4c3.4,1.5,6.8,2.8,10.6,2.6c0.7,0,1.3,0.1,2,0.1c3.8,0,7.5,0.3,11.2,0
		c5.1-0.4,10.1-1.1,15.2-1.9c4.5-0.7,8.9-1.6,13.3-2.6c1.8-0.4,3.7-0.9,5.6-1.4c4.4-1.1,8.8-2.2,13.2-3.5c5.2-1.5,10.4-3.1,15.5-4.9
		c1.6-0.5,3.4-1,5-1.5c2.4-0.9,4.9-1.9,7.3-2.9c1.8-0.7,3.8-1.2,5.6-2c2.9-1.3,5.9-2.8,8.7-4.4c2.5-1.3,5.2-2.6,7.7-4.1
		c3.1-1.8,12.3-9.6,12.9-10.5c1-1.5,2.2-3.1,2.9-4.9c1.5-3.8,2.5-7.7,2.9-11.7c0.2-1.7,0.5-3.5,0.7-5.1c0.2-1.3,0.9-2.1,2.3-2.6
		c2.9-0.8,5.6-2.1,8.1-3.9c0.9-0.6,2-1,3.2-1.6c0.2,1.1,0.4,1.8,0.6,2.6c0.9,4.4,2.2,8.5,4.3,12.7c2.6,5.1,7,8.2,12.2,10.1
		c1.8,0.7,3.8,1.1,5.7,1.5c4.3,0.9,8.6,1,12.8,0.3c4.3-0.7,8.4-1.5,12.7-2.6c3.9-0.9,7.7-2,11.6-3.2c2.1-0.7,4.2-1.8,6.2-2.6
		c3.7-1.4,18.7-12.2,18.7-15.5c0-1.9,0.1-3.9,0.1-5.7c0.1-2.2-0.2-4.5-1.1-6.6c-0.7-1.6-1.3-3.4-2.1-4.9c-0.4-0.8-0.9-1.5-1.5-2.3
		c-1.6-2.4-4-4-6.4-5.5c-3.2-1.9-6.8-2.9-10.5-3.5c-1.2-0.2-2.4-0.2-3.7-0.1c-5.3,0.6-10.1,2.4-14.9,4.8c-4.7,2.2-8.7,5.4-12.8,8.4
		c-5.2,4.1-9.9,8.5-14.2,13.5c-1,1.2-1.4,1.2-2.5,0.1c-0.9-0.8-1.7-1.8-2.4-2.8c-2.5-3.7-3.9-7.7-5.2-11.7c-0.8-2.2-1.2-4.8-0.9-7.2
		c0.1-0.6-0.2-1.3-0.4-2c-1.3,0.1-2,0.7-2.6,1.6c-0.6,1-1.1,2.1-1.7,3c-0.6,0.8-1.2,1.7-2.1,2.2c-2.8,1.9-6.1,2.9-9.3,4
		c-3.8,1.2-7.3,0.8-10.8-0.8c-2.9-1.4-5.9-2.8-7.9-5.5c-0.2-0.2-0.3-0.3-0.5-0.5c-1.1-0.9-2-0.8-2.7,0.5c-1.6,3.2-3.4,6.6-4.8,10
		s-1,6.3,1.7,9.1c3.1,3.1,5.7,6.7,7.7,10.9c1,2.2,1.7,4.5,2.2,6.8c0.3,1.5,0,2.2-2,2.9c-0.4,0.1-2.8,2.2-4,2.8
		c-1.6,0.8-3.1,1.6-4.8,2.4c-2.4,1.2-4.9,2.4-7.3,3.7c-2.6,1.1-5.3,2.1-7.9,3c-4.9,1.8-9.7,3.7-14.5,5.4c-2,0.7-4.1,1.4-6.2,2
		c-4.9,1.4-9.7,2.7-14.5,4.1c-1.9,0.5-3.9,0.9-5.7,1.4c-3.9,0.9-7.8,1.8-11.7,2.6c-7.6,1.3-15.3,2.3-23.1,2.8
		c-1.3,0.1-2.7,0.3-4.1,0.4c-5.7,0.3-11.6,0.5-17.3,0.9c-7.9,0.5-15.8,1.4-23.8,1.3c-7-0.1-13.9-0.2-21-0.3c-2.7,0-5.6-0.2-8.3,0.1
		c-1.6,0.2-2.8-0.1-4.3-0.8c-4.4-2.2-8.6-4.9-12.7-7.4c0.8,0,0.3-0.4-0.1-0.9c0.5-0.2,0.7-0.3,0.8-0.2c4.9,0.2,9.9,0.4,14.7,0.8
		c2.6,0.2,5.3,0.6,7.9,0.9c2.5,0.3,5.1,0.7,7.7,1.1c1.3,0.2,2.5,0.5,3.9,0.7c3.8,0.6,7.5,1.3,11.2,1.9c1.4,0.2,2.7,0.5,4.2,0.6
		c4.8,0.4,9.5,0,14.3-0.7c7.8-1.2,15.5-2.6,23.3-4.6c5.6-1.4,11.2-2.8,16.9-4.3c2.2-0.6,4.6-1.2,6.8-1.8c1.7-0.5,3.5-1,5.1-1.6
		c4.5-1.5,8.8-2.9,13.3-4.5c3.5-1.2,6.8-2.6,10.3-3.7c5.4-1.7,10.6-3.9,15.5-6.5c3.7-1.8,7.1-4.1,10.3-6.6c1.9-1.5,4-3.1,5.2-5.5
		c2.2-4.1,4.5-8,5.7-12.7c1.2-4.3,1.7-8.4,0.9-12.9c-0.4-2-0.5-4,0.2-6c0.3-0.8,0.3-1.8,0.5-2.7c0.3-2.1-0.3-3.8-1.9-5.1
		c-0.9-0.7-1.9-1.4-2.7-2.2c-2.9-2.8-5.9-5.7-8.9-8.7c-1.2-1.2-1.7-1.2-2.8,0.1c-0.3,0.4-0.6,0.9-0.9,1.4c-0.5,1-0.8,2-1.4,3
		c-1.6,2.6-2.7,5.5-3.5,8.5c-0.3,1.5-0.2,2.9,0.4,4.4c0.5,1,1,2.1,1.7,3c2.6,4.1,5.3,8,7.8,12.2c1.1,1.9,1.9,4,2.8,6
		c0.3,0.7,0.1,1.3-0.5,1.7c-0.3,0.2-0.6,0.4-0.9,0.7c-2.8,2.3-6.2,3.8-9.4,5.4c-3.2,1.6-6.5,3.4-10,4.3c-1.9,0.5-3.8,1.1-5.6,1.8
		c-3.1,1.1-6.2,2.4-9.3,3.7c-3.2,1.2-6.6,2.4-10,3.7c-4.8,1.5-9.5,2.7-14.4,4.3c-0.3,0.1-0.7,0-1,0c0-0.2,0-0.3,0-0.3
		c0.1-0.2,0.1-0.3,0.2-0.5c2.7-3.5,4.1-7.6,4.7-12c0.7-5.6-0.6-10.6-4.2-14.9c-0.9-1.1-1.4-1.2-2.6-0.5c-1.7,1-3.1,2.4-4.2,4.3
		c-1.2,1.9-1.4,4.1-0.3,6.1c0.6,1.1,1.2,2.1,1.8,3.2c2.1,3.8,3,7.7,1.5,12c-0.6,1.7-0.5,1.9,0.1,3.8c-0.8,0.2-1.6,0.5-2.4,0.7
		c-4.1,0.9-8.1,1.7-12.1,2.8c-4.9,1.4-10,1.8-14.8,2.8c-3.9,0.7-7.8,1.1-11.7,1.6c-4.9,0.6-9.7,1.2-14.7,1.7
		c-4.1,0.4-8.1,0.5-12.2,0.8c-2.7,0.2-5.5,0.4-8.3,0.6c-5.7,0.3-11.5,0.7-17.1,1c-5.2,0.2-10.4,0.4-15.5,0.6
		c-1.5,0.1-2.9,0.1-4.5,0.1c-0.4,0-0.9,0-1.2-0.3c-1-0.8-1.9-1.7-2.8-2.6c-2.8-2.6-5.7-5.4-8.4-7.9c-2.6-2.6-5.3-5-6.6-8.5
		c-0.1-0.3-0.4-0.7-0.7-0.9c-1.4-1.1-2.1-2.6-3-4.3c-3.5-6-6.4-12.1-7.3-18.9c-0.1-0.5-0.3-1.1-0.4-1.6c-0.6-2.2-1.3-4.4-1.7-6.6
		c-0.8-3.4-1.8-6.7-3.2-9.8c-0.1-0.3-0.3-0.6-0.3-0.8c0.2-1.8-0.4-3.5-1-5.1c-0.9-2.6-1.3-5.2-1.5-7.8c-0.3-4.6-0.5-9.1-0.4-13.7
		c0.1-2.1,0.3-4.3-0.2-6.6c-0.6-2.8-0.6-6-1-8.9c-0.2-2.1-0.2-4.3,0.5-6.5c0.5-1.6,0.7-3.4,1.1-5.1c0.2-0.9,0.4-1.8,0.6-2.6
		c0.2-0.6,0.4-1.3,0.5-1.9c0.1-2,1.2-3.8,1.2-6c0.1-1.8,0.8-3.7,1.2-5.4c0.5-1.9,0.9-4,2.7-5.2c0.1,0,0-0.2,0.1-0.3
		c-1.6-1.1-1.6-1.2,0-2.8c-0.3-0.7-0.5-1.4,0.1-1.8c-0.3-0.6-0.7-1.1-0.7-1.5c0.1-1,0.9-1.3,1.7-1.1c0.7-1.5,1.3-2.7,1.8-4.3
		c0.2-0.6,0.1-1.3,0-1.9c-0.1-0.6-0.4-1.2-0.6-2.1c1-0.4,1.8-0.6,2.6-1c0.6-0.3,1.3-0.6,1.8-1.1c1.7-1.7,2.9-3.8,3.2-6.3
		c0.1-0.9,0.7-1.5,1.5-1.9c0.4-0.2,0.7-0.4,0.9-0.5c0.3-1.1,0.8-1.9,0.8-2.8c-0.1-1.7,0.9-2.7,2.1-3.7c1.9-1.4,3.2-3.2,4.2-5.5
		c1.5-0.2,2.1-0.5,2-1.5c-0.1-1.4,0.7-1.8,1.8-2.1c0.6-0.2,1.4-0.3,1.8-0.7c1.2-1.1,2.2-2.4,3.2-3.8c0.9-1.2,1.7-2.6,2.5-3.9
		c0.3-0.4,0.5-1,0.6-1.5c0.6-1.8,1.6-3.4,3.5-4.3c1.9-0.9,4.1-1.6,5-3.9c0.1-0.2,0.2-0.3,0.4-0.4c1.3-0.3,2-1.5,3-2.3
		c0.5-0.4,0.9-0.8,1.6-0.5c0.8,0.4,1.3-0.1,1.9-0.6c0.8-0.7,1.7-1.5,2.7-1.8c1.1-0.3,1.8-0.8,2.4-1.7c0.8-1,1.6-1.7,3-1.6
		c0.5,0,1.2-0.3,1.7-0.6c1.4-0.9,2.8-1.8,4-2.9c1.2-1.1,2.3-2.3,3-4.1c0.8-2.1,2.2-4.3,4.9-4.8c1-0.2,1.6-0.8,1.7-1.9
		c0-0.2,0.1-0.5,0.2-0.7c0.5-1,0.8-1.1,2-0.8c0.3,0.1,0.8,0.1,1.1,0c0.6-0.3,1.2-0.7,1.7-1c1.1-0.7,1.5-1.7,1.3-3
		c-0.2-1.4-0.9-1.9-2.3-1.4c-0.6,0.2-1.2,0.6-1.8,0.9c-2.3,1.1-4.6,1.9-7.2,1.7c-1.1-0.1-2.3,0.5-3.6,0.9c-1.1,0.4-2.1,1-3.1,1.5
		c-2.9,1.5-6.2,2.4-9,4.3c-3.6,2.3-7.5,4.4-11.1,6.7c-5.1,3.4-10,7.2-14.4,11.2c-5.3,4.8-10.1,9.8-14.5,15.3c-2.4,3-4.8,6.2-7.1,9.3
		c-2.8,3.8-5.4,7.8-7.7,12.1c-2,3.7-3.9,7.3-5.7,11.1c-0.7,1.3-1.2,2.7-1.7,4.1c-1,2.6-2,5.4-2.6,8c-0.1,0.3-0.3,0.5-0.4,0.8
		c-0.3,0.8-0.8,1.7-1,2.6c-1,3.8-1.9,7.6-2.7,11.3c-0.9,4.3-2.8,8.3-2.3,12.7c0,0.2-0.1,0.5-0.1,0.7c-0.4,3-0.9,6.1-1.1,9.1
		c-0.4,6.7-0.3,13.5,0.5,20.2c0.4,3.2,1,6.6,1.3,9.6c0.4,4,1,7.8,2,11.7c0.6,2,1.2,4,2.1,6c1.6,3.2,3.5,6.5,5.1,9.6
		c0.7,1.3,1.1,2.7,1.6,4.1c0.6,1.5,1.3,3,1.9,4.6c1.3,3,2.6,6.1,4.1,9.1c0.9,1.8,2.1,3.5,3.1,5.2c1.4,2.4,3.1,4.9,3.2,7.9
		c0.1,1.5,0.7,2.6,1.9,3.4c0.5,0.3,0.9,0.8,1.2,1.3c1.6,2.4,3.8,4.4,6.1,6.1c1.9,1.4,3.8,3.2,5.6,4.9c0.5,0.4,0.9,0.8,1.4,1.1
		c3.5,2.6,6.6,5.4,9.2,8.8c0.8,1,1.6,2.1,2.7,2.7c3.6,2,6.6,4.8,10.1,6.6c2.9,1.6,5.7,3.7,8.4,5.5c1.1,0.7,2.3,1.4,3.5,2.1
		c1.9,1.1,4,2.2,5.9,3.4c2.3,1.3,4.6,2.7,7,3.8c4.9,2,10,3.8,14.7,6c4.3,1.8,8.4,4,13,5.4c3.7,1.1,7.3,2.1,11.1,2.2
		c0.6,0,1.3,0.1,1.8,0.4c3.6,2,7.7,2,11.6,3c2.7,0.7,5.6,0.9,8.4,1.4c1.3,0.2,2.4,0.2,3.6-0.5c0.6-0.4,1.1-0.4,1.8,0
		c0.8,0.4,1.8,0.8,2.7,0.8c5.2,0.3,10.3,1.4,15.3,2.3c1.7,0.3,3.4,0.5,5.1,0.3c1.4-0.2,2.9-0.5,4.4-0.4c2.6,0.2,5.4,0.6,7.9,0.8
		c0.8,0.1,1.6-0.2,2.5-0.1c1.7,0.1,3.6,0.3,5.3,0.5c1.2,0.1,2.4,0,3.7,0c2.1,0,4.4-0.2,6.5,0.1c2.9,0.3,5.9,0.1,8.8-0.1
		c2.2-0.2,4.5-0.5,6.6-0.2c3.9,0.5,7.7-0.3,11.6-0.4c3-0.1,6.1-0.5,9-0.6c1.3,0,2.7-0.3,4.1-0.2c2,0.3,4-0.1,5.9-0.3
		c3.1-0.3,6.4-0.8,9.5-1c4-0.2,7.9-0.2,12-0.7c2-0.3,4.1-0.2,6.1-0.6c2.9-0.5,5.9-1.3,8.8-2c1.9-0.4,3.9-1,5.7-0.9
		c3,0.2,5.9-0.7,8.7-1.1c3.9-0.6,7.5-1.9,11.2-2.9c1.7-0.4,3.6-0.7,5.4-1c0.9-0.1,1.8-0.1,2.7-0.2c2.7-0.4,5.2-1.5,7.7-2.4
		c1.8-0.6,3.5-1.3,4-3.5c0-0.2,0.2-0.3,0.3-0.5c1.1-1.4,3.5-1.7,4.7-0.4c0.9,1,2,1.2,3.1,0.9c2.1-0.5,4.4-0.7,6.2-1.9
		c0.4-0.2,0.9-0.3,1.4-0.4c1.3-0.4,2.7-0.7,4.1-1.2c2.1-0.8,4.1-1.8,5.1-4.1c0.1-0.3,0.5-0.6,0.8-0.7c1.2-0.4,2.4-0.7,3.7-1.1
		c1.1-0.4,2.4-0.7,3.5-1.3c1.8-1.1,3.8-0.9,5.4,0.1c2.5,1.5,5,1.5,7.6,0.7c1.6-0.5,3.4-0.9,4.9-1.5c0.9-0.4,1.8-0.9,2.7-1.5
		c1.9-1.3,3.8-2.8,5.7-3.9c2-1,4-2.2,5.7-3.7c1.3-1,2.6-2,4.2-2.6c1.3-0.5,2.6-1.2,3.2-2.7c0.4-0.9,1.3-1.7,2.1-2.1
		c1.6-0.9,2.7-2.2,3.7-3.9c0.2-0.4,0.4-0.9,0.7-1.3c1.9-2.3,4-4.8,6-7.1c0.3-0.4,0.6-0.7,0.9-1.2C442.2,267.2,445.2,264.2,448,261.4
		z M467,173.5c0.4,0.1,0.7,0.1,1.1,0.2c0,0.1,0,0.2,0,0.3c-0.4,0-0.7-0.1-1.1-0.1C467,173.8,467,173.7,467,173.5z M142.5,46.5
		c-0.1-0.2-0.3-0.4-0.4-0.6c0.1-0.1,0.2-0.1,0.2-0.2c0.1,0.2,0.3,0.4,0.4,0.6C142.7,46.3,142.5,46.3,142.5,46.5z M193.8,34
		c0.3-0.4,0.6-0.8,1.1-1.4c0.2,1.1,0.3,1.8,0.5,2.8C194.7,34.9,194.3,34.5,193.8,34z M205.9,36.3c0-0.6-0.1-1.2,0-1.7
		c0.1-0.2,0.6-0.5,1-0.5c0.2,0,0.5,0.5,0.5,0.8C207.3,35.7,207.2,36.3,205.9,36.3z M208.6,34.6c-0.2-0.3-0.3-0.4-0.3-0.6
		c0-0.1,0.1-0.3,0.2-0.5c0.1,0.1,0.4,0.1,0.4,0.2C208.8,34,208.7,34.1,208.6,34.6z M227.3,34.6c-0.6,0.1-1.1,0-0.9-1.1
		c0.5,0.3,0.9,0.5,1.2,0.7C227.3,34.5,227.3,34.6,227.3,34.6z M236.5,35.4c-0.1-0.4-0.1-0.7-0.2-1.1c0.1,0,0.2,0,0.3-0.1
		c0.1,0.4,0.2,0.7,0.3,1.1C236.8,35.2,236.7,35.2,236.5,35.4z M239.7,31.7c-0.4-0.6-1.5,0.1-1.5-1.1c0.6-0.1,1.2-0.1,1.8-0.2
		C239.9,30.7,239.8,31.1,239.7,31.7z M260.4,35.2c0.4-0.4,0.8-0.8,1.3-1.3C261.8,35,261.8,35,260.4,35.2z M264.6,31.2
		c-0.2-0.4-0.3-0.7-0.5-1.1c0.1,0,0.2-0.1,0.3-0.1c0.2,0.3,0.4,0.7,0.6,1C264.8,31.1,264.8,31.2,264.6,31.2z M269.1,32.9
		c0.3,0.8,0.4,1.3,0.7,2.1C268.7,34.1,268.7,34.1,269.1,32.9z M273.9,36.5c0.6,0,1.1,0.1,1.7,0.1C274.8,37.2,274.5,37.3,273.9,36.5z
		 M278.9,38.2c-0.3,0.1-0.6,0-0.9-0.1c-0.9-0.5-0.4-1.3-0.4-2c0-0.6,0.1-1.2,0.8-1.2c0.5,0,1.2,0.3,1.5,0.7c0.5,0.5,0.9,1.2,1.4,1.9
		C280.6,37.7,279.9,38,278.9,38.2z M285.3,39.3c0,0-0.2-0.1-0.3-0.2c0.1-0.1,0.2-0.3,0.3-0.4c0.1,0.1,0.2,0.2,0.3,0.2
		C285.5,39.1,285.4,39.2,285.3,39.3z M287.1,38.6c-0.8-0.2-1.6-0.3-2.3-0.5c0.4-1.4,1-2,1.7-1.7C287.6,36.9,287.2,37.8,287.1,38.6z
		 M294.5,39c-0.6-0.6-0.4-1.2,0.8-2.4c0.6,0.7,1.2,1.3,1.7,1.9C296,39.4,295.2,39.5,294.5,39z M308.9,40.5c-0.7-0.5-1.4-1-2.3-1.6
		c1.3-0.4,2.1,0.4,3,0.7c0.1,0,0.1,0.6,0.1,0.9C309.4,40.5,309.2,40.7,308.9,40.5z M331.5,49.7c-1.8,0.1-3.4-0.3-4.8-1.1
		c0-0.2,0-0.3,0-0.5c0.6,0,1.2-0.1,1.8-0.1c0-0.1,0.1-0.1,0.1-0.2c-0.9-0.4-1.8-0.7-2.8-1.2c-0.5-0.2-1-0.6-1.5-0.9
		c-0.5-0.3-0.8-0.2-0.9,0.3c1.5,0.5,1.5,0.5,1.9,2.1c-1.3-0.1-2.1-1.1-3.2-1.5c-1.6-0.5-0.9-2.1-1.4-3.2c-1.4,0.9-2.2-1.2-3.8-0.7
		c0,0.5,0.1,1,0.2,1.8c-1.4-1.1-3.1-1.2-4.1-2.6c-0.3-0.5-1.2-0.6-1.8-0.9c0.5-0.3,1.1-0.6,1.4-0.8c1,0.1,1.9,0.2,2.8,0.4
		c0.3,0,0.6,0,0.9,0.1c2.3,0.9,4.9,0.7,7.2,1.6c0.5,0.2,1.1-0.1,1.9-0.1c0.4,0.9,1.2,1,2.2,1.1c0.9,0,1.8,0.4,2.6,0.6
		c0.8,0.2,1.7,0.4,2.5,0.4s1.1,0.4,1.3,0.9C333.3,46.8,331.1,47.3,331.5,49.7z M369.4,56.8c-0.5-0.3-0.9-0.6-1.3-1
		c0.6-0.8,1.1-1.5,1.6-2.1c0.1,0.1,0.2,0.1,0.3,0.2C369.8,54.6,369.6,55.7,369.4,56.8z M400.1,72.4c0.2,0.6,0.3,1.1,0.4,1.7
		c-0.7,0.5-1.2,0.3-1.4-0.4C398.8,72.9,399.1,72.4,400.1,72.4z M398.4,76c-0.1-0.1-0.3-0.1-0.4-0.2c0,0,0.1-0.3,0.2-0.3
		s0.3,0.1,0.4,0.2C398.4,75.8,398.4,75.9,398.4,76z M401.2,81.9c-1.5,0.1-1.7,0-2.3-1.5c0.5,0,0.9,0,1.4,0.1
		C401.1,80.6,401.4,81.1,401.2,81.9z M402.6,77.3c0.7,0.1,1.2,0.2,1.7,0.3C403.3,78.5,403.3,78.5,402.6,77.3z M410.3,84.6
		c-0.3-0.1-0.6-0.2-0.8-0.3c0.1-0.1,0.1-0.3,0.2-0.4c0.3,0.1,0.5,0.3,0.8,0.4L410.3,84.6z M418.6,89.6c0.5,0,0.9,0.1,1.4,0.1
		C419.6,90.4,419.6,90.4,418.6,89.6z M423.8,92.8c-0.2,0-0.3-0.1-0.4-0.1c0.1-0.1,0.1-0.3,0.2-0.3s0.3,0.1,0.4,0.2
		C423.9,92.7,423.9,92.8,423.8,92.8z M430.9,101c0.1-0.1,0.1-0.3,0.2-0.4c0.1-0.1,0.2,0,0.3,0c0,0.1,0.1,0.1,0.1,0.2
		C431.2,100.8,431,101,430.9,101z M437.7,110c-0.1-0.1-0.3-0.2-0.3-0.3c0-0.2,0.2-0.3,0.4-0.5c0.1,0.2,0.3,0.3,0.3,0.4
		C438.1,109.8,437.9,109.9,437.7,110z M438.7,111.3c-0.1,0-0.2-0.2-0.2-0.3c0.1-0.1,0.2-0.2,0.4-0.4c0.1,0.2,0.1,0.4,0.2,0.5
		C439,111.2,438.8,111.3,438.7,111.3z M454.1,126.7c-0.1-0.8-0.2-1.3-0.3-1.7c0.2,0,0.3,0,0.5-0.1
		C454.7,125.2,454.8,125.7,454.1,126.7z M456.4,148c0.3,0.8,0.4,1.4,0.7,2.2C455.8,149.3,455.8,149.3,456.4,148z M459.9,154.6
		c-0.2-0.5-0.4-0.9-0.7-1.4C460.4,153.5,460.4,153.5,459.9,154.6z M463.6,164.6c-0.1,0-0.3-0.2-0.4-0.3c0-0.1,0.2-0.2,0.4-0.5
		c0.1,0.2,0.3,0.4,0.3,0.6C464.1,164.4,463.8,164.6,463.6,164.6z M464.5,169.5c-0.1,0-0.3-0.2-0.4-0.3c0-0.1,0.2-0.2,0.3-0.4
		c0.2,0.2,0.3,0.3,0.4,0.4C464.7,169.3,464.7,169.5,464.5,169.5z M465.4,175c0-0.1,0.2-0.3,0.5-0.9c0.2,0.5,0.3,0.7,0.3,0.9
		c0,0.2-0.3,0.4-0.4,0.4C465.8,175.4,465.5,175.2,465.4,175z M464.5,217.4c0,0.1,0.2,0.3,0.1,0.3c-0.2,0.2-0.4,0.4-0.7,0.5
		c-0.1-0.1-0.1-0.3-0.2-0.4C464,217.8,464.2,217.6,464.5,217.4z M323.3,238c0.6-0.9,1.2-1.7,2-2.4c3-2.8,6.5-5.1,10.1-7.2
		c2.9-1.8,6.1-3.2,9.3-4.5c4.1-1.5,8.3-1.1,12.2,0.2c2.1,0.7,4.1,1.8,6,2.9c2.4,1.4,4.2,3.7,5.7,6c0.9,1.3,1.8,2.7,2.9,4.4
		c-2.2,1.2-4.3,1.9-6.2,2.4c-4.7,1.1-9.3,2.3-13.9,3.2c-3.4,0.6-6.7,1-10.1,1.1s-6.7-0.3-10-0.8c-2.4-0.4-4.8-1.3-7-2.1
		C322.9,240.7,322.5,239.6,323.3,238z"/>
	<path d="M116.5,181.1c1.7-1.2,3.5-2.3,5.3-3.5c1.7-1,3.2-2.2,4.2-4.1c1.8-3.9,3.7-7.7,5.3-11.7c1.3-3.4,0.6-6.3-2.1-8.3
		c-2.7-1.9-5.6-3.7-8.4-5.2c-1.4-0.7-3.2-1.2-4.8-1.2c-2.9,0.1-5.7-0.2-8.6-0.5c-1.5-0.2-3-0.3-4.6-0.3c-1.4,0-2.8,0.3-4.3,0.4
		c-5.1,0.4-10.1,1.1-14.9,2c-5.4,1-10.4,3-15.2,5.6c-1.4,0.7-4.5,4.4-5.3,6c-1.3,2.6-2.6,5.2-3.9,7.7c-0.9,1.9-0.6,3.5,1,5
		c0.3,0.3,5,4.3,5.6,3.7c4,1.3,8.1,2.1,12,3.9c0,0.2,0.1,0.4,0.1,0.5c-1.2,0.7-2.5,1.4-3.8,2.1c-5.2,2.7-9.9,6.2-14.1,10.1
		c-2.2,2-4.5,4.3-5.9,6.8c-1.4,2.7-2.7,5.5-4,8.3c-1.1,2.4-1.9,5.1-3.4,7.4c-0.8,1.2-1.2,2.8-1.7,4.3c-0.4,1.1-0.1,2.2,0.5,3.4
		c2.5,4.1,6.5,6.1,10.9,7.2c4.9,1.2,10.1,1.2,14.9,1.2c3.2,0,6.5-0.2,9.7-0.1c2.2,0,4.6,0.3,6.8,0.4c3.8,0.1,7.5,0.1,11.2,0
		c4.2-0.1,8.3-0.2,12.6-0.4c6.2-0.2,12.7-0.5,18.9-0.7c0.7,0,1.3-0.2,2-0.3c1.9-0.2,4-0.5,5.9-0.6c3.2-0.2,6.5-0.3,9.7-0.4
		c0.8,0,1.7-0.3,2.5-0.3c5-0.3,10-0.6,14.9-0.9c3.8-0.3,7.5-0.8,11.2-0.9c6.5-0.1,12.8-1.1,19.3-1.9c2.2-0.3,12.8-1.5,15.9-1.7
		c1.3-0.1,9-1,9.6-1c1.9,0,3.5-0.7,4.6-2.3c0.6-1,1.2-2,1.8-3c1.7-2.6,3.5-5.4,5.2-7.9c0.4-0.6,0.6-1.3,1-1.9
		c-1.3-1.1-4.3-2.6-5.7-2.5c-2,0.3-4.1,0.4-6.1,0.6c-5.4,0.5-10.8,1-16,1.6c-3.8,0.4-7.3,0.9-11.1,1.3c-2,0.2-4.1,0.6-6.1,0.5
		c-6.5-0.1-12.8,0.8-19.3,1.2c-5.2,0.3-10.5,0.8-15.5,1c-9.2,0.4-18.4,0.6-27.6,0.9c-6.2,0.2-12.6,0.3-18.8,0.3
		c-5.3,0-10.6,0.2-15.9-0.2c-3.7-0.3-7.3,0-11.1-0.2c-3.9-0.1-7.6-0.3-11.5-0.6c-3-0.2-6.1-0.6-8.9-2c-0.8-0.4-1.7-0.7-2.3-1.7
		c1.7-1.2,3.5-2.6,5.2-3.7c4.5-2.9,9-5.7,14.2-7.6c4.2-1.5,8.2-2.9,12.3-4.4c2.8-1,5.3-0.8,7.7,1.2c2.8,2.3,5.9,4.5,8.8,6.6
		c1.1,0.8,2.2,1.8,3.5,2.6c3.1,1.8,6.5,2.8,10.1,3.4c0.7,0.1,1.4,0.3,2.1,0.5c1.1,0.2,2.3,0.5,3.5,0.5c7.3-0.1,14.9-0.4,22.1-1.6
		c0.7-0.1,1.3-0.1,2-0.3c3.5-0.8,6.8-1.6,10.5-2.3c3.7-0.8,7.2-1.6,10.6-3c0.8-0.3,1.6-0.5,2.4-0.8c2.5-1,5.1-2,7.5-3.1
		c2.4-1.2,4.7-2.7,6.1-5.2c0.3-0.5,0.9-0.9,1.5-1.4c0.5,0.6,0.9,1,1.1,1.4c1,1.5,2,3.1,2.8,4.9c1.4,2.7,3.4,5.1,5.5,7.2
		c1.7,1.7,3.6,3.2,6.2,3.4c0.4,0,0.7,0.2,1.1,0.3c2.5,0.6,5,0.7,7.3-0.4c2.3-1,4.8-1.9,7.1-3c5.6-2.6,11.1-5.1,16.1-8.4
		c2.3-1.5,4.7-3.2,6.7-5.2c2.5-2.2,3.9-5.4,5.1-8.5c2.7-6.8,3-13.7,0.5-20.7c-0.4-1-3.4-6.3-4-7c-1.5-2-3.1-4-4.7-6
		c-1.4-2-3.4-3.7-5.4-4.8c-3.6-2-7.6-2.7-11.7-2.7c-0.5,0-0.9,0.2-1.4,0.4c-2.1,1-3.7,2.7-5,4.6c-3.1,4.5-5.7,9.3-7.7,14.3
		c-1.4,3.5-1.8,7.1-0.5,10.7c0.7,2,1.5,4,3.2,5.4c3.6,3,7.8,2.9,12.1,2.4c3-0.4,5.7-1.8,8.4-3.1c1-0.5,2-0.9,3-1.2
		c1.3-0.4,1.7-0.2,2.3,1.1c0.4,0.8,0.7,1.7,1.1,2.6c0.6,1.4,0.4,1.9-0.9,2.7c-1.2,0.6-2.4,1.2-3.7,1.8c-0.9,0.5-1.8,1.1-2.7,1.4
		c-3.2,1.3-6.5,2.6-9.7,3.9c-4.9,1.9-9.7,1.6-14.5-0.2c-2.4-0.9-4.4-2.7-6.2-4.5c-1.6-1.4-3.4-2.7-5.6-3.1c-0.9-0.2-1.3-3.3-2.1-3.3
		c-0.5,0-1.1,0.6-1.6,1c-0.1,0.1-0.2,0.2-0.2,0.3c-1.3,2.1-3.5,3.4-5.7,4.3c-1.2,0.5-2.4,1-3.7,1.4c-3.7,1.3-7.3,2.8-11.2,3.7
		c-3.5,0.6-6.8,1.5-10.3,2.1c-2.6,0.5-5.2,1-7.8,1.2c-3.8,0.3-7.5,0.3-11.2,0.6c-6.6,0.5-12.8-0.6-18.8-3.2
		c-2.1-0.9-4.2-2.3-6.5-3.7C115.5,182.2,115.9,181.5,116.5,181.1z M110.9,168.3c-2.4,1.1-4.9,2.2-7.3,3.4c-1.1,0.5-2.2,0.5-3.2-0.3
		c-2.1-1.7-4.3-3.5-6.5-5.2c0.4-1.2,1.2-1.5,2.4-1.6c3.1-0.1,6.2,0,9.3,0.7c1.4,0.3,2.9,0.5,4.4,0.8c0.8,0.2,1.6,0.5,2.4,0.7
		c0,0.2,0,0.4,0.1,0.6C111.9,167.7,111.4,168,110.9,168.3z M223.2,160c-0.5-0.1-1-0.2-1.4-0.3c0-0.1,0-0.3,0.1-0.4
		c0.5,0,1,0.1,1.4,0.1C223.2,159.5,223.2,159.7,223.2,160z"/>
	<path d="M391.4,150.9c-0.3-2.9-0.7-6-1-8.9c-0.5-4.3-1-8.4-1.5-12.8c-0.5-4.1-1.1-8-1.4-12.2c-0.4-5.8-0.6-11.7-0.9-17.5
		c-0.2-4.3-0.4-8.7-0.6-12.9c0-0.7,0-1.4-0.2-2c-0.9-2.2-1.2-4.5-1.3-6.9c0-0.6-0.4-1.2-0.6-1.8c-1.2,0.3-1.5,1.1-2,1.8
		c-0.5,0.9-0.9,1.8-1.5,2.7c-2.3,3.7-4,7.3-4.5,11.7c-0.3,2.6-0.4,5.1-0.2,7.6c0.3,4.3,0.7,8.3,0.9,12.6c0.4,8.3,0.8,16.7,1.8,24.9
		c0.6,5,1.4,10,2,15.1c0.7,5.5,1.2,11.2,1.8,16.7c0.3,3.1,0.5,6.5,0.8,9.5c0.5,5.7,1,11.3,1.4,17.1c0.5,7.6,0.7,15.1,1.1,22.6
		c0.4,7.7,0.8,15.5,1.2,23.2c0.2,4.4,0.3,8.8,0.6,13.2c0.1,2.1,0.5,4.3,1.5,6.2c1.2,2.3,4,4.4,7.3,3.2c0.5-0.1,1-0.2,1.4-0.2
		c3.1,0,6.1-1.1,8.7-2.6c2.9-1.5,5.9-3.5,8.7-5.4c2.4-1.6,5.1-3.1,6.8-5.7c2-2.9,3.8-6.1,4.9-9.5c0.9-3,0.8-6,0.1-8.9
		c-1.2-4.6-3.7-8.7-6.8-12.3c-0.3-0.3-0.7-0.5-1.2-0.9c-0.8,0.9-1.7,1.6-2.3,2.6c-1.4,2-2.6,4.3-4.2,6.1c-1.2,1.7-1.9,3.7-2.5,5.5
		c-0.4,1.2-0.1,2.2,0.6,3.1c0.5,0.7,1.2,1.4,1.7,2.1c1.3,1.7,2.3,3.7,3,5.8c-0.2,0.1-0.4,0.3-0.5,0.3c-3.9,1.9-7.9,3-12.2,2.7
		c-1.8-0.2-2.9-1-3.7-2.6c-0.9-1.9-1.2-4-1.3-6.1c-0.2-5.1-0.5-10.1-0.8-15.2c-0.2-4-0.3-8-0.6-12.1c-0.3-4.6-0.6-9.3-0.9-13.9
		c-0.3-5.4-0.6-10.6-0.9-15.9c-0.1-1.9-0.3-4-0.5-6c-0.4-4-0.8-7.8-1.2-11.8C392.1,159.3,391.9,155.1,391.4,150.9z"/>
	<path d="M184.9,16.1c1.8-0.2,3.7-0.8,5.7-0.6c2.4,0.2,5,0,7.3-0.1c2,0,4-0.8,6.1-0.9c1.6-0.1,3.2-0.4,4.9-0.2
		c1.1,0.1,2.2,0.3,3.1-0.5c0.2-0.2,0.6-0.2,0.9-0.2c2.2,0.2,4.4-0.5,6.6-0.2c2.5,0.3,5.1,0,7.6-0.1c2.1-0.1,4.2-0.7,6.2,0.3
		c0.3,0.1,0.7-0.1,1-0.1c1.8,0,3.6-0.5,5.4,0.1c0.4,0.1,1.1,0.4,1.3-0.5c0-0.2,0.5-0.5,0.7-0.4c1.2,0.7,2.6,0.3,4,0.5
		c1.5,0.3,3.1,0.3,4.7,0.7c1,0.3,2.3-0.6,3.4,1.4c0-1.6,0.8-1.8,1.6-1.7c1,0,1.9,0.1,2.9,0.1c0.8,0,1.7-0.1,2.5-0.2
		c0.5,0,1.2-0.4,1.6-0.2c1.8,1.1,4,0.8,5.9,1c2.5,0.3,5.1,0.1,7.7,0.1c0.1,0,0.2,0.1,0.3,0.2c-0.2,0.1-0.4,0.2-0.6,0.3
		c0.1,0.1,0.1,0.2,0.2,0.3c0.4,0.1,0.8,0.2,1.1,0.2c0.2-0.4,0.3-0.7,0.5-1.1c1.3,0.6,2.7-0.3,4.1,0.4c0.1,0.1,0.4,0,0.5-0.1
		c1.8-1.1,3.9-0.9,5.9-0.7c1.3,0.1,2.6,0.6,4,0.9c2.4,0.6,4.8,1.6,7.3,1.4c0.5,0,1,0.1,1.4,0.3c1,0.4,1.8,0.3,2.5-0.7
		c1.5,1.6,3.4,2.2,5.3,2c1.8-0.2,2.9,0.6,3.9,2c1-0.8,1-0.7,2.5-0.4c2.5,0.4,5.2,0.9,7.8,0.5c1-0.2,1.8,0.1,2.3,1.1
		c0.3,0.5,0.5,1,0.8,1.6c0.8-0.4,1.7-0.8,2.3-1.1c1.4,0.8,2.6,1.6,3.9,2.3c-0.1,0.5-0.3,0.9-0.4,1.3c1.3,0.7,1.1-0.7,1.5-1.1
		c1.5,0.9,2.8,1.7,4.3,2.6c0.5,0.3,1.1,0.7,1.7,0.6c1.2-0.1,2.1,0.4,3,1c1.1,0.7,2.3,0.8,3.6,0.9c1.2,0,2.5,0,3.8,0
		c0.2,0,0.5,0.1,0.6,0.3c0.8,0.6,1.7,1.1,2.5,1.7c1.7,1.3,3.7,1.9,5.7,1.8c2.6-0.1,4.6,1.2,5.9,3.2c1,0.4,1.8,0.8,2.6,1.2
		c0.3,0.1,0.7,0.3,1,0.3c2.2,0.2,4.2,0.9,5.7,2.6c0.2,0.2,0.6,0.4,1,0.4c1.2,0.2,2.1,1.1,2.3,2c0.4,1.7,1.8,1.8,2.9,2.6
		c1.8-0.7,3.2,0.5,4.9,0.8c0.3,0.1,0.6,0,0.9,0.1c0.3,0,0.7,0.1,1,0.2c1.6,0.9,3.5,1.7,4.9,2.9c1.2,1,2.3,1.3,3.9,1
		c0.8-0.2,1.8,0.3,2.6,0.7c0.7,0.4,1.1,1.1,1.6,1.7c-0.1,0.2-0.2,0.4-0.4,0.7c0.1,0.1,0.2,0.1,0.2,0.2c0.8-0.6,1.5-1.1,2.6-1.9
		c-0.2,1.9,0.6,2.9,1.7,3.8c0.6,0.4,1.4,0.4,2,0.7c0.7,0.3,1.4,0.7,2.1,1.1c0.5,0.4,1.1,1.3,1.4,1.2c1-0.3,1.4,0.8,2.2,0.6
		c0.1,0,0.3,0.3,0.4,0.3c1.1,0.6,2.2,1.3,3.4,1.8s2.3,1,2.8,2.3c0.1,0.3,0.5,0.6,0.8,0.9c0.3,0.3,0.8,0.6,1,1
		c0.9,1.8,2.4,2.7,4.2,3.7c0.7,0.3,1.5,0.8,2,1.5c1.3,1.5,2.9,2.6,4.8,3.4c0.4,0.2,0.8,0.5,1.2,0.8c0.5,0.4,1.1,0.8,1.5,1.2
		c1.3,1.2,3.2,1.6,3.9,3.7c0.5-0.2,0.9-0.4,1.5-0.7c-0.5,1.4,0,1.9,0.9,2.6c0.8,0.5,1.4,1.3,2.2,1.9c1.7,1.6,2.4,4,4.5,5.4
		c0.3,0.2,0.3,0.6,0.5,0.9c0.2,0.3,0.5,0.6,0.9,1.2c0.1-0.4,0.1-0.6,0.2-0.8c0.1-0.2,0.2-0.4,0.6-0.8c0.2,1,0.3,1.7,0.6,2.2
		c0.4,0.7,1,1.2,1.6,1.7c0,0,0.1,0.1,0.1,0.2c0,0.8,0.6,1.2,1.2,1.7c0.5,0.4,0.9,0.8,1.3,1.2c1.3,1.4,2.5,3,3.9,4.4
		c1,0.9,2,1.7,2.2,3.2c0.1,0.4,0.5,0.8,0.8,1.2c1.3,1.5,3.2,1.4,4.9,2.3c-0.2-1.3-0.1-1.4-0.5-1.7c-1.1-0.7-1.6-1.7-2-2.9
		c-0.8-2.4-0.9-2.4,1.3-3.7c0.1,0,0.1-0.2,0.3-0.5c-1.9-1.7-2.2-4.9-4.9-6.1c-0.1-0.6-0.2-1.3-0.4-1.9c-0.2-0.4-0.5-1-0.8-1.1
		c-1.4-0.3-1.9-1.3-2.3-2.6c-0.1-0.3-0.3-0.6-0.5-0.9c-0.4-0.6-0.8-1.2-1.3-1.7c-0.3-0.4-0.7-0.7-1-1c-0.3-0.2-0.8-0.4-0.9-0.6
		c-0.3-1.2-1.4-1.6-2.2-2.2c-0.6-0.4-1.3-0.8-1.7-1.4c-1.2-1.8-3.1-2.8-4.5-4.4c-0.7-0.9-1.8-1.6-2.7-2.2c-1.3-0.8-2.5-1.7-3.7-2.7
		c-0.3-0.3-0.7-0.6-1.1-0.7c-2.3-0.7-4-2.4-5.9-3.7c-1.5-1-2.8-2.3-4.5-3.2c-1.1-0.7-2-1.5-2.7-2.6c-0.3-0.4-0.5-0.9-0.9-1.1
		c-1.7-0.9-3.5-1.9-5.5-2c-1.4,0-2.5-0.7-3.6-1.8c-0.4-0.4-0.8-1.1-1.4-1.2c-1.7-0.4-3-1.6-4.6-2.3c-1.5-0.7-3-1.2-4.6-2
		c-2-1.1-4-2.4-6.2-3.2c-2.7-1-5.4-2.3-8.2-3.2c-2.4-0.7-4.9-1.5-6.6-3.7c-0.4-0.5-1.1-1-1.7-1.3c-2.2-1.1-4.2-2.7-6.5-3.8
		c-2.6-1.1-5.2-2.2-7.9-2.6c-1.8-0.3-3.7-0.9-5.1-2.4c-1.3-1.3-3.1-2.1-5.2-2.1c-2.4,0-4.8-0.4-6.8-1.8c-0.3-0.2-0.7-0.4-1.2-0.5
		c-2.4-0.7-5-1.3-7.5-2c-2.5-0.6-5-1.1-7.1-2.8c-0.3-0.2-0.7-0.3-1-0.3c-1.1,0-2-0.4-2.8-1.1c-0.8-0.7-1.7-0.9-2.7-0.8
		c-2.2,0.4-4.3-0.5-6.2-1.1c-2.1-0.7-4.3-1.5-6.5-2.1c-1.7-0.5-3.6-0.8-5.4-1.2c-1.6-0.4-3.2-1.2-5.1-0.4c-0.1,0.1-0.4,0-0.5,0
		c-2.2-0.7-4.6-1.3-6.8-2.2c-2.3-1-4.8-1.5-7.3-1.4c-0.8,0-1.6,0-2.3-0.2c-1.6-0.5-3.1-1.1-4.7-1.8c-2.6-1.1-5.3-1-7.9-0.7
		c-1,0.1-1.9,0.3-2.9,0.4c-1,0.1-2,0.2-3.1,0.3c-0.7,0.1-1.4,0.1-2.2,0.1c-1.5,0-3,0-4.6,0c-3.6,0-7.1,0.1-10.6,0.1
		c-3,0-6-0.4-9-0.3c-6.2,0.1-12.6,0.5-18.7,0.5c-3.8,0-7.5,0.3-11.1,0.8c-2.1,0.3-4.4,0.5-6.6,0.5c-2.3,0-4.5,0.3-6.6,1.1
		s-4.3,1.4-6.6,1.4c-0.3,0-0.6,0.1-0.9,0.1c-1.9,0.3-3.8,0.8-5.7,0.7c-1.4-0.1-2.2,0.3-2.6,1.7c-1.1,0-2.2-0.2-3.2,0
		c-1,0.2-1.9,0.8-2.9,1.3c1.3,0.6,2.5,1,4,1C181.4,16,183.1,16.2,184.9,16.1z M459.8,96.6c0.7,1,0.9,2.7,0.2,3.5
		c-0.2,0.2-0.7,0.3-1,0.3c-0.4-0.1-0.8-0.4-0.9-0.5c-0.2-1.4-0.3-2.6-0.5-3.8C458.7,95.6,459.3,95.7,459.8,96.6z M456,94.1
		c0,0.1,0.1,0.2,0.1,0.3c-0.2,0.1-0.5,0.1-0.7,0.2c0,0-0.1-0.2-0.1-0.3C455.5,94.3,455.8,94.1,456,94.1z"/>
	<path d="M307.1,192.8c-4.7,0.6-9.2,1.4-13.9,1.8c-4.4,0.4-8.6,1.5-12.8,2.2c-2.7,0.5-5.5,1.3-8.2,2c-0.8,0.2-1.5,0.7-2.1,1.3
		c-3,3.7-5,7.7-6.8,12.1c-0.2,0.5-0.3,1.1-0.3,1.6c0.2,1.8,1.2,2.9,3.2,1.8c1-0.5,2.1-1.1,3.2-1.3c4.1-0.8,7.9-1.6,12.1-2.3
		c2-0.3,4.1-0.4,6.1-0.6c9.2-1.3,18.6-2.6,27.7-4c3.4-0.5,6.7-0.7,10.1-1.2c4.8-0.8,9.4-1.4,14.3-1.7c1.9-0.1,3.9,0,5.7-0.3
		c5.7-1.1,11.4-0.9,17.1-0.5c2.4,0.1,4.2-0.4,5.6-2.3c2.2-3.1,4.5-6.2,6.7-9.4c0.5-0.7,1-1.5,1.4-2.4c0.2-0.5,0.3-1.1,0.4-1.7
		c-2.3-0.5-4.5-1.3-6.7-1.1c-1.4,0.1-2.8,0-4.3,0.1c-3.2,0.1-6.4,0.2-9.5,0.5c-2.9,0.2-5.9,0.6-8.8,0.8c-2.4,0.2-5,0.2-7.3,0.5
		c-7.9,0.9-15.6,1.9-23.6,2.9C313.1,192.1,310.2,192.4,307.1,192.8z"/>
	<path d="M165.3,336.7c-1.3,0.4-2.5,0-3.8-0.5c-1.8-0.6-3.6-1.3-5.3-2c-1.9-0.8-4.1-1.1-6.1-1.8c-2-0.7-4.2-0.9-6.2-1.5
		c-1.6-0.4-3.1-1-4.7-1.5c-0.6-0.2-1.3-0.4-1.9-0.5c-1.9-0.4-3.7-1.1-5.3-2.1c-1.2-0.7-2.5-1.4-4-1.9c-3.6-1.1-7-2.3-10.6-3
		c-4.1-0.8-7.3-3.4-11.4-4.4c-0.2,0-0.3-0.2-0.5-0.3c-1.8-0.9-3.7-1.9-5.7-2.4c-1.1-0.3-2.3-0.9-3.2-1.6c-2.5-1.8-5.1-3.4-8.1-4.3
		c-0.9-0.3-1.8-0.8-2.6-1.4c-1.8-1.5-4.1-2.3-6.2-3.2c-1.4-0.6-2.7-1.4-4.2-2.2c-0.2-0.1-0.3-0.2-0.4-0.4c-1.1-1.2-2.2-2.4-3.5-3.7
		c-0.9-0.9-1.9-1.7-2.9-2.6c-1.2-0.9-2.4-1.8-3.8-2.7c-1-0.6-2-1.3-3-1.6c-1.5-0.4-2.9-1-4.1-2.1c-1.3-1.3-3-2.2-4-4.1
		c-0.1-0.3-0.7-0.5-1.1-0.6c-2.2-0.8-4.4-1.7-6.1-3.4c-0.5-0.4-1.1-0.7-1.6-1.1c-1.5-1.4-3.1-2.7-4.7-4.3c-0.3-0.3-0.4-1-0.6-1.5
		c-0.2-0.7-0.4-1.5-0.7-2.2c-0.9-2.4-2.5-4.4-4.1-6.3c-2.8-3.8-5.9-7.4-8.3-11.6c-0.9-1.4-2.1-2.7-2.9-4.3c-1.5-2.7-2.9-5.6-4.2-8.4
		c-1.8-4.3-3.6-8.7-5.3-13.1c-0.4-1.1-1-2.1-1.4-3.1c-0.8-2.2-1.5-4.6-2.3-6.8c-0.2-0.6-0.5-1.4-1.3-1.3c-0.9,0.1-1,0.9-1.1,1.7
		c0,0.2,0,0.4,0,0.5c0.2,3.2-0.4,6.6,0.4,9.8c0.2,0.6,0.3,1.4,0.2,2c-0.3,1.8,0.1,3.7,0.7,5.4c0.7,2,0.9,4.3,2.3,6
		c1.3,1.5,1.8,3.2,1.6,5.2c-0.2,2.1,0.6,3.9,1.8,5.5c0.4,0.6,0.9,1.2,1.3,1.8c0.3,0.5,0.6,1,0.6,1.5c0.1,1.4,0.7,2.6,1.5,3.5
		c1.5,1.6,2.8,3.5,4.3,5.4c1,1.4,1.9,2.7,2.7,4.4c0.5,1.1,1.1,2.2,1.8,3.1c1.4,1.6,3.1,3.1,4.7,4.8c0.7,0.7,1.5,1.4,1.6,2.6
		c0,0.3,0.4,0.6,0.6,0.8c0.5,0.4,1.2,0.7,1.6,1.2c1.2,1.4,2.6,2.6,4.2,3.7c0.2,0.1,0.4,0.3,0.6,0.5c2.6,2.2,4.8,5.1,7.6,7.2
		c2.8,2.2,5.7,4.6,8.4,6.8c0.8,0.7,1.7,1.3,2.5,2.1c1.5,1.5,3,2.9,5.1,3.7c1.4,0.4,2.5,1.2,3.7,2.1c1.8,1.6,3.9,2.8,6.2,3.7
		c0.9,0.3,1.7,0.8,2.6,1.2c1,0.5,1.9,1.1,2.8,1.6c0.8,0.4,1.7,0.5,2.3,1.1c1.6,1.6,3.8,2,5.7,2.7c0.7,0.3,1.5,0.5,2.2,0.9
		c0.5,0.2,1,0.6,1.2,1c0.5,1,1.4,1.3,2.4,1.5c1.1,0.2,2.3,0.3,3.5,0.8c2.8,1.2,5.7,2.2,8.6,3.8c2.5,1.3,5.5,1.8,7.9,3.1
		c1.3,0.7,3,0.8,4.3,1.6c1,0.7,2,1,3.1,1.1c0.7,0.1,1.5,0.1,2.2,0.3c1.7,0.5,3.4,0.5,5.1,0.2c1.4-0.3,2.8-0.1,4.1,0.7
		c0.8,0.6,1.6,0.8,2.6,0.5c1.3-0.4,2.6-0.2,3.8,0.8c0.5,0.4,1.2,0.7,1.8,0.8c1.5,0.2,3,0.3,4.5,1c0.3,0.1,0.6,0.2,0.9,0.2
		c0.9,0.1,1.7,0.1,2.1-0.9c0.1-0.3,0.6-0.4,1-0.7c-0.3,2.4-0.3,2.4,2.1,2.8c1.1,0.2,2.4,0.2,3.2,0.8c1.6,1.1,3.2,0.8,4.9,0.7
		c0.4-0.7,0.1-2,1.5-1.8c0.2,0.3,0.4,0.7,0.6,1.1c1.2-0.4,2.3-1,3.6-0.5c0.3,0.1,0.7,0,0.9-0.2c0.1-0.1,0.1-0.6,0-0.6
		C165.9,336.9,165.4,336.7,165.3,336.7z"/>
	<path d="M9.4,152.9c0-0.5,0.1-1,0.2-1.4c0.4-1.4,0.9-2.9,1.3-4.4c0.4-1.9,0.7-3.9,1.1-5.8c0.5-1.9,1.1-3.9,1.7-5.8
		c0.5-1.5,1.2-2.9,1.7-4.5c0.6-1.7,0.9-3.7,1.5-5.4c1.4-3.7,2.2-7.3,4.4-10.6c0.6-1,1.2-2,1.5-3.2c0.8-2.9,2.6-5.4,3.9-7.9
		c0.2-0.4,0.5-0.8,0.8-1.2c2.7-4,5.6-7.8,8.3-11.8c3.1-4.5,6.8-8.7,10.8-12.4c2.6-2.6,5.7-4.8,7.6-8c0.2-0.3,0.6-0.5,1-0.8
		c1.2-1,2.4-2.1,3.7-3.2c0.2-0.2,0.4-0.5,0.7-0.6c2.3-0.8,4-2.7,5.6-4.4c1.6-1.5,3.1-3,5.1-4.1c0.6-0.3,1-0.9,1.4-1.4
		c0.3-0.4,0.5-0.8,0.8-1.2c2.4-2.7,5.7-4.5,8.4-6.8c0.1-0.1,0.2-0.2,0.3-0.2c1.5,0,2.2-1.2,2.9-2c0.7-0.1,1.4,0.1,1.9-0.2
		c1.5-1,2.9-2.1,4.9-2.4c1-1.3,2.6-1.4,4.1-2c0.4-0.2,0.8-0.4,1-0.7c0.4-0.6,1-0.8,1.7-0.8c2,0,4.1-0.4,5.9-1.2c2-0.8,4.1-1.5,6-2.3
		c1.1-0.4,2.2-0.9,3.6-1.4c0.6,0.4,1.3,0.2,2.1-0.2c1.1-0.5,1.8-1.4,3.1-1.7c2.3-0.5,4.9-0.8,6.8-2.3c0.4-0.3,1.1-0.3,1.6-0.2
		c1.1,0.4,1.8-0.1,2.5-0.7c0.7-0.7,1.6-0.9,2.5-0.9c1.1,0,2.3-0.1,3.5-0.1c1,0,1.9,0.1,2.9,0.1c0.5,0,1.1,0,1.6-0.1
		c0.6-0.1,1.3-0.4,1.9-0.6c2.3-0.7,4.8-1.3,7.1-2c1.3-0.4,2.5-1,3.9-1.1c2.9-0.1,5.1-1.5,7.2-3.4c0.6-0.5,1.3-0.9,1.9-1.3
		c0.6-0.4,1.5-0.6,1.8-1.1c0.3-0.7,0.8-0.9,1.6-1c-1.4-0.3-2.6-0.6-3.9-0.8s-2.5-0.8-3.6,0.6c-0.5,0.7-1.3,0.5-2,0.2
		c-1.4-0.5-2.7-0.7-4.1,0.2c-0.3,0.2-0.7,0.2-1,0.3c-1.2,0.3-2.4,0.5-3.6,0.8c-0.8,0.2-1.6,0.7-2.5,0.6c-3.6-0.1-6.7,2.2-10.3,2
		c-0.2,0-0.3,0.2-0.5,0.2c-1.8,0.5-3.7,1-5.5,1.6c-1.2,0.4-2.4,0.9-3.6,1.4c-0.5,0.2-1,0.5-1.5,0.6c-2.3,0.6-4.7,1.1-7,1.6
		c-2.6,0.6-5.3,1.7-7.9,2c-1.6,0.2-3.1,0.9-4.8,1.4c-3.8,1.2-7.7,1.3-11.4,3c-1,0.5-2.1,0.9-3.2,1.3c-4.5,1.7-8.9,3.7-13.3,5.4
		c-1.6,0.6-2.6,1.6-3.8,2.8c-1.3,1.5-2.7,2.9-4.2,4.4c-1.1,1.1-2.5,1.9-3.6,3.2c-0.6,1.3-1.9,2.3-3.6,2.6c-0.9,0.2-1.5,0.6-2.1,1.2
		c-1.5,1.5-3,3-4.7,4.4c-2.7,2.1-5.4,4.3-7.9,6.6c-1.6,1.5-3.6,2.8-4.9,4.8c-0.8,1.5-1.8,2.6-2.5,3.9c-0.5,0.9-1.2,1.6-1.8,2.6
		c-0.5,0.7-1.1,1.3-1.5,2.1c-2.4,4.9-5.2,9.5-8.1,14.2c-0.2,0.3-0.4,0.8-0.5,1.2c-0.7,2.1-1.4,4.4-3.1,6c-0.4,0.4-0.6,0.9-1,1.3
		c-2.1,2.8-4.3,5.7-6.4,8.5c-1.4,1.9-2.8,3.8-3.2,6.2c-0.3,1.5-0.6,3-1.3,4.5c-1.3,2.6-1.7,5.4-2.2,8.2c-0.2,0.9-0.2,1.9-0.3,2.9
		c-0.2,1.6-0.3,3.2-0.6,5c-0.2,1.3-0.8,2.6-0.9,3.8c-0.1,3.8-2,7.2-1.6,11.1c0.1,0.6-0.3,1.3-0.5,1.9c-0.7,3.1-1.2,6.2,2,8.7
		c0.2-0.4,0.4-0.7,0.6-1.1c0.4-1,0.6-2,1-2.9C9.2,156.5,9.6,154.7,9.4,152.9z M55.7,67.4c-0.5-0.7-0.8-1.2-1.1-1.7
		C55.9,66,56,66.1,55.7,67.4z M54.4,67.8c0.1,0.2,0.3,0.5,0.4,0.7c0,0-0.1,0.1-0.2,0.2c-0.2-0.2-0.3-0.5-0.5-0.7
		C54.1,67.8,54.3,67.8,54.4,67.8z"/>
	<path d="M433.2,299.3c-1.2-0.8-1.3-2.7-2.7-3c-1.3,0.6-2.4,1-3.5,1.5c-0.8,0.3-1.5,0.7-2.3,1.1c-2,1-4.1,1.9-6.1,2.9
		c-0.2,0.1-0.5,0.1-0.7,0.2c-0.8,0.3-1.6,0.5-2.3,0.9c-1.1,0.6-2,1.6-3.5,1.6c-0.4,0-0.8,0.5-1.1,0.8c-0.8,0.9-1.6,1.8-2.4,2.7
		c-1.2,1.4-2.5,2.7-3,4.6c-0.2,0.9-0.8,1.3-1.7,1.3c-1.6,0-3.2,0.5-4.9,0.7c-1.7,0.3-3.4,0.8-4.8,1.7c-0.3,0.2-0.7,0.3-1,0.4
		c-3.5,1-7,1.9-10.5,2.8c-0.8,0.2-1.5,0.3-2.3,0.4c-2.4,0.2-4.8,0.3-7.2,0.6c-0.7,0.1-1.6,0.4-2.1,0.9c-1.5,1.8-3.8,2.6-5.6,3.9
		c-0.9,0.6-1.8,0.5-2.7-0.2c-0.3-0.2-0.6-0.5-0.8-0.7c-1.1-1.1-2.3-1.4-3.9-0.9c-1.5,0.4-3,0.9-4.7,0.4c-0.5-0.2-1.2,0-1.8,0.3
		c-1.1,0.4-2.1,0.9-3.1,1.5c-1.7,1.1-3.6,2.1-5.4,3.1c-2.9,1.5-6,1.8-9,1.4c-4.5-0.5-8.8,0.2-13,1.8c-1.6,0.6-3.5,1.1-5.2,1.1
		c-2.9,0-5.7,0.9-8.4,1.7c-1.2,0.4-2.2,1.4-3.5,1.9c-3.5,1.7-7.1,2.6-11.1,2.2c-0.8-0.1-1.6-0.3-2.3,0.4c1.1,1.9,3,2.4,5,2.6
		c3.1,0.3,6.4,0.4,9.5,0.5c1.5,0.1,2.9,0.3,4.5,0.1c4.3-0.4,8.6-0.3,12.8-1.3c0.8-0.2,1.6-0.1,2.3-0.3c1.8-0.4,3.8-0.7,5.6-1.2
		c2.1-0.5,4.3-1.3,6.4-1.8c1.5-0.3,3-0.1,4.4-1.1c0.2-0.2,0.6-0.1,0.9-0.1c2.2,0,4.2-0.7,6.2-1.6c2.1-0.9,4.4-1.7,6.5-2.6
		c0.9-0.3,1.7-0.4,2.3-1.3c0.2-0.3,0.8-0.4,1.3-0.4c2,0.1,4.1,0,6-0.7c0.4-0.2,1-0.2,1.4-0.1c1.2,0.4,1.9-0.1,2.4-1
		c0.7-1.1,1.7-1.2,2.9-0.8c3.2,0.9,6.4,1,9.5-0.3c0.5-0.2,1-0.5,1.5-0.7c4.4-1.3,8.8-2.2,12.8-4.3c2.3-1.1,4.8-2,7.1-3
		c2-0.9,3.9-2.2,5.9-3.1c1.1-0.5,2.1-1.5,3.4-1.8c2.3-0.7,4.2-2.2,6.2-3.2c2.6-1.2,4.9-3.1,7.8-3.8c0.4-0.1,0.9-0.4,1.2-0.8
		c1.3-1.9,3.4-2.8,5.3-3.9c1.8-1,3.2-2.6,4.4-4.3C434.8,297.8,434,299.5,433.2,299.3z"/>
	<path d="M492.6,203.7c0.5-2.2,0.3-4.4-0.6-6.6c-0.2-0.4-0.2-0.8-0.1-1.2c0.2-0.9,0.4-1.8,0.7-2.6c0.8-2.1,1.4-4.4,0.7-6.7
		c-0.2-0.5-0.1-1.1-0.1-1.6c0.2-2,0.5-4.3,0.8-6.5c-1.7-0.4-2.6-1.7-3-3.4c0-0.1-0.1-0.2-0.2-0.3c-0.7-1.3-1.6-2.6-1.7-4.3
		c0-0.4-0.3-0.7-0.5-1.1c-0.2,0-0.4,0-0.6,0c-0.1,0.5-0.2,1-0.2,1.5c0,0.4,0.1,0.7,0.1,1.1c-0.2,4.6-0.1,9.1,0.3,13.7
		c0.2,1.9,0.3,4,0.4,6c0,1-0.1,1.9-0.1,2.9c-0.1,1.5-0.2,3-0.4,4.6c-0.3,1.5-0.8,3.1-1.2,4.8c-0.4,1.7-0.7,3.4,0,5.1
		c0.3,0.7,0.2,1.5,0.2,2.3c0,1.8-1.3,3.5-0.8,5.4c0.1,0.3-0.2,0.7-0.4,1c-1.2,1.8-2.2,3.8-3.7,5.4c-1.8,2-2.5,4.3-2.7,6.8
		c-0.1,1.1-0.5,1.9-1.5,2.3c-1.1,0.5-1.9,1.3-2.5,2.3c-0.2,0.4-0.5,0.7-0.8,1c-0.8,0.7-1.2,1.6-1.3,2.7c0,0.5,0,1.2-0.3,1.6
		c-0.8,1.1-0.7,2.1-0.3,3.4c0.5,1.7,0.3,3.2-1.2,4.5c-0.3,0.2-0.6,0.4-0.9,0.6c-0.8,0.6-1.9,1.1-2.2,1.8c-0.6,1.5-1.5,3-1.5,4.9
		c0,1.1-0.7,2.3-1.3,3.4c-0.5,0.8-1.5,0.5-2.4,0.5c-0.6,0-1.1,0.1-1.3,0.7c-0.2,1-0.5,2-0.5,3c0.1,2.4-0.9,4.3-3,5.5
		c-1.8,1.1-3.6,2.6-3.5,5.1c0,0.5-0.3,0.9-0.4,1.4c-0.2,0.7-0.6,1.2-1.3,1.3c-1.2,0.2-2.1,0.9-2.8,1.9c-0.2,0.3-0.6,0.6-1,0.8
		c-0.9,0.5-1.4,1.2-1.3,2.2c0,1.2-0.4,2.2-1.2,3.2c-0.5,0.6-0.9,1.1-1.3,1.7c-0.7,1.1-0.8,1.9-0.4,2.6c0.5,0.7,2.1,0.9,3,0.5
		c0.2-0.1,0.4-0.2,0.6-0.4c0.7-0.6,1.4-1.2,2-1.9c0.7-0.8,1.4-1.4,2.4-1.9c2.4-1.3,4.4-3,4.6-6c0-0.3,0.2-0.7,0.5-0.9
		c1.1-0.9,2.2-1.9,3.6-2.6c1.6-0.7,2.7-1.7,3.7-3.2c0.5-0.8,1.3-1.4,1.9-2.1c0.5-0.5,1.1-1,1.3-1.7c0.6-1.6,1.3-3,2.3-4.4
		c0.7-0.9,1.3-1.7,0.5-2.9c1.3,0.4,2.4,0.7,3.4-0.3c1.7-1.9,3-4.1,2.8-6.7c1.1-0.5,1.7-1.4,2-2.6c0.3-0.8,0.5-1.8,1-2.3
		c1.1-1.1,1.7-2.6,2.3-3.9c0.2-0.4-0.1-1.1-0.3-1.7c-0.1-0.4-0.3-0.8-0.5-1.5c2,0.4,2.5-0.7,3-2c0.8-2.6,1.5-5.1,2.6-7.4
		c0.9-2,1.4-4.1,1.7-6.2c0.1-0.4,0.2-0.8,0.4-1.2c0.1-0.3,0.3-0.6,0.2-0.9c-0.5-1.5,0.2-2.8,0.2-4.4c0-1.7,0.4-3.4,1.9-4.6
		c0.5-0.4,0.8-1.1,0.8-1.7c0.2-2.2,0.1-4.5-0.7-6.7C492.6,205.9,492.4,204.7,492.6,203.7z"/>
	<path d="M165.9,240.4c-2.7-1.6-5.5-3.2-8.3-4.9c-1-0.5-2.1-0.7-3,0.3c-2.6,2.9-5.4,6-7.9,8.9c-1.2,1.4-2.2,1.7-3.5,0.4
		c-1.2-1.3-2.8-1.8-4.5-2.6c-2.6-1.1-5.2-2.2-7.7-3.7c-1.7-0.9-1.8-1.1-3.4,0.2c-1.2,1-2.3,2.2-3.4,3.5c-2.5,2.8-5.1,5.7-6.8,9.1
		c-1.2,2.3-0.8,3.5,1.7,4.3c4.3,1.2,8.4,2.6,12,5.4c2.9,2.2,5.7,2.7,9.2-0.3c2.3-1.9,4-4.4,5.5-6.9c0.9-1.5,1.2-1.7,2.7-1
		c2.4,1,4.7,2.2,6.6,4c1,0.9,2,1.8,3,2.6c0.6,0.4,1.2,0.7,2,1.1c0.8-0.5,1.7-0.8,2.3-1.4c2.7-2.1,5.1-4.8,7-7.6
		c0.8-1.1,1.3-2.6,1.9-3.8c0.4-0.8,0.3-1.5-0.2-2.2C169.7,243.9,168.1,241.8,165.9,240.4z"/>
	<path d="M354.9,277c4.1-1.1,8.1-2,12.2-3.2c2.2-0.6,4.4-1.7,6-3.5c1.1-1.1,0.9-1.7-0.3-2.6c-1.1-0.8-2.1-0.8-3.2-0.4
		c-1,0.4-1.9,0.8-2.9,1.1c-8.9,2.6-17.8,5.2-26.9,7.6c-5.5,1.5-11.1,2.6-16.7,4.1c-6.7,1.6-13.3,3.5-20,5
		c-5.5,1.2-11.1,2.2-16.6,3.2c-1.6,0.3-3.2,0.7-4.7,1.7c-0.7,0.5-1.2,1-1,1.9c0.2,0.9,0.7,1.5,1.6,1.5c1.1,0.1,2.3,0.2,3.5-0.1
		c2.2-0.6,4.5-1.2,6.8-1.5c1.1-0.1,2.2-0.3,3.2-0.5c6.2-1.4,12.2-2.9,18.4-4.5c3.5-0.8,6.8-1.5,10.3-2.4c7.8-1.9,15.5-3.9,23.3-5.7
		c0.5-0.1,1-0.1,1.7-0.2c-0.2,0.6-0.2,0.9-0.3,1.1c-1.5,2.8-1.5,6-1.1,9c0.2,2,1,3.9,2.5,5.4c0.6,0.6,1.3,0.9,2.1,0.6
		c1-0.3,2-0.6,3-0.8c1.9-0.4,3.1-1.6,4.3-3c0.5-0.6,0.5-1.4,0-2c-0.5-0.6-1.1-0.3-1.7-0.1c-0.9,0.2-1.8,0.5-2.6,0.6
		c-1.9,0.2-3.5-0.8-3.9-2.7c-0.3-1.3-0.3-2.6-0.3-4.1s0.3-2.9,0.4-4.6C352.7,277.7,353.9,277.3,354.9,277z"/>
	<path d="M145.6,148.9c2.9,0,5.1,1.5,6.4,4.1c2.2,4.3,4,8.5,5,13.2c0.8,3.2,1.4,6.6,2.2,10c0.4,1.5,1.4,2.3,2.9,2.2
		c1.6-0.1,2.8-1.4,3-2.9c0.2-2.4,0.3-4.9,0.5-7.4c0.2-3.1,0.4-6.5,0.9-9.5c0.8-4.9,2.6-9.4,4.4-14c0.4-1.1,1.1-2.1,1.7-3
		c0.3-0.4,0.9-0.6,1.4-0.5c0.3,0,0.6,0.7,0.6,1.1c0,1.3,0.5,2.3,1.4,3c1.1,0.9,2.5,1.3,4,1.2c2.3-0.2,3.2-1.3,2.8-3.8
		c-0.1-0.4-0.1-0.7-0.3-1c-1.5-3-3.7-5.5-6.7-7.2c-1-0.5-1.9-0.5-2.9,0.2c-1.3,0.8-2.5,1.8-3.2,3.2c-1.5,2.9-3.1,6-4.5,8.9
		c-1.2,2.8-2,5.8-3,8.8c-0.3,0.7-0.6,1.5-1,2.1c-0.2,0.3-0.6,0.5-1,0.6c-0.2,0-0.5-0.5-0.6-0.8c-0.5-1.9-1.1-3.8-1.5-5.7
		c-0.8-3.8-2.9-6.6-6-8.9c-0.6-0.4-1.4-0.7-1.8-0.9c-2.4,0.4-4.4,1-6.1,2.3c-1,0.8-1.4,1.8-1.1,3
		C143.3,148.4,144.3,148.9,145.6,148.9z"/>
	<path d="M338.9,146.8c-2.6-0.3-6.2,1.9-7.1,4.4c-0.6,1.7-0.3,2.3,1.6,2.4c0.4,0,0.9,0.1,1.3,0c1.1-0.5,1.9,0,2.6,0.8
		c1.9,2.1,3,4.6,3.6,7.3c0.4,2.7,0.8,5.5,1.5,8.2c0.6,2.4,1.1,4.9,1.1,7.3c0,1.2-0.1,2.4,0,3.7c0.1,1.2,0.9,2.1,2,2.2
		c2.4,0.3,4.6-1.7,4.6-4.3c0-1.4-0.1-2.8,0.3-4.3c1-3.7,2-7.2,3.5-10.6c1.4-3.2,2.4-6.6,3.5-10c0.5-1.7,1.2-3.5,1.9-5.4
		c0.8,0.9,1.3,1.7,2,2.2c1.9,1.7,4.1,2.6,6.6,1.6c1.6-0.6,2.2-1.7,1.6-3.2c-0.4-1.2-0.9-2.4-1.6-3.7c-0.4-0.7-1-1.3-1.6-1.7
		c-4.1-2.3-10.3-0.1-11.7,4.4c-1.3,3.9-2.4,7.7-3.4,11.7c-0.4,1.8-1.4,3.2-2.3,4.9c-0.2,0.3-0.5,0.4-1.2,0.9
		c-0.3-1.9-0.6-3.7-0.7-5.1c-0.4-5.2-2.5-9.6-6.2-13.3C340.2,147.3,339.5,146.8,338.9,146.8z"/>
	<path d="M414.7,135.2c-1.5-5.4-3.6-10.6-6.2-15.4c-1.2-2.1-2.3-2.3-4.4-0.8c-1.8,1.4-3.2,3.4-4.6,5.4c-1.5,2.3-1.6,4.6-0.1,6.9
		c0.4,0.6,0.7,1.1,1.1,1.6c1.6,2.1,3.5,4.3,4.9,6.6c2.3,3.8,4.4,7.7,6.5,11.5c2.4,4.4,3.4,9,2.7,14.2c-0.1,0.8,0,1.7,0.2,2.6
		c0.2,0.9,0.8,1.1,1.5,0.4c0.5-0.5,1-1.2,1.3-1.9c1.4-2.9,1.7-6.2,1.6-9.5c0.1-3.5-0.5-6.9-1.4-10.5
		C416.8,142.4,415.7,138.8,414.7,135.2z"/>
	<path d="M433.2,192.8c0.2,1.5,0.2,3.2,0.9,4.8c1.7,3.7,4.9,5,8.6,5.7c0.5,0.1,1.2-0.1,1.7-0.4c4.7-2,7.3-5.7,8.1-10.7
		c0.6-3.4-0.7-4.9-4-5.2c-1.3-0.1-2.7-0.2-3.8-1.4c-1.9-2.2-3.1-4.9-3.2-7.9c-0.1-3.1,0.9-6.1,2.2-8.9c0.4-0.8,0.7-1.7,0.9-2.6
		c0.2-0.7,0-1.6-0.8-1.8c-0.6-0.2-1.3,0-1.9,0.2c-0.6,0.3-1,0.9-1.4,1.4c-1.4,2.3-2.7,4.8-4.1,7.2c-1.9,3.7-2.8,7.7-3.2,11.7
		c-0.2,2,0,4.3,0,6.3c-0.1,0-0.2,0-0.3,0C433.2,191.7,433.2,192.3,433.2,192.8z"/>
	<path d="M407.1,185.9c-1.3,0.8-2,2.1-2.7,3.4c-1,1.7-1.9,3.7-3.2,5.2c-1.3,1.5-1.6,3.5-2.3,5.1c-0.5,1,0,1.7,1,2.2
		c1.5,0.6,3,1.1,4.5,1.7c3.2,1.5,6.7,2.7,9,5.7c1.2,1.5,2.1,1.3,3.4-0.3c2.2-3.2,4.5-6.6,6.7-9.8c0.7-1,1.6-2,2.3-3
		c0.6-0.8,0.9-1.7,0.6-2.6c-1-0.6-1.8-1-2.5-1.5c-1.3-0.8-2.5-1.9-4.1-2.6c-3.2-1.4-6.6-2.6-10-3.9
		C408.7,185.2,407.9,185.4,407.1,185.9z"/>
	<path d="M77.3,250.8c-2.1,2.1-2.5,4.8-1.6,7.6c0.7,2.2,2.1,3.8,4.7,3.9c2,0,4.1-0.1,6.1-0.3c2.3-0.2,4.7-0.6,7-0.6
		c3.1,0,6.2-0.8,9.2-1.4c0.6-0.1,1.2-0.8,1.5-1.4s-0.3-1.4-1-1.8c-0.9-0.4-1.8-0.8-2.7-0.9c-2.5-0.2-5.1-0.2-7.6-0.4
		c-2.6-0.2-5.3-0.3-7.9-0.6c-0.6-0.1-1.4-0.5-1.5-1s0.3-1.3,0.7-1.7c1.1-1,2.4-1.9,3.7-2.8c1.3-1,2.6-2,3.4-3.7
		c1.1-2.3-0.6-5.4-3.1-5.4c-1.2,0-2.4,0.2-3.7,0.3c-0.7,0-1.4,0.3-2.1-0.3c0.9-0.4,1.6-0.8,2.3-1.1c0.9-0.4,1.5-1.2,1.9-2.1
		c0.5-1.3,0.1-1.9-1.2-1.8c-0.8,0.1-1.6,0.3-2.3,0.5c-2.9,1-5.7,2.3-8.2,4.3c-0.5,0.4-1.1,0.8-1.5,1.3c-1.5,1.7-1.2,3.9,0.7,5.1
		c0.8,0.5,1.8,0.7,2.7,0.9c0.8,0.2,1.7,0.2,2.9,0.2c-0.2,0.7-0.3,1.2-0.6,1.6C78.3,249.6,77.8,250.2,77.3,250.8z"/>
	<path d="M322.1,146.8c-2.9,1.3-6,2.6-8.8,4.3c-6,3-12,6.1-17.8,9.4c-10.4,5.7-21.3,10-31.8,15.4c-1.6,0.8-3,2-4.5,3.1
		c-0.8,0.6-1.1,1.7-0.6,2.6c0.5,1,1.5,1.4,2.6,1.4c2.6-0.1,4.6-1.6,6.5-3.1c0.7-0.5,1.3-1.2,2-1.6c1.7-1,3.6-1.9,5.4-2.7
		c7.2-3.5,14.4-6.9,21.5-10.6c6.6-3.2,13.1-6.6,19.9-9.1c1.8-0.6,3.6-1.4,5.3-2.2c1.4-0.6,2.6-1.5,3.5-2.9c0.7-1.3,0.4-2.6-0.5-3.8
		C324,145.7,323,146.5,322.1,146.8z"/>
	<path d="M222.7,137.8c0.9,0.4,1.8,0.7,2.8,1.1c0.7-0.4,1.5-0.6,2.1-1.1c0.9-0.8,1.8-1.8,2.6-2.8c2-2.7,4.3-5.5,5.5-8.8
		c0.6-1.7,0.6-1.9-0.9-3c-0.4-0.3-0.7-0.7-1.1-0.9c-1.1-0.7-2.2-1.5-3.4-2.1c-1.4-0.8-2.9-1.4-4.5-2.1c-1-0.5-1.9-1-2.9-1.5
		c-0.8-0.4-1.4-0.3-2.1,0.3c-1.9,1.4-3.2,3.4-4.8,5.1c-1.8,2.1-3.4,4.6-4.5,7.2c-0.7,1.6-0.2,3,1.4,3.9
		C216.2,134.5,219.5,136.1,222.7,137.8z"/>
	<path d="M244.1,341.6c-1-0.1-2.2,0.1-3-0.4c-1-0.7-1.8-0.5-2.7-0.4c-0.8,0.1-1.7,0.1-2.5,0c-1.9,0-3.8-0.2-5.6,0.7
		c-0.9,0.4-2,0.2-3,0.3c-1.1,0.1-2.2-0.1-3.2,0.2c-1.7,0.4-3.5-0.7-5.2,0.2c0,0-0.1,0-0.2-0.1c-1.2-0.8-2.4-0.5-3.8-0.3
		c-0.5,0.1-1.1,0-1.6,0c-1.1-0.1-2.3-0.2-3.5-0.2c-1.7-0.1-3.6,0-5.3-0.4c-2.2-0.6-4.6-0.9-6.8-1.3c-1.3-0.2-2.4-0.2-3.2,0.6
		c-1.3-0.3-2.5-0.6-3.8-0.9c-0.3-0.1-0.8-0.2-1-0.4c-0.8-0.8-1.7-0.9-2.7-0.7c-1.1,0.2-2.2,0.5-3.5,0.8c-0.4-0.2-0.9-0.7-1.5-0.8
		c-1.5-0.3-3-0.5-4.6-0.6c-1.6-0.1-2.3,0.8-2.1,2.4c0.2,1.4,1.4,2.4,2.8,2.2c0.8-0.1,1.7-0.3,2.4-0.6c1.6-0.8,3-0.8,4.4,0.6
		c0.5,0.5,1.3,0.8,2.1,1c1,0.3,2,0.4,3,0.5c1.7,0.2,3.5,0.9,5.3,0.2c0.3-0.1,0.6,0,0.9,0.1c1.5,0.2,3,0.5,4.6,0.7
		c1,0.1,2.1,0.3,3,0.1c1.9-0.5,3.8-0.1,5.6,0.4c2.1,0.7,4.2,0.7,6.2,0.1c0.8-0.2,1.6-0.1,2.5,0c0.5,0,0.9,0.2,1.4,0.3
		c2.6,0.2,5.4,0.4,7.9,0.5c0.5,0,1,0.1,1.5,0.1c1.6,0,3.1-0.1,4.8-0.1c3.6,0.1,7.1,0,10.6-1.4c1.6-0.6,3.4-1.2,5.2-1
		c1,0.1,2-0.1,3-1.2c-0.5-0.2-0.7-0.4-1-0.4C249,342.1,246.5,341.9,244.1,341.6z"/>
	<path d="M293.1,280.6c0.1,1,0.7,1.5,1.6,1.6c1.5,0.2,3.2-1,3.4-2.6c0.2-3.1,1.6-6,2.4-8.9c0.5-1.7,1.6-3,3.1-4
		c1.5-1,2.4-1.2,3.2,0.6c0.1,0.2,0.2,0.4,0.4,0.6c0.7,0.9,1.3,0.9,2.1,0.1c1.4-1.3,1.7-4,0.8-5.8c-0.9-1.6-1.5-1.9-3.2-1.3
		c-3.1,1.2-6.1,2.9-8.4,5.4c-0.5,0.5-1,1-1.8,1.7c-0.6-1.5-1.1-2.7-1.6-4c-0.9-1.9-1.9-2.6-4-2.2c-1.3,0.2-2.4,1.3-2.6,2.6
		c-0.2,1.4,1,1.6,1.9,2.1c0.5,0.3,1.2,0.7,1.4,1.3c0.7,2,1.2,4.1,1.1,6.3C292.9,276.3,293,278.4,293.1,280.6z"/>
	<path d="M311.5,163c0.3-0.8,0.5-1.5,0.8-2.3c-0.2-0.1-0.3-0.3-0.5-0.4c-0.4,0.3-0.9,0.5-1.2,0.8c-3.5,4.3-5.3,9-4.4,14.6
		c0.1,0.7,0.5,1.5,0.9,2.1c1.6,2,4.4,2.4,6.6,1.1c1.1-0.6,2.1-1.4,3.1-2.2c0.9-0.8,1.5-1.8,1.5-3c0-0.3-0.2-0.8-0.4-0.9
		c-0.2-0.1-0.7-0.1-1,0.1c-0.5,0.3-0.9,0.8-1.3,1.2c-1.3,1.5-2.2,1.5-3.7,0.1c-1.8-1.9-2.5-4.3-2-6.8
		C310.3,165.9,311,164.5,311.5,163z"/>
	<path d="M262.5,145.1c0.1-0.8,0.3-1.6-0.6-2c-1.2,0.8-2,1.9-2.5,3.8c-0.7,2.8-1.2,5.8-0.8,8.8c0.3,2.6,1.7,4.3,3.8,5.6
		c1.1,0.6,2.3,0.5,3.6,0c1.7-0.8,3.5-1.5,5.3-2.2c0.9-0.4,1.7-0.9,1.9-2.2c-0.4-0.1-0.7-0.2-1-0.2c-1.2,0.3-2.5,0.6-3.8,1
		c-0.8,0.2-1.5,0.6-2.2,0c-2.4-2.2-4.5-4.8-4.2-8.3C262,147.8,262.3,146.3,262.5,145.1z"/>
	<path d="M263.9,293.4c-1.3,0-1.6,0.7-1.9,1.3c-0.8,1.5-1.1,3.2-1.2,5c-0.1,2.6,1.1,4.3,3.2,5.5c1.4,0.8,2.7,0.8,4.2,0
		c1-0.6,2.2-1,3.2-1.6c0.6-0.3,1.1-0.8,1.5-1.3c0.2-0.3,0.4-0.9,0.2-1.3c-0.2-0.6-0.9-0.6-1.4-0.3c-1.9,1-3.7,0.3-5.4-0.6
		c-1.8-0.9-2.6-2.2-2.3-4.4C264.2,295,264,294.1,263.9,293.4z"/>
	<path d="M372.1,60.8c-0.1-0.1-0.3-0.1-0.5-0.1c-0.5,2-0.5,2-1.3,2.7c-0.5-0.2-0.9-0.4-1.4-0.7c0,0.1-0.1,0.3-0.1,0.4
		c0.7,0.7,1.3,1.3,2.1,2c0.3,0.2,0.7,0.4,1,0.4c0.9-0.2,1.5,0.2,2,0.9c0.3,0.3,0.7,0.6,1,0.6c2,0.4,3.9,0,6-1.1
		c-0.9-0.6-1.5-1.2-2.3-1.4C376.1,63.8,373.7,63.2,372.1,60.8z"/>
	<path d="M93.8,145.7L93.8,145.7C93.7,145.7,93.8,145.7,93.8,145.7C93.8,145.7,93.8,145.7,93.8,145.7z"/>
	<path d="M353.6,34.3c0.9,0.5,1.7,0.1,2.5-1c-1-0.1-1.8-0.1-2.5-0.4c-0.8-0.3-1.4-0.9-2.1-1.3l0,0l0,0l0,0
		C351.3,33.2,352.4,33.8,353.6,34.3z"/>
	<path d="M455.5,228.7c1.4-1.1,1.4-1.1,0.6-2.6C454.9,226.9,454.9,226.9,455.5,228.7z"/>
	<path d="M342.5,50c-0.3-0.1-0.8,0.1-1.1,0.4c-0.2,0.1-0.3,0.7-0.1,0.8c0.2,0.2,0.6,0.3,0.9,0.4c0.3,0,0.7-0.2,1.5-0.4
		C343,50.6,342.9,50.1,342.5,50z"/>
	<path d="M345.2,54.6c0-0.2,0-0.4,0.1-0.6c-0.9-0.1-1.8-0.1-2.7-0.2c0,0.1,0,0.1,0,0.2C343.4,54.3,344.2,54.5,345.2,54.6z"/>
	<path d="M395.2,77.9c0-0.1-0.1-0.2-0.1-0.3c-0.6-0.1-1.1-0.1-1.7-0.2c0,0.1-0.1,0.2-0.1,0.4c0.3,0.2,0.5,0.6,0.8,0.6
		C394.4,78.3,394.8,78,395.2,77.9z"/>
	<path d="M348.3,55.4c-0.5-0.2-1-0.4-1.6-0.6c-0.1,0.2-0.1,0.3-0.2,0.5c0.5,0.2,1.1,0.4,1.6,0.5C348.1,55.6,348.3,55.5,348.3,55.4z"
		/>
	<path d="M359.6,58.7c0.6-0.1,1.1-0.3,0.8-1.3C359.8,57.8,359.4,58,359.6,58.7z"/>
	<path d="M351.4,56.3c-0.6-0.2-1.1-0.4-1.7-0.6c0,0.1-0.1,0.2-0.1,0.3c0.5,0.2,1.1,0.4,1.6,0.6C351.3,56.6,351.3,56.5,351.4,56.3z"
		/>
	<path d="M351.4,31.7c-0.6,0-1.2,0-1.9-0.1C350.3,32.3,350.3,32.3,351.4,31.7z"/>
	<path d="M457.5,232.7c-0.4-0.6-0.6-0.9-0.9-1.5C456.3,232.2,456.5,232.6,457.5,232.7z"/>
	<path d="M93.8,145.7C93.8,145.7,93.7,145.7,93.8,145.7C93.7,145.7,93.7,145.7,93.8,145.7C93.7,145.7,93.7,145.7,93.8,145.7z"/>
	<path d="M453.2,141c0-0.1-0.1-0.3-0.2-0.3c-0.1,0-0.3,0.1-0.4,0.2c0,0.1,0.1,0.3,0.2,0.5C453,141.1,453.1,141.1,453.2,141z"/>
	<path d="M110,57c-0.5,0-0.8,0-1.3,0C109.4,57.7,109.4,57.7,110,57z"/>
	<path d="M428.4,109.9c0,0.1-0.1,0.2-0.1,0.3c0.3,0.1,0.6,0.2,0.9,0.4c0-0.1,0.1-0.2,0.1-0.3C429,110.1,428.8,110,428.4,109.9z"/>
	<path d="M291.5,23.9c0,0.1,0.1,0.3,0.1,0.5c0.2-0.1,0.4-0.2,0.5-0.3c0,0-0.1-0.3-0.2-0.5C291.7,23.7,291.5,23.8,291.5,23.9z"/>
	<path d="M360.4,60.2c0.1,0,0.2,0,0.3-0.1c-0.1-0.1-0.1-0.2-0.2-0.4c-0.1,0.1-0.2,0.1-0.2,0.2C360.4,60.1,360.4,60.2,360.4,60.2z"/>
</g>
</svg>
