<?xml version="1.0" encoding="utf-8"?>
<!-- Generator: Adobe Illustrator 21.0.2, SVG Export Plug-In . SVG Version: 6.00 Build 0)  -->
<svg version="1.1" id="Layer_1" xmlns="http://www.w3.org/2000/svg" xmlns:xlink="http://www.w3.org/1999/xlink" x="0px" y="0px"
	 viewBox="0 0 500 500" style="enable-background:new 0 0 500 500;" xml:space="preserve">
<g>
	<path d="M493.5,477.5c-0.1-0.7-0.5-1.2-0.7-1.8c-1.3-2.3-1.3-4.9-1.7-7.4c-0.1-0.5,0.4-1.1,0.5-1.6c0.1-0.4,0.4-0.7,0.4-1.1
		c0.1-3.9,0.5-7.7-0.4-11.6c-0.7-2.9-0.7-5.9,0.7-8.8c0.7-1.8,1.1-3.4,0.9-5.5c-0.1-0.7,0-1.3,0-2c0-6.9,0.9-13.7,0.1-20.5
		c-0.1-0.7,0.1-1.3,0.1-2c0.1-2.7,0.2-5.4,0.1-8.1c-0.1-5-0.5-9.8-0.7-14.7c0-0.7,0.1-1.5,0.2-2.2c0-0.5,0.1-0.9,0.1-1.5
		c-0.1-4.4-0.5-8.8-0.5-13.4c0-2.8,0.4-5.6,0.2-8.5c-0.4-6,0-12.3-0.7-18.3c-0.5-3.9,0.5-8,0.7-11.8c0.2-2.3,0.4-4.9,0.7-7.2
		c0.1-1.8,0.4-3.4,0.5-5c0.2-3.8,0.5-7.6,0.9-11.4c0-0.1,0-0.2,0-0.5c-0.9-4.9-0.4-9.8-0.7-14.6c-0.1-3.8-0.2-7.6-0.4-11.3
		c0-2.3-0.1-4.5-0.1-6.9c0-3.9,0.2-7.7-0.9-11.6c-0.5-1.6-0.4-3.4-0.4-5c0-1.8,0.1-3.9,0-5.8c0-1.2-0.1-2.3-0.2-3.6
		c-0.2-2.7-0.5-5.4-0.7-8.1c-0.1-2.3-0.1-4.9-0.2-7.2c0-1.2,0.1-2.3,0.1-3.6c-0.1-3.4-0.4-6.6-0.4-9.9c0-3.9,0.4-7.7,0.5-11.6
		c0.1-2.2,0.2-4.2,0.2-6.3c0-2.9-1.1-5.9-0.5-8.9c0.1-0.4-0.1-0.9-0.2-1.5c-0.7-4.2-1.1-8.1-0.2-12.4c0.5-2.3,0.5-4.7-0.1-7
		c-0.2-0.9-0.2-2-0.4-3.1c-0.7,0.1-1.3,0.1-2,0.2c-0.1-0.2-0.2-0.5-0.5-0.7c0.2-0.1,0.7-0.2,0.9-0.2c1.5,0,1.7-0.9,1.8-2
		c0.2-2.2,0.2-4.2,0.5-6.3c0.2-1.8-0.1-3.4-1.6-4.2c0.4-0.7,1.1-1.5,1.1-2.3c0.1-1.1,0-2.3-0.1-3.4s0-2.3-0.5-2.9
		c-0.7-0.9-0.7-1.6-0.4-2.6c0.1-0.5,0.2-1.1,0.2-1.6c-0.1-0.9-0.2-1.8-0.4-2.8c-0.1-1.5-0.4-2.9-1.6-3.9c1.2-2.6,0.9-5.3,0.4-7.7
		c-0.4-2-1.1-3.9-0.9-5.9c0-2,0.9-3.9-0.5-5.8c0,0,0-0.1,0-0.2c0.4-3.1-0.7-6-0.2-9.2c0.1-0.9-0.1-1.8-0.2-2.8
		c-0.2-1.8-0.9-3.4-0.7-5.3c0-3.1,0.5-6.1,0.7-9.2c0.1-1.2,0-2.3-0.1-3.6c-0.2-3.1-0.7-6.3-1.1-9.3c-0.2-3.9,0.2-8.1-0.7-12
		c-0.1-0.7,0-1.3,0.1-2c0.2-2.3,0.7-4.5,0.7-6.6c-0.1-3.4,0.4-7.1-0.2-10.7c-0.1-0.9,0-1.8,0.9-2.6c0.2,0.5,0.4,0.9,0.7,1.3
		c0.1,0,0.1,0,0.2,0c0-2.8,0-5.5,0-8.7c-0.7,1.2,0,2.7-1.6,3.4c0.2-2,0.4-3.8,0.5-5.6c0.2,0.4,0.5,0.7,0.9,1.1
		c0.2-1.8,0.4-3.1,0.7-4.5c0.5-2.2,0.1-3.9-0.7-5.9c-0.5-1.2-0.7-2.3-0.9-3.8c-0.1-1.6,0.1-3.2-0.1-4.9c-0.4-3.1-1.1-6.3-1.6-9.3
		c-0.4-1.8-1.1-3.4-2.9-3.9c-2.4-0.7-5-0.9-7.6-1.3c-0.9-0.1-1.7-0.1-2.7-0.1c-3.4,0.1-6.8-0.4-10.1,0.2c-1.2,0.2-2.3,0.7-3.5,0.4
		c-2.4-0.4-5.1,0-7.8-0.7c-3.3-0.7-6.8-0.5-10.2-0.5c-1.6,0-3.2,0.7-4.8,0.5c-2-0.2-3.7,0.2-5.5,0.7S425.4,8,423.5,8
		c-3.2-0.2-6.3-0.7-9.6,0.1c-0.2,0.1-0.7,0.1-0.9,0c-1.5-0.5-2.7,0-3.9,0.7c-0.4,0.2-0.7,0.5-1.3,0.5c-2.8,0.2-5.9,0-8.4,1.2
		c-1.7-0.5-3.3-1.3-5.1-0.7c-0.7-1.1-1.8-0.7-2.9-0.7C389.8,9,388.2,9,386.9,9c-1.2,0-2.3-0.1-3.5,0c-4.4,0.7-9,0.5-13.3,0.5
		c-1.7,0-3.5,0.1-5.2,0.1c-0.7,0-1.6,0-2.3-0.1c-0.9-0.1-2-0.4-2.9-0.2c-1.6,0.1-3.3-0.2-5,0.2c-1.5,0.4-3.3-0.1-4.9-0.2
		c-0.4,0-0.7,0-1.2,0.1c-3.1,0.9-6.2,1.5-9.4,1.3c-4.6-0.1-9.2,0.2-13.8,0.2c-1.5,0-2.9-0.4-4.4-0.2c-3.7,0.2-7.2,0.1-11-0.1
		c-4.8-0.2-9.6-0.5-14.4,0.2c-1.2-0.1-2.8-0.2-4.3-0.2c-7.2-0.1-14.4-0.2-21.5,0.9c-3.5,0.5-7.1-0.1-10.6-0.2
		c-2.3-0.1-4.6-0.1-6.8-0.1c-1.3,0-2.8,0-4,0c-2.4,0-5-0.1-7.4-0.1c-3.2,0.1-6.3,0.4-9.5,0.7c-3.3,0.1-6.6,0.1-9.9,0.5
		c-5.5,0.7-10.7,1.1-16.2,0.7c-0.7,0-1.3,0.1-1.8,0.2c-3.9,1.6-8.2,0.5-12.3,1.1c-0.4,0-0.7,0-1.2-0.1c-1.7-0.7-3.5-0.7-5.5-0.2
		c-0.4,0.1-0.9-0.1-1.3-0.2c-1.5-0.2-2.8-0.7-4.3-0.7c-2.9-0.1-5.9,0.9-8.7-0.2c-0.4-0.1-0.7-0.1-1.2,0c-1.5,0-3.1,0-4.4,0.2
		c-1.8,0.2-3.9,0-5.6,0.1c-2.8,0.2-5.5,0-8.3,0c-6.7,0.1-13.4,0.2-20.1,0.7c-1.7,0.1-3.3-0.2-4.9-0.1c-2.3,0.1-4.4,0.7-6.6,0.2
		c-0.5-0.1-1.1,0.1-1.6,0.2c-1.7,0.5-3.4,0.5-5.2,0.2c-3.5-0.5-7.1-1.5-10.7-1.2c-1.8,0.1-3.7,0-5.5,0.1c-1.3,0-2.7,0-3.9,0
		c-0.7,0-1.2-0.1-1.8-0.1c-1.1,0-2.1,0.2-3.1,0.1c-5.1-0.9-10.2-0.1-15.5,0c-3.9,0.1-7.8,0.5-11.7,0.4c-3.3-0.1-6.5-0.5-9.8,0.1
		c-0.7,0.1-1.7-0.1-2.7-0.1c-2.1-0.1-4.4-0.4-6.5-0.2c-2.1,0.2-3.9-0.1-6-0.4c-2.4-0.5-5-1.1-7.4,0.2c-0.5-0.2-1.1-0.7-1.7-0.9
		c-2.4,2.3-6,2.8-8.2,5.6c-0.4,0.5-1.3,0.7-1.8,1.1C15,20,13.5,21,13.1,22.1c-0.5,1.8-0.5,3.9-0.5,5.9c0,2.2,0,4.4-0.1,6.5
		c-0.1,2.3,0.2,4.9-0.4,7.4c-0.4,1.3-0.1,2.7-0.2,3.9c-0.1,1.6-0.4,3.2-0.4,4.9c0,3.2,0.1,6.5,0.1,9.8c0,2.6-0.1,5-0.1,7.6
		c0,4.3,0.2,8.6,0.2,12.9c0,4.4-0.2,8.6-0.2,12.9c0,0.4,0.1,0.7,0.1,1.2c0.2,3.9,0.5,8.1,0.7,12c0.1,1.3,0.2,2.8,0,4.2
		c-0.2,2.6-0.1,5,0.4,7.6c0.5,2.8,1.1,5.8,1.5,8.6c0.1,0.4,0,0.9-0.1,1.5c-0.5,2-0.4,3.9,0.5,5.9c0.1,0.2,0.1,0.7,0.2,1.2
		c-0.7-0.1-1.1-0.1-1.2-0.1c-0.1,1.2-0.1,2.3-0.2,3.4c-0.1,0.9-0.4,1.8-0.4,2.8c0,2.2,0,4.3,0,6.5c0.1,2-0.4,4.2,0.9,5.5
		c-0.1,1.5-0.1,2.6-0.2,3.6c-0.1,1.2-0.2,2.3-0.4,3.6c-0.2,1.8-0.5,3.4-0.7,5.4c-0.4,3.9,0.1,8-0.7,11.9c-0.4,1.8-0.2,3.6,0.1,5.4
		c0.4,1.5,0.5,2.9,0.7,4.4c0.1,1.3,0.2,2.7,0.5,3.9c0.1,1.5,0.4,2.8,0.5,4.3c0.1,1.3,0.1,2.6,0.1,3.9c0.1,1.3,0.1,2.7,0.2,3.9
		c-1.7-1.5-0.1-3.9-1.6-5c-1.1,0.9-2,1.8-3.1,2.6c-0.9,0.7-2,1.2-2.8,1.8c-2.3,1.8-2,5.6,0.4,7c2.7,1.3,4.6,3.2,5.2,6.3
		c0.4-2.8,0.7-5.6,1.1-8.5c0.5,0.5,0.5,0.9,0.5,1.5c-0.1,2.3-0.2,4.5-0.4,6.9c-0.1,3.8-0.1,7.6-0.2,11.3c0,0.4-0.2,0.7-0.4,1.2
		c-0.1,0-0.2,0-0.2,0c0-0.7-0.1-1.3-0.1-2c-1.5,1.8,0.7,3.8-0.7,5.3c0.7,0.5,1.1,1.1,1.6,1.5c-0.5,0.4-1.1,0.7-1.7,1.3
		c0.1,0.4,0.2,0.9,0.5,1.5c0.1,0.4,0.2,0.7,0.2,1.2c-0.2,2.7-0.7,5.5-0.9,8.1c-0.2,5.9-0.4,11.8-0.4,17.8c0,5.5,0.1,11,0.5,16.5
		c0.5,7.2-0.1,14.5-0.2,21.8c-0.1,5.6-0.7,11.3-1.2,16.8c-0.1,1.2-0.2,2.3-0.5,3.6c-0.7,3.6-1.2,7.2-0.4,10.8c0.4,2.3,0.7,4.7,0.7,7
		c0,5.3-0.2,10.4-0.4,15.6c-0.1,6.5-0.2,13-0.2,19.6c0,5.5-0.4,10.8,0.9,16.4c0.2,0.7,0.1,1.8,0.1,2.7c0.2,5.5,0.1,11.3-0.6,16.7
		c-0.4,4.4-0.9,8.8-0.7,13.4c0.4,4.3,0,8.7-0.1,13.1c-0.1,4.4-0.5,8.9-0.7,13.4c0,6,0.4,12.3,0.4,18.3c0,4.2-0.7,8.5-1.2,12.6
		c-0.2,2.7-0.9,5.4-0.1,8.1c1.2,3.6,3.2,5,6.8,4.4c0.2,0,0.5-0.1,0.7-0.1c2.7-0.2,5.2-0.5,7.9-0.7c1.1-0.1,2.3-0.2,3.3-0.5
		c3.4-0.7,6.8-1.3,10.4-1.1c3.2,0.2,6.3,0.4,9.4-0.1c3.1-0.5,6-0.7,9,0.2c2.8,0.9,5.5,0.7,8.3-0.1c2.8-0.9,5.5-1.1,8.3-0.9
		c4.6,0.1,9.2,0.2,13.8,0.4c1.6,0,3.2,0,4.8,0.1c3.5,0.1,7.1,0.4,10.6-0.4c0.9-0.2,1.8-0.1,2.9,0c2.8,0.1,5.5,0.4,8.4,0.5
		c5.5,0.1,10.7,0.1,16.1,0.4c3.5,0.1,7.2,0,10.7-0.7c1.2-0.2,2.4-0.1,3.9-0.1c5,0.1,10,0.5,15,0.4c3.3,0,6.6,0.1,9.8,0.9
		c1.2,0.2,2.7,0.7,3.9,0.4c3.3-0.5,6.6-0.9,10-0.7c1.1,0.1,2.1,0,3.2-0.1c4.4-0.7,9,0.1,13.4,0.2c0.5,0,0.9,0.2,1.5,0.4
		c2.4,0.7,5.2,0.9,7.8,0.5c2.3-0.4,4.4-0.2,6.6,0.7c2.8,1.2,5.5,0.9,8.2,0c2.8-0.9,5.6-1.3,8.7-0.9c2.4,0.4,5.1,0.1,7.6,0.2
		c0.9,0,2,0,2.9,0.2c2.9,0.7,5.9,0.7,8.8,0.1c3.5-0.7,7.1-1.1,10.7-0.2c2.7,0.5,5.2,0.5,7.8-0.4c0.7-0.2,1.7-0.2,2.7-0.2
		c1.8,0,3.7,0.4,5.5,0.2c2.9,0,5.6-0.5,8.7-0.4c4.4,0,8.7,0.4,12.9,0.5c1.5,0,2.9-0.1,4.3-0.2c0.9,0,1.8-0.2,2.7,0
		c4.3,1.1,8.7,0.5,12.9,0.4c2.9,0,6-0.5,8.8,0.2c0.7,0.2,1.7,0.1,2.7,0.1c8.4,0.1,17,0.1,25.4,0.2c0.2,0,0.5,0,0.7,0.1
		c2,0.7,3.9,0.2,6,0c1.7-0.1,3.5-0.1,5.2,0.1c2.4,0.2,5,0.9,7.6,0.2c0.7-0.1,1.5,0,2.1,0c3.9,0.1,7.6,0.1,11.5,0.2
		c3.9,0.1,8.1,0.2,12,0.4c1.2,0,2.3,0.1,3.5,0.1c1.5,0.1,2.9,0.1,4.4,0.2c1.2,0.1,2.3,0.2,3.5,0.4c4,0.1,8.3-0.5,12.3-0.1
		c1.8,0.1,3.9-0.2,5.6-0.4c3.7-0.2,7.6-0.5,11.2-0.7c2.4-0.1,4.9-0.2,7.4-0.2c2.7,0,5.5,0,8.1,0.1c0.1,0,0.2,0.1,0.4,0.1
		c3.2,0.4,6.2,0.7,9.2-0.1c1.3-0.2,2.4-0.4,3.7,0.2c1.8,1.1,3.4,0.7,5.1-0.2c1.5-0.9,2.9-1.1,4.6-0.7c1.7,0.4,3.5,0.4,5.1,0.7
		c1.7,0.5,3.4-0.7,5.1,0.1c0.2,0.1,1.2-0.7,1.6-1.2c0.4-0.7,0.4-1.6,0.5-2.3c0.2-0.9,0.4-2,0.9-2.7c1.2-1.6,1.7-3.4,1.5-5.5
		C493.8,480.7,493.8,479.1,493.5,477.5z M14.7,153.9c-0.1,0-0.1,0-0.2,0c0-0.4,0-0.7,0-1.1c0.1,0,0.1,0,0.2,0
		C14.7,153.1,14.7,153.5,14.7,153.9z M15,149.8c-0.1,0-0.4,0-0.5,0c0.1-1.2,0.2-2.3,0.4-3.6C15.8,147.5,15.5,148.6,15,149.8z
		 M477.8,34.2c-0.9-0.1-1.2-0.9-1.2-1.6c0.1-2-0.9-3.4-2.1-4.9c0.1-0.5,0.1-1.2,0.2-1.8C477.2,27.5,478.5,31.7,477.8,34.2z
		 M212.9,17.6c-1.6,0-3.3,0.4-4.6-0.9C210,16.9,211.5,17.4,212.9,17.6z M152.2,17.4c0.7,0.1,1.3,0.4,2,0.5c0,0.1,0,0.1,0,0.2
		c-0.7-0.1-1.5-0.1-2.1-0.2C152.1,17.8,152.2,17.4,152.2,17.4z M73.2,19.5c0.7-0.1,1.2-0.1,1.8-0.1c0.2,0,0.7,0.2,0.9,0.1
		c1.6-0.2,3.2-0.9,4.6-0.7c1.6,0.1,3.2,0.7,4.6-0.1c0.2-0.1,0.7-0.2,0.9-0.2c2.1,1.3,4.4-0.1,6.5,0.1c0.9,0.1,2,0,2.8-0.5
		c1.1-0.5,1.6-0.2,2.7,0.5c-3.3,1.1-6.5,1.5-9.8,1.5c-4.3,0-8.4,0.1-12.7,0.2c-3.1,0.1-6,0.2-9,0.4c1.3-0.2,2.8-0.4,4-0.7
		C71.6,19.8,72.3,19.5,73.2,19.5z M49.9,22.8c0,0.2,0.1,0.5,0.1,0.7c-0.5,0.1-1.1,0.5-1.6,0.5c-1.3,0-2.7-0.2-3.9-0.5
		c-0.4,0-0.7-0.4-1.2-0.2c-2.4,0.7-4.8-0.7-7.2-0.9c-0.4,0-0.9-0.5-1.3-0.9C39.9,21.7,44.7,23.3,49.9,22.8z M174.7,484.1
		c1.1-0.5,2-0.4,2.9,0.5C176.6,484.3,175.7,484.3,174.7,484.1z M485.7,412.3c0.7,1.5,1.1,3.1,0.7,4.7c-1.1,3.9-1.1,7.6-0.2,11.6
		c0.2,1.2,0.2,2.7,0,3.9c-1.1,4.2-0.7,8.5-0.9,12.6c-0.1,2.8,0.2,5.5,0.4,8.3c0.1,2,0.4,3.9,0.5,6c0.1,1.3,0.4,2.6,0.5,3.9
		c0.1,1.5,0.1,3.1-0.1,4.5c-0.1,1.3-0.2,2.7,0.1,3.9c0.9,2.7,0.1,5-1.5,7.1c-0.7,0.9-1.2,1.8-1.3,3.1c-0.2,2.7-2,3.8-4.6,3.6
		c-0.5,0-1.2,0.2-1.8,0.4c-2,0.7-2.9,0.2-3.9-1.8c1.3-0.7,2.7-1.6,4.3-2.6c-2.1-0.4-19,0.2-20.5,0.7c2.9,0.5,5.9,1.1,8.7,1.5
		c0.7,0.1,1.6,0,2.3-0.1c0.9,1.5,0.9,1.5,0.5,2.8c-1.8,0.1-3.7,0.5-5.5,0.4c-1.5,0-2.9-0.5-4.4-0.9c-0.2,0-0.7-0.2-0.9-0.1
		c-1.7,0.7-3.4,0-5.1-0.2c-2.3-0.2-4.4-0.1-6.5,0.7c-0.4,0.2-1.1,0-1.6,0c-1.8,0.1-3.9,0.4-5.6,0.2c-2.8-0.2-5.5,0.2-8.3,0.2
		c-1.7,0-3.3-0.5-5,0.2c-0.9,0.4-1.8,0-2.4-1.1c-0.4-0.7-0.9-1.5-1.6-2.2c-0.2-0.4-0.9-0.5-1.7-0.9c0,1.6,0,2.8,0,4.2
		c-2,0-3.7-0.9-5.2,0.2c-0.2,0.1-0.9-0.1-1.2-0.2c-0.4-0.2-0.7-0.7-1.2-1.5c-0.5,0.1-0.9,0.2-1.5,0.4c-0.4,0.1-1.1,0.4-1.3,0.2
		c-2.1-1.3-4.3-0.1-6.3-0.2c-1.1,0-2.1,0-3.1-0.4c-1.3-0.7-2.4-0.5-3.7,0.2c-1.1,0.7-2.1,0.4-3.2,0.1c-0.2-0.1-0.7-0.4-0.7-0.7
		c0-0.2,0.2-0.7,0.5-0.9c0.5-0.4,1.3-0.5,1.2-1.8c-0.7-0.7-1.7-0.1-2.7-0.2c-0.5,0.9-0.9,1.8-1.5,2.7c-0.9-0.7-1.5-1.1-2-1.6
		c-0.2-0.2-0.7-0.5-0.9-0.7c-1.1-0.5-2.8-0.4-2.8,0.2c0,0.7,0.5,1.5,1.1,2.7c-0.1,0.4-0.7,1.1-1.7,0.7c-2.3-0.7-4.4-0.5-6.7-0.7
		c-2.1-0.2-3.7,0.4-5.5,0.7c-1.8,0.2-3.9,1.1-5.5-0.5c-0.7-0.7-1.8-0.5-2.8-0.1c-1.8,1.1-3.5,0.4-5.1-0.5c-1.3-0.7-2.3-1.2-3.9-0.4
		c-1.3,0.7-2.9-0.1-4.4-1.2c-0.4,0.2-0.7,0.4-1.2,0.7c-0.7,0.7-1.6,0.5-2.1,0c-2.7-2.7-5.5-2.2-8.3-0.7c-0.5,0.2-1.1,0.4-1.3,0.5
		c-4-1.6-8.2-1.3-12.2-0.7c-0.4,0-0.9,0.5-1.1,0.7c-0.1,1.6-1.5,1.6-2.4,1.8c-1.3,0.1-2.7,0-3.9-0.1c-2.1,0-4,0-6.5,0
		c-0.2-0.7-0.9-0.9-2.3-0.5c-2,0.7-4,1.2-6.3,0.2c-0.5-0.2-1.5-0.2-1.8,0.1c-1.6,1.2-3.3,0.2-4.9,0.2c-0.4,0-0.9-0.5-1.3-0.9
		c-1.6-1.6-3.4-2.2-5.6-1.5c-1.7,0.5-3.9,0.1-5.5,1.2c-0.5,0.2-1.7-0.5-2.3-0.1c-2.1,1.1-4,0.4-6.2,0.2c-0.9,0-1.8,0.4-2.8,0.5
		c-0.5,0.1-1.2,0.4-1.6,0.2c-1.5-0.7-2.7-0.1-3.7,0.7c-2.3-0.9-4.4-2-6.8-0.7c-0.7,0.4-2,0.1-2.8-0.2c-1.5-0.7-2.9-0.5-4.4-0.1
		c-0.9,0.2-1.7,0.2-2.4-0.5c-0.4-0.4-1.1-0.7-1.5-0.5c-2.4,0.7-4.9-0.1-7.4,0c-0.2,0-0.5-0.1-0.7-0.1c-1.8,1.1-4,0.2-6,0.7
		c-1.5,0.4-2.9,0.7-4.4-0.4c-0.5-0.4-1.7-0.1-2.4,0c-3.7,0.5-7.4,1.3-11.2,0.7c-2.1-0.2-4-0.7-6-1.2c-1.1-0.2-2.1-0.1-3.3,0.2
		c-2,0.5-4,0.5-6,0.7c-1.2,0.1-2.4,0-3.7-0.1c-0.5,0-1.1-0.2-1.5-0.5c-2.3-1.3-4.6-1.8-7.1,0.1c-0.4-0.5-0.7-1.1-1.1-1.6
		c-1.2,0.9-2.4,1.2-3.9,0.4c-0.1,0-0.1-0.1-0.2-0.1c-3.1-0.4-6-0.7-9.2-1.3c-0.1,0.5-0.2,0.7-0.4,1.2c-2.3-0.4-4.8-1.5-7.1-1.1
		c-2.4,0.4-4.6-0.1-7.1-0.1c-1.7,0-3.5,0.5-5.9,0.9c-0.7-0.5-2.3-0.4-3.7,0c-2.9,0.7-5.9,0.9-8.7-0.5c-0.2-0.1-0.5-0.2-0.7-0.1
		c-2,1.3-4.3,0.1-6.3,0.5c-2.1,0.2-4.4,0-6.5-0.2c-1.8-0.2-3.5-0.7-5.5-1.2c-0.4-0.1-0.9-0.2-1.2,0c-2.3,1.6-5.1,0.1-7.8,0.7
		c-0.7,0.2-1.8-0.4-2.8-0.7c-0.9-0.2-1.8-0.7-2.8,0.1c-0.2,0.2-0.7,0.2-1.2,0.2c-2.3-0.1-4.8-0.2-7.1-0.7c-2.9-0.4-5.9-0.5-8.8-0.2
		c-3.4,0.2-6.8,0.1-10.2-0.1c-7.6-0.7-15.1,0.1-22.8,0.1c-4.4,0-8.7,0.1-12.9-0.7c-2-0.4-4-0.1-6.2-0.2c-2.8,0-5.5,0-8.2-0.1
		c-5.1,0-8.3-3.8-8.7-8.6c-0.4-6.1-0.7-12.4-1.1-18.5c-0.2-5.6-0.5-11.3-0.5-16.8c0-6,0.2-12.3,0.4-18.3c0-2.3-0.2-4.5-0.2-6.9
		c0-4.3,0-8.6,0-12.9c0-2.9-0.4-6-0.4-8.9c-0.1-5-0.4-9.9,0-15c0.4-4.3,0.2-8.5,0-12.6c-0.2-3.4-0.7-6.9-0.9-10.2
		c-0.1-2.7,0-5.4,0.5-8.1c0.7-4.2,0.9-8.3,0.2-12.6c-0.7-4.2-0.5-8.1-0.1-12.4c0.2-3.6,0.4-7.2-0.1-11c-0.5-4.7-0.7-9.6-0.1-14.3
		c0.2-1.6,0.1-3.4,0.1-5c0-3.2,0.1-6.3,0.1-9.6c0-0.9-0.1-2-0.1-2.9c-0.5-3.9-0.7-8.1-0.5-12.3c0.2-5.4,0.4-10.8-0.4-16.1
		c-0.7-5.4-0.7-10.8,0-16.2c0.7-4.9,0.1-9.8,0-14.6c-0.1-6.9-0.4-13.7-0.5-20.5c0-0.9,0.2-1.8,0.5-2.7c0.7-3.2,0.7-6.5-0.1-9.7
		c-0.7-2.3-0.9-5-1.5-7.4c0-0.2,0-0.5,0-0.7c0.4-3.4,0.5-7.1,1.2-10.7c0.5-2.6,0.2-5.3,0.5-7.7c0.1-2.3,0.2-4.5,0.5-6.9
		c0-0.5,0.1-1.1,0.1-1.8c0-3.9,0.1-8,0.1-11.9c0-0.4,0-0.7-0.1-1.2c-1.3-4.4-0.7-8.8-1.1-13.4c-0.2-3.1-0.5-6.1-0.7-9.2
		c-0.1-3.6-0.2-7.2-0.2-11c0-3.1,0.1-6.1-0.1-9.2c0-0.2,0-0.4,0.1-0.7c0.7-2.8,0.7-5.8,0-8.7c-0.1-0.7-0.4-1.5,0.4-2.3
		c1.1-1.1,0.9-2.3,0.2-3.6c-0.7-1.2-0.9-2.3,0.1-3.4c1.2-1.2,0.5-2.7,0.7-4.2c-0.5,0-0.9,0.1-1.3,0.1c-0.2-0.7-0.5-1.6,0.4-2.2
		c0.9-0.5,0.9-1.3,1.1-2.3c0.1-3.9,0.4-8.1,0.5-12.3C20,48,20,43.7,20,39.4c0-3.1-0.2-6.1-0.1-9.2c0.1-3.9,2.4-6.3,6.3-5.9
		c5.9,0.5,11.5-0.2,17.3-0.2c0.5,0,1.1,0,1.5-0.2c3.4-1.6,7.1-1.1,11-1.8c-1.5-0.4-2.4-0.7-4-1.1c0.7-0.4,0.9-0.7,1.2-0.9
		c2-0.4,3.9-0.9,5.9-1.2c0.7-0.1,1.6,0,2.3,0c1.5,0,2.8,0,4.3-0.1c0.2,0.7,0.1,1.2-0.7,1.5c-0.5,0.1-0.9,0.2-1.5,0.7
		c2.7,0.2,5.1,0.9,7.6,0.2c0.7-0.2,1.5-0.2,2.3,0c1.6,0.4,3.2,0.5,4.6-0.4c1.2-0.7,2.4-0.7,3.7-0.4c1.3,0.4,2.7,0.5,3.9,0.1
		c0.7-0.1,1.5,0,2.1,0c1.5-0.1,3.1-0.2,4.4-0.4c0.5,0,0.9-0.2,1.5-0.2c6.6-0.4,13.2-1.1,19.9-0.5c0.7,0.1,1.6,0,2.3,0
		c0.5,0,1.1-0.2,1.7-0.4c-0.1-0.7-0.1-1.3-0.2-1.8c0.1-0.1,0.2-0.4,0.4-0.4c2.3,0.1,4.3-0.5,6.2-1.5c1.3-0.7,3.2-0.2,4.8,0
		c2.8,0.5,5.5,0.2,8.1,0c1.3-0.1,2.7,0,4,0c1.3,0,2.4,0,3.9-0.2c1.3-0.2,2.3-0.2,3.4,0.7c-0.5,0.2-1.1,0.7-1.7,0.9
		c-2.3,0.1-4.4,0.1-6.7,0.2c-2.4,0-5.1-0.1-7.6,0c-0.5,0-1.1,0.2-1.6,0.7c0.7,0.1,1.7,0.7,2.3,0.4c1.6-0.4,3.1-0.1,4.4,0.1
		c3.2,0.5,6.2-0.4,9.2-0.5c2.7-0.1,5.5-0.1,8.1,0.1c1.7,0.1,3.3,0.2,5,0.2c0.7,0,1.5-0.4,2.9-0.7c-0.7-0.7-1.1-0.9-1.3-1.2
		c-0.1,0,0.1,0,0.2,0c1.5,0.7,2.9,0.7,4.4,0.2c0.5-0.1,1.1,0,1.7,0c1.1-0.1,2-0.2,3.1-0.5c1.2-0.2,2.3-0.7,3.7-0.9
		c0.2,0,0.7,0.4,1.1,0.5c1.6,0.7,3.2,1.3,5,2c-0.2-2.8-2.4-1.6-3.7-2.3c0-0.1,0.1-0.2,0.1-0.5c0.9,0,1.8-0.1,2.8-0.1
		c2.8,0,5.5-0.1,8.4-0.1c0.7,0,1.2,0.1,1.8,0.1c1.7,0.1,3.4,0.5,5.2,0.2c1.5-0.2,3.1,0.5,4.6,1.3c-2.3,0.2-4.4,0.5-6.6,0.7
		c1.8,0.7,3.9,0.7,5.6,0.1c2.7-0.7,5.2-0.7,8.1-0.1c2,0.5,4,0.4,6.2,0.5c0.7,0,1.5-0.1,1.7-0.7c1.6-2,3.9-1.5,5.5-1.2
		c2.9,0.4,5.5,0,8.3,0c2.3,0,4.8-0.2,7.1,0.5c0.7,0.2,1.6-0.1,2.3-0.1c2.1,0,4,0,6.2-0.1c2.4,0,4.9,0,7.4-0.1
		c4-0.1,8.1-0.9,12.2-0.2c1.6,0.2,3.2,0.7,4.8,0.7c2.9,0.2,6,0.1,8.8-0.2c3.2-0.4,6.2-1.3,9.4-2c1.3-0.2,2.7-0.4,3.9,0.2
		c0.7,0.2,1.6,0.2,2.3,0.1c2.7-0.2,5.2-0.5,7.8,0.4c1.1,0.4,2.3,0.2,3.3,0.2c5.5-0.2,10.7-0.7,16.4-1.1c0.9-0.1,1.8-0.4,2.8-0.5
		c1.2-0.1,2.3-0.4,3.5-0.1c3.1,0.7,6,0,9.2-0.2c0.7,0,1.5-0.2,2.1-0.2c3.5,0.1,7.1-0.7,10.6-1.5c3.3-0.5,6.6-0.7,9.9,0.1
		c3.9,1.1,7.6,1.2,11.6-0.2c0.9-0.4,2-0.1,3.1,0c2.4,0.2,5,0.5,7.4,1.1c4.3,1.1,8.3-0.4,12.3-0.1c1.8,0.1,3.7,0.1,5.5,0.2
		c1.5,0.1,3.1,0.5,4.4-0.4c0.4-0.2,1.1-0.1,1.6-0.1c2.9,0,5.9,0.2,8.7-0.9c0.7-0.2,1.5-0.2,2.1,0c3.4,0.9,6.8,0.7,10.2,0.9
		c1.8,0.1,3.7,0.1,5.5,0c2-0.1,3.9-0.7,5.5-1.8c1.2-0.9,2.4-0.9,3.9-0.2c3.3,1.3,6.7,1.8,10.2,1.5c0.7,0,1.5-0.1,2.1-0.1
		c4,0.1,8.3,0.2,12.7,0.5c0.4,0.5,1.1,1.3,1.6,2.3c0.5,0.7,0.7,1.8,1.2,2.9c0.5,0.1,1.6-0.1,1.7,1.1c0.1,0.7,0.1,1.6,0.1,2.3
		c0.5,0,1.3-0.1,1.6,0.1c0.5,0.7,0.9,1.5,1.1,2.3c0.2,1.1-0.1,2.3,1.3,3.1c0,0.4-0.2,0.9-0.1,1.3c1.2,3.4,1.8,6.9,2.1,10.4
		c0,0.1,0,0.1,0,0.2c1.7,2.9,0.5,6.1,0.4,9.2c0,1.1,0,2.2,0.1,3.1c0.4,3.4,0,6.9,1.2,10.1c0.1,0.4,0.2,0.9,0.1,1.1
		c-0.9,1.2-0.5,2.3-0.1,3.4c0.2,0.7,0.2,1.8,0.2,2.7c-0.2,2.7-0.1,5.4,0.1,8.1c0.1,2.2,0.7,4.2,0.7,6.3c0.1,1.6,0.1,3.2,0.2,4.9
		c0,0.5,0.1,1.1,0.2,1.6c0,1.8,0.1,3.8,0.1,5.5c-0.1,2-0.1,3.9,1.3,5.6c-1.3,2.3-1.1,5-0.7,7.6c0.4,2.3,0.2,4.9,0.5,7.2
		c0.1,1.8,0.4,3.4,0.5,5c0.1,1.8,0,3.9,0.1,5.8c0,1.1,0.2,2.3,0.4,3.4c0.2,1.3,0.5,2.7-0.1,3.9c-0.2,0.5-0.2,1.5,0.1,1.8
		c0.7,0.9,0.4,1.8,0,2.7c-0.2,0.7-0.5,1.8-0.1,2.3c0.9,2.3,0.5,4.7,0.5,7c0.1,6,0.2,12,0.2,18.1c0,4.9,0,9.8-0.4,14.6
		c-0.2,3.4,0,6.5,0.4,9.9c0.4,2.9,0.4,6,0.1,8.9c-0.4,3.9,0,7.6,0.9,11.4c0.4,1.8,0.5,3.6,0.2,5.5c-0.7,3.9-1.2,8.1-0.1,12.4
		c0.5,2.3,0.1,4.7,0.2,7.1c0.1,3.6,0.2,7.2,0.4,11c0,0.5,0.1,0.9,0.1,1.5c-0.7,3.4,0.4,6.9,1.3,10.1c0.4,1.6,0.5,3.2,0,4.9
		c-1.2,3.2-0.9,6.5-0.5,9.7c0.1,1.2,0.1,2.3,0.1,3.6c-0.1,2.9-0.2,5.9-0.2,8.7c0,0.9,0.1,2,0.4,2.9c1.5,4.2,1.3,8.3,1.1,12.5
		c-0.1,1.5,0.2,3.1,0.2,4.5c0.1,2.6,0.2,5,0.2,7.6c0,1.8,0,3.8-0.1,5.6c-0.1,2.3-0.4,4.5-0.7,6.9c-0.4,2.6-0.5,5-0.2,7.7
		c0.4,3.2,0.7,6.5-0.7,9.7c-1.3,3.1-0.7,6,0.7,8.9c0.7,1.5,1.2,2.8,0.9,4.4c-1.2,8-0.5,16.1,0,23.9c0,1.1-0.1,2-0.2,3.1
		c0,0.7-0.2,1.5-0.1,2.2c1.2,3.9,0.1,7.6-0.7,11.3c-0.7,3.9-1.2,8.1-1.5,12.4C484.7,409.8,485.2,411.2,485.7,412.3z M490.7,484.3
		c-0.1,0-0.4-0.4-0.4-0.4c0.1-0.2,0.4-0.4,0.5-0.5c0.1,0,0.2,0.2,0.5,0.4C491.1,484.1,491,484.3,490.7,484.3z"/>
	<path d="M487.2,88.2c0.1,0,0.2,0,0.4-0.1c-0.1-4.5-0.2-9.2-0.5-13.9c-0.2,0-0.4,0-0.7,0c0.1,4.3,0.1,8.6,0.2,12.9
		C486.8,87.4,487.1,87.8,487.2,88.2z"/>
	<path d="M487.2,71.7c0-3.2,0-6.5,0.1-9.7c-0.1,0-0.2,0-0.4,0c0,0.4-0.1,0.7-0.1,1.1c0.2,2,0.2,3.9-0.4,5.9
		C486.1,70,486.3,71,487.2,71.7z"/>
	<path d="M487.7,100.4c-1.2,0.7-1.1,1.5-0.5,2.7C487.4,102,487.5,101.4,487.7,100.4z"/>
	<path d="M486.7,57.3c0.1,0,0.2,0,0.4-0.1c-0.1-0.7-0.2-1.5-0.4-2.2c-0.1,0-0.2,0-0.5,0.1C486.3,55.9,486.3,56.7,486.7,57.3z"/>
	<path d="M487.1,51.6c-0.2-0.1-0.4-0.2-0.5-0.2c-0.1,0.2-0.2,0.4-0.2,0.7c0,0.1,0.2,0.2,0.5,0.4C486.8,52.1,486.8,52,487.1,51.6z"/>
	<path d="M13.3,196.5c-0.1,0-0.2,0-0.4,0c0,0.2,0,0.7,0.1,0.9c0.1,0,0.1,0,0.2,0C13.3,197.1,13.3,196.9,13.3,196.5z"/>
	<path d="M487.1,90.7c0.2,0,0.4,0,0.7,0c0-0.4-0.1-0.7-0.1-1.2c-0.1,0-0.4,0-0.4,0C487.1,89.9,487.1,90.4,487.1,90.7z"/>
	<path d="M33.2,422.4c0.4,0.4,1.3,0.4,2.1,0.5c0,0.7,0,1.3,0,2.2c-0.5-0.2-1.1-0.5-1.5-0.7c-0.1,1.8,0,2.3,0.5,3.1
		c0.1,0.2,0.4,0.5,0.4,0.9c0.1,2.2-0.2,4.4,0.5,6.5c0.1,0.2-0.1,0.7-0.1,1.1c-0.1,0-0.2,0-0.4,0c-0.4-1.3-0.7-2.8-1.2-4.2
		c-0.9,0.2-1.2,0.9-1.1,1.8c0.4,4.3,0,8.6-0.5,12.9c-0.7,5-0.7,10.1-1.2,15c-0.1,1.3,0,2.8,0.2,4.2c0.4,2.6,1.8,4.4,4.3,5.5
		c2.7,1.2,5.2,1.3,7.9,0.7c1.2-0.4,2.4-0.7,3.9-0.7c7.1-0.5,14.3-0.9,21.4-1.3c6-0.2,12.2-0.5,18.2-0.7c3.9-0.1,7.6,0.1,11.5,0.1
		c6.7,0.1,13.4,0.4,20.1,0.5c2.9,0,5.9,0,8.7,0.1c3.3,0,6.6,0.2,9.8,0c3.5-0.2,7.1-0.5,10.6-0.4c7.1,0.4,13.9,0.1,20.9,0.2
		c2.3,0,4.6,0.4,6.8,0.7c2.1,0.4,4.3,0.7,6.5,0.2c5.5-0.9,11.1-1.2,16.7-1.1c2,0,3.9,0.5,5.5,1.5c2.3,1.3,4.4,1.3,7.1,0.9
		c1.7-0.2,3.3-0.7,5-0.7c3.9-0.1,7.9-0.2,12-0.4c0.9,0,1.8,0.1,2.9,0.1c1.7,0.1,3.3,0.4,5,0.7c1.8,0.2,3.9,0.2,5.6,0.7
		c4.9,1.1,9.8,0.9,14.5-0.4c1.8-0.5,3.4-0.4,5.1-0.1c2.4,0.5,5,0.4,7.6-0.1c2.1-0.5,4.4-0.5,6.6-0.7c2.3-0.1,4.8-0.1,7.1-0.2
		c0.5,0,1.2,0,1.3-0.4c0.9-1.8,2.4-1.2,3.9-1.3c1.2,0,2.3-0.1,3.4-0.4c1.7-0.4,3.4-0.5,5.2-0.5c0.9,0,2.3,0.4,2.4,0.9
		c0.7,2,2.3,1.6,3.7,1.6c2.9,0,5.9-0.2,8.7-0.4c2.1-0.1,4.3-0.5,6.2-0.1c4.9,0.9,9.6-0.1,14.5,0c3.9,0.1,7.9-0.2,11.8-0.1
		c5.5,0.1,10.7,0.7,16.1,0.9c0.7,0,1.6,0,2.3,0c5.5,0,11.1,0,16.5,0c0.4,0,0.7,0.1,1.2,0.1c1.6,0,3.1,0.1,4.6,0.1
		c3.3-0.1,6.7,0.1,10,0.5c1.3,0.1,2.9,0.7,3.9-0.9c0.1-0.1,0.4-0.4,0.5-0.4c2,0.2,4-0.4,6,0c1.8,0.4,3.9,0.9,5.2-1.1
		c0.2-0.4,1.1-0.5,1.6-0.4c2.3,0.4,4.6,0.2,6.8-0.7c0.2-0.1,0.7-0.1,0.9-0.1c2.3,0.1,4.4,0.5,6.6,0.2c1.7-0.1,3.4,1.2,5-0.2
		c0.1-0.1,0.2,0,0.4,0c1.8,1.2,3.9,0.7,5.6,0.5c1.7-0.1,3.9-0.7,5.1,1.6c0.7-1.8,1.7-3.1,3.5-2.9c3.3,0.4,6.7-0.7,9.8,1.3
		c0.1,0.1,0.2,0,0.5,0c3.1,0.5,6.2,0.9,9.2,1.6c3.5,0.7,6-0.4,8.1-3.4c0.5-0.7,1.1-1.5,1.5-2.3c0.9-1.8,2.1-3.6,1.5-6.1
		c-1.3,0.1-2.1-0.5-2.4-1.8c-0.4-1.3-1.3-2.3-0.7-3.9c0.1-0.2-0.1-0.7-0.2-0.9c-1.1-2.2-0.7-4.3-0.5-6.5c0.2-2.2,0.1-4.2,0.1-6.3
		c0-0.5,0-0.9,0-1.5c0-2.9,0-6,0-8.9c0-2-0.2-3.9-0.1-6c0-2.6,0.4-5.3,0.4-7.7c0.1-2.9,0.1-6,0.2-8.9c0-3.1-0.1-6.1-0.1-9.2
		c0-1.3-0.1-2.7-0.1-4.2c0.1-4.2,0.7-8.3,0.4-12.4c-0.1-2.2,0.1-4.2,0.5-6.1c0.4-2,0.5-4.2,0.7-6.3c0.2-2,0.7-3.9,1.1-5.9
		c0-0.2,0.1-0.5,0-0.7c-0.9-1.3-0.2-2.8-0.2-4.2c0-1.2-0.5-2.3-0.7-3.6c-0.2-3.4-0.5-7-0.7-10.4c0-0.7-0.1-2,0.4-2.6
		c1.1-0.9,0.7-2,0.7-3.2c0-1.1-0.1-2.2-0.1-3.2c-0.1-1.3-0.1-2.7-0.2-3.9c-0.2-0.2-0.1-0.4,0-0.7c1.3-1.8,1.3-1.8,0.1-3.6
		c-0.5-0.7-0.7-1.8-0.5-2.8c0.2-1.5,0.7-2.8,1.2-4.2c0.2-0.7,0.7-1.6,0.5-2.3c-0.5-1.8-0.1-3.4,0.1-5c0.2-1.2,0.7-2.3,0.9-3.4
		c0.1-3.2,0-6.5,0-9.7c0.1-0.2,0.1-2.2,0-3.9c0-0.9,0-1.8-0.1-2.7c-0.1-3.4-0.2-6.9-0.4-10.2c0-0.2,0-0.5,0.1-0.7
		c0.5-1.6,0.1-3.1-0.9-3.9c0.2-0.9,0.7-1.8,0.5-2.2c-1.1-1.6-0.4-3.2-0.5-4.7c-0.1-1.2-0.7-2.8-0.4-3.8c1.1-2.2,0-4.2-0.1-6.1
		c-0.2-3.1-0.9-6.1-0.5-9.2c0.2-2.3-0.4-4.7,0-7c0-0.2-0.1-0.7-0.1-0.9c-0.1-1.3-0.4-2.7-0.4-3.9c0-1.2,0.5-2.8,0.2-3.9
		c-0.2-1.5-0.4-2.8-0.2-4.3c0.2-3.9,0.2-8.1,0.2-12.3c0-1.1-0.2-2.2-0.4-3.1c-0.2-1.8-0.7-3.4,0.2-5c0.4-0.5,0.5-1.2,0.4-1.8
		c-0.1-2.6-0.2-5-0.4-7.6c0-1.1-0.1-2.2-0.1-3.2c-0.1-3.2,0-6.5,0.2-9.8c0.2-3.6-0.1-7.2-0.1-11c0-0.9,0.1-2-0.1-2.9
		c-0.4-1.8-0.9-3.4-0.2-5.3c0.1-0.5,0.1-1.2-0.1-1.6c-1.1-1.8-0.9-3.9-0.7-5.9c0.1-0.7,0-1.6-0.1-2.3c-0.5-2.6-1.1-5-0.9-7.6
		c0.1-2.3,0-4.5-0.4-6.6c-0.4-2-0.4-3.9-0.1-5.8s0.2-3.4-0.2-5.4c-0.5-1.8-0.5-3.6-0.7-5.5c-0.2-2.7-0.4-5.4-0.5-8.1
		c-0.2-2.9-0.5-5.9-0.7-8.7c-0.1-1.5,0.2-2.3,1.8-2.9c-1.8,0.4-2-0.7-2.3-1.8c-0.2-1.1-0.5-2.3-0.5-3.4c-0.2-3.1-0.5-6.3-0.7-9.3
		c-0.1-1.6-0.1-3.2-0.1-4.9c-0.1-2.3-0.2-4.7-0.2-7c0-1.8,0.2-3.9,0.2-5.8c0-2.9-0.2-5.8-0.2-8.7c0-3.1,1.1-6,0.5-9.2
		c0-0.2,0-0.5,0.1-0.7c1.1-2.3,1.2-4.9,1.1-7.4c0-0.7,0.4-1.2,1.3-1.2c1.1,3.2,1.2,6.3-0.5,9.3c0.5,1.5,1.1,2.9,0.1,4.5
		C469,63,469,63.5,469,64c0.2,3.4,0.5,7,0.9,10.4c0.4,3.8,0.7,7.4,0.4,11.2c0,0.7,0.2,1.5,0.2,2.3c1.3-2.3,1.1-4.7,0.9-7.2
		c-0.2-2.7-0.4-5.5-0.2-8.1c0.2-4.3,0.9-8.5,0.9-12.6s-0.5-8.3-0.9-12.5c-0.1-0.7-0.5-1.6-0.7-2.7c-0.7,1.1-0.5,2.6-2.3,2.8
		c-0.1-0.7-0.5-1.3-0.4-2c0.5-2.2-0.4-3.6-1.8-5.4c2.4-0.5-0.5-2.6,1.1-3.4c0.7,0.5,1.2,0.9,2.3,1.8c-0.2-1.2-0.2-2-0.5-2.7
		c-1.2-2.8-2.3-5.8-3.7-8.6c-0.2-0.7-0.7-1.3-1.3-1.6c-2.3-1.1-4.6-1.8-7.1-1.1c-2.1,0.7-4.3,0.7-6.3,0.7c-3.2,0.1-6.2,0.2-9.2,0.7
		c-1.7,0.2-3.3,0.5-4.9-0.1c-2-0.7-3.9-0.4-5.9,0.5c-1.3,0.7-2.4,0.4-3.9-0.1c0.7-0.2,1.6-0.4,2.4-0.7c-1.5-0.4-2.9-0.7-4.3-0.2
		c-1.7,0.4-3.3,0.4-5,0.2c-1.5-0.1-3.1-0.2-3.4,1.8c0,0.2-0.7,0.4-1.2,0.7c-0.2-0.7-0.5-1.2-0.9-2.2c-0.7,1.2-2.4-0.4-2.7,1.8
		c0,0.1-0.4,0.2-0.5,0.2c-1.3,0.4-2.8,0.7-4,1.3c-2,0.7-3.9,1.1-6,0.5c-0.9-0.2-1.6-0.2-2.4,0c-0.7,0.2-1.3,0.4-2.1,0.4
		c-1.5,0-3.1-0.2-4.4-0.1c-3.9,0.2-7.9,0.7-11.8-0.2c-1.1-0.2-2-0.5-3.1-0.7c-0.1,0-0.1-0.2-0.2-0.4c0.4-0.4,0.7-0.9,1.3-1.8
		c-1.5-0.1-2.4-0.2-3.4-0.1c-0.5,0-1.3,0.4-1.6,0.7c-0.5,1.2-1.3,2-2.7,2.2c-1.2,0.1-2.4,0.2-3.5-0.1c-1.5-0.5-2.9-0.5-4.4-0.4
		c-1.7,0.1-3.3-0.4-5-1.2c1.8-0.9,3.3-1.3,4.9-1.2s2.1-0.1,2.7-1.8c-0.4,0.1-0.7,0.1-0.9,0.2c-3.2,1.1-6.3,1.5-9.6,1.2
		c-3.1-0.2-6.2-0.1-9.4-0.1c-0.7,0-1.7,0-2.3,1.2c2.4-0.1,4.6-1.1,7.1-0.2c-0.4,0.5-0.7,0.7-1.3,0.7c-1.3,0.2-2.8,0.4-4.3,0.5
		c-3.3,0.4-6.5,1.1-9.8,1.3c-2.4,0.2-5.1,0.2-7.6,0.2c-0.7,0-1.5-0.1-2.1-0.1c-2,0-4-0.4-6,0c-2.7,0.4-5,0.4-7.6,0.1
		c-2.9-0.4-5.6-0.7-8.7-0.7c-2.3,0-4.8,0.9-7.2,0.7c-3.5-0.1-7.1,0.1-10.7,0c-3.1,0-6-0.1-9-0.2c-0.4,0-0.7,0.2-1.2,0.2
		c-1.1,0.1-2.1,0.5-3.3,0.4c-2.1-0.1-4-0.5-6.2-0.5c-4.3-0.2-8.4-0.9-12.7-0.7c-4.9,0.2-9.8,0.1-14.6,0.2c-1.8,0-3.7-0.1-5.5,0
		c-4.9,0.4-9.8,0.7-14.6,1.2c-1.2,0.1-2.3,0-3.5,0c-0.7,0-1.3,0-1.8,0c-1.5,0.1-2.9,0.2-4.3,0.2c-2,0.1-3.9,0.2-6,0.2
		c-4,0.1-8.3,0.5-12.3,0.4c-4,0-8.2-0.5-12.2,0.1c-1.1,0.1-2.1,0.1-3.2,0.1c-2.8,0-5.5-0.5-8.2,0.2c-0.5,0.1-1.3,0-1.8,0
		c-0.7,0-1.6,0-2.3,0c-2.4,0.2-4.9,0.7-7.4,1.1c-1.1,0.1-2,0.7-2.9,0.7c-4.9-0.1-9.8,0.7-14.5-0.1c-0.7-0.1-1.7-0.1-2.3,0.1
		c-0.7,0.2-1.5,0.1-2.3-0.1c-2.1-0.5-4-1.3-6.3-0.4c-0.9,0.4-2.3,0.2-2.9-1.2c0.7-0.1,1.5-0.4,2.3-0.4c1.5,0,3.1,0.2,4.4,0.2
		c4.4,0.1,8.8,0.4,13.2,0.1c6.2-0.2,12.3-0.9,18.5-1.3c1.5-0.1,2.8-0.2,4.3-0.4c-4.4-0.5-9-0.7-13.3-0.7c-6,0.1-11.8,0.4-17.8,0.7
		c-2.1,0.1-4.4,0.2-6.5,0c-3.7-0.4-7.4-0.4-11,0.1c-0.1,0-0.2,0.1-0.4,0.2c0.1,0.2,0.2,0.7,0.5,1.3c-0.7-0.4-1.2-0.5-1.6-0.7
		c-0.4-0.2-0.7-0.5-1.3-0.9c-0.5,0.7-0.7,1.3-1.1,1.6c-1.6,0-3.1-0.1-4.4,0c-2,0.2-3.9,0.7-6,1.1c-2.3,0.2-4.4,0.9-6.8,0.2
		c-0.7-0.2-1.7,0.2-2.4,0.2c-1.5,0.1-3.2,0.7-4.4,0.2c-2.6-1.2-4.8-2-7.1-2.2c-1.1,0-2.3-0.2-3.3-0.2c-2.7,0-5.2,0.5-7.9,0.2
		c-5-0.4-10.1,0-14.9-1.8c-0.4-0.1-0.7-0.1-1.2-0.1c-2.8,0.5-5.6,1.2-8.4,1.8c-0.2,0-0.4,0.1-0.7,0.2c-1.1,0.4-2.1,0.7-3.2,1.2
		c-0.9,0.4-1.8,0.7-2.7,1.2c-0.1,1.6,0.1,3.1-0.4,3.9C39,39.3,39,40.2,39,41.1c0.1,1.8,0.4,3.9,0.5,5.8c0,0.5,0.1,1.1,0,1.8
		c-0.4,3.8-0.7,7.6-1.1,11.4c0,0.7,0.1,1.5,0,2.2c0,1.6-0.1,3.2-0.1,4.9c0,0.4-0.1,0.7,0,1.2c0.2,4.4,0.7,8.7,0.7,13.1
		c0.2,5.3,0.4,10.4,0.7,15.6c0.1,1.8,0.1,3.9,0,5.8c-0.2,3.6-0.7,7.2-0.9,11c-0.1,1.1-0.7,2-0.5,3.1c0.2,3.9,0.9,7.7-0.1,11.5
		c0,0.2-0.1,0.5,0,0.7c0.7,2-0.1,3.9-0.2,6c-0.2,5.5-0.5,11-0.7,16.5c-0.2,12-0.2,24.3-0.4,36.4c0,1.3,0.2,2.6,0.4,3.9
		c0.1,1.1,0.5,2.2,0.5,3.4c-0.1,7.1-0.5,14.3-0.7,21.5c0,7.2,0.2,14.5,0.4,21.8c0.1,5.6,0.2,11.4,0.4,17c0,1.3-0.1,2.6-0.2,3.9
		c-0.4,4.3-0.9,8.7,0.7,12.9c-0.4,2.8,1.1,5.4,1.2,8.1c0.1,3.8-0.4,7.6-0.7,11.4c-0.2,2.6-0.7,5-0.9,7.6c-0.1,1.8-0.2,3.8-0.4,5.5
		c-0.1,1.1-0.2,2-0.4,3.1c0,0.2-0.1,0.4-0.2,0.7c-0.5-0.2-1.2-0.5-1.8-0.9c-1.2,2.8-0.5,5.4-0.5,8.1c0.2,0,0.4,0,0.7,0.1
		c0.2-1.2,0.5-2.3,0.7-3.9c0.7,2.3,0.5,4.5,0,6.6c-0.1,0.5-0.1,1.1-0.1,1.8c0.1,3.1-1.7,5.9-0.7,9.2c0,0.1,0,0.2-0.1,0.4
		c-0.7,1.6-0.7,3.4-0.5,5c0.1,1.5,0,2.9-0.1,4.4c-0.4,2.6-0.2,5,0.7,7.4c0.7,1.5,0,2.6-1.6,3.1c-0.4,0.1-0.7,0.5-1.3,0.7
		c0.2,0.2,0.4,0.5,0.5,0.4c0.5,0,1.1-0.1,1.6-0.1c0.9-0.1,1.5,0.4,1.2,1.3c-0.2,0.9-0.5,1.8-0.7,2.8c1.1,0.5,2.1,1.3,1.5,2.6
		c-0.7,1.8-0.7,3.4-0.4,5.3c0.1,0.7,0.2,1.3,0.1,1.8c-0.5,1.3-0.1,2.6,0,3.9c0.2,3.8,0.5,7.6,0.7,11.4c0,0.1-0.1,0.2-0.1,0.5
		c-0.5,4.3-0.7,8.7-0.7,13c0.1,7.2,0.5,14.5-0.7,21.5L33.2,422.4z M355.6,27c-0.2,0.5-0.2,1.1-0.5,1.2c-1.5,0.7-2.8,0.1-4-0.5
		C352.5,26.6,353.9,27.1,355.6,27z M122.5,32.4c-0.7-0.1-1.3-0.2-2-0.5C121.2,31.2,121.9,31.8,122.5,32.4z M48.8,442.4
		c1.3-0.4,1.7,0.1,2.1,1.5C49.9,443.3,49.5,442.9,48.8,442.4z M102.6,457c-0.2,0-0.7-0.4-0.9-0.7c1.2-0.4,2.3-0.9,3.9-0.1
		C104.5,456.5,103.6,456.9,102.6,457z M118,455.7c-1.5-0.1-2.9-0.4-4.4-0.4c-1.6,0-3.1,0.2-4.6,0.5c0-0.2-0.1-0.4-0.1-0.7
		c0.4-0.2,0.9-0.7,1.3-0.7c2.7,0.1,5.1,0.4,7.8,0.7C118,455.3,118,455.5,118,455.7z M120,455.7c1.6,0,3.3,0,4.8,0
		C122.8,456.8,121.5,456.9,120,455.7z M132.2,455.5c-0.7-0.2-2,0.2-2.9,0.4c0-0.2,0-0.4,0-0.7c2.7-0.2,5.5-0.5,8.1-0.7
		C135.5,455.2,134.2,456.1,132.2,455.5z M139.7,454.4c2.1-1.1,4.3-0.9,6.3,0C143.8,454.4,141.7,454.4,139.7,454.4z M190.6,458.6
		c-2.7-0.4-5.1-1.7-7.6-2.5c-0.2-0.1-0.7-0.2-0.9-0.2c-2.9-0.1-5.9-0.4-8.7-0.5c-2.1-0.1-4-0.2-6.2-0.4c-0.1,0-0.4-0.2-0.7-0.5
		c2.1-0.7,4-0.4,6-0.2c3.3,0.2,6.5,0.7,9.8,0.9c0.2,0,0.7,0,0.9,0.1c2.3,1.6,5.2,1.3,7.8,2c1.3,0.4,2.8-0.1,4.3,0
		c0.7,0,1.2,0.2,2.3,0.5C194.9,459.3,192.6,459,190.6,458.6z M47.4,415.1c0.2-3.4,0.5-6.9,0.2-10.2c-0.2-2.3,0.1-4.9,0.1-7.2
		c-0.2-6.5,1.2-13,0.1-19.5c-0.2-1.8,0-3.8,0.1-5.6c0.2-3.1,0.2-6.1-0.2-9.2c-0.2-1.6,0-3.4,0-5c-0.1-3.6,0.7-7.2,0.2-10.8
		c-0.4-2.8-1.1-5.5-1.2-8.3c-0.1-2.3-0.2-4.7,0.9-7c0.4-0.7,0.5-1.8,0.4-2.8c-0.1-3.4,0-7-0.7-10.4c-0.5-2.9-0.1-5.8,0.2-8.7
		c0.1-0.7,0-1.6-0.1-2.3c-0.1-1.1-0.2-2.3-0.2-3.4c0.2-3.4,0.1-6.6-0.4-10.1c-0.2-1.6,0.4-3.2,0.2-4.9c-0.1-2.7,1.3-5.3,0.7-8.1
		c-0.2-1.3,0.1-2.8,0.2-4.7c-0.9-1.2-1.2-3.1-1.1-5.3c0.1-1.3,0-2.8,0-4.2c0-2.3,0-4.9,0-7.2c0-1.1-0.1-2.3-0.2-3.4
		c-0.5-3.9-1.2-8-0.7-11.9c0.1-0.7,0.1-1.6,0.5-2c1.2-1.3,1.2-2.8,1.2-4.3c-0.1-7.6-0.4-15.3-0.5-22.9c-0.1-4.7-0.1-9.2-0.2-13.9
		c0-0.7,0-1.5-0.1-2.2c-1.2-5.4-0.7-10.8-0.7-16.4c0.1-8.6,0.2-17,0.2-25.6c0-1.1-0.1-2.3-0.2-3.4c-1.2-6-0.7-11.9-0.7-18
		c0-0.4,0.1-0.7,0.1-1.2c0-6.6,0.1-13.4,0.1-20c0-3.4-0.4-6.9-1.6-10.1c-0.2-0.7-1.1-1.6-1.7-2.3c-0.9-0.7-1.3-1.8-0.9-2.8
		c1.5-2.9,1.2-6.1,1.2-9.3c-0.1-7.2,0.2-14.5,0.5-21.8c0.1-3.2,0.2-6.5,0.1-9.7c-0.1-2.3,1.1-4.3,1.3-6.5c0.1-1.1,0.4-2,0.5-3.1
		c0.1-1.5,0.7-2.3,2.1-2.9c1.2-0.5,2.1-1.5,3.3-1.8c1.6-0.5,3.4-1.2,5-1.2c4.3,0,8.2-1.1,12.3-2c2.1-0.5,4.3-0.7,6.3-0.7
		c2.3,0.1,4.4-0.1,6.7-0.4c2.1-0.2,4-0.4,6.2,0.1c3.5,0.9,7.1,0.7,10.7,0.5c1.6,0,3.2,0,4.8,0.7c0.7,0.4,1.7,0.5,2.4,0.5
		c1.2,0,2.1,0.1,3.2,0.9c0.5,0.4,1.5,0.5,2.3,0.4c3.9-0.7,7.6-0.7,11.3-0.1c0.7,0.1,1.5,0,2.1-0.2c1.2-0.4,2.3-0.9,3.4-0.7
		c0.4,0.1,0.9,0,1.2-0.2c1.7-1.8,4-0.7,6-1.5c0.1,0,0.4,0.1,0.7,0.2c-0.7,0.5-1.5,0.7-2.3,1.5c2.3,0.5,3.9-0.1,5.5-0.7
		c1.6-0.5,3.3-0.7,5.5-1.3c1.3,0.2,3.3,1.2,5.5,0.2c0.4-0.1,0.9,0,1.5,0.1c5.9,0.4,11.6,0.9,17.4,1.3c1.6,0.1,3.3-0.2,5-0.4
		c0.1,0.1,0.2,0.2,0.4,0.4c-0.5,0.2-1.1,0.4-1.7,0.7c2.7,2.6,3.9,2.6,7.1,0.7c-0.2-0.7-0.7-1.3-1.1-2.3c2-0.1,3.7-1.3,5.9-0.2
		c-1.5,0.2-2.4,0.7-3.7,0.9c2,0.5,3.5,2.3,5.6,1.8c0.2-0.7,0.5-1.2,0.7-1.8c-0.2-0.2-0.7-0.7-1.1-1.2c0.2-0.2,0.4-0.5,0.7-0.5
		c0.4-0.1,0.7-0.2,1.2-0.1c4.8,1.3,9.8,0.4,14.5,0.5c2.3,0,4.4,0.2,6.6-0.1c2.3-0.4,4.9,0.1,7.2,0.2c2.1,0.1,4,0.2,6.2-0.2
		c1.5-0.4,3.2-0.4,4.6,0c2,0.4,3.9,0.4,5.6,0.1c2-0.4,3.9-0.7,6,0.2c-0.1,0.4-0.1,1.1-0.2,1.6c-0.5-0.1-1.1-0.1-1.5-0.2
		c-0.7-0.5-1.3-0.2-1.8,0.4c1.7,1.8,3.7,1.8,5.9-0.1c0.9-0.9,1.8-1.6,3.1-1.6c2.1-0.1,4.3-0.1,6.5-0.1c0.4,0,0.9,0.5,1.3,0.7
		c5.5,0.5,10.4-2.3,16-1.8c0.1,0.5-0.4,2,1.6,2c0-0.5,0-1.2-0.1-2c1.1-0.1,2.1-0.4,3.2-0.4c2.3,0,4.6,0,7.1,0c0.2,0,0.5,0.1,0.7,0
		c2.8-1.1,5.9-1.1,8.7-1.1c0.7,0,1.2,0,1.8,0c0.5,0,1.1,0.2,1.5,0.1c2.7-0.7,5.2-0.1,7.9-0.2c2.4-0.1,4.9-0.4,7.4-0.5
		c1.2-0.1,2.3-0.2,3.4,0.4c0.7,0.4,1.7,0.2,2.4,0.2c2.3-0.2,4.4-0.4,6.8-0.1c3.1,0.2,6-0.2,9.2-0.5c0.5,0,0.9-0.1,1.5-0.1
		c3.4,0,6.8,0.1,10.2,0.1c1.8,0,3.9-0.4,5.6-0.5c0.7,0,1.6,0.1,2.4,0.1c-0.1,0.7-0.2,1.1-0.2,1.2c1.3-0.2,2.7-0.7,3.9-0.7
		c2.4-0.1,5.1,0.1,7.6,0.1c4.4,0.1,8.8,0.2,13.2,0.4c1.2,0,2.4-0.2,3.3,1.3c0.4,0.7,2.3,0.5,3.2-0.4c0.7-0.7,1.5-0.7,2.3-0.7
		c3.3,0,6.5-0.2,9.8-0.1c3.3,0.1,6.7-0.7,9.9-0.5c2.4,0.1,4.9,0.2,7.4,0.2c1.6,0,3.2,0,4.6-0.9c0.2-0.1,0.7-0.2,1.1-0.1
		c2.7,0.4,5.1,0.1,7.6-1.3c2.9-1.8,6.2-1.8,9.5-0.9c0.4,0.1,0.7,0.4,0.9,0.7c0.9,1.6,2.3,1.3,3.5,0.7c0.5-0.2,1.2-0.4,2-0.7
		c0.2,2.3,1.8,3.1,3.9,3.2c0.9,0,2,0.2,1.8,2c-0.1,1.3,1.3,1.5,2.4,2c0.4-0.9,0.7-1.8,0.9-2.7c1.6,1.8,3.2,3.4,4.6,5
		c0.2,0.4,0.5,0.7,0.5,1.3c0.9,5.4,1.7,10.8,2.4,16.1c0.1,0.7,0.1,1.5,0.1,2.2c-0.1,5.9,0.2,11.8,0.7,17.7c0.4,4.4,0.7,8.7,1.1,13.1
		c0.2,2.8,0.7,5.5,1.1,8.1c0.1,0.7,0.2,1.5,0.1,2.2c-0.7,2.9-0.2,5.8,0.4,8.7c0.2,0.9,0.1,1.8,0,2.8c-0.4,1.6-0.2,3.2-0.4,4.9
		c-0.1,2.2-0.1,4.2-0.1,6.3c0,0.2-0.1,0.5,0,0.7c1.2,1.3,0.7,3.1,1.2,4.5c0.9,2.8,0.2,5.6-0.1,8.5c-0.5,3.8-0.2,7.4,1.1,11
		c0.2,0.7,0.7,1.3,1.2,2.2c-0.7,3.2-1.6,6.3,0.9,9.2c-0.5,1.8-0.5,3.4-0.2,5.4c0.4,3.8,0.7,7.6,0.7,11.4c-0.1,2.8-1.2,5.5-1.6,8.3
		c-0.2,1.8-0.5,3.6-0.1,5.4c0.4,1.8,0.4,3.8,0,5.5c-0.9,3.9-1.2,8.1-0.1,12c0.5,2.3,0.4,4.9-0.4,7c-0.9,2.3-0.7,4.7-0.2,7
		c0.7,3.2,0.1,6.3-0.2,9.3c-0.2,2.2-0.2,4.2,0.4,6.3c0.5,1.8,0.4,3.4,0.1,5c-0.2,1.3-0.4,2.8,0.1,3.9c0.7,2,0.7,3.9,1.2,6
		c0.2,1.2,0.1,2.3,0,3.6c-0.4,2.7-0.7,5.4-0.1,8.1c0.5,2.6-0.1,5-0.2,7.7c-0.1,1.8,0.1,3.9,0.4,5.8c0.1,1.8,0.5,3.4,0.5,5
		c0.1,3.1,0.2,6.1,0.4,9.2c0.1,2.2,0.4,4.3,0.4,6.5c0,1.2-0.4,2.6-0.4,3.8c-0.1,3.2-0.1,6.3-0.2,9.6c0,1.1-0.2,2.2-0.4,3.1
		c-0.5,2.9-1.1,5.9-1.5,8.8c-0.2,1.5-0.1,1.5,1.1,2.7c-0.7,2.3-0.7,4.9-0.2,7.4c0.7,2.8,0.7,5.6,2,8.1c0.2,0.4,0.1,1.1,0,1.6
		c-0.4,2.3-1.1,4.4-1.3,6.6c-0.1,1.2,0.4,2.6,0.5,3.8c0.2,1.1,0.5,2.2,0.7,3.2c0.2,1.8,0.2,3.9,0.5,5.8c0.1,0.9,0.7,1.8,1.1,2.7
		c-1.2,1.1-1.6,2.6-1.7,4.3c-0.2,3.1-0.2,6.1,0,9.2c0,0.5,0,1.1-0.1,1.8c-0.4,3.4-0.1,6.6,1.3,9.9c0.2,0.5,0.4,1.2,0.5,1.8
		c0.9,7,0.5,13.9,0,21c0,0.5-0.2,1.1-0.4,1.6c-0.1,0.2-0.2,0.7-0.2,0.9c1.3,2.3,0.4,4.7,0.7,7.1c0.2,2.2,0.7,4.3,0.7,6.5
		c0.1,1.5,0,2.9-0.4,4.3c-0.5,1.8-0.5,3.4,0.4,5c1.1,0.9,1.2,2.2,0.7,3.6c-0.5,1.8-0.7,3.6-0.7,5.5c0,0.9-0.4,1.8-1.2,1.8
		c-2.3,0.4-3.5,2.3-5.1,3.6c-0.2-0.1-0.5-0.1-0.7-0.1c-2.8-0.7-3.3-0.7-4.9,1.6c-1.1,1.5-1.3,1.6-3.1,1.1c-1.8-0.5-3.4-0.1-4.8,1.2
		c-0.4,0.4-0.9,0.5-1.3,0.7c-0.5,0.2-1.1,0.5-1.7,0.7c-0.4,0.1-0.7,0.2-1.2,0.4c-2.4,0.1-5.1,0.5-7.6,0.1c-1.7-0.2-3.3-0.7-5.1-0.1
		c-0.4,0.1-1.2-0.4-1.7-0.7c-1.2-0.7-2.3-0.9-3.5-0.1c-1.7,1.1-3.5,0.7-4.9-0.2c-1.8-1.3-3.4-1.5-5.2-0.1c-0.1,0.1-0.2,0-0.5,0.1
		c-1.1-1.1-2.3-1.8-3.9-1.2c-0.2,0.1-0.5-0.1-0.7-0.2c-2-1.1-3.9-2.3-6.2-3.4c-0.2,0.5-0.5,1.2-1.1,1.6c-0.4,0.4-1.1,0.7-2,1.2
		c0,0.2-0.1,0.9-0.2,1.6c-0.2,0-0.5,0.1-0.7,0.1c-1.3-0.1-2.4-0.5-3.9-0.7c-0.7-0.1-1.7,0.2-2.4,0c-0.7-0.2-1.5-0.9-2-1.2
		c-1.6,0.7-2.8,1.5-4.3,2c-0.9,0.4-2,0.4-3.3,0.7c0.7-1.8,2.3-2.9,0.7-4.4c-2.9,0.5-2.8,2.9-2.7,5.3c-2.3,0.4-4.4,0.9-6.5-0.1
		c-0.2-0.1-0.5-0.1-0.7-0.1c-2.3,0.7-4.6,0.2-6.8-0.4c-1.2-0.4-2.4-0.1-3.7,0.1c-1.1,0.2-1.8-0.1-2.7-0.7c-1.2-1.1-2.3-1.2-3.9-0.7
		c-1.2,0.5-2.7,0.2-3.9,0.2c-1.3,0-2.7-0.2-3.9-0.4c-0.1,0-0.4,0-0.4-0.1c-1.3-1.8-2.8-1.3-4.4-0.2c-0.2,0.2-0.7,0.2-1.2,0.1
		c-1.5-0.5-2.8-0.4-4.3-0.2c-0.4,0-1.2-0.1-1.3-0.5c-0.5-1.2-1.6-0.7-2.4-0.9c-2.1-0.7-4.3-0.5-6.3,0.2c-0.1,0-0.4,0.1-0.5,0
		c-2-0.7-3.7-0.4-5.6,0.4c-1.2,0.5-2.9-0.2-4.4-0.4c-0.4,0-1.1-0.2-1.2,0c-0.9,1.6-2.8,1.2-4,2.2c-1.7,1.2-3.9,1.6-5.5-0.4
		c-0.2-0.4-0.9-0.7-1.5-0.7c-1.8,0-1.8,0.1-3.1-0.7c-0.2,0-0.4,0.1-0.7,0.1c-1.6,0.7-2.7,0.5-4.3,0.1c-0.7-0.2-1.7,0.2-3.1,0.5
		c-0.4-0.1-1.3-0.2-1.7-0.7c-1.2-1.3-2.4-1.1-3.5-0.1c-1.3,1.1-2.4,0.7-3.4-0.1c-1.1-1.1-2.3-0.9-3.5-1.1c-0.7-0.1-1.7,0.7-2.3,1.5
		c-0.7,0.1-1.6,0-2.3,0.2c-1.5,0.7-2.9,0.5-4.4-0.2c-2.3-1.2-4.8-1.8-7.4-2c-0.7,0-2,0-2.4,0.5c-1.7,1.8-3.5,0.9-5,0.2
		c-1.8-0.7-3.3-1.1-5.2-0.7c-1.6,0.4-3.4-0.1-5.1-0.1c-1.5-0.1-2.9-0.1-4.4-0.2c-0.5,0-1.1-0.4-1.6-0.5c0-0.1,0-0.4,0.1-0.5
		c0.5-0.1,1.2-0.2,1.7-0.2c2.8-0.1,5.5-0.1,8.3-0.2c0.9,0,2-0.4,3.2-0.7c3.1,1.3,10.4,1.8,13.1,0.1c-1.8-0.4-3.4-0.9-5-0.9
		c-3.7-0.1-7.6,0-11.2,0.1c-0.5,0-1.1,0.2-1.5,0c-2.3-1.2-4.8-0.5-7.1-0.7c-3.3-0.2-6.5,0.4-9.5,1.6c2.1,0.7,4.6-0.9,7.1,1.1
		c-2.3,0.2-4,0.2-6,0.1c-2.8-0.2-5.5-0.2-7.9,0.9c-0.5,0.2-1.3,0.4-1.7,0.2c-2.1-0.9-4.3,0.1-6.3,0.2c-1.2,0.1-2.3,0.7-3.4,0.7
		c-1.3,0.1-2.4,0.1-3.9,0.1c-1.3,0-2.4,0.7-3.9,0.4c-0.7-0.2-1.8,0.5-2.8,0.7c-0.7-1.2-1.3-2.7-2.3-3.4c-1.1-0.7-2.4-0.7-3.9-0.9
		c-0.5-1.1,0.7-1.2,1.5-2.2c-1.5-0.1-2.4-0.4-3.5-0.2c-4.4,0.4-8.4-0.5-12.7-1.1c-3.1-0.4-6-0.5-9.2-0.7c-1.8-0.1-3.9-0.2-5.6-0.2
		c-1.2,0-2.3,0.2-3.5,0.2c-3.4,0-6.8-0.1-10.2-0.1c-7.4-0.1-14.9-0.5-22.2-0.5c-5.5,0-11.2,0.4-16.7,0.7c-3.9,0.1-7.9,0.1-12,0.1
		c-0.9,0-1.8,0.2-2.8,0.2c-0.1,1.2-0.1,2.2-0.1,3.1c-2.3,1.2-4.8,0.7-7.1,0c-2.3-0.7-4.9-0.9-7.2-0.4c-1.8,0.4-3.7,0.5-5.2,0.7
		c-1.1-0.5-2-1.6-2.7-1.5c-3.2,0.9-6-0.5-9-0.7c-2.7-0.2-5.5-0.7-8.1-0.7c-2.4,0-4.4-1.1-5.9-2.9c-1.1-1.3-2-2.8-2.4-4.4
		c-0.7-2.6-2.3-4.5-4.3-6c-1.3-1.1-1.5-2.2-0.9-3.4c0.5-1.3,0.5-2.3-0.1-3.8c-0.2-0.4-0.1-1.1-0.2-1.6c-0.1-0.7-0.1-1.6-0.2-2.3
		c-0.5-2.3,0.5-5.4,2.4-6.6L47.4,415.1z"/>
	<path d="M389.9,26.4c-1.2,0.1-2.3,0.2-3.4,0.2c-1.3,0.1-2.4,0-3.9,0.1c-1.1,0.1-2.3-0.7-3.3,0.5C381.3,28.3,387.4,28,389.9,26.4z"
		/>
	<path d="M129.2,19.4c-1.7-0.2-3.4-0.9-5.1,0.7C126.2,20.9,127.6,19.8,129.2,19.4z"/>
	<path d="M191.7,17.9c-1.6,0.4-2.9-1.3-4.6,0.2c1.5,0.1,3.1,0.2,4.4,0.5C191.4,18.4,191.4,18.2,191.7,17.9z"/>
	<path d="M451.9,482.4c1.3,0.7,2.8,0.1,4-0.1C454.6,481.5,453.4,482,451.9,482.4z"/>
	<path d="M338.6,26.9c-0.9,0.4-1.7,0.7-3.1,1.2C337.7,28.5,337.7,28.5,338.6,26.9z"/>
	<path d="M482.7,479.6c-1.2,0.5-2.3,1.1-3.7,1.7C481.3,481.2,481.6,480.9,482.7,479.6z"/>
	<path d="M444.8,471.2c1.3,0.2,1.8-0.1,1.8-1.1c0-0.1-0.2-0.4-0.5-0.7C445.8,470,445.4,470.5,444.8,471.2z"/>
	<path d="M359.9,485.7c0.1,0.1,0.2,0.1,0.5,0.2c0.2-0.5,0.5-1.2,0.9-2C359.8,484,360.2,485.1,359.9,485.7z"/>
	<path d="M401.6,26.9c0-0.1,0-0.2,0-0.4c-0.7,0-1.2,0.1-1.8,0.1c0,0.1,0,0.4,0,0.5C400.4,27,401.2,27,401.6,26.9z"/>
	<path d="M293.7,470.7c0.4,0,0.7,0.1,1.3,0.1c0-0.1,0-0.2,0-0.4c-0.4,0-0.7-0.1-1.3-0.1C293.7,470.5,293.7,470.6,293.7,470.7z"/>
	<path d="M108.4,31.7c0-0.1,0-0.2,0-0.4c-0.7,0-1.2,0-1.8,0c0,0.1,0,0.4,0,0.5C107.2,31.7,107.8,31.7,108.4,31.7z"/>
	<path d="M475.3,414.6c0-0.7,0-1.3,0-2c0,0-0.1,0-0.1-0.1C475.3,413.2,475.3,413.9,475.3,414.6L475.3,414.6z"/>
	<path d="M432.4,483.1c0.1,0.1,0.2,0.4,0.5,0.4c0.1,0,0.4-0.2,0.7-0.4c-0.2-0.1-0.4-0.4-0.7-0.4
		C432.8,482.7,432.5,482.9,432.4,483.1z"/>
	<path d="M407.5,27c-0.1-0.1-0.2-0.4-0.2-0.4c-0.1,0-0.4,0.1-0.5,0.2c0,0.1,0.1,0.4,0.2,0.7C407,27.1,407.4,27,407.5,27z"/>
	<path d="M424.2,484.1c0,0.1,0.1,0.4,0.2,0.4c0.1,0,0.2-0.2,0.7-0.5c-0.2-0.1-0.5-0.2-0.7-0.2C424.5,483.8,424.2,484,424.2,484.1z"
		/>
	<path d="M102,48.9c4.8-0.7,9.5-1.3,14.3-2c0.9-0.1,1.8-0.7,2.8-0.9c0-0.1-0.1-0.4-0.1-0.5c-1.1,0-2,0-3.1,0
		c-3.2,0.1-6.3,0.4-9.5,0.5c-1.2,0.1-2.3-0.1-2.7-1.6c-0.1-0.4-0.7-0.5-1.2-1.1c-0.1,2.3-1.8,2.6-3.2,2.9c-0.7,0.1-1.3,0.2-2,0.5
		C99.3,49.3,99.4,49.4,102,48.9z"/>
	<path d="M134.9,45.4c-3.7-1.8-7.2-1.1-11,0.5C126.5,50.2,132.2,49.8,134.9,45.4z"/>
	<path d="M213.2,44.3c-0.7-1.1-1.3-2-1.8-2.8c-1.5,0.4-2.8,0.7-3.9,1.2C207.6,45.4,209.6,45.9,213.2,44.3z"/>
	<path d="M450.7,61.9c0.2,0.5,0.9,1.1,1.3,0.9c0.4,0,1.1-0.7,1.1-1.3c-0.1-1.5-0.4-3.1-0.7-4.7C450.9,58.3,450.2,60.5,450.7,61.9z"
		/>
	<path d="M144.7,46.2c0.4-0.1,0.7-0.7,1.3-1.3c-3.2-0.7-5.6-0.1-8.3,0.7C139.9,46.2,142.2,46.7,144.7,46.2z"/>
	<path d="M159.9,44.4c-2,0-3.9,0-6,0C156.3,47.5,158.5,47.5,159.9,44.4z"/>
	<path d="M425.6,37.9c-2.3-1.6-3.9,0.7-6,0.7C421.7,39.9,423.6,39.7,425.6,37.9z"/>
	<path d="M223.5,44.3c0.7,0.5,2.1,0.1,3.1-0.9c-0.7-0.7-1.7-1.3-2.4-2C222.8,42.8,222.6,43.7,223.5,44.3z"/>
	<path d="M71.6,49.4c-1.5-0.2-2.9-2-4.6,0C69,50.5,70.1,50.5,71.6,49.4z"/>
	<path d="M50.8,50.2c-0.5,0.5-0.9,1.2-0.1,2.2c0.7-0.7,1.5-1.2,2.3-1.8C52.2,49.8,51.5,49.7,50.8,50.2z"/>
	<path d="M153.7,42.7c1.3,0.2,2.3,0.4,3.3,0.5C156.1,42.1,155.3,41.3,153.7,42.7z"/>
	<path d="M451.1,66.3c0.1,0.4,0.4,0.7,0.5,1.1c0.1-0.1,0.4-0.1,0.5-0.2c-0.1-0.4-0.4-0.7-0.5-1.1C451.5,66.2,451.2,66.2,451.1,66.3z
		"/>
	<path d="M406.8,458.7c0,0.1-0.1,0.2-0.1,0.2c0.4,0.2,0.7,0.5,1.2,0.7c0.1-0.1,0.1-0.1,0.2-0.2c-0.1-0.2-0.1-0.5-0.4-0.5
		C407.5,458.8,407.1,458.8,406.8,458.7z"/>
	<path d="M152.5,42.1c-0.7-0.5-0.9-0.7-1.2-0.7c-0.4,0-0.7,0.1-0.9,0.2c0,0.1,0,0.2,0,0.4C150.9,41.8,151.4,41.8,152.5,42.1z"/>
	<path d="M49.3,73.9c0,0.7,0,1.5,0,2.3c0.1,0,0.2,0,0.4,0C49.5,75.4,49.5,74.7,49.3,73.9C49.4,73.8,49.4,73.8,49.3,73.9z"/>
	<path d="M165.7,42.7c-0.5,0-0.9-0.1-1.5-0.1c0,0.1,0,0.4-0.1,0.5c0.5,0.1,0.9,0.1,1.5,0.2C165.5,43.2,165.5,42.9,165.7,42.7z"/>
	<path d="M400.3,38.6c-0.4,0.1-0.7,0.1-1.1,0.2c0,0.1,0.1,0.2,0.1,0.4c0.4-0.1,0.7-0.1,1.1-0.2C400.3,39,400.3,38.8,400.3,38.6z"/>
	<path d="M249,41.8c0.1-0.2,0.1-0.4,0.2-0.7c-0.4-0.1-0.7-0.1-1.2-0.2l-0.1,0.4C248.4,41.6,248.6,41.7,249,41.8z"/>
	<path d="M453.4,68.6c0.4,0.1,0.7,0.4,1.1,0.5c0-0.1,0.1-0.2,0.1-0.4c-0.4-0.1-0.7-0.2-1.1-0.5C453.5,68.3,453.4,68.4,453.4,68.6z"
		/>
	<path d="M436.3,39.3c0-0.1,0-0.4,0-0.5c-0.4,0.1-0.7,0.1-1.1,0.2c0,0.1,0,0.2,0,0.4C435.7,39.3,436,39.3,436.3,39.3z"/>
	<path d="M87.9,454.2c0.1,0.1,0.2,0.2,0.5,0.4c0,0,0.2-0.1,0.4-0.4c-0.2-0.1-0.4-0.2-0.7-0.2C87.9,453.9,87.9,454.1,87.9,454.2z"/>
	<g>
		<path d="M87.9,343.7c-4.9-0.2-10.2-0.5-15.7-0.7c-3.9-0.1-7.6-1.7-11.5-2.8c-0.4-0.1-0.5-0.4-0.9-0.5c-2.3-1.2-3.7-3.9-2.9-6.4
			c1.3-4,3.1-8.1,4.4-12.3c3.3-9.8,9-17.9,16.2-25.1c3.9-3.9,8.7-6.5,13.2-9.2c4.6-2.8,9.4-5.3,13.9-8c1.2-0.7,1.1-2.8,0-3.7
			c-0.2-0.2-0.5-0.5-0.7-0.7c-7.6-5-15.1-9.6-24.6-9.9c-2.1-0.1-2.9-2-2.1-3.9c0.1-0.2,0.2-0.7,0.4-1.1c0.1-0.4,0.2-0.7,0.4-0.9
			c7.8-12.3,6.8-11.8,20.5-15.6c14.8-4,29.8-4,44.8-2.7c7.6,0.7,14.9,2.3,21.4,6.9c1.2,0.7,2.3,1.7,3.2,2.9c1.2,1.5,1.7,3.3,1.1,5
			c-1.5,4.4-3.7,8.7-6.7,12.3c-1.3,1.6-3.3,2.8-5.1,3.7c-3.9,1.8-8.1,3.2-12,4.9c-0.9,0.4-1.8,1.2-2.4,2c-0.4,0.4-0.2,1.3-0.2,2
			c0,0.2,0.2,0.7,0.5,0.9c3.1,3.2,6.6,5.5,10.7,7.1c3.4,1.5,7.1,1.7,10.6,0.7c7.4-1.8,14.3-4.9,19.8-10.3c2.7-2.5,5.2-4.8,8.1-7.1
			c0.7-0.7,2.3-0.4,2.8,0.5c1.1,1.5,2,3.1,3.1,4.4c1.1,1.5,2.1,2.9,3.2,4.4c5.5,6.9,12.9,10.2,21.7,9.8c10.1-0.4,19.9-2.8,29-7.1
			c0.7-0.2,1.1-0.9,1.6-1.3c0.5-0.5,0.7-2.3,0-2.9c-1.1-0.9-2.1-2.1-3.3-2.7c-2.7-1.1-5.5-1.6-8.4-1.2c-3.2,0.4-6.3,0.9-9.5,1.6
			c-1.5,0.2-2.8,0.7-4.3,1.1c-8.1,1.2-14.8-5.5-14.2-13.6c0.1-1.5,0.4-2.9,0.9-4.3c2.1-6.5,5.5-12.6,9.2-18.3
			c2.4-3.9,6.2-5.9,10.7-6c8.2-0.4,14.6,2.9,20.1,8.7c6.6,7.1,9.5,15.9,10.7,25.5c0.1,0.7,0.1,1.5,0,2.1c-1.2,6.7-3.4,13.2-6.8,19.1
			c-0.4,0.7-0.7,1.2-1.3,1.7c-6,4.7-11.6,9.6-19,11.6c-7.2,2.1-14.6,3.7-22.2,4.4c-10.7,1.2-18.9-2.8-25.4-11c-1.6-2-2.9-4-4.4-6
			c-1.8-2.3-4.3-2.5-6.5-0.2c-1.8,1.7-3.5,3.6-5.2,5.5c-5.6,6-12.8,9.2-20.6,10.8c-2.4,0.5-5,0.2-7.4-0.5
			c-6.2-2.1-11.5-5.9-16.4-10.2c-2.7-2.3-5.2-4.9-8.1-7.1c-1.7-1.5-3.9-1.7-6-0.9c-1.7,0.5-3.3,1.3-4.9,2.1c-6,3.1-12.3,6-18.3,9.2
			c-4.8,2.5-9.4,5.5-13.8,8.2c-3.2,1.8-5.5,4.7-7.4,7.6c-1.6,2.3-0.5,5.5,2.3,6c3.2,0.7,6.3,1.2,9.6,1.6c9.6,0.9,19.4,1.1,29-0.1
			c3.2-0.4,6.5-0.7,9.6-0.9c14.4-0.5,28.6-2,42.9-2.1c10.4-0.1,20.9-1.2,31.1-2.9c4.3-0.7,8.7-1.1,12.8-1.5c3.7-0.2,4.9,1.8,3.2,5.5
			c-0.9,2-2,3.9-3.1,5.6c-2.3,5-6.2,7.2-11.8,7.6c-10.7,0.7-21.4,2.1-32.1,3.3c-1.5,0.1-2.9,0.4-4.4,0.4c-10.7,0.7-21.5,1.2-32.1,2
			c-6.8,0.5-13.5,1.3-20.3,1.8C101.4,343,94.9,343.4,87.9,343.7z M128.2,267.1c3.9-0.5,7.4-2.3,11-3.9c0.7-0.2,1.2-0.7,1.5-1.5
			c0.2-0.5,0.2-1.7,0-1.8c-4.8-1.7-9.5-3.2-14.5-1.5c-0.7,0.2-1.3,0.7-1.8,0.9c-1.1,0.5-1.6,2.8-0.9,3.9
			C124.4,265,126,266.5,128.2,267.1z M231.8,259.4c1.3-0.2,2.1-0.1,2.7-0.4c0.5-0.2,0.9-0.7,1.2-1.3c0.1-0.2-0.1-0.7-0.2-0.9
			c-1.8-2.1-4-2.5-6.6-1.7c-0.5,0.1-1.1,0.9-1.1,1.5c0,0.7,0.4,1.5,0.7,1.7C229.7,258.8,230.9,259.3,231.8,259.4z"/>
		<path d="M126.9,444.6c-8.4,0.2-16.4-1.6-24.3-4.4c-4.8-1.7-9.4-3.9-13.8-5.9c-5.2-2.3-10.6-4.7-16.4-5.1c-0.7-0.1-1.3-0.4-2-0.7
			c-1.2-0.4-2.7-1.7-2.1-2.1c0.5-0.2,1.2-0.7,1.7-0.7c2.9,0,5.9,0,8.7,0.1c11.5,0.4,22.9,0.7,34.4,1.2c16.5,0.7,32.9,0,49.4-2.3
			c14.3-2,28.3-4,42.5-7.2c11.6-2.7,22.7-6.5,33.7-11c3.7-1.5,7.1-3.6,9.9-6.3c2.3-2.1,3.3-4.7,2.8-7.8c-0.7-6-2.3-12-6-17.2
			c-2-2.7-1.7-5.3-0.4-8.1c1.7-3.6,3.4-7.1,5.1-10.8c0.4-0.7,2.1-1.2,2.9-0.7c3.1,1.8,6,3.7,9.2,5.5c6.2,3.3,12.3,2.9,18.5-0.5
			c2.8-1.6,5.5-3.4,8.2-5.1c0.7-0.4,1.5-0.1,1.7,0.7c0.5,1.3,1.1,2.7,1.3,4c0.9,4.9,1.7,9.9,2.7,14.8c0.7,3.9,2.1,7.6,3.9,11.2
			c1.5,2.9,3.5,5.3,6.3,7.1c1.2,0.7,3.2,0.7,3.9,0c0.7-0.7,1.5-1.6,2.1-2.3c5.6-7.1,12.6-12.9,19.5-18.6c5.6-4.7,12-7.8,19-10.1
			c9.8-3.1,19-2.1,28.2,2.1c6.2,2.9,10,7.8,11.8,14.6c0.9,3.6,1.1,7.1-0.2,10.4c-0.9,2.3-1.7,4.8-2.8,7.1c-1.3,2.9-3.4,5.5-6,7.5
			c-6.8,5.5-14.4,9.2-23.1,11c-10.6,2.3-21.2,3.7-31.8,4.9c-6.5,0.7-12.9-0.4-19-2.3c-6.8-2-11.7-6.7-14.9-13.2
			c-2.4-5.3-3.4-11-4.6-16.5c-0.7-3.2-1.3-6.4-2.1-9.6c-0.5-2.3-2.9-3.2-5.1-2c-5,2.8-10,5.5-15.7,7.1c-1.2,0.2-2.4,1.7-3.1,2.9
			c-1.2,2.7-2,5.5-3.1,8.1c-2,5.5-4.4,10.8-7.4,15.6c-2.9,4.8-6.7,8.3-11.8,10.8c-0.9,0.4-2,0.9-2.9,1.3
			c-17.4,6.9-34.9,12.9-53.4,16.2c-16,2.8-32.1,4.4-48,6C131.9,444.5,129.4,444.5,126.9,444.6z M332.8,402.2c0-0.1,0-0.2,0-0.4
			c1.1,0,2.1,0.1,3.2,0c10.2-1.3,20.6-2.3,30.6-4.9c2.1-0.5,4-1.3,6-2c1.6-0.5,2.3-3.2,1.3-4.7c-5.5-9.1-13.9-13-24.2-14
			c-1.7-0.1-3.5,0-5.2,0.5c-6.7,1.6-12.9,4.3-18.2,8.8c-3.1,2.7-6.2,4.9-9.2,7.5c-0.7,0.7-1.5,1.5-2.3,2.3c-0.7,0.7-0.2,3.1,0.9,3.6
			c0.7,0.2,1.3,0.7,2,0.9C322.9,400.6,328.1,401.5,332.8,402.2z"/>
		<path d="M50.1,398.3c2.8,0.2,5,0.2,7.1,0.7c13.2,2,26.5,2,39.7,0.7c6.5-0.5,12.9-0.9,19.3-1.6c6.5-0.7,12.8-1.3,19.3-2.3
			c21.2-3.4,42.3-7.8,62.7-14.8c9.2-3.2,17.8-7.6,25.9-13.1c1.2-0.7,2.3-1.7,3.4-2.7c4.8-3.9,5.2-6.5,2.3-12.3
			c-1.6-3.2-3.7-6.3-5.2-9.4c-6.7-14.3-5-15,0.2-26.4c0.7-1.3,1.6-2.3,2.3-3.6c0.5-0.7,2.1-1.2,2.9-0.7c4.3,2.5,6.6,6.5,8.7,10.8
			c0.4,0.9,0.4,2.3,0.1,3.2c-1.5,5-0.7,9.9-0.1,15c0.4,3.9,0.7,7.8,0.1,11.8c-1.8,11.6-7.9,20.7-17.1,27.6
			c-10.7,8-22.2,14.5-35,18.4c-18.2,5.6-36.6,9.9-55.5,12.7c-13.4,2-27,3.9-40.5,4c-3.3,0-6.3-0.1-9.4-1.8c-2.1-1.2-4.6-1.8-7.1-2.7
			c-4.4-1.6-8.7-3.3-12.7-6c-2.9-2-6.3-3.3-9.5-5.1C51.3,400.7,50.8,399.6,50.1,398.3z"/>
		<path d="M429,389.1c1.6-5.5,3.9-10.1,6.5-14.5c0.7-1.3,2.7-1.5,3.7-0.4c2.8,2.8,5,6,6.5,9.8c1.6,3.9,1.8,7.6,0.7,11.6
			c-0.2,1.1-0.7,2-0.9,3.1c-2.3,9.4-7.8,16.1-16.7,19.7c-4.6,1.8-9.2,4-14.2,5c-6.7,1.3-12.3-2-13.8-8.8c-0.5-2.3-0.7-5-0.7-7.6
			c0.2-23,0.1-46.1,1.8-69c2.3-31.6,2.9-63.3,2.3-95.1c0-2.9-0.4-5.6-0.7-8.7c-0.4-6-0.5-12.3-0.9-18.4c-0.5-7.2,2.1-13.4,6.5-19
			c0.4-0.4,1.3-0.7,1.8-0.5c0.5,0.1,1.1,0.9,1.2,1.5c0.2,1.5,0.4,2.9,0.4,4.3c0.5,10.1,1.2,20.2,1.5,30.2c0.2,8,0.1,15.9,0.1,23.9
			c-0.1,22.7-0.9,45.4-2.3,67.9c-0.5,9.2-0.5,18.6-0.7,28.1c-0.2,12.3-0.5,24.4-0.7,36.7c0,2.9,0.1,5.9,0.5,8.7
			c0.5,3.9,3.9,6.6,7.6,6.4c5-0.4,9.9-1.7,14.3-4.4c0.7-0.4,1.2-2.1,0.7-2.9C432.1,394.5,430.8,392,429,389.1z"/>
		<path d="M380.9,304.9c3.9,0.2,7.9,0,11.8,0.2c1.7,0.1,3.4,0.7,5.1,1.3c0.4,0.1,0.7,1.1,0.9,1.6c0.1,0.2-0.1,0.7-0.4,0.9
			c-0.5,0.4-1.2,0.9-1.7,1.2c-5.2,1.5-9.9,4-14.4,7.2c-3.9,2.9-8.2,4.3-13.1,4c-2.4-0.1-5,0-7.6,0c-10,0.1-20.1,0.7-30,1.6
			c-15,1.3-30,2-45.1,2.7c-10,0.4-20.1,1.3-29.8,3.6c-2.8,0.7-5.6,1.1-8.4,0.4c-0.5-0.1-1.1-0.9-1.2-1.6c-0.1-0.7,0-1.5,0.2-2.1
			c2.1-5,4.6-10.1,8.8-13.2c3.7-2.8,8.8-2.9,13.4-3.2c15-0.9,30-1.6,45.1-2.1c9.6-0.4,19.4-0.2,29-0.7
			C349.2,306.6,373.7,304.5,380.9,304.9z"/>
		<path d="M123.9,350.5c5,1.7,9.2,4.4,13.8,6.5c0.9,0.4,1.8,1.1,2.9,1.5c1.8,0.7,3.5,0.5,5-0.7c1.6-1.5,3.1-3.1,4.6-4.4
			c1.3-1.3,2.4-2.5,3.9-3.7c1.5-1.3,3.2-1.7,5-0.9c4.3,1.8,8.4,4,12.7,5.9c7.8,3.1,7.6,3.9,1.5,9.8c-1.6,1.5-3.2,2.9-4.8,4.4
			c-3.3,3.2-6.7,3.4-10.7,1.5c-3.5-1.7-7.1-3.3-10.7-4.7c-2.4-0.9-4.9-0.7-6.8,1.3c-2,2-4,3.9-6.3,5.9c-2.7,2.3-5.6,2.9-9,1.1
			c-3.9-2.3-8.1-4.7-12.2-6.9c-1.1-0.7-1.3-2.8-0.5-3.9C115.1,357.8,119.2,353.7,123.9,350.5z"/>
		<path d="M247.7,200.6c-0.2,1.1-0.2,2.3-0.7,3.2c-1.7,4-4.6,7.1-8.4,9.4c-1.6,0.9-3.4,1.1-5,0c-4-2.9-7.9-6-12.6-8.1
			c-1.1-0.5-1.6-2.8-1.1-3.9c2.7-4.8,6.3-8.5,10.6-11.9c1.2-0.9,2.8-1.2,4-0.5c4.6,2.1,8.7,5,11.7,9.1
			C247.2,198.4,247.3,199.5,247.7,200.6z"/>
		<path d="M430.2,309.7c5.9,1.8,9.6,5,13.1,8.8c1.8,2.1,2.3,4.4,1.7,7.1c-0.9,3.9-2.8,7.5-5.6,10.2c-2.1,2-4.4,2.1-6.6,0.2
			c-2.8-2.3-5.5-4.7-8.3-6.7c-2.4-2-3.2-3.9-2.1-6.5C424.2,318.2,426.4,313.8,430.2,309.7z"/>
		<path d="M373,257.7c-4.4,2.5-6.3,6.6-7.4,11.3c-1.1,4.4-2,9.2-3.1,13.9c-0.4,1.7-1.2,3.3-1.8,5c-0.4,0.7-1.1,0.9-1.8,0.5
			c-0.2-0.1-0.7-0.2-0.7-0.5c-0.2-1.1-0.4-2.1-0.4-3.2c0-3.6,0.2-7.1,0.1-10.8c-0.1-8.7-2.3-16.4-10.6-21c-0.7-0.4-0.5-2.3,0.2-2.8
			c0.2-0.2,0.5-0.5,0.7-0.7c3.2-1.3,6-0.7,7.6,2c1.2,1.8,2.3,3.7,3.1,5.6c2.4,6.4,3.3,7.8,8.8,1.2c1.2-1.3,2.4-2.7,3.9-3.7
			c1.7-1.2,3.7-2.3,5.5-3.2c1.6-0.7,3.9,0.2,4.6,1.7c0.7,1.3,0.9,2.8,0.1,4c-0.7,1.3-2.1,1.8-3.7,1.7
			C376.6,258.4,374.9,258.1,373,257.7z"/>
		<path d="M288.9,445.2c-2.9,0.2-4.6,0.5-6.5,0.7c-0.2,0-0.9-0.4-0.7-0.5c0.1-0.7,0.1-1.5,0.5-1.8c1.2-1.5,3.1-1.8,4.8-2.1
			c8.4-1.3,17-2.7,25.4-3.9c18.5-2.9,36.6-6.5,54.7-11c1.7-0.4,3.4-0.9,5.2-1.2c0.5-0.1,1.1,0.5,1.6,0.7c-0.4,0.5-0.7,1.3-1.2,1.5
			c-2,0.7-3.9,1.6-6,2.1c-12.3,3.9-25,6-37.7,8.5c-3.5,0.7-7.1,1.5-10.6,2C308.3,442,297.9,443.8,288.9,445.2z"/>
		<path d="M77.9,385.3c0-2.5,0-5,0-7.5c0-3.7-1.3-7.1-3.7-9.8c-1.3-1.6-2.8-3.3-3.9-5.1c-0.5-0.7-0.7-2.1-0.2-3.1
			c1.6-3.7,3.9-6.9,7.4-8.8c0.4-0.2,1.5,0,1.8,0.4c5,5.9,6.6,12.7,5.5,20c-0.7,4.9-2.4,9.7-5.6,13.6C79,385.3,78.4,385.2,77.9,385.3
			z"/>
		<path d="M276.1,288.6c-0.7-0.5-1.6-0.7-1.7-1.3c-0.2-0.5,0-1.3,0.2-1.8c0.4-0.5,0.9-1.2,1.6-1.5c2.3-1.1,4.6-2,7.1-2.8
			c16.6-5.5,33.1-11.2,49.7-16.5c0.2-0.1,0.9,0.7,1.3,1.2c0.1,0.1,0,0.7-0.2,0.9c-0.7,0.7-1.6,1.5-2.7,1.8c-2.3,1.1-4.6,2-6.8,2.9
			c-9.2,3.2-18.2,6.3-27.3,9.4c-6,2.1-12,4.7-17.9,7.1C278,288.5,276.9,288.5,276.1,288.6z"/>
		<path d="M266.9,428.2c0.2-1.2,0.7-4.7,1.5-8.1c0.9-4.3,0.7-7.8-3.3-10.3c-0.2-0.1-0.5-0.4-0.7-0.7c-0.7-0.7-0.9-2-0.2-2.8
			c0.9-1.1,2.9-1.8,3.9-1.2c1.2,0.7,2.3,1.7,3.3,2.7c1.5,1.3,3.2,1.7,4.9,1.2c1.7-0.5,3.3-1.5,4.9-2c0.9-0.2,2.1-0.1,3.2-0.1
			s2.7,1.6,2.9,2.8c0.2,1.1-0.7,3.1-1.8,3.6c-1.3,0.5-2.7,1.3-3.9,1.3c-3.9,0.1-5.9,2.3-6.8,5.6c-1.6,4.8-2.9,9.6-4.4,14.3
			c-0.2,0.7-1.1,1.2-1.7,0.7c-0.5-0.2-0.9-0.7-1.3-1.3c-0.1-0.2-0.1-0.7-0.1-1.1C266.9,431.9,266.9,431.4,266.9,428.2z"/>
		<path d="M438.7,291.3c0.2-2.5,0.4-5,1.1-7.5c2.3-9.7,0.5-18.4-5-26.5c-0.7-0.9-1.1-1.8-1.5-2.9c-0.7-2,0.2-5.1,2.3-6.7
			c0.4-0.2,1.5-0.1,1.8,0.2c4.3,4.3,6.3,9.6,7.2,15.2c1.6,9.1,0.2,17.9-3.7,26c-0.4,0.7-1.6,1.2-2.3,1.7L438.7,291.3z"/>
		<path d="M451.2,416.3c0.7,2.3,0,4.3-0.7,6.4c-0.9,3.1,0,5.6,2.4,7.6c0.7,0.7,1.6,1.5,2.3,2.3c0.4,0.5,0.5,1.5,0.4,2
			c-0.7,4-2.9,7.2-7.1,8.7c-2.1,0.7-4.4-0.4-5-2.7c-1.3-5.5-0.4-10.8,2.4-15.6c1.8-3.1,3.9-6,5.6-9.2L451.2,416.3z"/>
		<path d="M246.2,431c-1.7,2.9-0.7,5.5,1.5,7.6c0.7,0.7,1.8,1.1,2.7,1.7c1.3,1.1,1.6,3.4,0.4,4.8c-0.7,0.7-1.5,1.5-2.3,2.1
			c-5,3.6-8.7-0.4-9.2-4.4c-0.7-4.7,1.1-8.3,4.4-11.4c0.7-0.5,2-0.2,3.1-0.4H246.2z"/>
		<path d="M317.1,338.5C317.1,338.5,317.1,338.2,317.1,338.5C317.3,338.3,317.1,338.5,317.1,338.5z"/>
		<path d="M451.4,416.2c0,0.2,0,0.5,0,0.7c0.7-0.2,0.5-0.4-0.4-0.4C451.2,416.3,451.4,416.2,451.4,416.2z"/>
	</g>
</g>
</svg>
