<?xml version="1.0" encoding="utf-8"?>
<!-- Generator: Adobe Illustrator 21.0.2, SVG Export Plug-In . SVG Version: 6.00 Build 0)  -->
<svg version="1.1" id="Layer_1" xmlns="http://www.w3.org/2000/svg" xmlns:xlink="http://www.w3.org/1999/xlink" x="0px" y="0px"
	 viewBox="0 0 400 400" style="enable-background:new 0 0 400 400;" xml:space="preserve">
<g>
	<path d="M391.8,224.1c-0.8-1.6-0.1-3.1,0-4.8c0.2-2.4,0.5-4.9,0.6-7.3c0.1-1.6,0.2-3,0.2-4.7c0-1.5-0.8-2.8-0.1-4.4
		c0.1-0.2,0-0.6-0.1-0.9c-0.6-1.4-0.5-2.7,0-4.3c0.2-0.6,0.5-1.3,0.5-1.9c0-2.4,0.2-4.9,0.6-7.3c0.2-1.8,0.1-3.6,0.2-5.4
		c0.2-2.3-0.4-4.7-0.8-6.9c-0.4-2.1-1.3-4.3-1.4-6.5c0-1,0.1-2,0.5-2.9c0.4-0.9,0.7-1.7,0.5-2.5c-0.4-1.4-0.9-2.6-1.3-4.1
		c-0.3-0.8-0.5-1.7-0.7-2.5c-0.2-1.2,0.1-2.6-0.4-3.7c-1.6-3.1-1.3-6.8-3.2-9.9c-0.2-0.3-0.2-0.7-0.2-1.1c-0.5-3.2-1.3-6.4-2.8-9.5
		c-0.1-0.3-0.2-0.6-0.3-0.9c-1.1-2.9-1.5-6.1-3.2-9c-0.5-0.8-0.8-1.7-1.4-2.4c-0.4-0.5-0.8-1.2-0.9-1.8c-0.3-3.1-1.9-6-3-8.8
		c-0.8-2-1.8-4.1-3.1-5.9c-0.6-0.8-1-1.8-1.4-2.6c-1.1-2.4-2.4-4.9-4-7c-2.5-3.3-4.8-6.9-7.2-10.4c-1.6-2.2-3.2-4.6-5-6.8
		c-0.2-0.2-0.4-0.4-0.7-0.6c-0.6-0.6-1.3-1.1-1.9-1.7c-1.8-2-3.8-3.9-6.4-5c-0.5-0.2-0.9-0.7-1.1-1.1c-0.8-1.3-1.6-2.5-2.4-3.8
		c-2.5-3.5-5.4-6.5-9.1-8.6c-0.8-0.5-1.6-1.2-2.3-1.8c-0.8-0.7-1.5-1.4-2.3-2c-2.6-2-5.3-4.1-7.8-6.1c-0.7-0.6-1.3-1.4-2-2
		c-1-1-1.7-2.3-3.2-2.8c-1.9-0.6-4-1.3-5.6-2.4c-2.7-2-5.7-3.3-8.5-5.2c-1.6-1.1-3.3-1.9-5.2-2.4c-1.9-0.7-3.1-2.4-5.2-2.5
		c-1.8-2-4.9-2.1-6.8-4.1c-0.2-0.2-0.6-0.3-0.8-0.2c-0.7,0.1-0.9-0.4-1.3-0.7c-1.1-0.9-2.2-1.9-3.5-2.4c-1.3-0.5-2.5-0.9-3.7-1.7
		c-1-0.6-2.1-1.3-3.2-1.4c-1.9-0.2-3.3-1-4.8-2c-1.1,0-2.1,0.2-3.1,0c-2-0.5-4-1.2-6-1.9c-1.4-0.5-2.8-1.2-4.2-1.7
		c-0.5-0.2-1.2,0-1.6-0.3c-0.7-0.5-1.3-0.6-2-0.5c-0.4,0.1-0.8,0-1.2-0.1c-0.8-0.1-1.6-0.3-2.4-0.5c-0.7-0.1-1.4-0.2-2.1-0.4
		c-2.8-1.1-5.6-2-8.7-2c-0.4,0-0.8-0.2-1.2-0.3c-1-0.3-2-0.7-3.2-0.4c-0.5,0.1-1.2-0.3-1.8-0.6c-0.8-0.4-1.6-0.9-2.4-1.1
		c-1.5-0.4-3-0.6-4.4-1c-2.3-0.6-4.6-1.1-7-1c-1.1,0.1-2.3-0.2-3.3-0.2c-1,0-1.9,0.2-3,0.4c-0.5-0.1-1.2-0.2-1.9-0.2
		c-1.7,0-3.5,0.3-5.1-0.1c-2.2-0.6-4.3-0.2-6.5-0.3c-2.2-0.1-4.4,0.5-6.7,0.6c-2.3,0.1-4.7,0.1-7.1,0.1c-1,0-2-0.2-3.1-0.1
		c-2.6,0.1-5.2,0.3-7.8,0.5c-1.2,0.1-2.3,0.7-3.5,0.8c-1.3,0.1-2.4-0.3-3.6-0.2c-2.2,0.3-4.4,0.8-6.6,1.4c-2,0.5-3.9,1.3-5.9,1.9
		c-1.1,0.3-2.2,0.6-3,1.6c-0.2,0.3-0.7,0.4-1.1,0.5c-2.4,0.6-4.8,1.3-7.2,1.9c-0.4,0.1-0.8,0.3-1.2,0.5c-1.8,0.8-3.6,1.8-5.5,2.2
		c-3.2,1-6.3,2.2-9.3,4c-1.6,0.9-3.2,1.6-5,2c-1.3,0.4-2.5,0.8-3.6,1.6c-1.2,0.9-2.5,1.9-4.1,1.8c-1.9-0.2-3.3,0.8-4.5,2
		c-1.1,1.2-2.3,1.9-3.6,2.6c-0.8,0.4-1.5,1-2.3,1.4c-1.2,0.6-2.5,1.2-3.8,1.7c-1.8,0.7-3.6,1.3-5.4,2c-0.9,0.3-1.8,0.8-2.5,1.3
		c-0.5,0.4-1,1-1.1,1.5c-0.3,1.5-1,2.5-2,3.8c-1.2,1.4-2.6,2-4.4,2.2c-0.7,0.1-1.3,0.2-1.9,0.5c-1.1,0.5-2.1,1.2-3.2,1.6
		c-0.6,0.2-0.9,0.4-1.2,0.9c-0.8,1.5-2,2.6-3.3,3.5c-2.1,1.2-3.8,2.7-5.4,4.6c-0.9,1-1.8,1.9-2.8,2.7c-1.8,1.6-3.7,3-5,5.2
		c-0.5,0.8-1.2,1.6-1.9,2.1c-2.8,2-5.4,4.5-7.6,7.2c-1.9,2.3-3.9,4.6-5.7,6.9c-1.1,1.4-2.3,2.8-2.9,4.6c-0.8,2.1-2.2,3.9-3.6,5.6
		c-2.5,3-4.3,6.5-5.7,10.2c-0.8,2-1.3,4.3-3.2,5.8c-0.4,0.3-0.5,0.8-0.8,1.2c-0.9,1.7-1.9,3.3-2.8,5.1c-0.8,1.6-1.6,3-2.3,4.7
		c-0.9,1.8-1.7,3.6-2.6,5.4c-0.4,0.9-1,1.9-1.2,2.7c-0.5,2.4-2.2,4.8-2,7.4c0,0.2-0.2,0.4-0.3,0.6c-1.6,3.2-3,6.5-3.8,10.1
		c-1.1,5-1.7,10.1-2.5,15.1c-0.5,3.3-1.6,6.6-1.8,10.1c-0.1,2.3-0.8,4.8-1.2,7c-0.5,2.3-1.1,4.7-1.4,7c-0.7,4.4-1.8,8.7-1.4,13.2
		c0.1,1.1-0.1,2.1-0.1,3.2c-0.1,1.3-0.4,2.4-0.3,3.8c0.4,3.7,0.4,7.3,0.1,11c-0.2,2.4,0.8,4.3,2.7,5.8c1.7,1.4,2.2,3.2,1.5,5.5
		c-0.7,2.1-1.5,4.4-1.6,6.8c-0.1,3.3,0.2,6.6,1.3,9.7c0.2,0.6,0.3,1.3,0.4,1.9c0.6,3.8,1.3,7.4,2.9,11c1,2.1,1.8,4.5,2,6.9
		c0.2,2.2,1.1,4.3,2.1,6.3c0.8,1.5,1.4,3,2,4.6c0.5,1.2,1,2.2,2.2,2.9c0.6,0.3,0.9,0.9,1.1,1.6c0.4,1.3,0.8,2.4,1.5,3.7
		c0.8,1.3,1.6,2.4,2.1,4c0.4,1.1,1.1,2,1,3.3c0,0.2,0.1,0.4,0.2,0.5c1.1,2,2.4,3.9,3.2,6c1.2,2.7,3,5.1,5.1,7.1
		c0.4,0.4,0.8,0.9,1.1,1.5c0.6,1,1.1,2.1,1.8,3.1c1,1.4,2.3,2.6,2.3,4.6c2,4,3.9,7.8,7.3,10.9c0.4,0.4,0.7,0.8,1,1.3
		c1.2,1.9,2.6,3.3,4.7,4.4c1.4,0.7,2.5,1.7,3.2,3c1.1,2,2.2,3.9,3.2,5.9c0.6,1.2,1.6,1.8,2.9,1.8c1.2,0,2.3,0,3.5-0.1
		c1.6-0.1,2.1-0.9,1.4-2.2c-0.7-1.4-1.6-2.8-2.6-4.1c-1-1.3-2.4-2.1-3.5-3.5c-1.3-1.5-2.4-3.1-3.5-4.9c-1.2-1.7-2.3-3.6-3.5-5.3
		c-2.4-3.5-5.2-6.6-7-10.5c-0.6-1.4-1.5-2.7-2.4-4.1c-2.2-2.8-3.9-6.1-5.4-9.4c-1-2.3-2.2-4.6-3.8-6.4c-0.4-0.5-0.6-1-0.9-1.6
		c-0.9-1.8-1.7-3.6-2.6-5.4c-1.3-2.4-2.8-4.9-3.6-7.6c-0.7-2.4-2.1-4.8-3.2-7c-0.5-1.2-1.2-2.2-1.6-3.3c-1-3.1-1.9-6.4-2.8-9.7
		c-0.4-1.5-0.6-3-1-4.6c-0.4-1.8-0.8-3.6-1.4-5.3c-1.4-3.7-2.8-7.3-3.3-11.2c-0.9-5.3-1.7-10.6-2.4-15.8c-0.4-3.1-1-6.3-0.3-9.5
		c0.2-0.8,0-1.6,0-2.3c0-4-0.1-7.9,0-11.9c0.1-2.9,0.7-5.9,0.4-8.8c-0.1-0.8,0.1-1.7-0.3-2.4c-0.3-0.6-0.2-1.2,0.2-1.9
		c0.4-0.7,0.7-1.4,0.8-2.1c0.5-2.7,1.1-5.6,0.8-8.3c0-0.4,0.2-0.8,0.3-1.2c0.2-0.6,0.4-1.2,0.5-1.7c0.4-1.8,0.8-3.7,1.3-5.5
		c0.3-1.2,0.6-2.2,0.3-3.6c-0.3-0.9-0.2-2,0.7-2.6c1.5-1.2,2.3-2.6,2.5-4.6c0.3-2,0.5-4.2,1.5-6.1c0.4-0.8,0.2-2,0.3-2.9
		c0.1-0.9,0-2,0.6-2.6c1-1.1,1-2,0.5-3c-0.1-0.3,0-0.6-0.1-0.9c0.5-0.3,1.2-0.5,1.3-0.7c0.1-1.3,1.3-1.6,1.8-2.5
		c0.4-0.8,0.9-1.5,1-2.2c0.2-1.3,0.6-2.3,1.3-3.6c0.8-1.4,1.6-2.8,2.4-4.3c2.6-4.4,4.5-9.1,7.6-13.2c0.3-0.3,0.4-0.7,0.6-1.1
		c0.7-1.7,1.2-3.5,2-5.1c1.5-2.7,3.1-5.4,4.7-8c0-0.1,0.1-0.1,0.1-0.1c1.6-1.3,2.4-3.1,3.2-5c0.8-1.6,1.7-3.1,2.9-4.6
		c0.6-0.7,0.8-1.8,1.3-2.4c0.6-0.8,1.6-1.3,2.3-2c0.9-1,1.5-2.3,2.5-3.2c2.3-2,3.8-4.7,5.5-7.1c2.3-3.2,5-6,8-8.6
		c1.8-1.6,3.7-2.9,5.1-4.9c1.2-1.6,2.8-2.3,4.2-3.6c1-0.9,2.3-1.5,3.3-2.2c3.2-2.2,6.2-4.9,9.6-6.7c0.8-0.4,1.6-1,2.2-1.6
		c2.2-2.1,4.6-3.9,7.5-5c1-0.4,1.8-1,2.7-1.4c1.2-0.6,2.5-1.2,3.8-1.8c1.4-0.6,2.8-1.1,4.1-1.8c2.4-1.4,4.6-2.8,7-4.3
		c0.5-0.3,1.1-0.5,1.7-0.6c3.6-0.6,7-1.7,10-3.6c2-1.2,3.6-2.9,6.2-3c1.3-1.1,3-1.6,4.6-2.1c1-0.3,2.1-0.5,3.1-0.7
		c2.2-0.4,4.5-0.4,6.6-1.1c2.4-0.8,4.8-1.2,7.2-1.7c2.2-0.4,4.3-1.1,6.5-1.6c0.9-0.2,1.9-0.3,2.9-0.5c1.9-0.4,3.8-0.4,5.7-0.9
		c3.2-1,6.8-1.4,10.3-1.3c2.1,0.1,4.2-0.3,6.3-0.4c3-0.2,6-0.4,9.1-0.6c2.2,1,4.5,0.4,6.8,0.4c1.6,0,3.1,0.3,4.7,0.4
		c0.5,0,1.1-0.1,1.6-0.1c2.1,0.2,4.3,0.5,6.4,0.8c2.5,0.4,5,0.7,7.5,1.3c2.3,0.5,4.6,1.2,7,1.2c0.6,0,1.2,0.2,1.8,0.3
		c1.2,0.3,2.5,0.7,3.7,0.9c4.4,0.9,8.8,1.7,13.2,2.6c1.4,0.3,2.9,1,4.1,1.8c2.3,1.5,4.8,2.4,7.5,3.1c2.1,0.6,4.3,0.9,6.3,1.8
		c2.2,1,4.6,1.6,6.8,2.3c2,0.7,4,1.7,5.9,2.6c1.1,0.6,2,1.4,3,2c3.3,1.8,6.6,4.1,10.2,5.4c1.3,0.4,2.5,1,3.7,1.6
		c1,0.5,1.9,1.1,2.7,1.8c0.8,0.6,1.4,1.5,2.2,2c2.1,1.7,4.3,3.2,6.5,5c0.4,0.3,0.9,0.6,1.4,0.9c2.2,1.7,4.3,3.2,6.5,5
		c0.7,0.6,1.3,1.3,2,1.9c2.4,2,4.9,3.8,7.2,5.8c1.7,1.6,3.2,3.5,4.8,5.2c0.8,0.9,1.6,2,2.5,2.8c1.7,1.7,3.2,3.3,4.5,5.5
		c0.4,0.8,1.1,1.4,1.7,2c2.1,2.5,4.3,5.1,6.4,7.6c1.2,1.5,2.4,2.9,3.6,4.5c1.5,1.8,3.2,3.5,4.6,5.4c2.1,2.8,4.1,5.8,6,8.8
		c2.6,4.2,5.1,8.5,7.5,12.8c0.9,1.6,1.8,3.3,2.3,5.1c0.6,2,0.9,4.1,1.1,6.1c0.1,1.3,0.6,2.4,1.2,3.6c0.9,1.5,2.2,2.9,1.9,5
		c0,0.1,0.1,0.2,0.1,0.3c0.8,2.1,1.6,4.5,2.3,6.6c0.5,1.4,1,2.7,1.2,4.2c0.6,3.8,1.7,7.3,2.2,11.1c0.3,2.4,1,4.9,1.6,7.2
		c0.9,3.7,1.8,7.2,2,11c0.1,1.1,0.1,2.2,0.4,3.3c0.6,2.6,0.7,5.4,0.1,8c-0.2,1.2-0.5,2.4-0.1,3.6c0.4,1.1-0.2,1.7-0.2,2.5
		c0,0.9,0.4,1.7,0.5,2.5c0,0.2-0.2,0.4-0.2,0.7c0,1-0.2,2,0,2.9c0.2,0.8,0.4,1.6,0.3,2.3c-0.1,0.4,0,0.9,0,1.3
		c0.7,3.3,0.2,6.6-0.5,9.8c-1.1,5.1-0.8,10.2-0.5,15.2c0.1,2.1,0.5,4.4,0.4,6.4c-0.2,2.9-0.7,5.9-1.1,8.7c-0.3,2.1-1,4.4-1.2,6.5
		c-0.1,1.2-0.6,2.2-0.9,3.5c-0.4,1.4-0.9,2.6-1.4,4.1c-0.1,0.4-0.3,0.8-0.4,1.2c-1.4,3-2.8,6.2-4.2,9.3c-0.4,0.9-0.7,1.8-1,2.6
		c-0.7,2-1.8,4-2.2,6.1c-0.6,3.2-2.2,6-3.8,8.7c-0.7,1.1-1.6,2.1-2.3,3.2c-0.7,0.9-1.4,1.9-1.9,2.8c-1.2,2.5-2.6,5.1-3.5,7.7
		c-1,2.9-3,5.4-4.7,7.9c-1,1.6-2.3,3-3.3,4.7c-2.2,3-4.2,6.1-6.4,9.1c-1,1.4-2.2,2.5-3.2,3.8c-1.5,1.5-3,2.9-4.5,4.5
		c-0.8,0.8-1.3,2-2.1,2.6c-2.6,2.2-4.3,5.5-7.3,7.2c-0.2,0.1-0.3,0.4-0.5,0.5c-2,2-4,4.2-6,6.2c-2.3,2.3-5.2,4.4-7,7.2
		c-0.7,1.1-1.8,1.9-3.1,2.1c-1.6,0.4-2.8,1.3-4,2.3c-0.6,0.5-1.2,1.1-1.8,1.5c-2.3,1.5-4.8,2.8-7.1,4.5c-1,0.7-2.1,1.5-2.8,2.5
		c-0.6,1-1.3,1.7-2.3,2c-1.1,0.4-2.3,0.6-3.5,1c-0.7,0.2-1.5,0.5-2.1,0.9c-2.2,1.4-4.3,2.9-6.9,3.6c-0.3,0.1-0.6,0.2-0.8,0.3
		c-1.7,0.9-3.2,1.7-5,2.5c-0.5,0.3-1.2,0.6-1.4,1.1c-0.5,1-1,1.9-2,2.3c-0.2,0.1-0.1,0.5-0.2,0.9c0.5,0.1,0.8,0.2,1.1,0.1
		c1.2-0.4,2.4-0.9,3.5-1.5c1.7-1,3.3-2,5.1-3c0.4-0.3,1.1-0.6,1.5-0.4c1.6,0.6,2.7-0.3,3.9-1c2.3-1.4,4.6-2.6,6.9-4
		c0.8-0.4,1.5-0.8,1.9-1.6c0.2-0.4,0.6-1,0.9-1c1.1-0.2,1.8-0.9,2.7-1.4c3-1.5,5.6-3.3,8-5.7c0.4-0.4,1-0.7,1.5-1
		c0.8-0.5,1.6-1,2.4-1.6c1.3-0.9,2.5-2,3.8-2.7c1.3-0.8,2.2-1.8,3.2-2.7c1.6-1.6,3.1-3.2,5-4.5c1.4-0.9,2.6-2.1,3.9-3.1
		c1-0.7,2-1.4,3-2c1.1-0.7,2.4-1.2,3.3-2c1.5-1.3,2.8-2.6,4.1-4.1c1.5-1.6,3-3.2,4-5.4c0.4-0.9,1.3-1.6,1.9-2.3
		c1.4-1.7,2.7-3.3,4.1-5.1c0.5-0.6,1.1-1.3,1.7-1.8c1-1,2.2-1.9,3.1-3c1.9-2.4,3.5-5.3,5.3-7.7c1.5-2,2.4-4.6,4.3-6.4
		c0.4-0.4,0.5-1.1,0.8-1.6c0.8-1.6,1.5-3.1,2.5-4.6c1.2-1.9,2.6-3.6,3.8-5.6c1.4-2.3,2.7-4.9,3.9-7.3c1.3-2.7,2.2-5.6,3.5-8.3
		c0.4-0.8,1.1-1.4,1.6-2.1c0.3-0.4,0.7-0.8,0.8-1.2c0.5-1.8,0.9-3.6,1.4-5.4c0.6-2.1,1-4.5,1.8-6.5c0.9-2,0.6-4.6,2.2-6.3
		c0.1-0.1,0.1-0.4,0-0.5c-0.7-1-0.1-1.8,0.3-2.6c0.4-0.8,0.7-1.7,0.8-2.5c0.4-2.2,0.8-4.6,1.2-6.8c1.2-0.3,1.3-0.3,1.6-1.1
		c0.2-0.6,0.4-1.3,0.6-1.9c0.4-1.3,0.7-2.5,1.3-3.7c1-1.6,0.8-2.9-0.4-4.7c0,0.7,0,1.1,0,1.5c0,0.5,0.2,1,0,1.4
		c-0.6,2-1.3,4.3-1.9,6.3c-0.1,0.3-0.2,0.6-0.4,0.9c-0.1-2.5,0.5-5.1-0.2-7.5c0-0.1,0.1-0.3,0.2-0.5c0.3-1.1,0.6-2.1,0.8-3.2
		c0.1-0.8,0.2-1.7,0.9-2.1c0.2-0.7,0.5-1.5,0.7-2.1C391.6,224.6,391.9,224.3,391.8,224.1z"/>
	<path d="M264,381.3c-0.1,0.2-0.7,0.4-1.1,0.5c-0.3,0.1-0.7-0.1-1.1-0.1c-2.3,0.5-4.6,1-6.9,1.6c-2.3,0.6-4.6,1.5-7,1.8
		c-3.7,0.5-7.4,1.4-10.9,2.5c-2.1,0.7-4.1,0.8-6.3,0.9c-1.3,0-2.6,0.3-3.9,0.4c-1.7,0.2-3.2,0.5-5,0.6c-2,0.1-4.1,0.1-6.1,0.2
		c-1.2,0.1-2.4,0.3-3.6,0.3c-5.2,0.3-10.3-0.3-15.6,0.2c-0.3,0-0.7-0.1-1-0.3c-2.4-0.9-5-1-7.5-0.9c-1,0-1.9,0.1-2.9,0.1
		c-3.1-0.1-6.3-0.3-9.4-0.5c-0.8-0.1-1.7-0.2-2.5-0.4c-2.4-0.5-4.7-1.4-7.2-1c-0.2,0-0.5-0.1-0.7-0.1c-3.5-0.5-7-1.2-10.3-2.3
		c-3.1-1-6.3-1.6-9.3-2.9c-2.2-1.1-4.6-1.8-7-2.5c-0.7-0.2-1.5-0.4-2.3-0.3c-0.9,0.1-1.5-0.2-2-0.9c-0.4-0.5-0.9-0.9-1.5-1.2
		c-0.8-0.5-1.7-0.9-2.6-1.2c-1.2-0.3-2.5-1-4-0.4c0-1.6,0-1.5-1.3-1.6c-0.8-0.1-1.7-0.4-2.2-1c-0.8-0.9-1.7-1.3-2.7-1.7
		c-2-0.7-3.8-1.6-5.3-3c-1.1-1.2-2.4-2-3.8-2.7c-0.9-0.4-1.6-1-2.5-1.5c-1-0.6-2-1.3-3.1-1.6c-3.7-0.9-7-2.6-10-4.8
		c-1.7-1.1-3.3-2-5-3.2c-1.3-0.9-2.5-2-3.8-3c-1.2-1-2.5-1.9-3.7-2.8c-0.9-0.7-1.6-1.5-2.5-2c-1.6-1.1-3-2.1-4.3-3.7
		c-0.2-0.2-0.4-0.5-0.7-0.6c-0.8-0.4-1.6-0.7-2.4-0.2c-0.8,0.5-1,1.3-0.5,2.3c0.3,0.7,0.7,1.4,1.2,2c0.7,0.8,1.5,1.6,2.3,2.2
		c1.2,1.1,2.2,2.3,2.8,4c0.2,0.6,0.5,1.3,1,1.7c2.3,2,4.9,3.8,7.9,4.7c1.2,0.4,2.4,0.9,3.3,1.6c1.7,1.3,3.2,2.6,4.8,4.1
		c0.4,0.3,0.8,0.6,1.2,0.8c2.5,1.2,4.8,2.6,7.6,3.3c1.9,0.5,3.6,1.5,5.4,2.1c1.5,0.6,3,1.2,4.2,2.3c0.2,0.2,0.4,0.2,0.6,0.4
		c2,1.2,4.1,2.1,5.5,4.3c1.8,2.5,4.9,3.1,7.6,4.2c2.3,0.9,4.6,1.9,7.2,1.9c0.3,0,0.7,0.2,1,0.4c2.9,1,5.5,3,8.8,3
		c0.2,0,0.3,0.1,0.5,0.2c2.5,1.3,5.5,0.8,7.8,2.5c0.3,0.2,0.9,0.1,1.4,0.2c1.7,0.2,3.3,0.2,5,1c0.4,0.2,0.9,0.2,1.4,0.4
		c1.2,0.3,2.3,0.6,3.5,0.9c0.3,0.1,0.7,0.3,1,0.3c2.7,0.3,5.4,0.6,8.1,0.9c1.6,0.2,3.1,0.5,4.6-0.2c0.4-0.2,0.8-0.2,1.3-0.1
		c3.3,0.2,6.9,0.4,10.2,0.6c0.3,0,0.6,0.1,0.9,0.3c3.2,1.3,6.7,1.1,10,1.2c3.3,0,6.8-0.2,10.1-0.3c1.1-0.1,2.3-0.3,3.3-0.5
		c1.5-0.3,2.9-0.6,4.5-0.2c0.9,0.2,1.9,0.1,2.9-0.1c1.2-0.3,2.4-0.9,3.6-1.1c2.2-0.3,4.5-0.4,6.7-0.7c2-0.3,4.1-0.7,6-1.3
		c3.2-0.9,6.1-2.5,9.5-2.8c0.5,0,0.9-0.4,1.3-0.5c1.8-0.7,3.5-1.6,5.3-1.9c2.1-0.4,4.2-1,6.3-1.5c0.8-0.2,1.6-0.8,2.4-1.2
		c1.1-0.7,2.3-1.3,3.3-2c0.4-0.2,0.7-0.5,1.2-0.9C265.8,379.9,264.5,379.4,264,381.3z"/>
	<path d="M390.8,227.1c0.1,0.5,0.2,1.1,0.3,1.7c2.5-1.3,2.8-1.9,2-4.7C392.6,225.3,392.1,226.5,390.8,227.1z"/>
	<path d="M390.7,227.1L390.7,227.1L390.7,227.1L390.7,227.1L390.7,227.1L390.7,227.1L390.7,227.1L390.7,227.1
		C390.8,227.1,390.7,227.1,390.7,227.1L390.7,227.1z"/>
	<path d="M393.8,211.2c0.1,1.2,0.3,2.4,0.4,3.7C394.8,213.3,394.8,213.3,393.8,211.2z"/>
	<path d="M394.4,207c-0.2,0-0.4,0-0.5,0c-0.1,0.8-0.5,1.6,0.4,2.3C394.3,208.6,394.4,207.7,394.4,207z"/>
	<path d="M393.5,220.5c0.1,0,0.1,0,0.2,0c0-0.8,0-1.7,0-2.4c-0.1,0-0.1,0-0.2-0.1C393.5,218.9,393.5,219.7,393.5,220.5z"/>
	<path d="M385.6,257.1c0.1,0.1,0.1,0.1,0.2,0.2c0.1-0.1,0.1-0.2,0.1-0.2l-0.1-0.1C385.8,257,385.7,257.1,385.6,257.1z"/>
	<g>
		<path d="M380.5,203.2c-0.1,4.8-0.3,10.4-0.5,16.1c-0.2,4.6-0.7,9.1-2.4,13.4c-2.7,6.9-4.1,14.3-5.7,21.5
			c-1.6,7.2-3.7,14.3-6.7,21.1c-4.5,9.9-9.4,19.5-15.6,28.5c-3.6,5.3-7.7,9.9-12.4,14.2c-2.7,2.4-5.4,5.1-7.3,8.3
			c-2.2,3.8-5.8,6.3-9.1,9c-4.4,3.6-8.9,7.2-13.9,10.1c-3.9,2.2-7.8,4.8-11.2,7.9c-1.5,1.4-3.2,2.3-4.9,3.5c-1.7,1.1-3.5,2-5.6,2
			c-2.7,0.1-5,1.1-7.5,1.9c-3.2,1-6.4,2.4-8.9,5c-2.1,2-4.7,3.1-7.8,3.2c-2.1,0-3.9,0.7-5.8,1.6c-2.1,1-4.2,2-6.3,2.6
			c-1.9,0.6-4,1.2-5.9,1.1c-4.1-0.4-8,0.4-12.1,0.4c-4.1,0.1-8,0.6-11.8,2.1c-1.9,0.8-3.9,1-5.9,1.1c-3.3,0.2-6.9,0.5-10.2,0.8
			c-1.1,0.1-2.3,0.3-3.3,0.3c-7.2-0.4-14.3-0.8-21.5-1.2c-0.6,0-1.2,0-1.7-0.1c-7.7-1.2-15.4-2.1-22.9-3.7c-6.2-1.2-12.4-2.6-18-5.9
			c-0.7-0.4-1.6-0.7-2.4-0.9c-6-1.3-11.2-4.5-16.4-7.2c-3.6-1.8-6.9-4.2-9.5-7.3c-1.2-1.4-2.6-2.1-4.3-2.5c-3.2-0.6-5.8-2.2-8.3-4.3
			c-9.6-7.6-18.9-15.8-27.4-24.7c-6.7-7-12.9-14.5-18-22.8c-1.9-3.1-3.9-6.3-5.8-9.5c-3.9-6.3-7.4-12.8-10.6-19.5
			c-1.1-2.2-2.2-4.6-3.8-6.6c-2.7-3.3-4.2-7.3-4.9-11.7c-0.5-3-0.9-6.2-2-9.1c-2.5-6.1-3.6-12.6-4.4-19.1c-0.9-7-1.4-14.2-1.9-21.3
			c-0.2-2.2-0.2-4.7,0.5-6.7c1.1-3.3,1-6.6,0.8-10.1c-0.2-3.7-0.1-7.4,2.2-10.7c1.5-2.1,1.4-5,1.1-7.4c-0.2-2.3-0.1-4.6,1.1-6.6
			c0.4-0.7,0.6-1.6,0.8-2.3c0.8-3.2,1.5-6.6,2.3-9.9c0.8-3.2,2.9-6.1,3.2-9.6c0.2-1.1,0.6-2.2,1.3-3.1c2.6-3.6,3.8-7.6,4.9-11.8
			c0.7-2.4,1.7-4.8,3.2-6.9c3.9-6,7.6-12.1,12.4-17.5c1.3-1.5,2.2-3.2,3.2-5c3.6-5.6,7.1-11,10.7-16.5c1.7-2.6,3.6-5.2,6.4-6.8
			c1.7-1.1,3.2-2.3,4.6-3.9c5.3-5.7,12-9.8,18-14.6c0.7-0.5,1.4-1.1,2.2-1.4c5.9-1.9,10.3-6.1,15.2-9.5c3.8-2.6,7.7-5,12.2-6.2
			c2.5-0.8,5-1.5,7.2-2.7c4.7-2.8,9.8-4.5,15.1-6.1c1.4-0.4,2.8-0.7,4.1-1.4c5.5-2.5,11.2-4,17.2-4.7c8-0.8,15.9-2.2,23.8-3.2
			c7.4-1,14.9-0.6,22.3-0.5c3.3,0.1,6.8,0.9,10.1,1.6c10.9,2.2,22,4.1,32.5,8.2c4.5,1.8,8.9,4,13.5,5.7c6,2.1,11.5,5.2,17.1,7.9
			c8.3,4.1,15.9,9.2,22.8,15.1c9.4,7.9,18.7,16,27.2,25c3,3.1,5.7,6.3,8.1,10c2.4,3.9,5.1,7.5,7.6,11.4s4.6,7.9,6.4,12.1
			c3.9,8.9,7.6,17.9,11.6,26.6c3.1,7,5.5,14.3,7.7,21.8c2.7,9,3.9,18.4,3.9,27.8C380.5,193.7,380.5,197.9,380.5,203.2z M199.9,25.3
			c-18-0.4-35.4,2.7-52.7,7.5c-1.4,0.4-2.7,0.9-4,1.5c-4.5,1.8-9,3.7-13.6,5.5c-2.9,1.2-5.7,2.5-8.4,4.3
			c-6.1,3.8-11.8,8.1-18.5,10.9c-1.5,0.6-2.8,2-4.1,3c-4.6,3.9-9.1,7.8-13.7,11.7c-0.9,0.7-1.9,1.3-2.9,1.8
			c-1.8,0.9-3.8,1.4-5.5,2.3c-2,1.1-1.5,3.6-2.6,5.3c-0.6,1-1.3,1.9-2,2.7c-4.1,4.9-7.9,9.8-12.3,14.3c-3.3,3.6-6.2,7.4-8.6,11.7
			c-1.8,3.1-3.7,6.4-5.3,9.8c-2.7,5.7-5,11.5-7.6,17.2c-1.5,3.3-2.8,6.8-3,10.6c-0.1,2.1-1.3,4.4-2,6.4c-0.9,2.3-2.2,4.7-2.7,7.1
			c-0.9,4.8-2.2,9.4-3.3,14.1c-0.4,1.7-0.8,3.3-1,5.1c-1,10.2-0.4,20.5-0.5,30.7c0,1.1,0.3,2.2,0.5,3.3c1,6.1,2.1,12.4,3.1,18.5
			c0.8,4.6,1.9,8.9,3.9,13.1c2.8,5.7,4.8,11.6,7,17.5c5,13.4,10.9,26.4,20,37.6c3,3.8,5.5,8.1,8.7,11.7c4.8,5.3,8.9,11.2,14.8,15.4
			c6.1,6.5,13.2,11.8,20.9,16.2c7.7,4.4,15.1,9.4,23.4,12.6c1,0.4,1.9,1.2,2.9,1.9c6.1,4,12.6,6.8,19.8,7.9c2,0.3,3.9,0.8,5.9,1.4
			c8.3,2.5,16.6,4.3,25.2,5.5c7.7,1.1,15.5,0.9,23.1,0.9c3.2,0,6.3-0.4,9.5-0.5c5.8-0.1,11.4-1,17-2c1.1-0.2,2.3-0.4,3.2-0.9
			c3.9-2,8.1-2.9,12.2-4.1c6.1-1.6,12.1-3.7,17.5-7c2.7-1.7,5.5-2.9,8.7-3.5c2.9-0.4,5.5-1.8,8-3.1c7.2-4.1,14.5-8.1,21.7-12.3
			c5.9-3.5,11.5-7.5,16.4-12.3c6.7-6.3,13.2-12.7,19-19.8c7.2-8.9,13.8-18.2,19.5-28c2.1-3.8,3.2-7.9,5.3-11.7c2.6-4.8,4.2-9.9,6-15
			c2.4-7,3.3-14.3,5.3-21.5c0.6-2.4,1.2-5.1,1.4-7.5c0.4-6,0.6-12,0.6-18c0-4.6-0.4-9.1-1-13.7c-0.7-6-1.8-11.8-2.6-17.8
			c-1.8-13.3-4.8-26.4-9.8-38.8c-1.5-3.7-2.7-7.6-4.6-11c-5.1-8.9-10.5-17.7-15.9-26.5c-2.9-4.7-6.6-8.6-11-11.9
			c-1.9-1.3-3.8-2.6-5.5-4.2c-3.8-3.5-7.3-7.2-11.3-10.6c-3.9-3.2-8.7-5.7-12.4-9.2c-6-5.9-13.2-10-20.7-13.7
			c-3.8-1.9-7.7-3.8-11.6-5.8c-1.5-0.8-3-1.8-4.7-2.1c-7-2-13.3-5.5-19.8-8.4c-2.1-1-4.3-1.7-6.5-2.2c-3.2-0.8-6.7-1.4-10-2.1
			c-6.8-1.5-13.6-1.9-20.6-1.9C205.7,25.3,202.8,25.3,199.9,25.3z"/>
		<path d="M129.8,200.7c2,2,3.3,3.3,4.8,4.9c1.4,1.4,2.9,2.7,4.3,4.3c3.9,4.1,8.8,5.4,14.2,4.6c7.1-1.1,14.2-2.3,20.9-5.2
			c0.8-0.3,1.5-0.9,2.2-1.3c1.1-0.7,1.2-2.6,0.4-3.9c-1.1-1.5-2.6-2.2-4.4-2.3c-2.9-0.2-5.7,0.1-8.5,1.1c-2.2,0.9-4.5,1-6.8,0.9
			c-2.5,0-4.4-1.2-5.9-3c-2.3-2.8-3-6.1-2-9.6c0.7-2.1,1.6-4.3,2.7-6.2c1.8-3.2,3.5-6.5,5.7-9.5c3-4.1,7.4-5.3,12.3-4.4
			c2.9,0.6,5.4,1.8,7.6,3.8c6.2,5.5,9,12.4,9.5,20.4c0.2,3.1-0.8,6.2-1.9,9.1c-3.6,9.9-10.1,16.9-20.6,20.3
			c-5.8,1.9-11.7,3.1-17.6,4.4c-1.1,0.2-2.3,0.2-3.3,0.4c-4.3,0.6-8-0.7-11.2-3.5c-2-1.7-3.8-3.5-5.7-5.3c-1-1-2-2-3-3
			c-0.6-0.6-2.6-0.8-3.2-0.3c-1.4,1-2.8,2-4.1,3c-3,2.2-6,4.4-9.5,6c-3.2,1.5-6.6,1.7-9.9,0.4c-4.6-1.7-8.9-4-12-8
			c-0.7-0.9-1.5-1.7-2.4-2.4c-1.6-1.5-3.5-2-5.6-1.2c-5.7,2-11.1,4.8-16,8c-3.1,2-6.1,4.3-9,6.5c-1.9,1.5-1.5,3.6,0.9,4.7
			c1,0.5,2.1,0.9,3.2,1.2c4.4,1.5,9,1.8,13.6,1.8c8.1,0,16-0.1,24.1-0.4c9.7-0.4,19.5-0.7,29.2-0.3c3.3,0.1,6.9-0.3,10.2-0.7
			c6.9-0.8,13.8-1,20.7-0.8c1.5,0,2.5,1.7,2.1,2.9c-0.2,0.5-0.3,1.1-0.6,1.6c-1,1.8-1.8,3.6-3,5.2c-2.3,3.1-5.3,5-9.5,5
			c-16-0.3-32.2,1.3-48.2,1.8c-4,0.1-8,0.4-12,0.8c-6.6,0.7-13.2,0.8-19.8,0.7c-4.4,0-8.6-1-12.8-1.9c-2.8-0.6-5.4-1.9-7.7-3.7
			c-1.7-1.3-2.4-3.3-1.5-5.3c0.5-1,1-2,1.5-3c1.6-3,3.3-6,4.7-9.1c3.7-8.7,9.3-15.6,17.8-20.3c1-0.6,1.9-1.2,2.9-1.9
			c1.3-0.9,1.3-2.6,0-3.5c-4.9-3-10.1-5.4-15.6-7.3c-1.5-0.6-3.3-0.3-5.1-0.3c-2.2-0.1-2.9-1.2-1.9-3.3c1.1-2.2,2.3-4.6,3.6-6.8
			c1-1.8,2.5-3,4.4-4c1.6-0.7,3.2-1.4,4.8-1.9c9.7-2.5,19.6-4.4,29.7-4.6c5.5-0.1,10.9,0.6,16,2.3c3,1,5.8,2.4,8.1,4.7
			c1.7,1.7,2.9,3.7,2.8,6.1c-0.3,5.5-2.2,10-7.4,12.7c-1.8,0.9-3.7,1.5-5.6,2.2c-1,0.5-1.9,1.2-2.8,1.9c-0.6,0.4-0.7,1.9-0.2,2.3
			c0.4,0.4,0.8,0.9,1.3,1.1c1.8,0.9,3.6,1.8,5.5,2.4c2.8,1,5.7,0.8,8.4-0.4c3.5-1.5,6.5-3.6,9.5-5.9
			C125.2,204.1,127.4,202.6,129.8,200.7z M82.4,191.8c0.1,0.7,0.1,1.4,0.4,1.8c3,3.8,4.9,4.5,8.8,2.7c1.5-0.6,3.9-0.8,3.9-2.6
			c-0.1-2.5-2.8-2.3-4.6-2.8c-1.4-0.4-2.8-0.7-4.2-0.9c-0.8-0.1-1.8,0-2.5,0.3C83.4,190.7,82.9,191.4,82.4,191.8z M162,187.9
			c0.7,0.2,1.4,0.5,2.1,0.5c0.4,0,0.8-0.6,1.2-0.9c-0.4-0.4-0.6-0.9-1.1-1c-0.4-0.2-1.1-0.2-1.5,0
			C162.4,186.7,162.3,187.3,162,187.9z"/>
		<path d="M313.5,209.6c1.4,21-0.1,42.9-0.9,64.8c-0.1,2.8-0.2,5.8-0.1,8.5c0.1,2,0.6,4,1.1,5.9c0.6,2,2.9,3.8,5.1,4
			c3.2,0.3,6.3-0.3,9.2-1.9c0.9-0.5,1.5-2,1-2.9c-0.4-0.8-0.6-1.6-1.2-2.2c-2.2-2.6-1.5-5.3,0.2-7.8c1.4-2.1,2.8-4.3,4.3-6.3
			c0.8-1.2,2.8-1,3.7,0.2c4.4,5.9,4.9,12,1.6,18.4c-1,2-2.3,4-3.6,5.9c-2,2.8-4.6,5.1-7.8,6.5c-4.2,2-8.5,3.5-13.1,4.3
			c-3.6,0.6-6.7-1.3-8.3-4.7c-1.1-2.3-1.4-5-1.3-7.5c0.3-10,0.5-19.9,1-29.9c0.6-10.2,0.6-20.5,0.4-30.7c0-1.6-1.5-2.5-2.9-2
			c-4,1.7-7.9,3.2-11.8,5.2c-2.7,1.3-5.4,1.9-8.3,1.9c-12.4,0.2-24.8,0.2-37,0.8c-13.2,0.6-26.5,0.6-39.6,2.2
			c-6.6,0.8-13.2,0.9-19.7,1.9c-2.5,0.4-5.1,0.7-7.7-0.2c-0.4-0.1-0.9-0.8-0.9-1.3c0-0.8,0.1-1.7,0.5-2.4c1-2,2.1-4.1,3.1-6.1
			c1.4-2.7,3.5-4.2,6.7-4.6c5.7-0.7,11.4-1.5,17.1-1.8c9.7-0.5,19.5-1.6,29.2-1.2c7.8,0.4,15.5,0,23.2,0c2.9,0,5.8-0.1,8.6,0.1
			c5.8,0.3,11.5,0.3,17.1-0.7c4-0.7,8-0.7,12-0.2c2,0.2,4,0.3,6,0.3c2.6,0,4.1-0.9,4.1-4.3c0-1.4,0-2.8-0.1-4.3
			c-0.3-8.2-0.5-16.5-0.9-24.8c-0.5-12.8-1.2-25.7-1.7-38.5c-0.3-9.4-0.3-18.8-0.7-28.2c-0.2-5.1,1-9.6,4-13.7
			c0.8-1.1,1.8-2.1,2.7-3.2c0.1-0.1,0.5-0.1,0.8,0c0.2,0.1,0.5,0.3,0.5,0.5c0.1,2.2,0.2,4.6,0.3,6.8c0.3,5.5,0.6,10.8,0.9,16.2
			c0.2,4.6,0.5,9.1,0.5,13.7c0.2,8.8,0.4,17.7,1.2,26.5c0.4,3.7,0.4,7.4,0.5,11.1C313.2,192,313.4,200.4,313.5,209.6z"/>
		<path d="M83.9,308.6c5.7-0.1,11.1-0.2,16.5-0.3c2.3,0,4.6,0,6.9-0.1c13.5-1.1,27-1.3,40.4-3.5c10.1-1.7,20.4-3.7,29.8-7.9
			c1-0.5,2.1-0.9,3.2-1.4c5.8-2.8,6.2-3.7,5.3-10c-0.6-4.3-2.3-8.2-4.9-11.7c-1-1.4-2.1-2.6-3-4.2c-0.7-1-0.7-2.2-0.2-3.2
			c1.7-3.7,3.3-7.2,6.1-10.2c0.4-0.5,1.7-0.5,2.3-0.3c1,0.4,1.9,1.3,2.8,2c1.2,0.8,2.3,1.7,3.5,2.4c6.2,4.7,12.3,3.7,18.5,0
			c2-1.2,3.7-2.6,5.6-4c1.7-1.2,3.3-0.2,3.5,2c0.1,6.1,0.9,11.9,1.9,17.9c0.6,3.3,1.8,6.5,4,9.3c0.9,1.1,2.9,1.3,3.9,0.3
			c4.6-4.7,9.5-9,14.7-13.2c2.9-2.3,6.1-4.3,9.4-6c5.8-2.9,12-4,18.4-3.3c3.3,0.3,6.8,0.6,10,2c3.2,1.4,5.9,3.5,7.9,6.4
			c0.8,1.2,1.4,2.4,2.1,3.8c4.1,7.9,1.1,15.2-4.5,20c-4,3.3-8.5,5.9-13.6,7.3c-3.8,1.2-7.8,2-11.7,2.9c-7,1.5-14.1,2.5-21.4,2.5
			c-3.2,0-6.3,0-9.5-0.4c-5.8-0.7-10.1-3.7-13.2-8.5c-2.9-4.8-4.3-9.9-4.9-15.3c-0.3-2.5-0.3-5.2-0.5-7.6c-0.1-1.1-0.3-2.2-0.5-3.3
			c-0.4-2-2.7-3-4.7-1.9c-1,0.6-1.9,1.3-2.9,1.9c-2.2,1.4-4.3,2.9-6.6,4.1c-2.3,1.1-3.7,2.7-4.2,5.1c-1,4.6-2.9,8.6-5.1,12.7
			c-2.9,5.5-7.2,9.5-12.6,12.5c-5.9,3-12.1,5.5-18.4,7.2c-11.1,3-22.4,4.7-34,5.6c-1.1,0.1-2.3,0-3.3,0.1c-3.2,0.2-6.2-0.8-8.9-2.6
			c-1.2-0.8-2.3-1.7-3.5-2.5c-2.1-1.5-4.6-2.5-7.1-2.9c-5.4-0.7-10.7-2.3-16.1-2.1C84.9,309.4,84.5,309,83.9,308.6z M261.4,275
			L261.4,275c-0.9,0-1.7-0.1-2.6,0.1c-10,1.3-18.5,5.7-25,13.6c-0.2,0.2-0.2,0.5-0.3,0.8c-0.3,0.6-0.1,1.1,0.4,1.5
			c0.7,0.5,1.4,1.2,2.1,1.4c5.6,1.4,11.3,2.1,16.9,1.7c7.7-0.7,15.4-2,22.8-3.6c1.1-0.2,2.1-0.8,3.2-1.2c0.6-0.3,1.1-1.6,0.9-2.1
			c-0.5-1-0.9-2-1.5-3c-3.5-6-8.8-8.7-15.6-8.9C262.4,275,261.9,275,261.4,275z"/>
		<path d="M90.6,297.5c-3.1,0.4-6.4-0.2-9.3-2.4c-4.8-3.8-10.3-4.7-16.1-4.7c-1.4,0-2.8,0-4.3,0c-0.1,0-0.3-0.3-0.3-0.5
			c0.1-0.3,0.2-0.7,0.4-0.7c2.2-0.4,4.5-1.1,6.8-1.2c5.8-0.1,11.5-0.8,17-1.8c7.1-1.2,14.2-2.2,21.3-3.2c13.7-2,27.1-5.4,40.4-8.9
			c5.6-1.5,10.9-3.6,16-6.1c1.3-0.6,2.5-1.5,3.6-2.2c1.1-0.7,1.5-2.6,0.9-3.9c-0.5-1-1-2-1.6-2.9c-1-1.7-2.3-3.2-3.2-5.1
			c-1-2-1.9-4.2-2.7-6.2c-0.6-1.7-0.4-3.2,0.2-5c1.3-3.5,3.3-6.5,5.5-9.6c0.5-0.7,1.7-0.9,2.3-0.5c2.9,2.1,4.8,4.9,5.5,8.4
			c0.4,2,0.6,4,1.3,5.9c1.5,4.2,1.6,8.3,1.2,12.7c-0.4,3.5-1.7,6.6-3.8,9.4c-4.2,5.6-9.1,10.2-15.6,13.1c-5.8,2.5-11.6,5.1-17.7,6.6
			c-9.2,2.2-18.4,4.7-27.7,6.5C104.2,296.1,97.7,297.6,90.6,297.5z"/>
		<path d="M81.7,258.6c1,0.5,2.2,1.3,3.6,1.7c2.9,1,5,4.4,8.3,3.8c2.8-0.6,4.3-3.6,6.5-5.4c0.7-0.5,1.3-1.1,2-1.6
			c1.6-1,3.2-1.1,4.9-0.3c3.6,1.9,6.5,4.7,9.1,7.6c0.4,0.5,0.4,1.7,0.1,2.3c-1.3,2.8-3.5,5.2-5.9,7.2c-2.1,1.7-4.9,2-7.2,0.6
			c-1.9-1.3-3.7-2.6-5.6-4c-0.9-0.6-2-1.1-3-1.6c-0.9-0.4-1.8-0.1-2.4,0.5c-1.4,1.4-2.5,3-3.9,4.6c-0.8,0.8-1.6,1.6-2.6,2.2
			c-1.2,0.8-2.7,1.3-4.1,0.6c-3.2-1.7-6.5-3.6-9.6-5.5c-0.9-0.5-1.3-2.2-0.9-3c2.2-3.8,5.2-6.7,8.6-9.4
			C80.1,258.8,80.8,258.8,81.7,258.6z"/>
		<path d="M331.1,214.6c-0.4-1.7,0.3-2.8,0.9-4.2c1.6-3.3,2.7-6.8,3.5-10.4c1-4,0.8-7.8-0.4-11.7c-1.2-3.9-3-7.3-5.1-10.7
			c-1.2-1.9-2.4-3.8-3.6-5.7c1.1-4.4,3.1-8.1,5-11.9c0.5-1,2.3-1.2,2.9-0.3c0.2,0.2,0.4,0.4,0.6,0.6c6.9,11.3,8.3,23.3,4.6,35.9
			c-1.1,3.8-2.6,7.5-4.2,11.1C334.1,209.9,333.1,212.4,331.1,214.6z"/>
		<path d="M252.9,327.4c9.1-2.3,18.3-4.7,27.4-7c2.8-0.7,5.5-1.6,8.2-2.2c0.2-0.1,0.6,0.2,0.7,0.3c0.1,0.5,0.4,1.2,0.2,1.5
			c-2.1,3.8-5.7,5.4-9.5,6.4c-1.4,0.4-2.8,0.5-4.2,0.7c-8.2,1.1-16.2,2.8-24.4,4.7c-6.4,1.5-12.9,2.6-19.3,4.1
			c-6.7,1.4-13.3,3.5-19.8,5.6c-0.4,0.1-1.3-0.2-1.4-0.6c-0.1-0.4,0.1-1.2,0.5-1.5c0.9-0.7,1.8-1.5,2.8-1.8c2.1-0.8,4.3-1.5,6.6-2
			c7.5-1.9,15-3.7,22.4-5.5C246.3,329.2,249.5,328.3,252.9,327.4L252.9,327.4z"/>
		<path d="M335.6,252.8c-0.8-0.3-1.6-0.5-2.3-1c-2.3-1.7-4.3-3.8-6.7-5.3c-5.1-3-4.8-4.2-2.1-8.7c0.1-0.2,0.3-0.5,0.5-0.7
			c5.5-7.6,6.7-8.2,14.8-1.8c0.9,0.7,1.7,1.5,2.4,2.3c1.3,1.6,1.9,3.5,1.3,5.6c-1,3.3-2.5,6.3-5.5,8.3
			C337.4,252.3,336.6,252.5,335.6,252.8z"/>
		<path d="M165.6,141.3c0.5,0.2,1.1,0.3,1.6,0.5c1.7,1,3.5,1.9,5.2,2.9c3.2,2.1,4.2,5.2,2.7,8.8c-1,2.6-2.6,5.1-5.3,6.4
			c-1.6,0.8-3.2,1-4.9,0c-1.9-1.2-3.6-2.7-5.7-3.8c-5.1-2.3-4.2-3.7-1.3-7.5c1.9-2.4,3.5-5.2,6.1-7
			C164.5,141.5,165.1,141.4,165.6,141.3z"/>
		<path d="M267.8,214.1c0.3-1,0.6-2.3,0.9-3.8c0.8-3.8,0.2-7.3-1.4-10.8c-1.4-2.9-3.5-5.2-7.2-4.9c-0.5,0-1.1-0.2-1.6-0.4
			c-0.6-0.2-0.9-1.6-0.5-2.1c1.3-2.2,3.5-2.9,5.8-2.7c1,0.1,2.2,0.8,2.9,1.6c1.4,1.8,2.5,3.8,3.8,5.7c1.1,1.7,2.6,1.8,4.2,0.2
			c1.6-1.6,3-3.3,4.7-4.9c1.3-1.1,2.8-2,4.3-2.6c2.3-1.1,5.5,0.1,6.7,2.2c0.7,1.3,0.7,2.6-0.2,4c-0.7,1.1-2.6,1.6-3.9,0.9
			c-0.8-0.4-1.4-0.9-2.2-1.4c-2.5-1.6-3.9-1.4-5.8,0.8c-3.9,4.5-5.5,9.8-6.4,15.4c-0.3,1.7-0.4,3.3-1.5,4.8
			c-0.4,0.6-0.9,0.8-1.5,0.4c-0.4-0.3-0.7-0.8-1-1.2C267.7,215.1,267.8,214.7,267.8,214.1z"/>
		<path d="M195.1,333c0-3.5,0-5.5,0-7.4c-0.1-4.7-1.4-9-4.2-12.8c-0.3-0.5-0.7-0.9-1-1.4c-0.8-1.4-0.3-2.7,1.2-3.5
			c1.4-0.7,3.2-0.3,3.8,1c1.2,2.5,2.2,5.3,3.2,7.8c0.2,0.6,1.7,1.1,2.2,0.7c0.9-0.7,1.9-1.3,2.7-2c1.7-1.5,3.3-3,5.2-4.5
			c1.2-0.9,2.7-1,4.1-0.9c1.3,0.1,2.5,1.5,2.5,2.9c0.1,1.6-0.9,3-2.2,3.1c-1.4,0.1-2.8,0.2-4.3,0.2c-1.9,0-3.2,0.7-4.3,2.2
			c-2,3.5-3.8,7-4.8,10.9c-0.8,2.7-1.4,5.6-2.1,8.2c-0.1,0.4-0.9,0.6-1.3,0.7c-0.6,0.1-1-0.4-1-1.1c0-0.9,0-1.7,0-2.5
			C195,333.8,195.1,332.6,195.1,333z"/>
		<path d="M236.7,190.5c0.4,0.2,0.8,0.3,0.8,0.5c0.1,0.5,0.3,1.2,0.1,1.5c-0.5,0.7-1.2,1.4-1.9,1.7c-9,3.8-18,7.3-27.1,11.1
			c-4,1.7-7.9,3.3-11.8,5.2c-2.1,0.9-4.2,2-6.2,2.8c-0.7,0.3-2-0.3-2.2-0.9c-0.2-0.9,0.2-1.8,0.8-2.2c1.1-0.9,2.3-1.8,3.5-2.3
			c4.2-1.9,8.4-3.9,12.7-5.3c9.7-3.2,19.2-7.6,28.8-11.2C235.1,191,236,190.8,236.7,190.5z"/>
		<path d="M181.6,324.2c-5.7,1.8-11.6,3.1-17.3,4.7c-8.6,2.1-16.9,5-25.6,7.3c-4.4,1.3-8.8,2.2-13.3,3.3c-0.2,0-0.6-0.3-0.7-0.5
			c-0.1-0.5-0.3-1.1-0.1-1.5c0.2-0.5,0.8-0.9,1.2-1.2c0.5-0.3,1-0.5,1.6-0.7c11.9-3,23.7-6.1,35.7-9.1c4.2-1,8.3-2,12.5-2.8
			C177.6,323.4,179.6,323.2,181.6,324.2L181.6,324.2z"/>
		<path d="M359,202.6c-0.5,0.7-1.1,1.4-1.4,2c-2,4.6-1.6,6.3,2.4,9.3c1.7,1.3,1.9,2.6,1.6,4.5c-0.4,2.3-1.7,4.2-3.9,5.3
			c-1.8,1-4.3,0.1-5-1.8c-1.2-3.2-1.3-6.6-0.4-10c0.9-2.9,2.2-5.9,4.3-8.2c0.6-0.6,1.3-1.1,2.2-1C358.8,202.8,359,202.6,359,202.6z"
			/>
		<path d="M171.8,338.6c0.4,1.8-0.7,3.2-1.1,4.9c-0.8,3.2,0.5,5.1,4,6.1c0.5,0.2,1.2,0.2,1.6,0.6c0.3,0.3,0.6,1,0.5,1.5
			c-1,3.5-4.1,5.7-7.7,5.6c-1.4,0-2.9-1.2-3.2-2.4c-0.6-2.2-0.6-4.6,0.2-6.7c1.3-3.5,2.7-6.8,5.9-9.2L171.8,338.6z"/>
		<path d="M244,340.4c-0.4,1.6-0.8,3.2-1.1,4.9c-0.6,2.8,0.7,4.4,3,5.3c0.5,0.2,1.1,0.4,1.5,0.7c0.8,0.6,0.8,1.5,0.5,2.2
			c-0.9,2.8-3,4.7-5.8,5.7c-2,0.7-4.1-0.6-4.3-2.6c-0.3-2.5-0.1-5.1,0.9-7.4c1.3-3,2.9-6.1,5.4-8.4L244,340.4L244,340.4z"/>
		<path d="M233.9,257.3c0.1-2.8,0.9-5.5,2.6-7.8c0.1-0.2,0.5-0.3,0.7-0.3s0.5,0.3,0.5,0.6c0.1,0.6,0,1.1,0,1.7
			c-0.1,1.9,0.7,3.1,2.3,4.1c0.5,0.3,1,0.5,1.5,0.8c1.2,0.9,1.1,2.3-0.2,3.5c-1.1,0.9-2.3,1.6-3.7,1.8c-1.8,0.2-3.5-1-3.7-2.5
			C234,258.4,234,257.9,233.9,257.3z"/>
		<path d="M243.5,202.4c-0.8,1.4-0.8,2.6,0.1,4c1.1,1.5,2.4,2.2,4.4,2c0.5-0.1,1.1-0.1,1.7,0c0.2,0,0.5,0.3,0.6,0.6
			c0.1,0.2,0.1,0.6,0,0.8c-1.4,2.4-3.8,3.5-6.4,3.6c-1.5,0.1-2.6-1-3.3-2.2c-1.5-2.6-0.7-6.1,2-8.2c0.2-0.2,0.6-0.1,0.8-0.1
			L243.5,202.4z"/>
		<path d="M59.9,278.8c1.3-6.1,0-11.8-1.9-17.6c-0.1-0.4,0.3-1.1,0.6-1.5c0.4-0.5,1.8,0.1,2.1,0.8c0.2,0.5,0.6,1,0.7,1.5
			c0.4,1.7,0.9,3.3,0.9,5c-0.1,4,0,7.9-2.2,11.5L59.9,278.8z"/>
		<path d="M181.6,324.3c-0.1-0.2-0.3-0.3-0.4-0.5c0.1,0.1,0.2,0.2,0.4,0.3C181.6,324.2,181.6,324.3,181.6,324.3z"/>
		<path d="M60,278.6l-0.1,0.5c0,0,0-0.4,0-0.3L60,278.6z"/>
		<path d="M358.8,202.8c0.1,0-0.2-0.3,0.2-0.2C359,202.6,358.8,202.8,358.8,202.8z"/>
		<path d="M243.3,202.6l-0.2-0.6c0,0,0.3,0.4,0.4,0.4C243.5,202.4,243.3,202.6,243.3,202.6z"/>
	</g>
</g>
</svg>
