<?xml version="1.0" encoding="utf-8"?>
<!-- Generator: Adobe Illustrator 21.0.2, SVG Export Plug-In . SVG Version: 6.00 Build 0)  -->
<svg version="1.1" id="Layer_1" xmlns="http://www.w3.org/2000/svg" xmlns:xlink="http://www.w3.org/1999/xlink" x="0px" y="0px"
	 viewBox="0 0 110 110" style="enable-background:new 0 0 110 110;" xml:space="preserve">
<style type="text/css">
	.st0{fill:#E0E0E0;}
</style>
<path class="st0" d="M110,97.5l-9.3-5.4V81.4L110,76v0l0,0v-2.4l0,0l-5.4-9.3H93.9l5.4-9.3l-5.4-9.3h10.7l5.4-9.3v0l0,0V34l0,0v0
	l-9.3-5.4V17.9l9.3-5.4v0l0,0v-1.8l0,0v0l-9.3,5.4V5.4L91.4,0l0,0H89l0,0l-5.4,9.3H72.9L67.5,0l0,0h-1.8l0,0l5.4,9.3H60.4L55,18.6v0
	l-5.4-9.3H38.9L44.3,0l0,0h-1.8l0,0l-5.4,9.3H26.4L21,0l0,0h-2.4l0,0L9.3,5.4v10.7L0,10.7v0l0,0v1.8l0,0v0l9.3,5.4v10.7L0,34v0l0,0
	v2.4l0,0v0l5.4,9.3h10.7L10.7,55l5.4,9.3H5.4L0,73.6l0,0V76l0,0v0l9.3,5.4v10.7L0,97.5l0,0v1.8l0,0v0l9.3-5.4v10.7l9.3,5.4H21
	l5.4-9.3h10.7l5.4,9.3h1.8l-5.4-9.3h10.7l5.4-9.3v0l5.4,9.3h10.7l-5.4,9.3h1.8l5.4-9.3h10.7L89,110h2.4l9.3-5.4V93.9l9.3,5.4v0l0,0
	L110,97.5L110,97.5z M97.5,55l-5.4,9.3H81.4L76,55l5.4-9.3h10.7L97.5,55z M45.7,71.1V60.4L36.4,55l9.3-5.4V38.9l9.3,5.4v0l9.3-5.4
	v10.7l9.3,5.4l-9.3,5.4v10.7L55,65.7v0L45.7,71.1z M44.2,61.3v10.4H32.9l-5.6,9.8l-9-5.2V65.8h11.3l5.6-9.8L44.2,61.3z M29.5,44.2
	H18.2V33.8l9-5.2l5.6,9.8h11.3v10.4l-9,5.2L29.5,44.2z M65.8,48.8V38.3h11.3l5.6-9.8l9,5.2v10.4H80.5L74.8,54L65.8,48.8z M65.8,61.3
	l9-5.2l5.6,9.8h11.3v10.4l-9,5.2l-5.6-9.8H65.8V61.3z M108.9,35.2l-5.2,9H93.3V32.9l-9.8-5.6l5.2-9h10.4v11.3L108.9,35.2z
	 M73.2,10.8h11.3l5.6-9.8l9,5.2v10.4H87.9l-5.6,9.8l-9-5.2V10.8z M61.3,10.8h10.4v11.3l9.8,5.7l-5.2,9H65.8V25.5L56,19.9L61.3,10.8z
	 M55,21l9.3,5.4v10.7L55,42.5v0l-9.3-5.4V26.4L55,21L55,21z M38.3,22.1V10.8h10.4l5.2,9l-9.8,5.6v11.3H33.8l-5.2-9L38.3,22.1z
	 M10.8,6.3l9-5.2l5.6,9.8h11.3v10.4l-9,5.2l-5.6-9.8H10.8V6.3z M6.3,44.2l-5.2-9l9.8-5.6V18.2h10.4l5.2,9l-9.8,5.6v11.3H6.3z
	 M12.5,55l5.4-9.3h10.7L34,55l-5.4,9.3H17.9L12.5,55z M1,74.9l5.2-9h10.4v11.3l9.8,5.7l-5.2,9H10.8V80.5L1,74.9z M36.8,99.2H25.5
	l-5.6,9.8l-9-5.2V93.3h11.3l5.6-9.8l9,5.2V99.2z M48.7,99.2H38.3V87.9l-9.8-5.6l5.2-9h10.4v11.3l9.8,5.6L48.7,99.2z M45.7,83.6V72.9
	l9.3-5.4l9.3,5.4v10.7L55,89v0L45.7,83.6z M71.7,87.9v11.3H61.3l-5.2-9l9.8-5.6V73.2h10.4l5.2,9L71.7,87.9z M99.2,103.8l-9,5.2
	l-5.6-9.8H73.2V88.8l9-5.2l5.6,9.8h11.3V103.8z M99.2,80.5v11.3H88.8l-5.2-9l9.8-5.6V65.8h10.4l5.2,9L99.2,80.5z"/>
</svg>
