<svg height="512" viewBox="0 0 64 64" width="512" xmlns="http://www.w3.org/2000/svg"><g id="Flat"><g id="Color_copy" data-name="Color copy"><path d="m3 7h58v42h-58z" fill="#00b4d8"/><path d="m38 7h11v15h-11z" fill="#ade8f4"/><path d="m3 37h29v12h-29z" fill="#00b4d8"/><path d="m32 42v7h-29v-12h8.29a13.926 13.926 0 0 0 10.71 5z" fill="#0096c7"/><path d="m32 37h29v12h-29z" fill="#ade8f4"/><g fill="#48cae4"><path d="m32 42h29v7h-29z"/><path d="m26 7h12v30h-12z"/><path d="m3 7h12v30h-12z"/></g><path d="m11.29 37h-8.29v-30h5v21a13.9 13.9 0 0 0 3.29 9z" fill="#00b4d8"/><path d="m49 7h12v30h-12z" fill="#48cae4"/><path d="m15 22h11v15h-11z" fill="#ade8f4"/><path d="m38 22h11v15h-11z" fill="#00b4d8"/><circle cx="26" cy="51" fill="#fcea42" r="10"/><path d="m34.78 55.78a10 10 0 1 1 -13.56-13.56 9.9 9.9 0 0 0 -1.22 4.78 10 10 0 0 0 10 10 9.9 9.9 0 0 0 4.78-1.22z" fill="#fdc741"/><circle cx="26" cy="51" fill="#fdc741" r="8"/><path d="m26 43a8 8 0 1 0 8 8 8 8 0 0 0 -8-8zm4.958 13.939c-.317.031-.634.061-.958.061a10 10 0 0 1 -10-10c0-.324.03-.641.061-.958a7.993 7.993 0 0 1 10.9 10.9z" fill="#efad1b"/><path d="m26 50a1 1 0 1 1 1-1 1 1 0 0 0 2 0 3 3 0 0 0 -2-2.816v-1.184a1 1 0 0 0 -2 0v1.184a2.993 2.993 0 0 0 1 5.816 1 1 0 1 1 -1 1 1 1 0 0 0 -2 0 3 3 0 0 0 2 2.816v1.184a1 1 0 0 0 2 0v-1.184a2.993 2.993 0 0 0 -1-5.816z" fill="#fffa48"/><path d="m27 45v.58a8.285 8.285 0 0 0 -2-.52v-.06a1 1 0 0 1 2 0z" fill="#fcea42"/><path d="m23.45 54.55a9.936 9.936 0 0 0 3.55 1.99v.46a1 1 0 0 1 -2 0v-1.18a3.039 3.039 0 0 1 -1.55-1.27z" fill="#fcea42"/><path d="m22 26v11h-4v-8z" fill="#d0d8da"/><path d="m14 29h-3v8h7v-11z" fill="#e9f1f2"/><path d="m11 33v4h7v-11l-.626 2.192a6.629 6.629 0 0 1 -6.374 4.808z" fill="#d0d8da"/><path d="m19 32v-3.75l-1 .75v8h4v-11z" fill="#93999a"/><path d="m11 34h2a1 1 0 0 0 0-2h-2z" fill="#00b4d8"/><path d="m14 33a1 1 0 0 1 -1 1h-2v-1a6.548 6.548 0 0 0 2.79-.62 1.03 1.03 0 0 1 .21.62z" fill="#0096c7"/><path d="m32 31h6v-6h-4l-2 3z" fill="#ef5350"/><path d="m38 25v6h-6v-3h2a2.006 2.006 0 0 0 2-2v-1z" fill="#e53935"/><path d="m38 22h14v9h-14z" fill="#fcea42"/><path d="m52 28v3h-14v-9h2v1a5 5 0 0 0 5 5z" fill="#fdc741"/><circle cx="47" cy="31" fill="#656b76" r="2"/><circle cx="36" cy="31" fill="#656b76" r="2"/><circle cx="47" cy="31" fill="#d0d8da" r="1"/><circle cx="36" cy="31" fill="#d0d8da" r="1"/><circle cx="55" cy="13" fill="#f9dbaf" r="2"/><path d="m55 15a2 2 0 0 0 -2 2v2h4v-2a2 2 0 0 0 -2-2z" fill="#f9dbaf"/><path d="m56.82 13.82a2 2 0 1 1 -2.64-2.64 1.891 1.891 0 0 0 -.18.82 2.006 2.006 0 0 0 2 2 1.891 1.891 0 0 0 .82-.18z" fill="#edb88e"/><path d="m57 18v1h-4v-2a2.006 2.006 0 0 1 2-2 1.925 1.925 0 0 1 1.31.5 1.925 1.925 0 0 1 -1.31.5 1.969 1.969 0 0 1 -.88-.21 2.985 2.985 0 0 0 2.88 2.21z" fill="#edb88e"/><path d="m24 15-5-4v2h-9v4h9v2z" fill="#fcea42"/><path d="m19 19v-2h-9v-4h2a2.006 2.006 0 0 0 2 2h10z" fill="#fdc741"/><path d="m47 15-5-4v2h-9v4h9v2z" fill="#fcea42"/><path d="m42 19v-2h-9v-4h2a2.006 2.006 0 0 0 2 2h10z" fill="#fdc741"/><path d="m36 45h4v4h-4z" fill="#ef5350"/><path d="m53 41h4v8h-4z" fill="#ef5350"/><path d="m44 43h4v6h-4z" fill="#ef5350"/><path d="m13 40h-6a1 1 0 0 0 0 2h6a1 1 0 0 0 0-2z" fill="#fdc741"/><path d="m11 44h-4a1 1 0 0 0 0 2h4a1 1 0 0 0 0-2z" fill="#fdc741"/></g></g></svg>