<svg id="Capa_1" enable-background="new 0 0 512 512" height="512" viewBox="0 0 512 512" width="512" xmlns="http://www.w3.org/2000/svg"><g><g><g><path d="m50.726 197.398c-2.534-2.534-2.534-6.658 0-9.192 1.228-1.228 2.86-1.904 4.597-1.904s3.369.676 4.597 1.904l56.494 56.494c-3.625-26.051-15.441-51.18-35.473-71.211-21.075-21.075-47.792-33.064-75.288-35.979-3.244-.344-5.966 2.379-5.622 5.622 2.916 27.497 14.904 54.213 35.979 75.288 20.031 20.032 45.161 31.847 71.211 35.473z" fill="#05e39c"/><g><path d="m50.019 198.106c-1.858-1.858-2.533-4.447-2.034-6.84-12.769-15.147-21.383-32.6-25.835-50.866-5.443-1.326-10.953-2.302-16.499-2.89-3.243-.344-5.966 2.379-5.622 5.622 2.916 27.497 14.904 54.213 35.979 75.288 19.607 19.607 44.098 31.343 69.556 35.232z" fill="#0ed290"/></g></g><g><path d="m264.064 137.509c-27.497 2.916-54.213 14.904-75.288 35.979-20.032 20.032-31.848 45.16-35.473 71.211l56.494-56.494c1.228-1.228 2.86-1.904 4.597-1.904s3.369.676 4.597 1.904c2.534 2.534 2.534 6.658 0 9.192l-56.494 56.494c26.051-3.625 51.18-15.441 71.211-35.473 21.075-21.075 33.064-47.792 35.979-75.288.343-3.242-2.38-5.965-5.623-5.621z" fill="#05e39c"/><g><path d="m264.064 137.509c-27.497 2.916-54.213 14.904-75.288 35.979-19.607 19.607-31.343 44.098-35.232 69.556l41.131-41.131c3.203-4.129 6.683-8.113 10.475-11.905 17.773-17.773 39.564-29.058 62.446-33.914.915-4.29 1.629-8.614 2.091-12.963.343-3.243-2.38-5.966-5.623-5.622z" fill="#0ed290"/></g><g><path d="m127.357 297.707c2.471-.228 4.97-.36 7.5-.36s5.029.132 7.5.36v-22.263l77.339-77.339c2.929-2.929 2.929-7.678 0-10.606-2.93-2.929-7.678-2.929-10.607 0l-66.731 66.731v-36.837c0-4.142-3.357-7.5-7.5-7.5s-7.5 3.358-7.5 7.5v36.837l-66.731-66.731c-2.93-2.929-7.678-2.929-10.607 0s-2.929 7.678 0 10.606l77.339 77.339v22.263z" fill="#c99c56"/></g></g></g><g><g><circle cx="134.858" cy="378.31" fill="#fed402" r="74.463"/></g><g><path d="m91.866 378.31c0-35.724 25.163-65.559 58.728-72.782-5.074-1.092-10.335-1.681-15.736-1.681-41.125 0-74.463 33.338-74.463 74.463s33.338 74.463 74.463 74.463c5.401 0 10.661-.589 15.736-1.681-33.566-7.223-58.728-37.058-58.728-72.782z" fill="#fac600"/></g><path d="m142.859 370.81h-16.004c-3.849 0-6.98-3.131-6.98-6.98s3.132-6.98 6.98-6.98h28.198c4.143 0 7.5-3.358 7.5-7.5s-3.357-7.5-7.5-7.5h-12.696v-7.361c0-4.142-3.357-7.5-7.5-7.5s-7.5 3.358-7.5 7.5v7.361h-.502c-12.12 0-21.98 9.86-21.98 21.98s9.86 21.98 21.98 21.98h16.004c3.849 0 6.98 3.131 6.98 6.98s-3.132 6.98-6.98 6.98h-28.197c-4.143 0-7.5 3.358-7.5 7.5s3.357 7.5 7.5 7.5h12.695v7.361c0 4.142 3.357 7.5 7.5 7.5s7.5-3.358 7.5-7.5v-7.361h.502c12.12 0 21.98-9.86 21.98-21.98.001-12.119-9.859-21.98-21.98-21.98z" fill="#c99c56"/></g><g><path d="m275.454 446.273v-87.409c0-2.806-2.274-5.08-5.08-5.08h-23.929c-2.806 0-5.08 2.274-5.08 5.08v87.409z" fill="#fd5426"/><path d="m257.326 446.273v-87.409c0-2.806 2.275-5.08 5.08-5.08h-15.961c-2.806 0-5.08 2.274-5.08 5.08v87.409z" fill="#ef4424"/><path d="m341.361 446.273v-160.084c0-2.806-2.275-5.08-5.08-5.08h-23.929c-2.806 0-5.08 2.274-5.08 5.08v160.084z" fill="#fed402"/><path d="m323.306 446.273v-160.084c0-2.806 2.274-5.08 5.08-5.08h-16.035c-2.806 0-5.08 2.274-5.08 5.08v160.084z" fill="#fac600"/><path d="m407.268 446.273v-191.41c0-2.806-2.275-5.08-5.08-5.08h-23.929c-2.806 0-5.08 2.274-5.08 5.08v191.41z" fill="#01d0fb"/><path d="m389.711 446.273v-191.41c0-2.806 2.274-5.08 5.08-5.08h-16.532c-2.806 0-5.08 2.274-5.08 5.08v191.41z" fill="#01c0fa"/><path d="m473.174 446.273v-244.037c0-2.806-2.274-5.08-5.08-5.08h-23.929c-2.806 0-5.08 2.274-5.08 5.08v244.037z" fill="#05e39c"/><path d="m454.677 446.273v-244.037c0-2.806 2.274-5.08 5.08-5.08h-15.592c-2.806 0-5.08 2.274-5.08 5.08v244.037z" fill="#0ed290"/></g><path d="m504.5 445.273h-322.467c21.021-14.854 34.787-39.323 34.787-66.963 0-45.195-36.769-81.963-81.963-81.963s-81.963 36.769-81.963 81.963 36.769 81.963 81.963 81.963h369.643c4.143 0 7.5-3.358 7.5-7.5s-3.357-7.5-7.5-7.5zm-436.605-66.963c0-36.924 30.039-66.963 66.963-66.963s66.963 30.04 66.963 66.963-30.039 66.963-66.963 66.963-66.963-30.04-66.963-66.963z" fill="#e8b800"/><g><path d="m419.51 81.769-175.448 175.448c-6.531 6.531-6.531 17.121 0 23.652 6.531 6.531 17.121 6.531 23.652 0l175.448-175.448c1.189-1.189 3.117-1.189 4.307 0l10.954 10.954c1.757 1.757 4.766.783 5.16-1.67l9.552-59.449c.327-2.038-1.425-3.804-3.465-3.494l-59.883 9.118c-2.468.376-3.46 3.399-1.695 5.164l11.419 11.419c1.188 1.189 1.188 3.117-.001 4.306z" fill="#7ca1b1"/></g><g><g><path d="m265.269 280.87c-6.531-6.531-6.531-17.121 0-23.652l175.448-175.449c1.189-1.189 1.189-3.117 0-4.307l-18.479-18.478-12.452 1.896c-2.468.376-3.46 3.399-1.695 5.164l11.419 11.419c1.189 1.189 1.189 3.117 0 4.307l-175.448 175.447c-6.531 6.531-6.531 17.121 0 23.652 6.139 6.139 15.86 6.505 22.43 1.105-.421-.345-.83-.711-1.223-1.104z" fill="#678d98"/></g></g></g></svg>