<svg id="Layer_1" enable-background="new 0 0 512 512" height="512" viewBox="0 0 512 512" width="512" xmlns="http://www.w3.org/2000/svg"><g><g><g><g><path d="m422.759 512h-358.955c-23.468 0-42.493-19.122-42.493-42.711v-469.289h401.448z" fill="#e9f2ff"/></g></g><path d="m371.25 0h51.509v512h-51.509z" fill="#deebff"/><g><path d="m101.53 471.152c0 22.56-18.195 40.848-40.64 40.848h-.758 389.917c22.445 0 40.64-18.288 40.64-40.848z" fill="#91a8dd"/></g><path d="m439.18 471.152c0 22.56-18.195 40.848-40.64 40.848h51.509c22.445 0 40.64-18.288 40.64-40.848z" fill="#7c96d1"/></g><path d="m94.149 315.725h104.957v56.79h-104.957z" fill="#ffba47"/><path d="m241.702 315.725h104.957v56.79h-104.957z" fill="#ffba47"/><g><g fill="#91a8dd"><path d="m346.659 128.125h-251.37c-4.267 0-7.726 3.459-7.726 7.726s3.459 7.726 7.726 7.726h251.37c4.268 0 7.726-3.459 7.726-7.726s-3.458-7.726-7.726-7.726z"/><path d="m95.289 96.058h251.37c4.268 0 7.726-3.459 7.726-7.726s-3.459-7.726-7.726-7.726h-251.37c-4.267 0-7.726 3.459-7.726 7.726s3.459 7.726 7.726 7.726z"/><path d="m346.659 175.645h-251.37c-4.267 0-7.726 3.459-7.726 7.726s3.459 7.726 7.726 7.726h251.37c4.268 0 7.726-3.459 7.726-7.726s-3.458-7.726-7.726-7.726z"/><path d="m283.02 230.892c0-4.267-3.459-7.726-7.726-7.726h-180.005c-4.267 0-7.726 3.459-7.726 7.726s3.459 7.726 7.726 7.726h180.005c4.267.001 7.726-3.459 7.726-7.726z"/></g><path d="m184.794 401.502h-76.334c-4.267 0-7.726 3.459-7.726 7.726s3.459 7.726 7.726 7.726h76.335c4.267 0 7.726-3.459 7.726-7.726s-3.46-7.726-7.727-7.726z" fill="#f55745"/><path d="m332.348 401.502h-76.335c-4.267 0-7.726 3.459-7.726 7.726s3.459 7.726 7.726 7.726h76.335c4.268 0 7.726-3.459 7.726-7.726s-3.458-7.726-7.726-7.726z" fill="#f55745"/></g></g></svg>