<svg id="Capa_1" enable-background="new 0 0 512 512" height="512" viewBox="0 0 512 512" width="512" xmlns="http://www.w3.org/2000/svg"><g><path d="m248.5 446.085c2.303-.994 4.837-1.549 7.5-1.549s5.197.556 7.5 1.549v-37.233h-15z" fill="#fac600"/><g><path d="m15.079 75.751v328.877c0 2.885 2.339 5.225 5.224 5.225h471.392c2.885 0 5.224-2.339 5.224-5.225v-328.877z" fill="#fdf6ec"/><g><path d="m46.873 404.628v-328.907h-31.794v328.907c0 2.885 2.339 5.225 5.224 5.225h31.794c-2.885-.001-5.224-2.34-5.224-5.225z" fill="#fef1da"/></g><g><path d="m438.589 284.086h-170.285c-7.882 0-14.272-6.39-14.272-14.272 0-7.882 6.39-14.272 14.272-14.272h170.285c7.882 0 14.272 6.39 14.272 14.272 0 7.882-6.39 14.272-14.272 14.272z" fill="#c8effe"/></g><g><g><path d="m506.776 28.464h-501.552c-2.885 0-5.224 2.339-5.224 5.225v37.838c0 2.885 2.339 5.224 5.224 5.224h501.551c2.885 0 5.224-2.339 5.224-5.224v-37.838c.001-2.886-2.338-5.225-5.223-5.225z" fill="#7ca1b1"/></g></g><g><path d="m117.029 28.464h-111.805c-2.885 0-5.224 2.339-5.224 5.225v37.838c0 2.885 2.339 5.224 5.224 5.224h111.804v-48.287z" fill="#537983"/></g><g><path d="m43.783 71.527v-37.838c0-2.885 2.339-5.224 5.224-5.224h-43.783c-2.885-.001-5.224 2.338-5.224 5.224v37.838c0 2.885 2.339 5.224 5.224 5.224h43.783c-2.885 0-5.224-2.339-5.224-5.224z" fill="#3e5959"/></g><g><g><path d="m214.362 215.661h-74.424l22.548 67.269 3.71 7.925c31.021-10.394 53.384-39.673 53.384-74.193z" fill="#fd5426"/><path d="m219.581 216.661c0-33.79-21.892-62.856-52.146-73.705v19.32c0 1.816-1.479 3.295-3.295 3.295h-81.857c-11.933 13.752-19.207 31.633-19.207 51.09 0 42.928 35.324 78.252 78.252 78.252 8.454 0 16.853-1.37 24.869-4.057l-24.869-74.195z" fill="#05e39c"/><path d="m89.111 216.661c0-19.459 7.267-37.343 19.203-51.09h-26.031c-11.933 13.752-19.207 31.633-19.207 51.09 0 42.928 35.324 78.252 78.252 78.252 4.39 0 8.763-.378 13.076-1.109-36.85-6.251-65.293-38.627-65.293-77.143z" fill="#0ed290"/></g><g><g><path d="m438.589 177.781h-170.285c-7.882 0-14.272-6.39-14.272-14.272 0-7.882 6.39-14.272 14.272-14.272h170.285c7.882 0 14.272 6.39 14.272 14.272 0 7.882-6.39 14.272-14.272 14.272z" fill="#c8effe"/></g><g><path d="m394.169 177.781v-28.545h-125.865c-7.882 0-14.272 6.39-14.272 14.272 0 7.882 6.39 14.272 14.272 14.272h125.865z" fill="#01d0fb"/></g><g><path d="m280.691 163.509c0-7.882 6.39-14.273 14.272-14.273h-26.659c-7.883 0-14.272 6.39-14.272 14.272 0 7.882 6.39 14.272 14.272 14.272h26.659c-7.882.001-14.272-6.389-14.272-14.271z" fill="#01c0fa"/></g><g><path d="m438.589 230.934h-170.285c-7.882 0-14.272-6.39-14.272-14.272 0-7.882 6.39-14.272 14.272-14.272h170.285c7.882 0 14.272 6.39 14.272 14.272 0 7.882-6.39 14.272-14.272 14.272z" fill="#c8effe"/></g><g><path d="m268.304 202.389c-7.882 0-14.272 6.39-14.272 14.272s6.39 14.272 14.272 14.272h74.779v-28.545h-74.779z" fill="#01d0fb"/></g><g><path d="m280.268 216.661c0-7.882 6.39-14.272 14.272-14.272h-26.237c-7.883 0-14.272 6.39-14.272 14.272s6.39 14.272 14.272 14.272h26.237c-7.882.001-14.272-6.389-14.272-14.272z" fill="#01c0fa"/></g><g><path d="m268.304 255.541c-7.882 0-14.272 6.39-14.272 14.272s6.39 14.272 14.272 14.272h115.648v-28.545h-115.648z" fill="#01d0fb"/></g><g><path d="m280.606 269.814c0-7.882 6.39-14.272 14.272-14.272h-26.575c-7.883 0-14.272 6.39-14.272 14.272s6.39 14.272 14.272 14.272h26.575c-7.882 0-14.272-6.39-14.272-14.272z" fill="#01c0fa"/></g></g></g></g><g><circle cx="256" cy="463.536" fill="#7ca1b1" r="20"/></g><g><path d="m255.437 463.536c0-7.516 4.152-14.057 10.282-17.474-2.879-1.604-6.189-2.526-9.718-2.526-11.046 0-20 8.954-20 20s8.954 20 20 20c3.529 0 6.84-.922 9.718-2.526-6.131-3.418-10.282-9.958-10.282-17.474z" fill="#678d98"/></g><g><g><path d="m164.14 166.571h-114.709c-2.372 0-4.295-1.923-4.295-4.295v-44.102c0-2.372 1.923-4.295 4.295-4.295h114.709c2.372 0 4.295 1.923 4.295 4.295v44.102c0 2.372-1.923 4.295-4.295 4.295z" fill="#fedf30"/></g><g><path d="m164.14 166.571h-114.709c-2.372 0-4.295-1.923-4.295-4.295v-44.102c0-2.372 1.923-4.295 4.295-4.295h114.709c2.372 0 4.295 1.923 4.295 4.295v44.102c0 2.372-1.923 4.295-4.295 4.295z" fill="#fff"/></g><g><path d="m80.162 162.276v-44.102c0-2.372 1.923-4.295 4.295-4.295h-35.026c-2.372 0-4.295 1.923-4.295 4.295v44.102c0 2.372 1.923 4.295 4.295 4.295h35.026c-2.372 0-4.295-1.923-4.295-4.295z" fill="#eef5f6"/></g><g><g><path d="m85.916 147.724h-15.025c-4.143 0-7.5-3.357-7.5-7.5s3.357-7.5 7.5-7.5h15.025c4.143 0 7.5 3.357 7.5 7.5s-3.357 7.5-7.5 7.5z" fill="#7ca1b1"/></g><g><path d="m142.68 147.724h-37.263c-4.143 0-7.5-3.357-7.5-7.5s3.357-7.5 7.5-7.5h37.263c4.143 0 7.5 3.357 7.5 7.5s-3.358 7.5-7.5 7.5z" fill="#7ca1b1"/></g></g></g><g><g fill="#fac600"><circle cx="350.718" cy="106.309" r="7.5"/><circle cx="375.718" cy="106.309" r="7.5"/><circle cx="400.718" cy="106.309" r="7.5"/><circle cx="425.718" cy="106.309" r="7.5"/><circle cx="450.718" cy="106.309" r="7.5"/></g><g><path d="m313.655 366.781v-32.161c0-4.143-3.357-7.5-7.5-7.5s-7.5 3.357-7.5 7.5v32.161z" fill="#01c0fa"/><path d="m263.5 366.781v-21.713c0-4.143-3.357-7.5-7.5-7.5s-7.5 3.357-7.5 7.5v21.713z" fill="#fe9901"/><path d="m363.811 366.781v-11.264c0-4.143-3.357-7.5-7.5-7.5s-7.5 3.357-7.5 7.5v11.264z" fill="#fd5426"/><path d="m288.577 366.781v-42.61c0-4.143-3.357-7.5-7.5-7.5s-7.5 3.357-7.5 7.5v42.61z" fill="#0ed290"/><path d="m439.043 366.781v-32.161c0-4.143-3.357-7.5-7.5-7.5s-7.5 3.357-7.5 7.5v32.161z" fill="#01c0fa"/><path d="m388.888 366.781v-21.713c0-4.143-3.357-7.5-7.5-7.5s-7.5 3.357-7.5 7.5v21.713z" fill="#fe9901"/><path d="m413.965 366.781v-42.61c0-4.143-3.357-7.5-7.5-7.5s-7.5 3.357-7.5 7.5v42.61z" fill="#0ed290"/><path d="m338.732 366.781v-42.61c0-4.143-3.357-7.5-7.5-7.5s-7.5 3.357-7.5 7.5v42.61z" fill="#0ed290"/><path d="m138.112 366.781v-32.161c0-4.143-3.357-7.5-7.5-7.5s-7.5 3.357-7.5 7.5v32.161z" fill="#01c0fa"/><path d="m87.957 366.781v-21.713c0-4.143-3.357-7.5-7.5-7.5s-7.5 3.357-7.5 7.5v21.713z" fill="#fe9901"/><path d="m113.035 366.781v-42.61c0-4.143-3.357-7.5-7.5-7.5s-7.5 3.357-7.5 7.5v42.61z" fill="#0ed290"/><path d="m188.268 366.781v-11.264c0-4.143-3.357-7.5-7.5-7.5s-7.5 3.357-7.5 7.5v11.264z" fill="#fd5426"/><path d="m213.345 366.781v-32.161c0-4.143-3.357-7.5-7.5-7.5s-7.5 3.357-7.5 7.5v32.161z" fill="#01c0fa"/><path d="m163.189 366.781v-21.713c0-4.143-3.357-7.5-7.5-7.5s-7.5 3.357-7.5 7.5v21.713z" fill="#fe9901"/><path d="m238.423 366.781v-11.264c0-4.143-3.357-7.5-7.5-7.5s-7.5 3.357-7.5 7.5v11.264z" fill="#fd5426"/></g></g><g><path d="m455.575 380.781h-387.657c-4.143 0-7.5-3.357-7.5-7.5s3.357-7.5 7.5-7.5h387.657c4.143 0 7.5 3.357 7.5 7.5s-3.357 7.5-7.5 7.5z" fill="#7ca1b1"/></g></g></svg>