<svg id="Capa_1" enable-background="new 0 0 512 512" height="512" viewBox="0 0 512 512" width="512" xmlns="http://www.w3.org/2000/svg"><g><g><path d="m506.013 96.002h-466.988l-5.987 1.032v358.22c0 8.534 6.918 15.453 15.453 15.453h77.618l7.891-2.707 7.353 2.707h70.321l8.326-2.707 6.919 2.707h269.629c8.534 0 15.453-6.918 15.453-15.453v-358.22z" fill="#fdf6ec"/><g><path d="m199.175 317.741c-.635 7.837-5.332 14.539-11.98 17.997l12.312 67.882h-45.986l12.387-68.295c-6.744-3.846-11.303-11.1-11.303-19.403v-2.329l-28.496 157.113h15.244l9.447-52.087h51.427l9.447 52.087h15.244z" fill="#537983"/></g><path d="m87.05 455.254v-358.22h-54.012v358.22c0 8.534 6.918 15.453 15.453 15.453h54.012c-8.534 0-15.453-6.919-15.453-15.453z" fill="#fef1da"/><g><path d="m512 97.034h-478.962v-45.434c0-5.692 4.614-10.307 10.307-10.307h458.348c5.692 0 10.307 4.614 10.307 10.307z" fill="#01d0fb"/></g><g><path d="m97.357 41.293h-54.012c-5.692 0-10.307 4.614-10.307 10.307v45.434h54.012v-45.434c0-5.693 4.615-10.307 10.307-10.307z" fill="#01c0fa"/></g><g><g><path d="m114.361 76.421h-44.319c-4.142 0-7.5-3.358-7.5-7.5s3.358-7.5 7.5-7.5h44.319c4.142 0 7.5 3.358 7.5 7.5s-3.358 7.5-7.5 7.5z" fill="#c8effe"/></g><g><circle cx="466.622" cy="68.92" fill="#05e39c" r="7.5"/></g><g><circle cx="445.622" cy="68.92" fill="#fed402" r="7.5"/></g><g><circle cx="424.622" cy="68.92" fill="#fd5426" r="7.5"/></g></g></g><g><g><g><g><path d="m153.605 303.121v12.801c0 12.882 10.443 23.325 23.325 23.325 12.882 0 23.325-10.443 23.325-23.325v-12.801z" fill="#a8d3d8"/></g></g><g><path d="m175.646 315.922v-12.801h-22.041v12.801c0 12.882 10.443 23.325 23.325 23.325 3.987 0 7.738-1.002 11.02-2.765-7.323-3.934-12.304-11.664-12.304-20.56z" fill="#8ebac5"/></g><g><path d="m140.385 270.907v28.082c0 2.851 2.311 5.161 5.161 5.161h72.257c8.551 0 15.484-6.932 15.484-15.484v-17.76h-92.902z" fill="#7ca1b1"/></g><g><path d="m174.616 298.99v-28.082h-34.23v28.082c0 2.851 2.311 5.161 5.161 5.161h34.23c-2.851 0-5.161-2.311-5.161-5.161z" fill="#678d98"/></g><path d="m5.161 213.313c-2.85 0-5.161 2.311-5.161 5.161v37.161c0 2.85 2.311 5.161 5.161 5.161h33.078c-.039-.513-.078-1.026-.078-1.548 0-11.117 9.044-20.161 20.161-20.161s20.161 9.044 20.161 20.161c0 .523-.039 1.036-.078 1.548h28.947v-47.483z" fill="#7ca1b1"/><g><path d="m26.057 255.636v-37.161c0-2.85 2.311-5.161 5.161-5.161h-26.057c-2.85 0-5.161 2.311-5.161 5.161v37.161c0 2.85 2.311 5.161 5.161 5.161h26.057c-2.85 0-5.161-2.311-5.161-5.161z" fill="#678d98"/></g><g><path d="m285.93 202.172h-169.286c-5.701 0-10.322 4.621-10.322 10.322v49.121c0 5.701 4.622 10.322 10.322 10.322h169.286z" fill="#a8d3d8"/></g><g><path d="m285.93 244.381h-137.048c-5.701 0-10.322-4.622-10.322-10.322v-31.887h-21.916c-5.701 0-10.322 4.621-10.322 10.322v49.121c0 5.701 4.622 10.322 10.322 10.322h169.286z" fill="#8ebac5"/></g><g><path d="m363.35 283.506h-73.289c-2.85 0-5.161-2.311-5.161-5.161v-82.58c0-2.85 2.311-5.161 5.161-5.161h73.289c2.85 0 5.161 2.311 5.161 5.161v82.58c0 2.85-2.31 5.161-5.161 5.161z" fill="#7ca1b1"/></g><g><path d="m363.35 283.506h-73.289c-2.85 0-5.161-2.311-5.161-5.161v-28.903h83.612v28.903c-.001 2.85-2.311 5.161-5.162 5.161z" fill="#537983"/></g><g><circle cx="58.322" cy="259.248" fill="#a8d3d8" r="21.161"/></g><g><path d="m54.085 259.248c0-8.676 5.227-16.124 12.699-19.39-2.593-1.133-5.451-1.771-8.462-1.771-11.687 0-21.161 9.474-21.161 21.161s9.474 21.161 21.161 21.161c3.011 0 5.869-.638 8.462-1.771-7.473-3.266-12.699-10.713-12.699-19.39z" fill="#8ebac5"/></g></g><g><g fill="#678d98"><path d="m339.163 156.361c-1.326-2.375-2.089-5.106-2.089-8.015 0-2.499.575-4.861 1.573-6.985h-138.288c.998 2.125 1.573 4.486 1.573 6.985 0 2.908-.763 5.639-2.089 8.015z"/><path d="m171.022 156.361c-1.326-2.375-2.089-5.106-2.089-8.015 0-2.499.575-4.861 1.573-6.985h-74.195c.998 2.125 1.573 4.486 1.573 6.985 0 2.908-.763 5.639-2.089 8.015z"/></g><g><circle cx="81.384" cy="148.346" fill="#fd5426" r="17.5"/></g><path d="m80 148.346c0-6.757 3.836-12.608 9.442-15.525-2.413-1.255-5.15-1.975-8.058-1.975-9.665 0-17.5 7.835-17.5 17.5s7.835 17.5 17.5 17.5c2.908 0 5.645-.72 8.058-1.975-5.606-2.917-9.442-8.768-9.442-15.525z" fill="#ef4424"/><g><circle cx="185.433" cy="148.346" fill="#fed402" r="17.5"/></g><path d="m184 148.346c0-6.766 3.847-12.624 9.466-15.536-2.408-1.248-5.135-1.964-8.034-1.964-9.665 0-17.5 7.835-17.5 17.5s7.835 17.5 17.5 17.5c2.899 0 5.626-.716 8.034-1.964-5.619-2.912-9.466-8.77-9.466-15.536z" fill="#fac600"/><g><circle cx="353.574" cy="148.346" fill="#05e39c" r="17.5"/></g><path d="m353 148.346c0-6.594 3.65-12.33 9.037-15.314-2.509-1.39-5.392-2.186-8.463-2.186-9.665 0-17.5 7.835-17.5 17.5s7.835 17.5 17.5 17.5c3.071 0 5.954-.797 8.463-2.186-5.387-2.984-9.037-8.72-9.037-15.314z" fill="#0ed290"/></g><g><g><g><path d="m295.115 424.001v-47.777c0-1.707-1.384-3.091-3.091-3.091h-20.779c-1.707 0-3.091 1.384-3.091 3.091v47.777z" fill="#fed402"/><path d="m283.13 373.134h-11.885c-1.707 0-3.091 1.384-3.091 3.091v47.777h11.885v-47.777c.001-1.708 1.385-3.091 3.091-3.091z" fill="#fac600"/><path d="m347.038 424.001v-105.145c0-1.707-1.384-3.091-3.091-3.091h-20.779c-1.707 0-3.091 1.384-3.091 3.091v105.145z" fill="#05e39c"/><path d="m334.091 315.766h-10.922c-1.707 0-3.091 1.384-3.091 3.091v105.145h10.922v-105.146c0-1.707 1.384-3.09 3.091-3.09z" fill="#0ed290"/><path d="m395.87 384.607h-20.779c-1.707 0-3.091 1.384-3.091 3.091v36.304h26.96v-36.304c.001-1.707-1.383-3.091-3.09-3.091z" fill="#fd5426"/><path d="m387.091 384.607h-11.999c-1.707 0-3.091 1.384-3.091 3.091v36.304h11.999v-36.304c0-1.707 1.384-3.091 3.091-3.091z" fill="#ef4424"/><path d="m450.884 424.001v-82.198c0-1.707-1.384-3.091-3.091-3.091h-20.779c-1.707 0-3.091 1.384-3.091 3.091v82.198z" fill="#01d0fb"/><path d="m438.13 338.713h-11.116c-1.707 0-3.091 1.384-3.091 3.091v82.198h11.116v-82.198c.001-1.707 1.385-3.091 3.091-3.091z" fill="#01c0fa"/></g><g><path d="m469.357 438.002h-219.675c-4.142 0-7.5-3.358-7.5-7.5s3.358-7.5 7.5-7.5h219.675c4.142 0 7.5 3.358 7.5 7.5s-3.358 7.5-7.5 7.5z" fill="#8ebac5"/></g></g></g><g><g><path d="m469.357 175.571h-62.871c-4.142 0-7.5-3.358-7.5-7.5s3.358-7.5 7.5-7.5h62.871c4.142 0 7.5 3.358 7.5 7.5s-3.358 7.5-7.5 7.5z" fill="#0ed290"/></g><g><path d="m469.357 204.43h-62.871c-4.142 0-7.5-3.358-7.5-7.5s3.358-7.5 7.5-7.5h62.871c4.142 0 7.5 3.358 7.5 7.5s-3.358 7.5-7.5 7.5z" fill="#0ed290"/></g><g><path d="m469.357 233.289h-62.871c-4.142 0-7.5-3.358-7.5-7.5s3.358-7.5 7.5-7.5h62.871c4.142 0 7.5 3.358 7.5 7.5s-3.358 7.5-7.5 7.5z" fill="#0ed290"/></g><g><path d="m469.357 262.148h-62.871c-4.142 0-7.5-3.358-7.5-7.5s3.358-7.5 7.5-7.5h62.871c4.142 0 7.5 3.358 7.5 7.5s-3.358 7.5-7.5 7.5z" fill="#0ed290"/></g><g><path d="m469.357 291.006h-62.871c-4.142 0-7.5-3.358-7.5-7.5s3.358-7.5 7.5-7.5h62.871c4.142 0 7.5 3.358 7.5 7.5s-3.358 7.5-7.5 7.5z" fill="#0ed290"/></g></g></g></g></svg>