<svg id="Capa_1" enable-background="new 0 0 512 512" height="512" viewBox="0 0 512 512" width="512" xmlns="http://www.w3.org/2000/svg"><g><path d="m195 240h-150c-24.813 0-45-20.187-45-45v-150c0-24.813 20.187-45 45-45h150c24.813 0 45 20.187 45 45v150c0 24.813-20.187 45-45 45z" fill="#ffeb99"/><path d="m195 0h-75v240h75c24.813 0 45-20.187 45-45v-150c0-24.813-20.187-45-45-45z" fill="#ffcd00"/><path d="m195 512h-150c-24.813 0-45-20.187-45-45v-150c0-24.813 20.187-45 45-45h150c24.813 0 45 20.187 45 45v150c0 24.813-20.187 45-45 45z" fill="#bee75e"/><path d="m195 272h-75v240h75c24.813 0 45-20.187 45-45v-150c0-24.813-20.187-45-45-45z" fill="#00da80"/><path d="m467 512h-150c-24.813 0-45-20.187-45-45v-150c0-24.813 20.187-45 45-45h150c24.813 0 45 20.187 45 45v150c0 24.813-20.187 45-45 45z" fill="#ff80aa"/><path d="m467 272h-75v240h75c24.813 0 45-20.187 45-45v-150c0-24.813-20.187-45-45-45z" fill="#ff3c7d"/><path d="m467 240h-150c-24.813 0-45-20.187-45-45v-150c0-24.813 20.187-45 45-45h150c24.813 0 45 20.187 45 45v150c0 24.813-20.187 45-45 45z" fill="#999fed"/><path d="m467 0h-75v240h75c24.813 0 45-20.187 45-45v-150c0-24.813-20.187-45-45-45z" fill="#7c84e8"/><g fill="#f1f1f4"><path d="m424.471 185c-7.293 0-13.817-4.602-16.261-11.481-.071-.2-.138-.401-.2-.604l-16.015-51.983-16.087 51.975c-.041.132-.083.264-.128.396-2.363 6.948-8.882 11.649-16.222 11.698-.039-.001-.079-.001-.117-.001-7.293 0-13.817-4.602-16.261-11.481-.245-.688-.438-1.394-.58-2.109l-19.483-98.498c-1.607-8.127 3.677-16.019 11.804-17.626 8.126-1.608 16.018 3.678 17.625 11.804l9.634 48.706 15.159-48.976c1.294-5.979 6.166-10.709 12.428-11.652 7.336-1.107 14.383 3.322 16.568 10.417l15.465 50.198 9.658-48.526c1.617-8.125 9.514-13.4 17.639-11.784 8.125 1.617 13.401 9.515 11.784 17.64l-19.561 98.286c-.128.645-.299 1.28-.511 1.903-2.363 6.948-8.882 11.649-16.222 11.698-.039 0-.078 0-.116 0z"/><path d="m419.613 327h-55.226c-8.284 0-15 6.716-15 15s6.716 15 15 15h12.613v85c0 8.284 6.716 15 15 15s15-6.716 15-15v-85h12.613c8.284 0 15-6.716 15-15s-6.716-15-15-15z"/><path d="m120 457c-35.841 0-65-29.159-65-65s29.159-65 65-65 65 29.159 65 65-29.159 65-65 65zm0-100c-19.299 0-35 15.701-35 35s15.701 35 35 35 35-15.701 35-35-15.701-35-35-35z"/><path d="m122.373 185c-17.805 0-34.529-7.187-45.884-19.718-5.563-6.139-5.096-15.625 1.043-21.188 6.138-5.562 15.625-5.096 21.188 1.043 5.596 6.176 14.438 9.862 23.653 9.862 9.064 0 14.273-5.526 14.94-9.261.807-4.521-5.395-8.526-11.467-10.767-15.552-5.736-29.366-11.885-29.947-12.145-.722-.322-1.418-.701-2.081-1.133-11.354-7.402-17.204-20.381-15.268-33.87 2.055-14.312 12.479-25.958 27.206-30.394 27.163-8.187 51.267 6.055 56.571 15.982 3.904 7.307 1.146 16.395-6.16 20.299-6.478 3.463-14.356 1.687-18.781-3.853-1.759-1.302-10.862-7.355-22.978-3.704-5.01 1.51-5.979 4.651-6.163 5.933-.139.963-.12 2.658 1.303 3.97 3.835 1.675 14.865 6.41 26.678 10.768 26.638 9.825 33.283 29.268 30.619 44.187-3.515 19.695-22.219 33.989-44.472 33.989zm13.496-97.447c.002.004.004.008.006.012-.002-.004-.004-.008-.006-.012z"/></g><path d="m449.097 55.472c-8.125-1.616-16.022 3.659-17.639 11.784l-9.658 48.526-15.465-50.198c-1.962-6.37-7.845-10.577-14.335-10.572v65.936l16.009 51.966c.062.203.129.404.2.604 2.444 6.88 8.968 11.481 16.261 11.481.039 0 .078 0 .116-.001 7.339-.049 13.858-4.75 16.222-11.698.212-.623.382-1.259.511-1.903l19.561-98.286c1.618-8.125-3.658-16.022-11.783-17.639z" fill="#e2dff4"/><path d="m419.613 327h-27.613v130c8.284 0 15-6.716 15-15v-85h12.613c8.284 0 15-6.716 15-15s-6.716-15-15-15z" fill="#e2dff4"/><g fill="#e2dff4"><path d="m136.228 106.826c-5.865-2.163-11.534-4.419-16.228-6.348v32.29c1.905.733 3.861 1.471 5.846 2.204 6.073 2.24 12.274 6.245 11.467 10.767-.667 3.734-5.876 9.261-14.94 9.261-.795 0-1.585-.037-2.373-.091v30.032c.79.029 1.579.06 2.373.06 22.253 0 40.957-14.294 44.473-33.987 2.664-14.92-3.981-34.363-30.618-44.188z"/><path d="m137.387 89.86c4.424 5.539 12.303 7.315 18.781 3.853 7.307-3.904 10.064-12.992 6.16-20.299-4.352-8.145-21.361-19.183-42.328-18.368v30.044c9.261-.759 15.911 3.678 17.387 4.77z"/></g><path d="m155 392c0 19.299-15.701 35-35 35v30c35.841 0 65-29.159 65-65s-29.159-65-65-65v30c19.299 0 35 15.701 35 35z" fill="#e2dff4"/></g></svg>