<svg xmlns="http://www.w3.org/2000/svg" xmlns:xlink="http://www.w3.org/1999/xlink" version="1.1" width="256" height="256" viewBox="0 0 256 256" xml:space="preserve">
<desc>Created with Fabric.js 1.7.22</desc>
<defs>
</defs>
<g transform="translate(128 128) scale(0.72 0.72)" style="">
	<g style="stroke: none; stroke-width: 0; stroke-dasharray: none; stroke-linecap: butt; stroke-linejoin: miter; stroke-miterlimit: 10; fill: none; fill-rule: nonzero; opacity: 1;" transform="translate(-175.05 -175.05000000000004) scale(3.89 3.89)" >
	<path d="M 53.248 58.466 c -1.104 0 -1.999 -0.895 -1.999 -1.999 V 39.738 l -4.625 6.43 C 46.248 46.69 45.643 47 45 47 s -1.248 -0.309 -1.623 -0.832 l -4.625 -6.43 v 16.729 c 0 1.104 -0.895 1.999 -1.999 1.999 c -1.104 0 -1.999 -0.895 -1.999 -1.999 V 33.533 c 0 -0.868 0.56 -1.637 1.386 -1.903 c 0.825 -0.267 1.729 0.032 2.236 0.736 L 45 41.576 l 6.624 -9.21 c 0.509 -0.705 1.415 -0.999 2.237 -0.736 c 0.826 0.267 1.386 1.035 1.386 1.903 v 22.933 C 55.247 57.571 54.352 58.466 53.248 58.466 z" style="stroke: none; stroke-width: 1; stroke-dasharray: none; stroke-linecap: butt; stroke-linejoin: miter; stroke-miterlimit: 10; fill: rgb(0,0,0); fill-rule: nonzero; opacity: 1;" transform=" matrix(1 0 0 1 0 0) " stroke-linecap="round" />
	<path d="M 25.434 58.466 h -7.484 c -1.104 0 -1.999 -0.895 -1.999 -1.999 s 0.895 -1.999 1.999 -1.999 h 7.484 c 1.094 0 1.984 -0.89 1.984 -1.984 v -3.5 c 0 -1.093 -0.89 -1.984 -1.984 -1.984 h -4.167 c -3.299 0 -5.983 -2.684 -5.983 -5.983 v -3.5 c 0 -3.299 2.684 -5.983 5.983 -5.983 h 5.372 c 1.104 0 1.999 0.895 1.999 1.999 s -0.895 1.999 -1.999 1.999 h -5.372 c -1.094 0 -1.984 0.89 -1.984 1.984 v 3.5 c 0 1.094 0.89 1.984 1.984 1.984 h 4.167 c 3.299 0 5.983 2.684 5.983 5.983 v 3.5 C 31.417 55.782 28.733 58.466 25.434 58.466 z" style="stroke: none; stroke-width: 1; stroke-dasharray: none; stroke-linecap: butt; stroke-linejoin: miter; stroke-miterlimit: 10; fill: rgb(0,0,0); fill-rule: nonzero; opacity: 1;" transform=" matrix(1 0 0 1 0 0) " stroke-linecap="round" />
	<path d="M 68.733 58.466 h -7.483 c -1.104 0 -1.999 -0.895 -1.999 -1.999 s 0.895 -1.999 1.999 -1.999 h 7.483 c 1.093 0 1.984 -0.89 1.984 -1.984 v -3.5 c 0 -1.093 -0.89 -1.984 -1.984 -1.984 h -4.167 c -3.299 0 -5.983 -2.684 -5.983 -5.983 v -3.5 c 0 -3.299 2.684 -5.983 5.983 -5.983 h 5.372 c 1.104 0 1.999 0.895 1.999 1.999 s -0.895 1.999 -1.999 1.999 h -5.372 c -1.093 0 -1.984 0.89 -1.984 1.984 v 3.5 c 0 1.094 0.89 1.984 1.984 1.984 h 4.167 c 3.299 0 5.983 2.684 5.983 5.983 v 3.5 C 74.715 55.782 72.031 58.466 68.733 58.466 z" style="stroke: none; stroke-width: 1; stroke-dasharray: none; stroke-linecap: butt; stroke-linejoin: miter; stroke-miterlimit: 10; fill: rgb(0,0,0); fill-rule: nonzero; opacity: 1;" transform=" matrix(1 0 0 1 0 0) " stroke-linecap="round" />
	<path d="M 44.999 90 c -11.593 0 -23.105 -4.479 -31.822 -13.195 C 4.68 68.307 0 57.008 0 44.991 c 0 -12.018 4.68 -23.316 13.178 -31.813 C 21.675 4.68 32.974 0 44.991 0 c 0 0 0 0 0 0 c 12.017 0 23.316 4.68 31.813 13.178 l 0 0 c 15.168 15.168 17.507 38.807 5.733 56.593 l 5.722 15.931 c 0.262 0.728 0.08 1.543 -0.468 2.089 c -0.548 0.548 -1.36 0.732 -2.089 0.468 l -15.931 -5.722 C 62.206 87.546 53.58 89.999 44.999 90 z M 44.991 3.999 c -10.95 0 -21.243 4.264 -28.986 12.006 S 3.999 34.042 3.999 44.991 c 0 10.949 4.264 21.243 12.006 28.986 c 14.044 14.043 36.056 16.017 52.344 4.692 c 0.532 -0.368 1.21 -0.457 1.817 -0.239 l 12.897 4.632 L 78.43 70.166 c -0.219 -0.608 -0.13 -1.286 0.239 -1.817 c 11.324 -16.286 9.351 -38.3 -4.692 -52.344 l 0 0 C 66.234 8.263 55.94 3.999 44.991 3.999 z" style="stroke: none; stroke-width: 1; stroke-dasharray: none; stroke-linecap: butt; stroke-linejoin: miter; stroke-miterlimit: 10; fill: rgb(0,0,0); fill-rule: nonzero; opacity: 1;" transform=" matrix(1 0 0 1 0 0) " stroke-linecap="round" />
</g>
</g>
</svg>