<svg viewBox="0 0 20 20" xmlns="http://www.w3.org/2000/svg"><path fill-rule="evenodd" d="M18.867 12.48A4.53 4.53 0 0020 9.304v-.19a9.998 9.998 0 00-1.916-5.041A10.017 10.017 0 008.464.129a10.025 10.025 0 00-4.91 2.244A10.005 10.005 0 00.25 12.22a10.002 10.002 0 002.566 4.744 10.021 10.021 0 004.66 2.725 19.9 19.9 0 004.007.31h1.152c.376 0 .735-.195.986-.474A1.47 1.47 0 0014 18.507a1.5 1.5 0 00-1.5-1.5c-.399 0-.795-.167-1.076-.448a1.5 1.5 0 011.062-2.562h3.366a4.54 4.54 0 003.015-1.517zM12 3.5a1.5 1.5 0 11-3 0 1.5 1.5 0 013 0zM5.5 7a1.5 1.5 0 100-3 1.5 1.5 0 000 3zm-1 5a1.5 1.5 0 100-3 1.5 1.5 0 000 3zm10-4a1.5 1.5 0 100-3 1.5 1.5 0 000 3z" fill="#5C5F62"/></svg>
