<svg viewBox="0 0 20 20" xmlns="http://www.w3.org/2000/svg">
<path d="M19.101 3.291L16.709 0.898493L17.1074 0.500006C17.768 -0.160769 18.8393 -0.160769 19.4999 0.500006C20.1603 1.16058 20.1603 2.23142 19.4999 2.89199L19.101 3.291ZM15.6108 1.99445L18.0028 4.38696L11.5 10.8902L8.33154 11.6668L9.10798 8.49765L15.6108 1.99445ZM3 3V14H6.5C7.27479 14 7.88768 14.6623 8.42584 15.2439C8.43448 15.2532 8.44313 15.2625 8.45177 15.2719C8.48023 15.3026 8.50865 15.3333 8.53657 15.3632C8.90168 15.755 9.42223 16 10 16C10.5778 16 11.0983 15.755 11.4634 15.3632C11.497 15.3272 11.5309 15.2906 11.5651 15.2536L11.5739 15.2441L11.5742 15.2437L11.5742 15.2437C12.1124 14.6623 12.7254 14 13.5 14H17V11C17 10.4477 17.4477 9.99999 18 9.99999C18.5523 9.99999 19 10.4477 19 11V17.5C19 18.3284 18.3284 19 17.5 19H2.5C1.67157 19 1 18.3284 1 17.5V2.5C1 1.67157 1.67157 1 2.5 1H9C9.55229 1 10 1.44772 10 2C10 2.55228 9.55228 3 9 3H3Z" fill="#5C5F62"/>
</svg>
